/* XPM */
static char *eced74f07d904a00f5b8eda0cc4adbdeydlnUiqok7se2UhN[] = {
/* columns rows colors chars-per-pixel */
"72 72 241 2 ",
"   c #030102",
".  c #070605",
"X  c #03010A",
"o  c #160004",
"O  c #14010B",
"+  c #1A020C",
"@  c #01160A",
"#  c #171805",
"$  c #070915",
"%  c #150A15",
"&  c #091314",
"*  c #18161A",
"=  c #23030B",
"-  c #37020B",
";  c #290817",
":  c #311215",
">  c #32181D",
",  c #102A1B",
"<  c #31370E",
"1  c #071A26",
"2  c #07142D",
"3  c #191C23",
"4  c #261924",
"5  c #351928",
"6  c #2B0F31",
"7  c #0F2B2E",
"8  c #2B262A",
"9  c #3D2736",
"0  c #312E34",
"q  c #41000F",
"w  c #470412",
"e  c #580518",
"r  c #483912",
"t  c #480923",
"y  c #4E0E2C",
"u  c #58172C",
"i  c #5D1B39",
"p  c #6D0E2F",
"a  c #781A38",
"s  c #49283A",
"d  c #4F3139",
"f  c #6A2D37",
"g  c #355A37",
"h  c #63562E",
"j  c #2D194A",
"k  c #312F4D",
"l  c #2B316F",
"z  c #441243",
"x  c #5C2C43",
"c  c #4C3448",
"v  c #563545",
"b  c #702A4D",
"n  c #6E3C55",
"m  c #621168",
"M  c #55316C",
"N  c #284B4B",
"B  c #1E4474",
"V  c #2F4B69",
"C  c #584547",
"Z  c #51504D",
"A  c #674958",
"S  c #6F5554",
"D  c #716147",
"F  c #4F4A6E",
"G  c #775066",
"H  c #6D6D6F",
"J  c #747569",
"K  c #797A6C",
"L  c #777970",
"P  c #7D7D70",
"I  c #8E0E32",
"U  c #91183A",
"Y  c #AB0C3A",
"T  c #AE762C",
"R  c #901949",
"E  c #B21246",
"W  c #8B2D4E",
"Q  c #A82648",
"!  c #B8275E",
"~  c #9B2A6F",
"^  c #C81A4C",
"/  c #D62356",
"(  c #985F5A",
")  c #8B506D",
"_  c #995D78",
"`  c #AB5273",
"'  c #90726F",
"]  c #95657C",
"[  c #817F71",
"{  c #A96A7A",
"}  c #6B9C33",
"|  c #6A824E",
" . c #7F8070",
".. c #A69B15",
"X. c #D58E09",
"o. c #C8AA00",
"O. c #FFDF15",
"+. c #838370",
"@. c #898770",
"#. c #878870",
"$. c #8C8C70",
"%. c #908F70",
"&. c #97847D",
"*. c #8F9070",
"=. c #949470",
"-. c #9A9670",
";. c #979970",
":. c #9B9B70",
">. c #BF9F64",
",. c #A19E70",
"<. c #9FA070",
"1. c #A4A470",
"2. c #AAA570",
"3. c #A7A870",
"4. c #AAAA70",
"5. c #B1A770",
"6. c #B3AE70",
"7. c #B9AF70",
"8. c #B4A77C",
"9. c #B6B170",
"0. c #BDB370",
"q. c #C3B570",
"w. c #C5B870",
"e. c #2F3C80",
"r. c #164D86",
"t. c #766A80",
"y. c #AB149F",
"u. c #AF2598",
"i. c #B92BB8",
"p. c #C0379F",
"a. c #CB33B5",
"s. c #AF5293",
"d. c #947987",
"f. c #997493",
"g. c #A56785",
"h. c #B7688A",
"j. c #A77989",
"k. c #B96C91",
"l. c #AA7890",
"z. c #B87A97",
"x. c #AF42AF",
"c. c #B86DB3",
"v. c #CD6F94",
"b. c #E57491",
"n. c #CD52AC",
"m. c #C94ABA",
"M. c #C656B7",
"N. c #DC78A1",
"B. c #D969B1",
"V. c #EB72AF",
"C. c #E576BC",
"Z. c #BE29CA",
"A. c #BC33C7",
"S. c #C538CB",
"D. c #C32DD4",
"F. c #CE2CD5",
"G. c #C639D4",
"H. c #E23FD6",
"J. c #D13AE4",
"K. c #B349C5",
"L. c #CE5AC9",
"P. c #D856CB",
"I. c #C448D4",
"U. c #D047D6",
"Y. c #D452DA",
"T. c #EB53CC",
"R. c #D864C6",
"E. c #CE74CB",
"W. c #E367C6",
"Q. c #ED77CF",
"!. c #E368D5",
"~. c #CE42E3",
"^. c #D742E9",
"/. c #E66AEA",
"(. c #728987",
"). c #928B91",
"_. c #A88686",
"`. c #AA8E8D",
"'. c #B69786",
"]. c #B9859C",
"[. c #B99995",
"{. c #93A49D",
"}. c #B9A586",
"|. c #BAA393",
" X c #B398A5",
".X c #AEACB4",
"XX c #CC908E",
"oX c #C8889A",
"OX c #CA979A",
"+X c #D9969C",
"@X c #E3909B",
"#X c #CCA78B",
"$X c #CAAA9A",
"%X c #E2AF9F",
"&X c #C887A5",
"*X c #D788A8",
"=X c #C998AA",
"-X c #D592A9",
";X c #D48BB7",
":X c #C698B2",
">X c #D698B6",
",X c #E498A3",
"<X c #F096A8",
"1X c #CCA7A3",
"2X c #D8A8AC",
"3X c #DCB1A7",
"4X c #D8A8BA",
"5X c #F5AFAE",
"6X c #E1A7B6",
"7X c #ADC4B4",
"8X c #F7C5BE",
"9X c #DFFEA0",
"0X c #AC90C1",
"qX c #B5B4C2",
"wX c #D891C8",
"eX c #F88ED4",
"rX c #CCAFC1",
"tX c #E8A6C4",
"yX c #ECB1C7",
"uX c #FCA6D9",
"iX c #EABBD7",
"pX c #FCB6D9",
"aX c #FE87E3",
"sX c #FB98E5",
"dX c #FDA8EE",
"fX c #FBB7E4",
"gX c #D8D3D3",
"hX c #F3CCD1",
"jX c #F8E8C7",
"kX c #DBD3E2",
"lX c #F4D7EC",
"zX c #D9EBEC",
"xX c #F1F2E6",
"cX c #FEF8EB",
"vX c #F7E9F4",
"bX c #E7FBF9",
"nX c #EEFBFC",
"mX c #F9F8F6",
"MX c #FDF4FE",
"NX c #F5FEFE",
"BX c #FDFDFF",
/* pixels */
"P P P P P P +.=.:.3.4.9.4.4.4.3.,.:.;.$.+.+.P P P +.$.=.<.3.4.6.6.6.4.6.4.4.4.4.4.4.4.2.3.1.1.:.:.:.:.:.1.2.4.6.6.4.3.<.=.#.+. .P P P P L P +.$.",
"P P P P K +.$.=.:.3.4.4.4.4.3.3.4.:.:.=.+.P P  .+.#.*.:.1.3.4.6.9.9.9.9.6.4.4.4.4.4.4.3.1.:.:.:.:.:.:.1.3.2.4.4.4.4.3.<.;.*.#.+.+.P P P P +.$.%.",
"+.+.P [ +.$.=.:.1.1.4.4.4.3.4.3.2.3.3.=.$.+.+.+.*.=.:.<.1.3.4.9.9.0.q.0.9.4.4.4.4.4.3.<.=.=.=.=.:.:.1.3.3.3.3.4.4.4.4.3.1.:.;.=.#.+.K +.+.$.=.=.",
"+.+.+.+.#.=.:.:.1.3.2.4.4.4.4.4.4.3.1.:.$.+. .#.=.<.3.3.3.4.4.9.0.w.q.0.9.4.3.4.4.4.1.:.$.#.+.$.:.1.3.2.4.3.4.4.4.4.4.4.3.3.1.=.#.+.+.+.$.=.:.:.",
"#.+.+.+.$.=.:.:.1.3.4.3.2.4.3.3.2.3.1.=.@.[ [ %.:.4.4.6.4.4.4.9.q.q.q.0.6.4.4.3.4.4.1.:.#.+.+.$.:.1.4.4.4.4.3.4.4.4.4.4.4.4.3.:.$.+.+.+.$.=.,.:.",
"#.#.+.+.%.=.:.1.1.3.4.4.3.4.3.3.1.:.=.=.+.[ $.=.2.6.0.9.4.4.4.4.7.0.q.0.6.4.4.3.4.4.1.=.#.P  .#.:.1.4.4.4.4.4.3.3.4.4.4.4.4.4.:.%.+.+.+.%.=.:.1.",
"$.+.+.+.$.=.:.:.1.3.4.4.4.4.3.,.:.=.$.+.P P K :.5.q.q.0.9.4.4.4.5.6.7.5.4.4.3.3.4.4.1.:.$.+.+.+.=.1.4.4.4.4.3.3.3.4.4.4.4.4.2.:.$.+.+.+.$.=.:.:.",
"#.@.+.+.$.=.:.1.1.3.4.4.4.2.3.:.=.@.[ P L P @.-.5.q.q.q.9.4.4.4.4.4.4.4.4.4.3.4.4.2.1.:.#.+.+.+.:.3.4.4.4.4.3.2.4.3.4.4.4.4.3.:.$.+.+.+.*.=.:.:.",
"@.+.+.+.*.=.:.1.1.3.4.4.4.4.3.:.$.+.+.L L  .$.,.5.q.q.q.9.2.3.1.3.3.3.3.3.4.4.4.4.3.3.:.$.$.+.=.:.3.4.4.4.3.3.3.3.3.4.4.4.3.1.:.$.+.+.+.$.=.:.:.",
"+.+.+.+.=.:.:.1.3.2.4.6.6.4.3.:.$.K P P +.#.-.,.5.7.7.7.3.1.1.1.3.3.3.3.4.3.3.4.4.4.3.:.=.#.$.=.<.4.4.4.4.4.4.4.3.4.2.3.3.1.,.=.+.+.+.$.=.:.:.3.",
"+.+.+.$.;.<.3.3.4.4.4.4.6.4.3.;.$. .K #.=.:.:.,.2.,.2.,.,.:.:.<.1.3.4.4.4.3.3.4.4.4.3.,.:.=.=.:.1.3.4.4.4.4.2.3.2.4.4.3.3.1.:.=.$.+.+.$.-.:.4.3.",
"+.+.+.$.:.3.3.4.2.4.4.4.4.4.1.:.@.+.+.@.=.1.3.3.,.,.:.:.-.:.:.1.1.3.4.4.4.4.3.2.4.2.1.1.:.:.=.:.1.3.3.4.2.4.3.4.4.4.3.3.1.:.=.*.+.+.+.$.:.3.3.4.",
"+.+.+.$.:.1.3.2.3.3.1.3.3.3.<.;.$.#.#.$.:.1.3.3.,.:.:.*.=.:.:.:.<.1.4.3.3.3.3.3.3.3.1.:.:.-.=.:.:.1.1.3.3.2.3.3.2.4.3.3.:.=.=.#.+.P +.$.:.1.3.4.",
"K +.+.$.:.1.3.1.:.:.-.:.:.;.;.;.=.$.*.=.:.1.3.1.,.:.:.:.:.:.:.:.:.:.:.:.1.,.1.1.1.1.1.:.=.=.=.=.=.:.:.,.3.4.4.4.3.1.1.:.=.=.#.+.P P +.$.-.1.3.3.",
"P P +.#.-.:.1.:.=.$.#.#.#.#.$.*.=.;.:.:.:.1.1.:.<.<.1.1.1.1.:.:.=.=.*.=.=.:.:.1.:.:.:.=.$.#.#.+.#.#.=.-.1.4.4.3.3.1.:.=.$.+.+.K +.L +.#.=.:.<.,.",
"P K +.#.=.=.:.=.*.+.+.+.+.+.#.=.:.<.1.1.:.:.:.:.1.1.3.3.4.2.1.:.*.#.+.#.=.=.:.:.:.:.;.=.$.+.+.K K +.#.=.:.3.2.3.1.:.-.=.$.+.+. .K K +.#.=.:.=.-.",
"[ +.@.$.=.=.=.=.$.+.+.+.P +.+.=.1.2.4.2.,.:.:.:.1.3.3.4.4.4.1.:.#.+.P +.$.=.=.:.:.:.=.=.$.$.+.P P +.+.=.:.3.1.1.:.=.=.$.#.+.+.+.+.+.@.#.=.=.=.=.",
"$.$.$.$.$.$.$.$.$.#.$.$.#.#.=.:.4.6.6.2.3.-.=.:.1.4.4.4.4.2.1.=.#.P P [ $.=.=.:.:.:.:.=.=.$.$.+.+.+.$.$.=.:.:.-.=.$.$.$.$.%.$.%.$.*.=.$.%.$.%.$.",
"3.:.:.=.$.$.+.$.=.:.:.:.:.;.:.2.9.q.0.7.3.:.:.:.1.3.4.4.4.3.:.=.+.[ P +.+.1X:.:.1.1.:.1.3.:.:.=.=.=.$.$.=.$.$.#.+.+.+.$.=.:.:.<.:.:.:.=.$.#.#.$.",
"3.3.,.:.$.+.+.$.:.:.1.3.1.1.4.6.q.q.q.7.2.:.;.=.1.3.4.3.1.:.=.=.+.+.+.+.-X>Xi i n h.3.3.3.3.3.:.:.=.=.=.$.+.+.+.P +.+.*.:.,.3.4.3.3.<.:.$.+.#.#.",
"4.4.3.:.=.+.+.$.:.1.3.4.4.4.4.6.q.q.q.0.2.:.:.:.:.1.1.1.:.:.=.$.>X+.@.4Xf , e = . . s a 4.4.>X4.:.:.:.$.+.+.P P K +.+.=.:.3.2.4.4.4.3.:.$.@.#.#.",
"9.4.3.1.=.+.$.$.:.1.1.3.4.4.6.9.0.0.0.6.2.:.:.=.:.:.:.=.=.=.$.$.$.[.=.c e E > = R Y - d.oXN.4.4.3.:.=.$.+.P P P +.$.%.;.3.3.4.4.9.4.4.<.=.#.$.#.",
"4.4.3.:.-.=.$.=.=.:.:.3.3.4.4.9.9.6.6.5.3.1.1.=.=.$.#.#.+.+.#.=.=.,.c - / a U U Y Q e 5 p ~ 4.1.1.:.:.=.+.+.P +.=.;.:.1.1.4.4.6.4.4.3.1.-.=.$.*.",
"4.4.3.3.:.=.=.=.=.:.:.:.3.4.4.4.4.4.4.4.4.3.1.:.=.#.+.P P +.#.$.-.S q Q Y e ^ U u p U R w 2.3.4.:.:.=.$.+.+.+.$.:.<.3.3.3.4.4.4.4.3.3.1.:.=.=.=.",
"4.3.3.:.:.:.:.:.=.:.:.:.<.3.3.3.4.3.3.4.4.4.4.,.=.#.+.K L P +.*.oXo ^ U w Q I - I p p > ) 6.$X,.:.:.=.$.+.+.+.%.:.3.4.4.4.4.4.4.3.3.1.1.:.:.:.:.",
"3.1.1.1.1.:.1.:.:.:.:.:.:.:.:.:.1.1.4.4.6.6.6.2.,.*.@.+.P P +.$. Xq / ( XXXX( f Y ^ u = d 1.1.:.:.=.$.+.P P +.$.:.3.4.4.4.4.3.2.1.1.1.,.:.1.:.:.",
":.1.:.:.,.1.3.3.3.1.1.:.=.=.*.;.:.3.4.6.0.q.0.7.2.:.=.$.+.P +.*.-X  W cXcX5X%Xb.U u t + v.1.:.:.=.+.+.P P P +.$.:.1.&X2.4X3.1.1.1.:.:.1.1.1.1.3.",
":.:.:.:.1.1.3.4.4.2.3.:.$.#.#.*.:.1.4.9.q.q.q.0.6.4.1.=.+.+.+.$.N.@ C hXgX[ { ) d.o : ] :.:.=.=.$.+.P P P P +.@.:.oX; x 6.3.1.1.:.:.:.:.1.1.3.2.",
":.:.:.:.1.1.4.4.4.4.1.=.#.+. .#.=.1.4.9.q.q.q.q.9.4.3.=.*.+.+.$.-X# . D [ e ) 5X' 0 9 = +X=.*.oX+.+.P tX . X+.' n.g .XF 5X2.|.3.:.:.:.:.3.4.4.4.",
":.:.;.:.1.3.4.4.4.3.1.-.+.K P #.=.<.4.9.9.q.q.0.9.9.3.,.=.$.#.&XfXc.$ <.| >.9XhX`.( F 1.5XfXhX=XpXrX] ) n _ 9 6 h ;X$ -X7.+X6X2.,.-.=.:.1.4.4.4.",
",.-.-.:.1.3.4.4.3.1.:.=.+. .P +.;.<.3.4.6.6.6.7.6.4.4.1.;.=.*.$.%.v.S c.nXcX} jXD # hXt.i h h v C d A H G c ` ~ Z m.&.S _ fX*X6.,.:.;.:.1.2.4.4.",
",.,.:.;.1.3.2.3.1.:.=.$.+.+.+.$.:.1.4.4.4.6.4.4.4.4.4.1.<.;.=.$.#.iX) r #XhXlXj.X z M > ( m f Z &.).mXmXhXv.I s.~ z C G l.yXq.7.2.:.;.;.1.3.3.3.",
"3.:.:.:.:.1.1.1.:.;.=.$.+.+.#.=.:.4.4.3.4.4.3.1.3.3.1.1.<.:.=.<X#.>X .C ' xXj.< ..j = o.q.m n.b.8XhX_.{ W . X 6 K.@ h.N.0.w.,X0.2.,.:.:.:.1.1.,.",
"1.1.:.:.:.-.:.=.=.*.$.$.$.$.=.:.4.6.9.6.4.3.1.1.1.1.1.1.:.:.;.>X+.P ;XdXs # ..V F j T O.X.` b a u @ . : x 4.3.s.6 > uX%X9.0.3X9.2.,.:.:.:.:.:.:.",
"2.2.:.:.=.$.#.$.+.+.#.$.=.;.1.2.0.q.0.0.9.3.3.1.:.:.:.:.:.:.=.$.&.@XP -Xx j M B r.k h o.O.X.; 4 ' :.:.3.1.>X7.T.OX3.1X}.pX-X9.6.4.3.<.:.=.%.#.@.",
"3.2.3.,.%.+.+.P P P +.$.=.<.4.9.q.q.q.q.9.4.1.1.<.:.:.=.:.:.=.=.+.+.P c e A R V B N l d X.: G 1X;.<.3.3.6.+XB.E.1.1.<XaX-X5.5.3.4.3.1.:.*.+.+.K ",
"4.4.3.,.=.+.+. .P +.#.=.:.1.4.9.0.q.q.q.9.4.2.<.:.;.;.;.:.:.=.=X$.).hXc t R p e.B V 7 $ 8 _ +.$.;.1.4.4.4.4.Y.4.4.4.5.3.4.3.3.3.4.4.3.:.=.#.+.+.",
"4.4.4.:.:.$.#.#.#.$.=.=.1.3.4.0.0.q.0.0.9.4.3.1.:.;.;.=.:.:.:.:.=.=.#.v.x 6 x e.V 2 2 1 o =X+.=.<.3.8.4.3.R.C.4.6.6.6.6.4.4.3.3.4.4.3.,.-.$.#.+.",
"4.5.3.1.:.:.:.=.:.-.:.:.3.3.3.9.9.9.9.9.9.4.4.1.:.=.=.:.:.1.1.3.1.[.;.fXs X 2 k k 2 1 $ l. .+.$.<.3.4.9.Q.E.3.6.0.0.0.7.6.3.3.3.4.4.3.1.1.:.:.;.",
"3.3.3.3.3.1.1.1.1.1.3.3.3.3.4.3.4.4.6.4.4.4.3.1.:.;.:.:.:.1.3.3.1.1.1.,.:X4 X 2 $ 1   O >X .+.$.:.1.4.4.L.3.3.9.0.w.w.0.6.5.3.3.3.2.3.3.3.1.1.1.",
"3.1.3.1.3.4.4.3.4.4.4.4.4.3.3.1.3.1.1.1.1.1.1.<.:.:.:.:.3.2.4.4.2.4.4.4Xv t ` 6 % % O ].%.oX[ $.'.+X*XM.6X3.3.6.w.q.w.0.6.3.3.1.1.3.3.3.3.2.4.4.",
"<.1.1.1.3.5.4.4.4.4.4.4.3.3.1.:.:.:.;.;.;.:.:.:.:.:.:.1.3.3.4.4.4.4.4.4X* j.! ` ` - g.:.=.6X*XsX'.:.M.sX2.3.3.6.9.0.q.0.6.5.3.1.1.4.1.1.3.4.4.4.",
"<.,.:.<.1.4.4.6.4.4.2.3.1.<.:.C.$.$.$.#.#.$.*.=.:.1.1.3.3.3.2.4.4.4.>X8 ).NX4.R y y z.1.-.=.=.sX#.c.sX:.,.2.4.6.6.9.6.6.4.5.3.1.:.:.:.1.1.2.4.4.",
":.:.:.:.1.1.4.4.4.4.4.3.,.:.=.v.$.+.+. .+.+.#.=.:.1.3.4.2.3.4.4.4.N.s (.lXMXbXlXA A lX1.,.=.=.@.x.Q.#.$.1.2.4.4.4.4.4.4.4.3.3.<.:.:.:.:.1.3.4.4.",
":.:.:.,.1.4.4.4.4.2.3.3.'.;.Y.*.$.+.+.+.P P +.=.:.1.2.4.4.3.3.2.4.h.0 NXBXMXBXMXbXk h.2.:.dXoXA.!.+.+.$.:.<.4.4.5.3.3.3.4.3.3.1.:.:.:.:.1.3.4.4.",
"<.:.:.<.1.1.3.3.3.4.:.:.:.C.L.=.=.$.#.+.+.+.#.$.:.1.3.4.4.4.4.}.pXg.0 NXmXMX7Xk xXH n 4X1.oXH.!.].L +.+.:.1.4.4.4.1.3.3.3.3.1.1.:.:.:.:.1.3.3.2.",
"<.1.1.1.3.3.3.1.1.:.:.:.:.L.OX*.:.:.:.=.=.$.*.=.:.:.1.3.3.4.4.1X3.) A nXBXBX{.0 BXgX8 _.uXH.n.-.+.P +.$.:.1.4.4.3.3.3.1.1.3.1.1.1.1.1.1.1.3.3.1.",
"3.3.1.3.3.3.3.1.[.:.:.[.:.I.:.:.:.1.1.,.:.=.=.=.=.:.:.:.1.3.3.3.v.4 kXNXBXqX& zXvXBX< ` F./.=.@.+.+.+.$.:.1.4.4.4.4.3.3.3.3.3.3.3.1.3.3.3.2.3.1.",
"3.4.3.4.4.4.3.1.4X:.-.=.C.I.+X:.1.3.2.3.:.:.:.=.=.=.:.:.1.1.2.#Xz.5 BXBXNXH % zXBXBXg.i.!.,X=.%.+.+.+.$.:.1.4.4.4.3.2.4.4.4.4.4.4.4.2.4.4.3.3.1.",
"4.5.4.3.4.4.3.<.-.tX=.=.a.!.<.<.3.4.4.4.3.1.:.:.=.$.$.=.:.1.1.3.z.8 xXBXkX3 X rXnXlX^.m hX=.$.+.P P +.$.:.1.4.4.4.3.4.4.5.9.7.6.6.4.4.3.4.3.3.3.",
"6.4.4.3.3.4.3.1.-.;.,X[.~.2.3.1.3.4.4.4.3.3.:.=.*.#.+.#.=.:.:.2X X1 BXBXmX* + qXlXi./.(.s -X X+.P P +.$.:.1.4.4.3.4.4.6.7.q.q.9.6.4.3.3.4.4.3.1.",
"6.4.4.3.3.3.2.<.:.=X5XB.~.@X3.3.4.4.3.4.4.2.1.:.#.+.+.#.=.=.:.1.5 .XBXMXvX* ] k F.wXNXBXf.s eX[ P P +.$.:.1.1.4.3.3.4.6.q.q.q.q.6.4.3.3.3.4.1.1.",
"4.4.3.3.3.1.1.<.:.:.-.n.S.6X2.1.4.3.4.4.4.4.3.:.=.@.+.#.=.=.=.+X& vXMXMXvX1 OXu.c.MXnXBXnX).c  XyX+.+.=.:.3.4.4.3.4.4.6.0.q.q.q.9.4.4.3.3.3.1.1.",
"6.4.3.3.1.1.<.:.:.=.:.P.S.1.4.4.2.4.4.3.4.4.2.:.=.=.*.@.*.#.=.=.7 vXmXnXhXm i.s.6 ).MXNXBXBX XO x yX=.:.1.2.4.4.3.4.6.6.9.q.q.9.6.4.3.3.1.1.:.1.",
"4.4.4.1.<.,.:.:.=.:.:.P.S.1.4.4.4.3.4.3.4.4.3.3.3.:.:.=.*.#.*.*.. .XxXmXT.y.k.fX].d Z vX.X7XcXlXH C 4X3.3.4.-X4.4.4.4.6.6.9.6.6.4.4.3.1.:.:.:.=.",
"4.4.3.1.<.:.;.=.=.=.<.P.A.1.#X4.4.4.3.3.4.4.4.4.2.3.1.:.@.@.+.#.o , MXa.m.3 `.=.$.].s A o   7XBXMXt.A 4.3.4.4.4.4.4.4.4.4.4.5.4.4.2.3.3.:.:.:.=.",
"4.3.3.1.:.:.:.=.:.-.*.m.G.1.8.3.2.3.2.4.3.4.3.4.3.2.3.:.@.+.[ S   x.J.E..X& =X$.+.+.pXg.g.$ 7 NXbXNXO 8.3.2.1.1.1.1.4.3.1.3.3.3.4.4.3.1.:.:.=.:.",
"5.4.3.3.1.,.,.:.:.:.-.m.G.:.<.2.3.3.4.4.4.4.2.3.3.1.:.=.@.[ K   y./.kX.X0X@ oX+._.P P uX).O gXvXNX.X; 4.,.:.:.:.-.:.:.:.:.1.1.1.3.2.4.3.1.:.:.:.",
"4.4.4.4.3.1.1.<.;.=.=.!.I.C.<.<.3.3.4.5.4.4.4.3.:.=.$.+.+.[ z.U.s.MXBX.X8 f.+. .P P P #.%.v.C zX{.> d.pX-.=.#.#.@.#.$.=.;.:.:.1.3.4.4.4.4.3.1.1.",
"3.4.4.4.4.3.3.<.1.:.=.aXU.n.:.<.1.4.4.2.4.4.3.:.=.+.+.+.+.P.m.a.k qXd.(.8 b.uX:XP P +.#.-.,.d.  o n t k.=.+.#.K P +.+.$.=.=.:.1.3.2.4.4.4.2.1.1.",
"1.1.1.3.3.1.1.1.,.:.;.:.M.S.^.;X2.2.4.5.2.4.2.:.$.].C.W.u.P.U.+.P ; u   l. .+.+.+.+.#.=.3.OX1Xk.t W W 6 iX#.+.+.[ +.+.#.$.=.=.:.:.4.3.3.3.3.1.,.",
";.:.:.:.:.,.:.:.:.:.,.,.eXW.a.p.m.W.Q.Q.Q.W.B.W.Q.G.^.F.!.$.%.fXb o { 4 g.#.$.@.$.$.=.;.4.4.4.#X4 W ` + ] @.#.@.$.$.$.#.$.$.$.=.-.:.:.:.:.:.:.:.",
"*.*.*.$.$.$.*.=.:.<.1.1.1.1.B.^.G.D.Z.Z.D.D.A.D.Z.a.p.eXuX;.d.d 3 * ;   g.:.:.:.'.<.:.1.4.>Xx 8 @ % +   9 ;.:.:.:.:.:.=.$.@.+.#.$.$.%.$.$.$.=.=.",
"#.#.+.+.+.+.#.*.,.1.3.3.3.3.3.4.3.*X&XoX*XN.&.Q.eXj.+.@.<.S O % 7 , o   z.1.1.3.1.1.3.3.}.5 3 , 0 8 % X s ,.1.1.3.3.<.:.$.+. .+.+.+.+.+.+.+.$.$.",
"P P P P P P +.=.:.3.4.4.4.4.3.3.1.:.=.=.@.+.P 5X' +.=X>X|.C o 5   0 j.  _ yX}.4.4.4.4.3.-XO % *     O   9 hX2.4.4.4.4.<.=.#.+.K  .K P P P P #.$.",
"L P P P P +.#.=.:.1.4.4.4.4.4.4.1.:.:.=.+.P P P +.$._.:.1.5.}.6.7.-X0.4X7.6.4.4.4.4.4.3.1.,.:X,.:.:.:.1.3.3.4.4.4.4.4.<.;.*.#.+.+. .P P P +.$.$.",
"J P P #.#.$.=.:.1.3.4.4.4.4.4.4.2.3.:.:.$.+.[ +.$.=.:.:.3.4.3.9.0.w.#X3XV.4.4.4.4.4.3.:.oX=.=.=.:.:.1.1.3.4.4.4.4.4.4.4.3.:.;.*.#.+.P P +.#.=.:.",
"J K +.#.$.=.-.:.1.3.4.4.4.4.4.4.4.3.1.:.$.+.+.@.;.3.}.3.3.4.4.9.w.w.w.>X9.5.4.4.4.4.3.:.=.#.+.$.=.1.4.2.4.4.4.4.4.3.4.4.4.3.<.;.#.+.+.+.$.=.:.:.",
"L L +.$.=.;.:.3.3.3.4.4.4.4.4.2.4.3.3.=.@.+.+.%.<.3.4.6.3.4.4.9.0.w.w.q.9.4.4.4.4.4.1.:.#.+.+.#.;.3.4.4.4.4.4.4.4.4.4.4.4.4.2.:.=.+.+.+.$.=.:.1.",
"J L $.$.=.-.-.1.3.3.4.4.4.4.2.2.3.:.:.=.+.+.@.%.4.9.9.9.3.4.4.9.0.0.0.9.9.4.4.4.4.4.1.:.#. .+.$.<.4.4.4.4.4.4.2.4.4.4.4.9.4.4.:.$.+.+.+.=.-.:.:.",
"J K +.$.=.:.:.1.4.4.4.4.4.4.2.1.:.=.$.+.P P @.-.5.0.w.0.9.4.4.4.9.9.9.9.6.4.4.4.4.4.3.:.$.+.+.#.:.3.4.6.4.4.4.4.4.4.4.4.6.4.4.<.%.+.+.+.=.-.1.1.",
"J K +.$.=.:.:.1.1.4.6.9.4.9.2.,.-.$.@.K P P $.:.5.q.w.w.0.6.4.4.4.6.4.9.4.4.4.4.6.4.3.:.$.+.+.$.:.3.4.6.4.4.4.4.4.4.4.4.6.6.3.:.%.@.+.@.$.:.:.,."
};
