/* XPM */
static char *_fa4e07febbc43e38339732ab336cceckNCteI2OpeUa9D3K[] = {
/* columns rows colors chars-per-pixel */
"72 72 238 2 ",
"   c #030102",
".  c #070605",
"X  c #03010A",
"o  c #150107",
"O  c #1A020C",
"+  c #01160A",
"@  c #171805",
"#  c #070915",
"$  c #150A15",
"%  c #091314",
"&  c #18161A",
"*  c #23030B",
"=  c #37020B",
"-  c #290817",
";  c #311215",
":  c #32181D",
">  c #102A1B",
",  c #31370E",
"<  c #071A26",
"1  c #07142D",
"2  c #191C23",
"3  c #261924",
"4  c #351928",
"5  c #2B0F31",
"6  c #0F2B2E",
"7  c #2B262A",
"8  c #3D2736",
"9  c #312E34",
"0  c #41000F",
"q  c #470412",
"w  c #580518",
"e  c #483912",
"r  c #480923",
"t  c #4E0E2C",
"y  c #58172C",
"u  c #5D1B39",
"i  c #701132",
"p  c #49283A",
"a  c #4F3139",
"s  c #6A2D37",
"d  c #355A37",
"f  c #63562E",
"g  c #2D194A",
"h  c #312F4D",
"j  c #2B316F",
"k  c #441243",
"l  c #5C2C43",
"z  c #4C3448",
"x  c #563545",
"c  c #702A4D",
"v  c #6E3C55",
"b  c #621168",
"n  c #55316C",
"m  c #284B4B",
"M  c #1E4474",
"N  c #2F4B69",
"B  c #584547",
"V  c #51504D",
"C  c #674958",
"Z  c #6F5554",
"A  c #716147",
"S  c #4F4A6E",
"D  c #775066",
"F  c #6D6D6F",
"G  c #747569",
"H  c #797A6C",
"J  c #777970",
"K  c #7D7D70",
"L  c #8E0E32",
"P  c #91183A",
"I  c #AB0C3A",
"U  c #AE762C",
"Y  c #901949",
"T  c #B21246",
"R  c #8B2D4E",
"E  c #A82648",
"W  c #B8275E",
"Q  c #9B2A6F",
"!  c #C81A4C",
"~  c #D62356",
"^  c #985F5A",
"/  c #8B506D",
"(  c #995D78",
")  c #AB5273",
"_  c #90726F",
"`  c #95657C",
"'  c #807F70",
"]  c #A96A7A",
"[  c #6B9C33",
"{  c #7F8070",
"}  c #A69B15",
"|  c #D58E09",
" . c #C8AA00",
".. c #FFDF15",
"X. c #838370",
"o. c #898671",
"O. c #878870",
"+. c #8C8C70",
"@. c #908F70",
"#. c #9C8C7C",
"$. c #8F9070",
"%. c #949470",
"&. c #9A9670",
"*. c #979970",
"=. c #9B9B70",
"-. c #BF9F64",
";. c #A19E70",
":. c #AA997F",
">. c #9FA070",
",. c #A4A470",
"<. c #AAA570",
"1. c #A7A870",
"2. c #AAAA70",
"3. c #B1A770",
"4. c #B3AE70",
"5. c #B9AF70",
"6. c #B2A47C",
"7. c #B6B170",
"8. c #BDB370",
"9. c #C3B570",
"0. c #C5B870",
"q. c #2F3C80",
"w. c #164D86",
"e. c #AB149F",
"r. c #AF2598",
"t. c #B214B1",
"y. c #B92BB8",
"u. c #BF3AB5",
"i. c #C0379F",
"p. c #CB33B5",
"a. c #AF5293",
"s. c #947987",
"d. c #997493",
"f. c #A56785",
"g. c #B7688A",
"h. c #A87988",
"j. c #B96C91",
"k. c #AA7890",
"l. c #B87A97",
"z. c #AF42AF",
"x. c #B86DB3",
"c. c #CD6F94",
"v. c #E57491",
"b. c #C656B7",
"n. c #CC50B0",
"m. c #DC78A1",
"M. c #D969B1",
"N. c #EB72AF",
"B. c #E576BC",
"V. c #BE29CA",
"C. c #BC33C7",
"Z. c #C538CB",
"A. c #C32DD4",
"S. c #CE2CD5",
"D. c #C639D4",
"F. c #E23FD6",
"G. c #D13AE4",
"H. c #B349C5",
"J. c #CE5AC9",
"K. c #D856CB",
"L. c #C448D4",
"P. c #D047D6",
"I. c #D452DA",
"U. c #EB53CC",
"Y. c #D864C6",
"T. c #CE74CB",
"R. c #E367C6",
"E. c #ED77CF",
"W. c #E368D5",
"Q. c #D742E9",
"!. c #E66AEA",
"~. c #728987",
"^. c #928B91",
"/. c #A68888",
"(. c #A78F88",
"). c #B59A87",
"_. c #B9869D",
"`. c #BD9C99",
"'. c #93A49D",
"]. c #BAA685",
"[. c #BDA493",
"{. c #B299A6",
"}. c #AEACB4",
"|. c #C79189",
" X c #C6899A",
".X c #D18D9B",
"XX c #C8979A",
"oX c #D8939C",
"OX c #E3919B",
"+X c #C6A58A",
"@X c #C4A893",
"#X c #DAA597",
"$X c #C886A5",
"%X c #D88AA8",
"&X c #CA98A9",
"*X c #D592A9",
"=X c #CE8BB6",
"-X c #D697B5",
";X c #E498A3",
":X c #F592A3",
">X c #D6A9A8",
",X c #D8B0AA",
"<X c #DBA6B8",
"1X c #F5AFAE",
"2X c #E2A4B7",
"3X c #ADC4B4",
"4X c #F7C5BE",
"5X c #DFFEA0",
"6X c #AC90C1",
"7X c #B5B4C2",
"8X c #D891C8",
"9X c #F990D4",
"0X c #CCAFC1",
"qX c #EBA7C5",
"wX c #E9B1C2",
"eX c #F4B3CA",
"rX c #FCA6D9",
"tX c #EABBD7",
"yX c #FCB6D9",
"uX c #FE87E3",
"iX c #FB98E5",
"pX c #FDA8EE",
"aX c #FBB7E4",
"sX c #D8D3D3",
"dX c #F3CCD1",
"fX c #F8E8C7",
"gX c #DBD3E2",
"hX c #F4D7EC",
"jX c #D9EBEC",
"kX c #F1F2E6",
"lX c #FEF8EB",
"zX c #F7E9F4",
"xX c #E7FBF9",
"cX c #EEFBFC",
"vX c #F9F8F6",
"bX c #FDF4FE",
"nX c #F5FEFE",
"mX c #FDFDFF",
/* pixels */
"K K K K K K X.%.=.1.2.7.2.2.2.1.;.=.*.+.X.X.K K K X.+.%.>.1.2.4.4.4.2.4.2.2.2.2.2.2.2.<.1.,.,.=.=.=.=.=.,.<.2.4.4.2.1.>.%.O.X.{ X.K K K J K X.+.",
"K K K K H X.+.%.=.1.2.2.2.2.1.1.1.>.=.%.X.H K { X.O.$.=.,.1.2.4.7.7.7.7.4.2.2.2.2.2.2.1.,.=.=.=.=.=.=.,.1.<.2.2.2.2.1.>.*.$.O.X.X.H K K K X.+.@.",
"X.X.K ' X.+.%.=.,.,.2.2.2.1.2.1.<.1.,.*.+.X.X.X.$.%.=.>.,.1.2.7.7.8.9.8.7.2.2.2.2.2.1.=.%.%.%.%.=.=.,.1.1.1.1.2.2.2.2.1.,.=.*.%.O.X.H X.X.+.%.%.",
"X.X.X.X.O.%.=.=.,.1.<.2.2.2.2.2.2.1.,.=.+.X.X.O.%.>.1.1.1.2.2.7.8.0.9.8.7.2.1.2.2.2.1.=.+.O.X.+.=.,.1.<.2.1.2.2.2.2.2.2.1.1.,.%.O.X.X.X.+.%.=.=.",
"O.X.X.X.+.%.=.=.,.1.2.1.<.2.1.1.<.1.,.%.o.' K %.=.2.2.4.2.2.2.7.9.9.9.8.4.2.2.1.2.2.,.=.X.X.X.+.=.,.2.2.2.2.1.2.2.2.2.2.2.2.1.=.+.X.X.X.+.%.;.=.",
"O.O.X.X.@.%.=.,.,.1.2.2.1.2.1.1.,.=.%.%.X.' o.%.<.4.8.7.2.2.2.2.5.8.9.8.4.2.2.1.2.2.,.%.O.K X.O.=.,.2.2.2.2.2.1.1.2.2.2.2.2.2.=.+.X.X.X.$.%.=.,.",
"+.X.X.X.+.%.=.=.,.1.2.2.2.2.1.;.=.%.+.X.K K K &.3.9.9.8.7.2.2.2.3.4.7.3.2.2.1.1.2.2.1.=.+.X.X.X.%.,.2.2.2.2.1.1.1.2.2.2.2.2.<.=.+.X.X.X.+.%.=.=.",
"O.o.X.X.+.%.=.,.,.1.2.2.2.<.1.=.%.o.' K J K o.&.3.9.9.9.7.2.2.2.2.2.2.2.2.2.1.2.2.<.,.=.O.X.X.O.=.1.2.2.2.2.1.<.2.1.2.2.2.2.1.=.+.X.X.X.$.%.=.=.",
"o.X.X.X.@.%.=.,.,.1.2.2.2.2.1.>.+.X.K J J { +.;.3.9.9.9.4.<.,.,.2.1.1.1.1.2.2.2.2.1.1.=.+.o.X.%.=.1.2.2.2.1.1.1.1.1.2.2.2.1.,.=.+.X.X.X.%.%.=.=.",
"X.X.X.o.%.=.=.,.1.<.2.4.4.2.1.*.+.K K K X.O.&.;.3.5.5.5.<.,.,.,.1.1.1.1.2.1.1.2.2.2.1.=.%.O.+.%.>.2.2.2.2.2.2.2.1.2.<.1.1.,.>.%.O.X.X.O.%.=.;.,.",
"X.X.X.+.*.>.1.1.2.2.2.2.4.2.1.*.+.X.J X.%.=.=.;.<.;.<.;.;.=.=.,.,.1.2.2.2.,.1.2.2.2.1.;.=.%.%.=.,.1.2.2.2.2.<.1.<.2.2.1.1.,.=.%.o.X.X.+.&.>.,.1.",
"X.X.X.+.=.,.1.2.<.2.2.2.2.2.,.=.+.X.X.o.%.,.1.1.;.;.=.=.&.=.=.,.,.1.2.2.2.2.1.<.2.<.,.,.=.=.%.=.,.1.1.2.<.2.1.2.2.2.1.1.,.=.%.+.X.X.X.+.=.,.2.2.",
"X.X.X.+.=.,.1.<.1.1.,.1.1.1.>.*.+.O.O.@.=.,.1.1.;.=.=.%.%.=.=.=.=.1.2.1.1.1.1.1.1.1.,.=.=.&.%.=.=.,.,.1.1.<.1.1.<.1.1.1.=.%.%.O.X.K X.+.=.,.,.2.",
"H X.X.+.=.,.1.,.=.=.&.=.=.*.*.*.%.+.$.%.=.,.1.,.;.=.*.=.=.=.=.=.=.=.=.=.1.;.,.,.,.,.,.=.%.%.%.%.%.=.=.;.,.2.2.2.1.1.,.=.%.%.O.X.K ' X.+.&.,.2.,.",
"K K { O.&.=.1.=.%.+.O.O.O.O.+.$.%.*.=.=.=.,.,.=.>.>.,.,.,.,.=.=.%.%.$.%.%.=.=.,.=.=.=.%.+.O.O.X.O.O.%.&.,.2.2.1.1.,.=.%.+.o.X.H H J X.O.%.=.>.>.",
"K H X.O.%.%.=.%.+.X.X.X.X.X.O.%.=.>.,.,.=.=.=.=.,.,.1.1.2.<.,.=.$.O.X.O.%.%.=.=.=.=.*.%.+.X.X.H H X.O.%.>.,.<.1.,.=.&.%.+.X.K X.' H X.O.%.=.%.&.",
"X.X.o.+.%.%.%.%.+.X.X.X.H X.X.%.,.<.2.<.;.=.=.=.,.1.1.2.2.2.,.=.o.X.K X.+.%.%.=.=.=.%.%.+.o.X.H K X.X.%.=.1.,.,.=.%.%.+.O.X.X.X.X.X.o.O.%.%.%.%.",
"+.+.+.+.+.+.+.+.+.O.+.+.O.O.%.=.2.4.4.<.,.&.%.=.,.2.2.2.2.<.,.%.O.K K K +.%.%.=.=.=.=.%.%.+.+.O.X.X.o.+.%.=.=.&.%.+.+.+.+.%.+.+.+.$.%.+.@.+.%.+.",
",.=.=.%.+.O.O.+.%.=.=.=.>.*.=.<.5.9.8.5.,.=.=.=.,.1.2.2.2.1.=.&.X.&X{ X.o.%.=.=.,.,.=.1.1.=.=.%.%.%.%.+.%.+.+.o.X.X.X.+.%.=.=.>.=.=.=.%.+.O.O.+.",
"1.1.;.=.+.X.X.+.*.>.,.1.,.,.2.4.9.9.9.5.<.=.*.*.1.2.2.2.,.g.c u u -X&XX.+.%.=.=.,.,.1.1.1.1.,.>.=.%.%.%.+.X.X.X.K X.X.$.=.;.1.2.1.1.>.=.+.X.O.O.",
"2.2.1.=.%.X.X.+.=.,.1.2.2.2.2.4.9.9.9.8.<.=.=.=.<X,.,.i a . . @ w > u <X%.%.-X=.,.1.2.2.2.2.2.1.=.=.=.+.O.X.K K H X.X.%.=.1.<.2.2.2.1.=.+.o.O.O.",
"4.2.1.,.%.O.O.+.=.,.,.1.2.2.4.7.8.8.8.4.<.;.=.%.>.N.c.^.= I P * 4 T q z %.`.;.,.1.<.2.2.4.2.2.1.,.=.%.+.X.K K K X.+.+.*.,.1.2.2.7.2.2.>.%.O.+.O.",
"2.2.1.=.&.%.@.%.%.=.=.1.,.2.2.7.7.4.4.3.2.,.>.*.%.Q w 4 w E I P L i ~ q a 1.,.1.1.<.2.2.2.2.1.1.,.=.=.%.X.X.K X.%.=.=.,.1.2.2.4.2.2.1.,.&.%.+.$.",
"2.2.1.1.=.%.%.%.%.=.=.=.2.2.2.2.2.2.2.2.2.,.,.=.%.o.r T s i y P ! w ! E = Z 1.1.1.1.2.2.2.<.1.1.=.=.%.+.X.X.X.O.=.>.1.1.1.2.2.2.2.1.1.,.=.%.%.%.",
"2.1.1.;.=.=.=.=.%.=.=.=.>.,.,.2.2.1.1.2.2.2.2.>.@Xo./ ; i i L 0 L E w P ! o  X2.1.<.1.1.2.1.1.;.=.=.%.+.X.X.X.$.=.1.2.2.2.2.2.2.1.1.,.,.=.=.=.=.",
"1.,.1.=.,.=.,.=.=.=.=.=.=.=.=.=.,.,.2.2.4.4.4.1.;.@.l - p ! I i ^ ).|.^ ~ = _.2.2.1.2.1.1.,.,.=.=.%.+.X.K { X.+.=.1.2.2.2.2.1.1.,.,.,.;.=.,.=.=.",
"=.1.=.=.;.,.1.1.<.<.<X>.%X@.@.&.=.1.2.4.8.9.8.7.<.;.c.o r t P v.;X1XlXlXR . &X2.<.1.1.1.,.,.=.=.%.O.X.K K K X.+.=.1.<.2.2.1.,.,.,.=.=.,.,.,.,.1.",
"=.=.=.=.,.,.1.2.2.<.<.a - $Xo.@.=.,.2.7.9.9.9.8.4.2.;.( - * _ / ] o.sXdXf + m.1.2.<.1.,.;.=.%.%.+.X.K K K K X.+.=.,.2.2.2.1.,.,.=.=.=.=.,.,.1.<.",
"=.=.=.=.,.1.2.2.[.2.1XC 6Xd a._ %.@X2.2X0.0.8.#X7.2.oX= 8 9 _ 1X/ w ' A + @ *X3.2.2.2.,.=.=.%.o.X.{ K K H X.o.%.=.1.2.2.2.2.2.1.=.=.=.=.,.2.2.2.",
"=.=.%.=.,.1.2.2.2XoX1.*X# -XB 5 8 ( c / ` 0XyX,XdXaXeX=.S ' /.dX5X5.A ;.$ x.pX&X2.2.2.,.=.%.+.X.X.K K X.X.+.%.=.;.1.2.4.7.4.3.<.;.&.%.=.,.2.2.2.",
";.&.&.>.,.1.2.2.%XaX( C ^.p.V Q / l F F Z s B B x s u F 4Xo A fX[ lXnXx.Z c.4.7.2.2.1.,.%.+.X.X.K K K X.%.&.=.,.1.1.3.4.5.9.8.4.;.=.*.=.,.<.2.2.",
";.;.=.%.,.1.<.1.,.tXk.D B t Q c.L c.gXzXnX^.#.V s c _ : n p X h.gXhX8.e / tX2.2.2.2.1.=.%.O.K K J K X.+.%.,.,.,.1.1.2.4.9.0.9.5.<.=.*.*.,.2.2.,.",
",.>.=.=.=.,.,.,.oX=.%.m.g.+ H.:   o R ` /.dXdXv.M.c -. .@ g } , /.kX^ B &.8X<.:X<.1.=.%.+.X.K K K X.O.%.>.,.2.2.2.2.2.4.8.0.0.5.<.;.=.=.=.,.,.>.",
",.>.=.=.=.&.=.%.#X%.+.>XiX& 5 n.<.5.a ; . + y i Y ) | ..U g S N } @ g pX-X%.>.-X1.=.=.%.X.X.K X.X.+.%.=.>.2.2.2.1.1.2.4.7.8.8.7.<.;.=.=.=.=.&.>.",
"<.<.>.=.%.+.O.o.X.-XyX(.`.=.XXU.7.8X8.8.7.2.s.2 - | ..| f p w.N n 5 l *XX.OX(.$.+.+.o.X.X.K X.O.+.=.=.,.,.1.2.2.,.1.1.2.2.4.4.4.2.1.>.=.%.+.O.+.",
",.<.,.,.+.o.X.K K J ;XuX:X>.2.T.M.#X9.9.4.2.,.>XD = } a j m q.S Q S w V X.{ { { X.X.X.X.K K X.+.=.;.1.2.2.2.1.2.1.1.2.2.2.3.3.1.2.1.,.=.$.X.X.H ",
"2.2.2.;.%.X.X.X.K X.O.%.=.,.2.7.I.9.0.9.7.2.<.>.>.( 7 # 6 M M M i Y r z dXX.X.&XX.X.X.X.K K X.+.=.1.2.2.2.2.2.2.2.2.3.1.2.1.1.1.2.2.1.=.%.O.X.X.",
"2.2.1.>.=.o.O.O.o.+.%.%.,.1.2.8.N.Y.8.8.7.2.1.,.=.>Xo % < 1 N q.k 5 l l.X.o.+.+.+.X.+.X.X.K X.%.>.1.4.2.2.2.2.2.4.4.4.4.2.1.1.1.2.2.1.;.&.+.O.X.",
"2.3.1.,.=.=.=.%.=.&.=.=.1.1.2.4.4.T.E.7.7.2.1.,.=.%.k.# < 1 h g 2 # p aX=.`.=.=.=.=.*.$.X.K X.+.;.1.2.4.2.1.2.4.8.8.8.5.4.1.1.1.2.2.1.,.,.=.=.*.",
"1.1.1.1.1.,.,.,.,.1.1.1.1.1.2.2.2.2.J.1.2.2.1.,.=.*.-Xo # < # 1 # 5 &X,.,.,.,.2.1.,.1.&.O.X.X.+.=.,.2.2.1.2.2.7.8.0.0.8.4.3.1.1.1.<.1.1.1.,.,.,.",
"1.,.1.,.1.2.2.1.2.2.2.2.2.1.1.,.1.,.qXb.%XoX[.>.=..X;._.$ $ $ - ) r l wX2.2.2.2.2.2.1.=.+.X.X.+.*.>.1.1.,.,.2.4.9.9.0.8.4.1.1.,.,.1.1.1.1.<.2.2.",
">.,.,.,.1.3.2.2.2.2.2.2.1.1.,.>.=.=.=.iXb.&.6.iX.X2X=.1.f.* ) ) W k.2 0X2.1.2.2.4.2.2.=.%.+.+.+.%.*.>.>.,.2.2.3.5.8.9.8.4.3.1.,.,.1.,.,.1.2.2.2.",
">.;.=.>.,.2.2.4.2.2.<.1.,.>.=.%.+.+.@.X.iXb.+.iX*.1.1.2.c.t i Y 2.bX^.4 *X1.2.2.2.2.1.,.=.%.%.+.+.+.%.%.,.,.1.=X4.7.4.4.2.3.1.,.=.=.=.,.,.<.2.2.",
"=.=.=.=.,.,.2.2.2.2.2.1.>.=.%.%.+.X.X.' X.E.z.%.*.1.1.2.gXC C hXxXbXgX~.z m.2.2.2.1.1.,.>.%.%.+.O.X.O.+.,.,.1.M.2.2.2.2.2.1.1.>.=.=.=.;.,.1.2.2.",
"=.=.=.;.,.2.2.2.2.<.1.1.=.=.%.$.+.X.X.X.{ { W.C..XpX<.2.j.d jXbXmXbXmXcX7 g.2.<.2.2.1.,.=.=.%.$.X.X.X.+.=.>.2.2.I.1.].1.2.1.1.,.=.=.=.=.,.1.2.2.",
">.=.=.>.,.,.1.1.1.1.=.=.=.%.%.%.%.+.O.X.X.X._.Y.P.c.1.2Xv F kXh 7XbXvXnXa f.aX].2.2.1.,.,.=.%.+.X.H X.O.=.,.2.2.J.B.2.1.1.1.,.,.=.=.=.=.,.1.1.<.",
">.,.,.,.1.1.1.,.,.=.=.=.=.%.%.%.=.=.=.%.%.+.$.%.n.F.rXh.7 sXmX9 '.mXmXcXV / 2.@X2.2.2.1.,.=.&.%.X.{ X.+.=.,.2.2.XXJ.<.,.,.,.,.,.,.,.,.,.,.1.1.,.",
"1.1.,.1.1.1.1.,.=.=.=.%.=.%.=.=.=.,.,.>.=.%.%.%.#.!.S.f., mXzXjX& 7XmXnXgX: $X1.2.1.1.1.;.=.%.+.X.X.X.+.=.,.2.2.2.L.<.+X2.2.[.1.1.,.1.1.1.<.1.,.",
"1.2.1.2.2.2.1.,.;.=.*.%.=.=.=.;.,.1.<.1.=.=.=.%.%.*XW.y.f.nXmXgX% F cXnXmX7 l.@X1.1.,.1.=.=.%.+.X.X.X.+.=.,.1.2.#XL.R.2.2.1.<X2.2.2.<.2.2.1.1.,.",
"2.3.2.1.2.2.1.>.=.*.%.%.=.=.;.>.1.2.2.2.1.,.=.=.%.+.eXb G.hXcXgX. 2 gXmXzX7 l.1.1.,.,.=.=.%.+.X.H K X.+.=.,.2.2.2.W.p.<.2.eX7.4.4.2.2.1.2.1.1.1.",
"4.2.2.1.1.2.1.,.=.*.=.=.;.,.,.,.1.2.2.2.1.1.=.%.&X&Xp '.!.V.zX6Xo & zXmXmX% &X>X,.=.=.=.%.O.X.X.K K X.o.=.,.2.2.1.1.I.@X;X9.9.7.4.2.1.1.2.2.1.,.",
"4.2.2.1.1.1.<.>.=.=.%.;.>.,.1.1.2.2.1.2.2.<.,.=.qXa s.vXmX8XZ.9 s.& kXbXnX}.4 ,.1.=.&.%.+.X.K K K { X.+.=.,.,.2.1.:XG.M.1X>X9.9.4.2.1.1.1.2.,.,.",
"2.2.1.1.1.,.,.>.=.=.*.=.,.1.1.1.2.1.2.2.2.2.eX&Xk ^.nXmXcXmXx.e..X< zXnXbXzX% %X=.%.%.X.X.X.K K K X.X.%.=.1.2.2.<.2XZ.n.8.9.9.9.7.2.2.1.1.1.,.,.",
"4.2.1.1.,.,.>.=.=.%.=.;.,.1.2.2.2.1.2.1.2.wXu * {.mXvXvXbX^.5 n.y.c dXxXvXlX6 &.=.%.+.X.K K K X.X.O.%.=.,.<.2.2.1.<.Z.K.5.9.9.5.4.2.1.1.,.,.=.,.",
"2.2.2.,.>.;.=.=.%.=.=.;.,.1.2.2.-X1.1.1.<XC F hXvX3X}.zXV h $XyXj.t.K.vXkX}.# =.%.+.X.X.K K K X.%.%.=.,.1.2.2.2.<.2.Z.K.5.7.4.4.2.2.1.,.=.=.=.%.",
"2.2.1.,.>.=.*.%.%.%.=.>.,.1.2.2.2.2.1.>.C { cXmX3X  O C p _.o.o./.$ n.V.mX> o %.o.X.X.K K K X.+.&.1.1.2.1.2.2.2.].2.Z.K.1.1.3.1.2.<.1.1.=.=.=.%.",
"2.1.1.,.=.=.=.%.=.%.%.;.>.,.1.1.<.1.<.6.o nXxXnX6 o ` f.aXX.{ X.$X% }.x.G.y.  C X.X.K K K X.o.%.=.2.2.2.2.2.,.,.6.,.A.b.;.<.2.1.2.2.1.,.=.=.%.=.",
"3.2.1.1.,.;.;.=.*.=.=.=.>.>.>.<.1.1.2.2.- }.nXzXsX$ :.rXX.K /.K  X% 7X}.gX!.e.  K K K ' X.+.%.=.1.2.2.,.;.&.&.;.&.=.D.n.&.,.,.,.2.<.2.1.1.=.=.=.",
"2.2.2.2.1.,.,.>.=.%.*.%.&.=.>.>.1.1.2.yXf.3 {.jXV c.+.X.X.K K K { d.7 }.mXbXa.I._.' ' +.%.%.;.,.<.2.2.,.&.%.o.o.o.B.P.Y.*.=.=.,.,.2.2.2.1.1.,.,.",
"1.2.2.2.2.1.1.>.;.*.%.=.&.=.=.>.,.2.2.l.r C     d.{ X.X.' K K &XrXv.7 ~.s.7Xh p.u.Y._ +.&.,.2.2.2.2.2.=.%.X.' ' H n.P.uX%.%.=.,.2.<.2.2.2.<.,.,.",
",.,.,.1.1.,.,.,.;.=.*.=.*.*.=.;.,.,.tX- R R 4 c.`. XK K X.X.X.X.X.X.k.X y * { X.I.K.r.R.B.oX<.<.2.2.1.=.+.o.X.%XG.Z.b.O.o.%.%.=.=.2.,.,.,.2.,.;.",
"*.=.=.=.=.;.=.=.=.=.;.;.;.=.=.=.,.,.` O ) R : ).o.K K K O.@.$.$.$.+.) : f.o v aX+.X.K.D.Q.D.E.B.Y.R.E.E.E.R.n.i.p.R.iXO.+.+.+.%.&.=.>.=.>.=.=.=.",
"$.$.$.+.+.+.$.%.=.>.,.,.,.,.,.>.=.=.8   O $ % 9 l -XK X.$.=.).>.=.=.f.. = & 3 p f.%.rX9Xi.u.V.A.A.A.A.V.V.A.G.Q.M.>.=.%.+.O.X.o.+.+.+.%.O.+.%.%.",
"O.O.X.X.X.X.O.$.;.,.1.1.1.1.,.,.,.=.8 X $ 7 6 3 2 4 (.O.*.>.,.1.,.,.k.  o > 6 % @ Z <.1.<.`.9XE.:.%X%X|..X%X,.,.1.2.>.=.+.X.X.X.X.X.X.X.X.X.O.+.",
"H H K K K ' X.%.=.1.2.2.2.2.1.1.,.yX9   .     & $ o =X*.=.1.2.2.].eX(   h.p   4 . C +X<X-X<.3.1X&.=.=.=.,.1.1.2.2.2.2.>.%.O.X.H X.H K K K K O.+.",
"J X.K K K X.O.%.=.,.2.2.2.2.2.2.,.=.>.%.X.X.H ' -X+.%.=.,.2.2.4.5.4.7.<X4.*X2.2.6.2.1.<.6.*.=.&.=.=.*.1.<.1.2.2.2.2.2.>.*.$.O.O.X.H K K K X.O.@.",
"G K K O.O.+.%.=.,.1.2.2.2.2.2.2.<.1.=.=.+.X.' X.o.%..X=.,.2.2.4.5.9.:X,X+X2.2.2.2.2.1.=.%.%.%.%.=.=.,.1.1.2.2.2.2.2.2.2.1.=.*.$.O.X.H X.X.O.%.=.",
"G H X.O.+.%.&.=.,.1.2.2.2.2.2.2.2.,.,.=.O.X.X.o.=.,.,.1.1.2.2.7.9.9.9.-X4.2.2.2.2.<.1.=.).O.X.+.*.,.<.<.2.2.2.2.2.1.2.2.2.1.>.*.O.X.X.X.+.%.=.=.",
"J J X.+.%.*.=.1.1.1.2.2.2.2.2.<.2.1.,.%.X.X.X.@.>.1.2.4.1.2.2.7.8.0.0.9.7.2.2.2.2.2.1.*.O.X.X.O.*.1.2.2.2.2.2.2.2.2.2.2.2.2.<.=.@.X.X.o.@.%.=.1.",
"G J o.+.%.&.&.,.1.1.2.2.2.2.<.<.1.=.&.%.X.X.o.@.2.7.7.7.2.2.2.7.8.8.8.7.7.2.2.2.2.2.1.=.O.H X.+.>.2.2.1.2.2.2.<.2.2.2.2.7.2.2.=.@.X.X.X.@.&.=.=.",
"G H o.+.%.=.=.,.1.2.2.2.2.2.<.,.=.%.+.X.H X.o.&.3.8.0.8.7.2.2.2.7.7.7.7.4.2.2.2.2.2.1.=.+.X.X.O.=.1.1.7.2.2.2.2.2.2.2.2.7.1.2.>.@.X.X.X.%.&.,.,.",
"G H X.o.%.=.=.,.,.2.4.7.2.7.<.,.&.+.o.X.X.H O.;.3.9.0.0.8.4.2.2.2.4.2.7.2.2.2.2.7.1.1.=.+.X.X.+.=.1.1.7.2.2.2.2.2.2.2.1.4.5.1.=.@.o.X.o.+.=.=.=."
};
