/* XPM */
static char *result[] = {
/* columns rows colors chars-per-pixel */
"72 72 227 2 ",
"   c #000001",
".  c #16160D",
"X  c #280D03",
"o  c #2A1201",
"O  c #341504",
"+  c #3B1908",
"@  c #3C2501",
"#  c #3D3116",
"$  c #2D2D27",
"%  c #373424",
"&  c #3A3A26",
"*  c #32322C",
"=  c #3B3B32",
"-  c #481B07",
";  c #541E08",
":  c #530011",
">  c #6C120A",
",  c #4A2505",
"<  c #572507",
"1  c #542A00",
"2  c #5C250D",
"3  c #52320D",
"4  c #5B2710",
"5  c #632A0A",
"6  c #623202",
"7  c #6D3405",
"8  c #68340B",
"9  c #6C340A",
"0  c #713607",
"q  c #743609",
"w  c #75370B",
"e  c #77380C",
"r  c #7B3A0D",
"t  c #612D10",
"y  c #6C2E13",
"u  c #742E12",
"i  c #6B3113",
"p  c #753414",
"a  c #7C3A13",
"s  c #7A371A",
"d  c #473324",
"f  c #4D392B",
"g  c #603A2A",
"h  c #604C00",
"j  c #43432B",
"k  c #4E472A",
"l  c #57442B",
"z  c #474631",
"x  c #4B4B32",
"c  c #5A4932",
"v  c #4F5033",
"b  c #555335",
"n  c #5B5233",
"m  c #694628",
"M  c #624D2C",
"N  c #7A4927",
"B  c #7D4C2C",
"V  c #66512D",
"C  c #7A532E",
"Z  c #664932",
"A  c #774C32",
"S  c #6A5532",
"D  c #655835",
"F  c #7C5531",
"G  c #4E4E45",
"H  c #565647",
"J  c #655A45",
"K  c #646446",
"L  c #6A6A46",
"P  c #6A6948",
"I  c #756946",
"U  c #756D45",
"Y  c #797247",
"T  c #6B695C",
"R  c #756D5C",
"E  c #78735A",
"W  c #6E6E63",
"Q  c #747464",
"!  c #7C7564",
"~  c #7A7A65",
"^  c #757569",
"/  c #7B7B6C",
"(  c #777970",
")  c #7D7D70",
"_  c #9B001B",
"`  c #A7001D",
"'  c #BC001F",
"]  c #813C0E",
"[  c #832713",
"{  c #8C2E12",
"}  c #8B3617",
"|  c #833D13",
" . c #843C1B",
".. c #8A3E1D",
"X. c #B40021",
"o. c #BA0121",
"O. c #B71D22",
"+. c #893F21",
"@. c #983220",
"#. c #BC3522",
"$. c #C1111F",
"%. c #C63F1F",
"&. c #C60225",
"*. c #C21921",
"=. c #C22F22",
"-. c #C33A25",
";. c #8E5B08",
":. c #854112",
">. c #8E4214",
",. c #924315",
"<. c #91411D",
"1. c #9D481D",
"2. c #A1441E",
"3. c #A4491D",
"4. c #AA4B1E",
"5. c #BD451A",
"6. c #A9521F",
"7. c #BD501A",
"8. c #874926",
"9. c #814D26",
"0. c #924121",
"q. c #9B4522",
"w. c #9E4A20",
"e. c #855129",
"r. c #91552A",
"t. c #865832",
"y. c #A74621",
"u. c #A44B24",
"i. c #AC4C22",
"p. c #B44E23",
"a. c #BD4E25",
"s. c #AC5122",
"d. c #B65123",
"f. c #BC5324",
"g. c #BD5328",
"h. c #C9481E",
"j. c #D14D1F",
"k. c #C5551A",
"l. c #D25A1E",
"z. c #CD601F",
"x. c #DA791C",
"c. c #C64826",
"v. c #C35526",
"b. c #C75826",
"n. c #C75728",
"m. c #C95629",
"M. c #C75928",
"N. c #CB5A29",
"B. c #D35929",
"V. c #D15D2B",
"C. c #CE6B26",
"Z. c #CC632C",
"A. c #D36520",
"S. c #D4632D",
"D. c #DB642E",
"F. c #DB682F",
"G. c #CF7223",
"H. c #D47424",
"J. c #D96831",
"K. c #E36432",
"L. c #E46C32",
"P. c #E96E33",
"I. c #F16F35",
"U. c #E77234",
"Y. c #EC7234",
"T. c #F37536",
"R. c #F77738",
"E. c #F77838",
"W. c #FB7A39",
"Q. c #86795A",
"!. c #827C5B",
"~. c #817B66",
"^. c #807F70",
"/. c #7F8070",
"(. c #D69610",
"). c #E59616",
"_. c #E7AD0C",
"`. c #FBBD0E",
"'. c #ECA517",
"]. c #F3AD13",
"[. c #F6B412",
"{. c #DB8621",
"}. c #FF803C",
"|. c #FFC40D",
" X c #89845A",
".X c #938A5A",
"XX c #958B5A",
"oX c #9E935D",
"OX c #A3975D",
"+X c #848464",
"@X c #8C8C65",
"#X c #83836C",
"$X c #8C8C6A",
"%X c #918E65",
"&X c #949465",
"*X c #999765",
"=X c #9B9A65",
"-X c #93936B",
";X c #9C9C6C",
":X c #838370",
">X c #888770",
",X c #8C8C70",
"<X c #908F70",
"1X c #8F9070",
"2X c #949470",
"3X c #9A9670",
"4X c #979870",
"5X c #9B9B70",
"6X c #A29D67",
"7X c #A19D70",
"8X c #9FA06D",
"9X c #9FA170",
"0X c #A2A26C",
"qX c #ABA56B",
"wX c #AAA96E",
"eX c #B3A969",
"rX c #A4A470",
"tX c #A9A570",
"yX c #A7A870",
"uX c #AAAA70",
"iX c #B1A770",
"pX c #B3AE70",
"aX c #BAAF70",
"sX c #B5B170",
"dX c #BDB370",
"fX c #C3B570",
"gX c #C5B870",
/* pixels */
") ) ) ) ) ) :X2X5XrXuXsXuXuXuXyXrX5X2X,X:X:X) ) ) :X,X2X9XrXuXpXpXpXuXuXsXuXuXuXuXuXuXyXtXrX9X5X5X5X5X5XrXyXuXuXpXuXyX9X2X>X:X/.) ) ) ) ) ) >X,X",
") ) ) ) ) :X>X2X5XyXuXuXuXuXyXyXrXrX5X2X:X:X) /.:X>X1X4XrXyXuXsXsXsXsXsXuXuXuXuXuXuXuXyXrX5X5X5X5X5X5XrXtXyXuXsXpXuXyXrX4X1X>X:X/.) ) ) ) :X,X,X",
":X:X) ) >X,X2X5XrXyXyXuXuXyXyXyXyXyXrX4X>X:X/.:X,X4X5X9XrXyXyXsXsXfXdXdXsXpXuXuXuXuXrXrX3X2X1X2X5X7XrXrXtXyXuXuXyXuXyXyXrX5X4X2X>X:X) :X:X,X2X2X",
":X:X:X:X>X2X2X5XrXrXuXuXuXuXuXyXuXrXrX5X,X:X:X>X4X9XyXyXyXyXuXsXdXgXgXdXpXuXyXyXyXyXrX5X1X>X>X,X5XrXyXyXyXtXuXuXyXuXuXyXyXrX9X4X>X:X:X:X>X2X5X5X",
">X:X:X:X,X2X5XrXrXyXyXuXuXuXyXyXtXrXrX2X>X:X^.<X5XyXuXpXyXyXuXsXfXfXfXfXpXuXyXyXuXyXrX5X>X:X:X>X5XrXuXuXuXuXyXyXyXyXuXuXuXuXyX5X,X:X#X:X1X2X5X7X",
">X>X:X:X1X2X5X5XrXyXuXuXyXuXtXtXrX7X5X1X:X^.:X<XtXpXdXsXpXuXuXsXaXdXdXdXpXyXuXyXuXuXrX5X>X/./.>X4XrXuXuXuXyXuXyXyXyXyXuXuXuXtXrX,X:X:X:X,X2X5X5X",
",X:X:X:X,X2X5XrXrXtXuXuXuXuXrXrX3X2X,X^.^.) :X3XiXfXfXdXsXuXuXuXpXpXiXpXuXuXyXuXuXyXrX5X>X:X:X>X5XrXyXuXuXuXyXuXuXyXuXuXsXuXrX5X,X:X:X:X,X2X5X5X",
">X>X:X:X,X4X5X5XrXyXuXuXuXyXrX5X2X>X:X) ( ) >X3XiXfXfXfXsXuXyXyXyXtXuXpXuXuXyXuXyXyXrX5X>X:X:X,X5XrXyXuXuXuXyXyXyXuXyXuXuXyXyX5X,X:X:X:X,X5X5X5X",
">X:X:X:X,X2X5XrXrXyXuXuXuXuXyX5X,X:X) ( ( /.,X7XiXfXfXdXpXyXrXrXtXyXyXyXyXyXuXuXuXuXrX5X,X:X>X,X5XrXuXuXuXuXyXyXyXuXyXuXuXyXrX5X,X:X:X:X2X2X5XrX",
">X:X:X>X2X5XrXrXyXyXuXsXpXuXyX5X,X/.) ) :X>X3X7XiXaXaXaXuXrXrXrXrXyXyXyXyXyXuXuXuXyXrXrX2X,X,X2XrXtXuXuXuXuXyXtXtXuXyXyXyXtX5X5X>X:X:X:X2X5XrXrX",
":X:X:X,X5X5XtXyXuXuXpXuXpXuXrX5X>X/.) :X2X5X5XrXtXtXtX7X7X7X5XrXrXyXuXuXwXwXyXwXuXyXrXrX2X2X2X3XrXtXuXuXuXuXyXuXyXuXyXtXrXrX5X2X>X:X:X,X4X5XrXyX",
":X:X:X,X5XrXyXuXuXyXyXuXuXuXrX4X,X/.:X>X2XrXrXrX7X7X5X3X5X3X5X5X=X*X=X=X=X=X*X6XwXyXrXrX5X5X4X5XrXyXuXuXuXyXyXuXuXuXyXtXrX5X2X2X:X:X:X,X5XrXyXuX",
":X:X:X,X5XrXrXyXyXrXrXrXyXrX9X4X,X>X>X1X5XrXrXrX5X5X4X4X3X3X;X=XU M V S D V M Y 0XtX0X7X5X3X2X5X5XrXrXrXyXyXuXuXyXyXrXrX5X2X2X>X:X) :X,X5XrXyXyX",
") ) :X,X5XrXrXrX9X5X5X;X5X5X4X4X1X1X1X4X0XrXrXrX7X5X4X5X&X%X&XQ.9.r r r r r r B .X=X&X&X-X2X2X2X2X5X5XrXrXyXuXyXyXrXrX5X2X2X>X:X) ) :X,X5XrXtXyX",
"( ) /.>X2X5XrX5X2X,X,X>X>X,X1X1X2X4X5X5X5XrX9X9X9X9XrX;XU V D C s.f.p.p.p.f.f.i.C n M I >X$X:X:X>X>X2X4XrXtXuXyXyXrX5X4X2X>X:X) ) ( /.,X2X5X5X5X",
") ) :X>X2X5X4X4X,X:X:X/./.:X>X1X5X9XrXrX5X5X5X5XrXwX8X Xm 6 0 ,.f.V.S.D.S.V.V.v.,.0 6 g E / :X) ) :X>X2XrXyXyXtXrX5X2X2X>X:X) ) ) ) :X>X2X5X5X4X",
":X:X:X,X2X2X2X2X>X>X:X/./.:X>X2XrXrXuXuX7X5X3X5XrX0XY k @ 0 4.n.v.V.P.R.T.P.V.v.v.4.0 , d J / ^./.:X:X1X5XrXrXrX5X2X2X,X>X:X:X:X:X:X:X>X2X2X2X2X",
"1X,X1X,X,X,X,X,X,X,X,X,X>X>X2X5XuXpXpXuX7X3X5X5X;XXXr.>.] ,.4.v.N.D.T.W.W.R.D.V.v.p.:.| >.r.E ^.:X:X>X,X2X5X5X5X2X,X1X,X,X1X,X,X,X2X,X2X,X,X,X1X",
"5X5X5X2X,X>X>X,X2X4X5X5X4X4X9XtXaXfXdXaXrX5X2X-XL m S.L.N.4.w ,.D.E.R.W.E.E.R.F.>.w 4.N.L.S.m K $X1X2X,X1X,X,X>X>X:X:X,X2X5X5XrX5X9X5X2X,X>X,X>X",
"yXtXrX5X,X:X>X,X5X9XrXyXrXrXyXpXfXfXfXaXtX;X-X!.m 1.U.T.N.4.:.6.Y.W.W.W.R.W.W.U.6.:.4.M.T.U.w.m !.-X-X,X,X>X:X) ) :X:X,X3XrXrXyXyXrX9X5X,X:X>X>X",
"uXuXrX5X1X:X:X,X5XrXrXuXyXyXuXsXfXfXfXaXtX&XK N S.Y.L.g.u p Z.Y.E.E.W.E.E.E.W.R.Y.Z.p u v.F.Y.J.B K @X2X:X:X) ) ) :X:X2X5XrXyXuXuXuXyX5X1X>X>X>X",
"sXpXyX5X2X>X>X1X4XrXyXyXyXuXpXsXdXfXdXpXtX@X& y Z.P.N.y.;  .U.}.W.E.E.E.E.E.R.W.W.U. .; y.N.Y.Z.i & +X1X:X) ) /.:X>X2X4XrXyXuXsXpXsXyX9X2X>X,X>X",
"uXuXyXrX2X2X1X1X4X5X9XrXyXuXpXpXsXpXsXpXrX&X& O y  .0.q.3.M.T.W.W.R.E.E.R.R.R.W.W.T.b.3.q.0...p O & +X1X:X:X) :X2X2X9XrXyXuXuXpXuXuXrXrX2X2X,X,X",
"uXuXrXrX5X4X2X2X2X4X5X9XyXuXuXuXuXuXuXuXyX=XK % . X  .i.m.V.P.R.R.E.W.W.R.W.W.W.T.P.S.n.i.s X . % K @X,X:X:X:X>X2XrXrXyXyXyXuXyXuXyXyXrX5X2X2X2X",
"uXyXrXrX5X5X5X5X5X5X5X5X9XrXrXrXtXyXyXyXwXwX0X Xk 0 i.v.m.N.V.D.R.W.W.W.W.W.W.T.F.V.N.N.n.i.0 k  X$X2X,X:X:X:X,X5XrXuXuXuXuXyXyXrXyXrXrX5X5X5X5X",
"yXrXrX9XrX5X7X5X5X5X5X5X5X5X5X9XrXrXyXuXsXeXsX6XV r f.B.N.b.v.N.P.T.I.Y.Y.T.I.P.N.v.n.N.B.f.r S %X2X,X:X) ^.:X<X5XyXuXsXuXyXyXrXrXrXrXrX5XrX5XrX",
"9X9X5X9XrXrXrXyXyXrXrX5X2X1X1X4X5XrXuXsXaXdXdXeXV a f.B.N.m.n.M.V.S.N.B.S.B.c.-.b.M.b.N.V.f.r V $X>X:X:X) ) :X,X5XrXuXuXuXyXrXrXrX5X5XrXrXrXrXrX",
"5X5X5X5XrXtXyXuXyXrXrX5X1X>X>X,X5XrXuXsXeXeXeXOXY e.s.g.b.M.M.m.c.b.G.G.b.-.&.$.c.N.M.n.f.s.9.J E ~ W ^ ( ) :X,X5XyXuXuXuXyXrXrX5X5X5X5XrXrXrXyX",
"5X5X5X5XrXrXuXuXuXyXrX2X>X:X/.,X4XrXwXeXY k k Y OXoXF ,.f.Z.M.m.#.C.'.'.z.o.&.O.c.N.Z.f.,.F Q.~ H * $ G / :X>X2X5XrXyXuXuXuXuXtX5X5X5X5XrXyXuXuX",
"3X5X4X5XrXyXuXuXuXyXrX2X:X) / #X$X&X;XXXe.i + b pXwXD 0 d.N.M.N.C.{.].).k.' $.-.m.N.V.d.w b $X) = O t N R ~.+X%X0XtXuXpXsXsXpXuX7X3X2X5XrXyXpXuX",
"5X5X3X5XrXyXuXuXyXrX5X2X:X) ) /.K j x F Z.Z.i n wXwXV r f.V.m.H.'.'.x.h.*.*.c.m.m.M.V.f.r c :X/ = y Z.S.A x j U ;XyXuXaXdXfXdXiX7X5X4X5XrXyXyXuX",
"7X7X5X4XrXrXuXyXrX7X5X,X:X:X/ Q.r.| < <.T.T.a x .X*XU e.s.f.-.H.[.].k.' ' =.m.N.M.m.v.i.9.J W T =  .Y.T..., | r..X0XuXiXfXgXfXaXtX5X4X5XrXyXyXyX",
"7X7X5X4X5XrXrXrX5X4X2X,X#X#XH e.S.F.d.v.E.Y.:.. & K &X.XF { ' A.].].h.X.o.=.m.N.N.g.,.F ~.E G $ . :.Y.E.v.p.F.S.e.L 0XsXdXfXfXaXtX7X5X4X5XrXrX9X",
"tXrX5X4X5X5X4X4X2X1X,X$X#XE 9.s.T.W.L.D.Y.U.d.r O x ;X;XD > ` l.].[.x.h.' $.c.m.m.s.0 n #X/ = O e s.L.T.D.L.W.T.6.9..XwXdXdXdXaXtXrX5X5X5X5X3X5X",
"tXrXrX5X2X,X>X:X:X:X>X#XK N Z.Y.E.E.E.Y.F.S.U.Z.t v -X;XD u ` l.'.`.[.).%.X.&.#.y.0.8 Z :X) = t Z.U.S.J.Y.R.W.R.Y.Z.9.U qXsXeXpXuXtXrX5X2X,X>X>X",
"uXyXrX5X2X>X:X) ) ) ~.Q.9.6.Y.W.W.E.E.L.N.B.T.L.<.c  X XA u ` l.'.|.|.].x.%.*.' @.a p Z R T f 0.L.T.V.M.P.R.R.W.}.Y.6.e.XX0XwXwXyXrXrX5X2X:X:X) ",
"uXuXtX5X<X:X:X:X) ~ H r.Z.Y.E.W.W.T.D.N.b.N.S.V.g.u.C n N @.' l.].|.`.[.].).j.o.@.+.+.8.Z Z u.v.V.S.M.M.V.D.T.E.W.E.U.C.r.U 8XyXuXuXtX5X2X:X:X) ",
"uXuXyXrX5X,X>X>X>X/.k >.Y.W.W.W.W.T.V.v.n.n.n.n.V.v.,.w a @.` 7.).].[.|.|.].k._ @.+.+.} w >.v.V.b.n.m.b.v.V.T.W.W.W.W.L.>.k &XyXuXuXyXrX2X2X>X>X",
"uXuXyXrXrX5X5X2X;X@Xz :.L.W.W.W.W.T.S.v.n.b.n.N.N.N.f.4.r 1 < { c.x.].|.|._.;.: } +.9 w 4.a.m.N.m.b.M.b.v.S.T.W.W.W.W.L.:.v =XyXuXuXyXrXrX5X5X5X",
"yXyXyXyXrXrXrX9X=X.Xt.6.P.W.W.T.R.P.N.b.n.N.n.b.N.N.N.v.,.0 0 [ _ 5.).].[.(.h   y  .r | v.V.N.b.M.m.M.m.n.N.P.T.R.W.}.U.6.t..X8XrXuXyXyXrXrXrXrX",
"tXrXyXtXyXuXyX;XL B Z.Y.W.W.W.Y.D.N.N.n.b.M.M.N.N.b.N.n.f.f.f.i.[ { 5.l.l.k.-   @ r 4.v.N.M.N.b.b.n.b.n.b.N.N.D.T.E.W.R.T.Z.N L *XrXyXyXyXyXuXuX",
"rXrXrXrXyXyXwX=Xj p Y.}.E.T.W.T.V.v.n.b.b.m.N.N.N.N.b.N.N.N.B.f.6 5 O.&.' ` > t 7 ,.v.N.N.m.N.N.N.N.N.N.N.n.v.V.T.W.T.T.W.U.p j &XrXrXrXyXyXuXuX",
"5X5X5XrXrXyXuX=Xx a Y.W.L.D.W.R.S.v.b.b.b.b.N.N.N.N.M.M.N.N.V.d.o < B.K.[ : 2.f.f.g.b.M.b.b.N.N.N.N.n.n.n.b.v.S.R.R.D.L.W.U.a x @X;X5XrXtXyXyXuX",
"5X5X5X5XrXwXwX=Xx i Z.J.d.d.F.L.V.n.b.N.N.n.f.f.f.g.M.M.N.b.v.3.p 1.T.U.i o d.S.V.N.N.M.N.N.g.d.p.f.b.N.N.N.N.N.L.F.f.d.J.Z.y x @X5X5X9XrXyXuXuX",
"5X5X5X5XrXyXyX*Xj O i p 2 t r 1.v.V.B.V.V.f.,.w 9 <.v.V.V.f.u a Z.Y.W.L.i O 4.V.N.N.M.V.V.v.,.w q ,.v.V.B.N.V.n.3.N t 2 p i O j @X;X5X5XrXtXuXuX",
"5X9X5X9XrXyXyX=XL j x x x z x A u.d.p.p.f.i.A k 3 0 4.f.v.2.  t L.}.}.F.i - p.V.N.n.f.7.f.3.7 # z A i.f.d.d.f.u.N b x v x x j P -X5X5X5XrXtXyXyX",
"rXrXrXrXtXyXyXwX*X@X@X@X@X+X$X!.m 2 2 t p 9.Q.~.V 6 0 r ] 8   t L.W.}.L.a 1 f.V.N.f.| 7 w 7 1 c R ! B r 5 2 1 m .X=X*X*X*X&X&X*X0XrXrXrXrXyXyXyX",
"yXrXrXtXyXyXrXrX5X5X;X2X2X5X;X-XP & x z l I -X-XS 6 0 7 , , 4 u.U.W.W.U.3.] 4.v.N.v.>.7 0 w ] t.~.! J k z x j L 8XwXyXyXyXyXrXwXyXrXtXyXyXyXyXrX",
"yXuXyXuXuXyXyXrX5X5X5X2X2X5X5X;X=X*X*X*X&X-X5X$Xn 0 4.4.- 4 Z.T.R.W.W.Y.M.3.] >.g.N.g.d.f.f.g.p.8.H R #X@X*X*X6XyXwXuXuXuXpXuXuXyXyXyXyXuXyXyXrX",
"uXuXuXuXuXuXyXrX5X4X2X2X5X5X5XrXyXuXyXyXwX7X=XQ.C 1.n.a.- i F.W.R.W.W.T.D.7.8 6 i.m.N.N.N.N.N.p.w g / ,X5XrXyXyXuXyXuXuXiXpXpXpXpXuXuXuXyXuXrXyX",
"pXuXyXuXuXuXrXrX5X5X2X5X7XrXrXyXtXyXuXuXwX=XI B i.n.N.p.- ; g.L.R.W.W.R.D.p.7 1 ..i.n.V.B.M.i.+.9 Z ! ,X5XrXuXuXyXyXuXpXaXfXfXaXpXuXyXyXuXuXtXrX",
"uXpXyXyXuXyXrXrX5X5X5X5XrXrXyXyXuXuXyXuXyX*XM r d.M.V.p.; - i.V.P.T.R.P.V.d.,.r  .q.d.v.v.d.q. .8 Z ! ,X5XrXyXuXyXyXuXsXfXfXfXdXsXuXyXyXyXuXrXrX",
"pXuXyXyXyXrXrX5X5X5X5X7XrXyXyXyXuXtXyXuXwXoXS 7 <.p.m.a.< - p.N.V.V.S.V.N.n.f.4.q.+.q.y.y.q.q. .8 m ! 2X5XrXuXuXyXyXuXpXdXfXfXfXpXpXyXyXyXrXrXrX",
"pXuXyXrXrXrXrX5X4X4X5X5XrXrXuXuXuXuXuXyXyX6XS 8 s q.g.i.- ; d.B.b.n.n.b.n.N.V.v.<. .+.+.+.+. .s m J $X5XrXyXuXuXyXyXpXsXdXdXdXdXpXuXyXrXrXrX5X5X",
"uXuXyXrXrX5X5X5X2X5X5X5XrXyXuXuXuXyXyXyXuX=XV 7 ..q.u.+.X ; d.V.N.b.n.n.n.N.V.v.} 9 ..q.q. .4 d E -X7X0XyXyXuXuXuXuXuXpXpXpXpXpXuXuXyXrXrX5X5X5X",
"uXuXyXrX5X5X5X2X2X2X5X7XrXyXuXuXuXuXyXyXwX6XY N s ..+.p + < q.g.b.N.N.b.N.N.n.s.w 1 p  . .s % H %X7XtXwXyXuXuXuXuXuXyXuXuXpXuXyXuXyXyXrX5X5X5X2X",
"uXyXyXrXrX5X5X2X5X2X5X5XrXrXrXrXyXyXuXyXuXyX0X.Xf - 8 8 2 < , s v.V.V.N.V.b.p.0.w 1 - + - d R $XrXyXyXyXrXrXrXrXrXrXrXrXrXrXyXyXuXyXyXtX7X5X5X2X",
"uXuXuXyXrX5X5X5X2X5X5X5X5XrXrXrXyXyXuXuXuXuXyX;XL % , 1 6 , = f u.a.p.p.d.i. .s m c = = * H $X5XrXuXuXwXrX5X5X5X3X5X5X5X5XrXrXrXyXuXuXyXrX5X5X5X",
"uXuXuXuXrXrXrXrX5X5X2X2X5X5X5XrXtXyXuXuXuXuXyXrX*XE % X o % T T g 2 2 2 4 ; - d T ^ Q Q ~ $X5XrXyXuXyXrX5X,X>X>X>X,X,X2X5X5XrXrXyXuXuXuXyXyXrXrX",
"yXtXuXuXuXyXrXrX5X5X5X2X2X2X5XrXrXyXyXuXpXyXtXrX4X#XH $ $ H ) / G * = = = = * G ^ ) :X,X5XrXrXuXuXuXyX5X2X>X:X/.^.:X>X,X2X2X5X9XyXyXuXuXyXyXtXrX",
"rXrXrXrXyXrXrXrX5X5X5X5X5X5X5X5XrXrXrXrXyXyXrX4X$X/.Q W Q ~ :X:X/ Q Q Q ^ ! Q / /.:X>X2X9XyXuXpXuXyXrX5X2X:X:X:X:X:X:X>X,X2X2X5X9XrXrXrXtXrXrXrX",
"5X5X5X5X5X5X5X5XrX5X5X5X5X5X5X5X9XrXrXrXrX5X4X1X:X/.( /.>X,X1X1X1X,X,X,X,X,X,X,X,X1X2X5XrXyXpXuXuXrX7X5X2X,X>X>X>X,X,X,X,X,X,X2X3X5X5X5X5X5X5X5X",
",X2X<X<X,X,X2X2X5XrXtXrXrXrXrXrXrX5X5X5X2X2X,X>X) ) ) :X1X5X5X5X9X4X4X4X5X5X5X5X5X5X5XrXyXuXuXyXrX5X5X5X5X5X5X5X5X5X2X2X,X:X:X>X,X,X<X,X,X<X<X2X",
":X:X:X:X:X:X:X,X5XrXyXyXyXrXrXrX5X5X2X2X,X:X/./.) ) :X,X4X9XyXyXyX0XrXrXrXrXrXrXrXrXrXyXyXuXtXrX5X5X5X5X5XrXrXrXyXrXrX5X,X:X:X/.:X:X:X:X:X:X,X,X",
"^.) ) ) ) ) :X2X9XrXuXuXpXuXyXyXrX5X2X2X>X:X) ) ) ^.>X2X5XrXyXuXuXpXuXyXyXyXuXuXuXuXuXyXrXrXrX5X5X5X5X5XrXyXuXuXuXuXyX9X2X>X:X) ) ) ) ) ) ) >X,X",
") ) ) ^.:X:X>X2X5XrXuXuXuXuXyXyXrX9X5X2X:X^.) ) :X>X2X4XrXyXuXsXsXsXdXsXsXuXuXuXuXuXyXtXrX5X5X5X5X5X5XrXrXyXuXsXuXpXuX9X4X1X,X:X/.) ) ) ) :X>X1X",
"( ) ) :X>X,X2X4XrXtXuXuXuXuXuXuXyXrX5X5X>X:X^.:X1X2X5XrXrXyXpXsXdXdXdXdXsXuXuXyXuXuXyXrX4X2X2X2X5X5XrXtXyXyXyXuXuXuXyXyXyX5X4X1X>X/.) ) :X>X2X5X",
"^ ^ :X:X2X2X4X5XrXyXuXuXuXuXyXuXuXrXrX5X,X:X:X>X4XrXrXrXyXyXuXsXfXgXgXdXpXuXyXyXuXyXrX5X1X>X:X1X2XrXyXyXuXyXuXyXyXuXyXuXyXyX9X4X,X:X:X:X,X2X4X5X",
"( ( :X,X2X2X5XrXrXyXuXuXuXuXyXyXuXyXrX3X>X:X:X<X9XyXuXpXyXyXuXsXdXgXfXdXsXpXuXyXuXyXrX5X,X:X:X>X5XyXyXuXuXuXuXyXuXuXuXuXuXyXrX5X<X:X:X:X2X2X5X7X",
"^ ( :X,X2X3X4XrXyXyXuXuXuXuXyXtXrXrX3X2X:X/.>X2XtXsXsXsXpXuXuXsXdXfXdXdXpXuXuXyXuXuXrX5X>X:X:X>X5XyXuXpXuXuXuXuXuXuXuXuXsXpXyX5X<X:X:X:X,X5X5XrX",
"^ ( :X<X<X5X7XrXyXyXuXuXpXuXtXrX5X2X,X:X/.) >X3XpXaXgXdXsXsXuXuXsXsXsXsXuXuXuXuXpXuXyX5X>X:X:X,X5XyXuXpXuXuXuXuXuXuXuXuXpXuXyXrX<X>X:X>X<X5X5XrX",
"! ( :X<X2X5X5XrXyXuXpXpXsXuXtX7X3X,X>X^.) ) >X5XiXfXgXgXsXuXuXuXuXuXsXuXpXuXyXpXuXuXyX5X,X:X:X>X5XyXuXuXsXuXuXuXuXuXuXuXpXpXyX5X<X:X:X:X<X3X5XrX"
};
