/* XPM */
static char *result[] = {
/* columns rows colors chars-per-pixel */
"72 72 219 2 ",
"   c #000000",
".  c #1B0804",
"X  c #151409",
"o  c #181814",
"O  c #250903",
"+  c #261000",
"@  c #341405",
"#  c #381A03",
"$  c #3E2701",
"%  c #2C2D26",
"&  c #362E23",
"*  c #393926",
"=  c #35352C",
"-  c #373730",
";  c #3D3D32",
":  c #50000A",
">  c #491D08",
",  c #531D08",
"<  c #6F130C",
"1  c #4B2602",
"2  c #4A2104",
"3  c #522901",
"4  c #5D2C03",
"5  c #56230B",
"6  c #5D250D",
"7  c #532E0E",
"8  c #55291A",
"9  c #553311",
"0  c #632809",
"q  c #7C2C0C",
"w  c #663306",
"e  c #6D340A",
"r  c #733609",
"t  c #76380D",
"y  c #7C3A0D",
"u  c #602B10",
"i  c #6A2E12",
"p  c #732F14",
"a  c #6D3113",
"s  c #743415",
"d  c #7C3A14",
"f  c #7A3718",
"g  c #473825",
"h  c #533D2E",
"j  c #653C27",
"k  c #534D00",
"l  c #44432C",
"z  c #4B452B",
"x  c #57472A",
"c  c #5C4D2C",
"v  c #444433",
"b  c #4C4C32",
"n  c #535233",
"m  c #5A5133",
"M  c #674727",
"N  c #774728",
"B  c #7B4A2A",
"V  c #7C532E",
"C  c #644B31",
"Z  c #6B4B30",
"A  c #645531",
"S  c #675936",
"D  c #7C5936",
"F  c #4E4E46",
"G  c #575747",
"H  c #675E45",
"J  c #656546",
"K  c #6A6A46",
"L  c #766B47",
"P  c #746C45",
"I  c #7A7347",
"U  c #6C6B5A",
"Y  c #736B5A",
"T  c #79765B",
"R  c #757565",
"E  c #7A7965",
"W  c #757569",
"Q  c #7A7A6C",
"!  c #777970",
"~  c #7D7D70",
"^  c #98001A",
"/  c #A8001D",
"(  c #B30B1F",
")  c #872B0C",
"_  c #813C0E",
"`  c #873C13",
"'  c #8D3118",
"]  c #833C1B",
"[  c #8B3E1D",
"{  c #A1391F",
"}  c #BC0021",
"|  c #BF0821",
" . c #BC1823",
".. c #9B3A21",
"X. c #B13022",
"o. c #C1161F",
"O. c #C63C1F",
"+. c #C10421",
"@. c #C21E22",
"#. c #C43123",
"$. c #8A5908",
"%. c #834010",
"&. c #8D4414",
"*. c #924315",
"=. c #93421E",
"-. c #99411B",
";. c #9F4B1B",
":. c #A2431E",
">. c #A6491E",
",. c #AC4C1E",
"<. c #BB491A",
"1. c #A6511E",
"2. c #824E2A",
"3. c #934121",
"4. c #9C4422",
"5. c #9D4921",
"6. c #815029",
"7. c #8D5529",
"8. c #92572A",
"9. c #885A30",
"0. c #A34722",
"q. c #A34B24",
"w. c #AC4C23",
"e. c #B34E22",
"r. c #BD4F26",
"t. c #AC5221",
"y. c #B75123",
"u. c #BB5325",
"i. c #BA5529",
"p. c #AC653A",
"a. c #C7481D",
"s. c #C9561D",
"d. c #D4581F",
"f. c #D46E1C",
"g. c #D8771B",
"h. c #E17B1D",
"j. c #C64B27",
"k. c #C35526",
"l. c #C95627",
"z. c #C65628",
"x. c #C95428",
"c. c #C65929",
"v. c #CB5A29",
"b. c #D55D21",
"n. c #D25D2B",
"m. c #CB6127",
"M. c #CC622D",
"N. c #D4622D",
"B. c #DB652E",
"V. c #D6692C",
"C. c #D37425",
"Z. c #DC6B32",
"A. c #E56D32",
"S. c #E96E33",
"D. c #EC7134",
"F. c #F37436",
"G. c #F77738",
"H. c #F77838",
"J. c #FC7A39",
"K. c #837547",
"L. c #827E58",
"P. c #827D66",
"I. c #807F70",
"U. c #7F8070",
"Y. c #D69B0C",
"T. c #EA9C16",
"R. c #E49218",
"E. c #FCBF0E",
"W. c #ECA315",
"Q. c #EEA919",
"!. c #F0AF11",
"~. c #F6B412",
"^. c #FBB712",
"/. c #FF813D",
"(. c #87865A",
"). c #8D825A",
"_. c #948B5A",
"`. c #9B8C5B",
"'. c #96935D",
"]. c #A9955A",
"[. c #848464",
"{. c #8C8B65",
"}. c #83836C",
"|. c #8D8C6B",
" X c #918E67",
".X c #959565",
"XX c #999767",
"oX c #9B9A66",
"OX c #93936A",
"+X c #9B9B6C",
"@X c #838370",
"#X c #888770",
"$X c #8C8C70",
"%X c #908F70",
"&X c #8F9070",
"*X c #949470",
"=X c #9A9670",
"-X c #979870",
";X c #9B9B70",
":X c #A39D67",
">X c #A19E70",
",X c #9FA16D",
"<X c #9FA170",
"1X c #A3A36C",
"2X c #AAA569",
"3X c #B5AA6A",
"4X c #BCB16F",
"5X c #A4A470",
"6X c #AAA570",
"7X c #A7A870",
"8X c #AAAA70",
"9X c #B1A770",
"0X c #B3AE70",
"qX c #BAAF70",
"wX c #B6B070",
"eX c #BDB370",
"rX c #C2B46F",
"tX c #C3B570",
"yX c #C5B870",
/* pixels */
"~ ~ ~ ~ ~ ~ @X*X;X7X8XwX8X8X7X7X5X;X*X$X@X@X~ ~ ~ @X$X-X<X7X8X8XwXwX8X8XwX8X8X8X8X8X8X7X6X7X5X;X;X;X;X;X7X7X8X0X0X8X7X<X*X#X@X~ ~ ~ ~ ! ~ ~ #X$X",
"~ ~ ~ ~ ~ @X#X*X;X7X8X8X8X8X7X7X5X5X;X*X@X~ ~ ~ @X#X&X-X<X7X8XwXwXwXwX0X8X8X8X8X8X8X8X7X5X;X;X;X;X;X;X5X6X7X8X8X8X8X7X5X-X&X$X@X@X~ ~ ~ ~ @X#X%X",
"@X@X~ I.#X$X*X;X5X7X6X8X8X8X7X7X6X7X5X;X$X@XU.@X&X*X;X<X5X7X7XwXeXeXeXeXwX8X8X8X7X8X6X;X*X*X%X*X;X;X5X7X6X7X8X8X8X8X7X7X5X;X-X*X#X@X~ U.@X$X*X-X",
"@X@X@X@X#X*X*X;X5X7X7X7X8X7X8X8X7X7X5X;X$X@X@X#X-X<X7X7X7X8X8XwXeXtXyXtXwX8X8X7X7X7X7X;X%X#X#X$X;X>X7X7X8X7X8X7X8X8X8X7X7X5X5X*X#X@X@X@X#X*X;X;X",
"#X@X@X@X$X*X;X5X7X6X8X7X7X7X7X8X6X7X>X*X$XI.I.%X;X7X8X0X7X7X8XwXeXtXtXeX0X8X7X7X8X8X5X;X#X@X@X$X;X5X7X8X8X8X7X6X7X7X8X8X7X7X7X;X$X@X@X@X$X*X;X;X",
"#X#X@X@X*X*X;X;X5X7X8X8X8X8X6X6X5X>X;X&XI.I.#X%X6X0XeXwX0X8X8X0XeXtXeXeX0X8X8X7X8X8X5X;X#XI.I.#X;X5X7X0X8X7X8X7X8X7X8X8X8X0X7X;X*X@X@X@XOX*X;X5X",
"$X#X@X@X$X*X;X5X5X7X8X8X7X7X7X5X;X*X$XI.I.~ I.=X9XtXtXeXwX8X8X8X9X0XwX0X9X8X7X7X8X7X5X;X#X@XI.#X;X5X7X8X8X8X7X8X7X8X8X8X8X8X7X>X$X@X@X@X$X*X;X;X",
"#X@X@X@X$X*X;X;X5X7X8X8X8X7X5X;X%X$XI.~ ! ~ #X=X9XtXtXtXwX8X7X7X8X7X9X8X7X8X7X8X7X7X5X;X#X@X@X$X*X7X7X8X8X8X7X7X7X7X8X8X8X7X7X;X$X@X@X@X$X*X;X;X",
"#X#X@X@X*X*X;X>X5X6X8X8X0X8X7X<X$X@X~ ! ! @X$X>X9XrXtXtX0X6X7X5X7X7X7X7X2X8X8X8X8X7X1X+X$X@X#X$X;X7X8X8X8X8X7X7X8X6X7X8X8X7X5X;X$X@X@X@X*X*X;X<X",
"@X@X@X#X*X;X<X7X7X6X8X8X8X8X5X;X#XU.~ ~ @X#X=X>X9XqXqXqX8X5X5X5XXXXXXXoXoXoXoXoX8X8X7X;X*X$X$X*X>X6X8X8X8X8X7X6X7X7X7X7X7X6X5X*X$X@X@X@X*X;X>X5X",
"@X@X@X$X*X5X7X6X7X8X8XwX0X8X7X;X$XU.~ @X&X-X;X5X6X>X6X>X>X;X>XXXI c A S S A M I 1X8X7X5X-X*X*X;X5X7X8X8X8X8X7X8X8X8X8X7X7X5X;X*X#X@X@X$X-X>X7X7X",
"@X@X@X$X*X5X7X7X7X7X8X8X8X8X5X-X#X@X@X#X-X5X7X7X>X>X+X=X X X X).6._ y y y y y 6._.+XXXXX+X;X*X;X5X7X8X8X8X7X7X8X8X8X6X7X>X;X*X%X@X@X@X$X;X5X7X6X",
"@X@X@X$X;X5X7X6X7X5X5X5X7X5X<X-X$X#X#X&X;X5X7X5X>X;X*XOXL M c V ,.u.,.,.y.y.y.w.V A M I XX;X*X;X;X5X7X7X7X7X7X8X7X7X7X5X;X*X*X#X@XI.@X$X;X7X7X7X",
"~ ~ @X$X;X5X5X7X;X;X;X;X;X;X-X-X&X$X*X*X;X5X5X5X5X;XOXL.x w r *.k.n.B.B.B.n.n.k.*.r 4 M T |.%X*X*X;X;X>X7X6X7X7X6X7X5X;X*X*X$X@X~ ~ @X#X-X5X6X7X",
"! ~ @X#X-X;X5X;X*X&X$X#X$X#X$X*X*X-X;X;X<X<X5X<X<X+XP g $ r ,.k.k.n.S.F.G.S.n.k.k.,.r $ g H P.@X#X#X*X*X5X7X7X7X7X>X;X*X%X#X@X~ ~ ! @X#X*X;X;X;X",
"~ ~ @X#X*X*X;X-X$X@X}.U.U.@X#X&X;X5X5X5X;X;X;X;XXX_.8.&._ *.,.k.v.B.F.J.J.G.B.v.k.t.&._ &.7.Y Q @X@X#X*X5X6X7X7X5X;X;X*X#X@X~ ~ ~ ~ @X#X*X;X;X-X",
"@X@X@X$X*X*X*X$X#X#X@X@X~ @X#X*X5X6X8X8X>X;X-XOXK M N.A.n.,.r *.B.G.H.G.J.J.G.B.*.r w.v.A.N.j G W @X@X*X;X5X5X5X;X-X*X$X#X@X@X@X@X@X@X$X*X*X*X*X",
"$X$X$X$X$X*X*X$X$X$X$X#X#X#X*X;X8X0X0X8X>X=XOXL.Z 5.S.F.v.>.%.1.D.J.J.J.G.J.J.D.1.` >.v.F.A.5.j Y Q }.$X*X;X;X*X*X$X$X$X$X*X$X$X$X*X*X$X$X$X$X*X",
">X;X;X*X$X#X@X$X*X-X;X;X;X-X;X6XqXeXtXqX5X{.H B V.S.A.k.p s v.D.H.J.J.G.G.G.J.G.D.M.s p k.A.D.N.B G }.*X*X$X$X#X#X@X@X$X*X;X;X;X;X;X;X*X$X#X#X#X",
"7X7X5X;X$X@X@X$X;X;X7X7X5X5X7X0XtXtXtXqX6X{.* a N.S.x.0., ] D./.J.H.F.J.H.H.G.J.J.D.] , ;.v.D.N.a * [.$X$X#X@X~ ~ @X@X%X;X5X7X7X7X7X<X;X$X@X#X#X",
"wX8X7X;X*X@X@X$X;X5X7X7X7X7X8XwXtXyXtXqX6X{.* @ i [ 3.4.>.c.F.J.H.G.H.H.G.G.J.J.J.F.c.0.4.[ [ a @ * [.*X@X@X~ ~ ~ @X@X*X;X7X6X8X8X8X7X;X$X#X#X#X",
"0X8X7X;X*X#X#X$X;X5X7X7X8X8XwXwXeXeXeXeX6XOXJ & X + ] q.k.B.S.G.H.J.J.H.J.G.G.G.H.S.B.k.w.] + o * J {.&X@X~ ~ ~ @X#X*X;X5X7X8X8X0XwX7X<X*X#X$X#X",
"8X8X7X>X*X*X*X*X*X;X<X5X7X8X8XwXwX0XwX8X7X<X.XT z e w.z.l.v.v.B.G.J.J.J.J.J.J.G.B.v.v.v.k.,.e x (.OX*X$X@X@X@X@X%X*X;X5X7X8X8XwX8X8X7X;X;X*X$X$X",
"8X8X7X5X;X*X*X*X*X-X;X<X7X7X8X8X8X8X8X8X8X7X1XOXC _ u.n.v.k.k.v.S.F.D.D.D.F.F.S.v.k.k.v.n.u._ A .X+X*X*X@X@X@X#X-X5X7X7X7X7X7X8X8X7X7X5X;X*X*X*X",
"7X7X7X5X;X;X;X;X-X;X;X;X5X5X5X5X7X7X7X7X8X8X8X.Xx _ r.n.v.l.c.v.n.n.N.n.N.N.n.n.v.k.z.v.n.u.y C  X-X*X$X@X~ @X*X;X7X8X0X7X8X7X7X7X7X5X5X;X;X;X;X",
"5X5X5X<X5X<X;X<X;X;X;X;X;X;X;X<X5X5X7X8X0X0X0X:XL 2.>.j.k.v.v.k.k.k.k.k.k.j.k.k.v.k.v.k.u.t.6.L  X*X$X@X~ ~ @X$X;X7X8X8X8X7X7X6X5X5X5X>X>X5X>X;X",
";X<X;X<X;X5X7X7X7X5X5X;X*X&X&X-X;X5X8XwX4XrX4X3X:X).V *.u.v.v.l.l.c.l.v.k.j.k.c.v.v.v.u.*.V ).OXOX#X@X@X~ ~ @X$X;X5X8X8X7X7X7X5X5X;X>X>X5X5X5X5X",
";X;X;X;X5X7X6X8X7X6X5X;X$X#X#X&X;X7X7XeXrXyXyXrXwXoXm r y.v.v.c.v.l.k.l.C.C.v.l.v.v.v.y.r m  X*X$X@X~ ~ ~ ~ @X#X;X7X8X8X7X7X5X5X;X;X;X;X<X7X7X7X",
";X;X;X;X5X7X8X8X8X7X5X;X#X@XU.#X*X5X8XeXtXtXyXrXeX1Xc y u.n.v.v.v.j. .b.W.Q.C.j.l.v.n.u.y c |.|.@X@X~ ~ @X@X#X*X;X7X7X8X0X8X8X7X;X;X-X;X7X7X8X8X",
";X;X*X;X5X6X8X8X8X7X>X-X@X~ ~ #X-X<X8XwXeXeX2X2X2X'.P 6.w.u.c.v.k.r.| s.T.Q.C.j.x.k.k.w.6.H T Q R W Q ~ @X$X*X;X5X6X8X0X0X0X9X8X>X-X-X;X5X7X0X8X",
";X=X-X;X5X7X7X8X7X5X;X%X@X~ ~ #X*X<X7X8X0X2XP l l K '._.V &.u.x.O.+.}  .m.C.m.c.v.k.[ D L.P.F & % F Q @X*X*X;X5X5X7X7X0XqXtXeXqX>X;X-X-X5X6X8X8X",
">X>X;X;X5X7X8X6X7X;X-X%X@XI.@X#X;X5X7X8X1X_.V i @ b 1X,XS t u.x.+.o.s.d.j.j.z.v.l.,.r S |.}.- @ i N Y #X;X;X7X7X5X7X6XqXtXtXtXqX6X;X-X;X5X7X7X7X",
"5X>X;X-X;X5X5X5X;X*X*X|.#X@X#X*X1X8X8X2XP N N.M.i n 1X1XS y u.j.} a.T.W.s.+.l.c.w.3.w S $X@X; u M.M.Z G .X7X2X8X7X7X8X0XeXyXtX4X6X>X-X;X>X5X5X>X",
"5X5X;X;X;X;X;X*X*X&X$X$X$X$X*X;X8X0X2X_.g =.D.F.=.b (.[.A y <.l.j.g.W.T.s.+.j.u.4.f w C R U - 3.F.F.3.g (.1X8X8X7X7X8X0XeXeX4X0X8X>X;X;X;X;X-X;X",
"6X5X>X;X*X$X#X#X@X@X#X$X*X*X1X6XwX3XI M =.c.G.D.5.8 l l 9 r ( d.T.T.f.O.o.+.@.X...=.e 9 = = 8 5.D.G.v.-.M K ,X7X7X7X7X8X0XwX0X0X8X6X<X;X*X$X$X@X",
"7X6X5X;X*X#X@X~ ~ U.@X$X*X5X8X0X3X].7.;.v.A.F.A.c.5.s > $ < / b.~.~.g.#.+.+.+. .4.f 4 2 , s 4.c.S.D.A.v.;.7._.,X7X7X7X7X7X9X8X8X7X7X5X;X$X#X@X~ ",
"8X8X6X;X*X@X@XI.U.@X@X*X+X7X8X2XK.8.V.D.F.D.B.B.D.A.c.4.# : / b.!.E.~.R.O.} +. .{ f X > -.l.A.D.N.B.D.F.D.M.7.I :X8X8X8X7X7X7X8X8X8X6X;X*X#X@X~ ",
"8X8X7X5X-X%X#X#X#X$X*X*X,X8X8X2Xc &.A./.J.F.v.v.D.D.Z.y.] : ^ <.R.~.E.~.g.a.@. .[ f 5 d u.B.F.D.v.v.F././.A.&.x :XqX0X8X8X7X7X7X8X8X7X5X*X*X#X@X",
"8X7X7X7X;X;X;X*X*X;X;X<X1X7X8X1Xn %.Z./.J.F.n.z.n.n.v.c.u.>.q ) a.h.!.E.~.T.d./ < e >.u.k.n.N.n.v.n.F.J.J.A.%.m 2XrXeXeX9X8X6X7X7X7X7X5X5X;X;X;X",
"7X7X7X6X7X5X7X5X5X5X5X7X7X7X1X`.9.1.D.J.J.D.N.k.z.z.z.v.n.k.` q ^ <.W.E.^.T.s./ ) &.k.n.v.k.k.k.k.n.D.J.J.D.1.9.].3XrXtXwX7X7X7X7X7X6X7X7X5X5X7X",
"7X7X7X7X6X7X7X8X8X8X8X7X7XoXP 8.V.D.F.J.J.F.N.k.k.c.v.v.v.k.k.:.: $.!.^.h.a.{ ..w.u.v.v.v.k.k.k.k.N.G.J.H.H.D.V.8.K.3X4X3X8X8X7X7X5X7X7X6X6X8X8X",
">X5X5X7X7X7X8X8X8XwX8X8X7XXXz &.A./.J.H.F.S.n.k.x.z.l.v.v.v.n.e.O k Y.T.a./ ..q.k.v.v.v.v.l.v.l.k.n.A.F.H.H./.S.&.c 2X4X0X8X7X1X5X7X5X5X7X7X8X8X",
";X;X;X5X6X8X8X8X8X8X7X7X5XOXv %.A./.J.F.V.n.v.l.z.v.v.v.v.n.n.e.O . <.a.) ) e.k.c.v.n.v.v.v.v.l.l.v.n.B.F.J.J.A.%.m 2X0X8X7X7X1X;X;X;X5X7X6X7X8X",
";X;X;X;X5X7X8X8X8X7X7X1X+X(.9.1.A.J.J.F.v.k.k.v.v.c.z.u.u.y.u.w.] '  . .0 w u.n.v.k.u.y.u.k.c.v.v.k.u.N.D.J.J.S.t.9._.1X8X7X7X5X;X;X;X;X5X7X7X8X",
";X;X;X;X5X7X6X7X8X7X7X+XJ B V.D.J.J.J.D.n.k.l.v.v.c.w.3.y w 5 ] M.D.F.n.i 2 e.n.v.u.&.r [ w.k.n.v.k.k.n.D.J.J.H.F.M.B K oX7X7X1X;X;X;X;X7X6X7X7X",
";X>X;X;X5X7X7X7X7X1X<X{.; s A.H.F.G.H.F.N.l.v.l.k.t.3.] _ 4   i A././.Z.e > e.n.n.u.` r ] 3.t.k.k.v.k.B.D.J.G.G./.Z.t l XX7X5X5X5X;X;X;X5X7X7X6X",
"5X5X5X5X7X7X6X6X<X<X;X{.l s A.J.B.B.J.H.B.v.n.k.*.y f 4.u.>.  5 Z./.J.A.y 4 y.n.v.v.u.,.3.] d *.k.n.v.B.J.J.B.Z.H.A.f b .X5X7X5X5X;X5X5X7X7X6X7X",
"7X7X5X7X7X7X7X7X<X;X-X{.v f A.G.v.k.B.B.u.,.y.>.0 3 [ w.u.e.d 4.A.J.J.D.;.y >.u.u.k.n.k.w.[ 1 0 >.y.e.u.B.Z.u.c.H.A.f b XX7X7X7X7X7X5X7X6X7X5X7X",
"7X7X8X8X8X7X7X5X;X;X-X[.b ] S.G.i.[ f a u 6 6 >   5 e.u.p ] N.F.G.J.J.D.v.>._ t 3.w.z.v.z.w.5   > 0 6 6 i f [ i.J.D.f n XX8X8X8X8X8X8X8X7X8X5X5X",
"8X8X8X7X8X7X7X5X;X-X-X[.v i M.Z.p.D n n n l X   . p u.w.O 6 Z.J.J.H.J.F.B.u.` e s 3.u.n.n.i.p     o - v b b D p.Z.M.a b oXwX0X0X8X8X7X8X8X7X7X5X",
"0X8X8X7X7X7X7X5X;X;X-X{.l @ i B `.:XoXoXXX(.x 4 f 3.0.[ O 5 u.A.G.J.J.F.B.k.u.>.r d u.n.n.k.4.a 4 h U Q {..X1X`.V a @ b :X4XtX4X0X8X7X7X8X8X6X7X",
"0X9X7X7X7X7X7X5X;X;X-X XJ l * K 1X8X7X8X7X1XK.N f [ ..f . , e.n.S.G.G.A.n.l.n.u.d t w.z.z.e.4.[ e C P.$X;X7X7X2XK * g P 3XyXyX4X0X0X7X7X7X7X7X5X",
"0X8X7X7X7X7X5X;X;X;X;X+X.XXX.XoX6X7X8X8X8X8X>X(.g 6 [ ] . 8 r.n.n.N.n.n.x.v.v.z.-.[ 4.5.5.4.4.3.e M P.OX;X5X8X7XoX.XXX2X4XrXyX4X0X8X7X7X7X7X5X5X",
"0X8X7X7X7X;X5X;X-X*X;X<X1X7X8X8X7X8X8X7X8X7X1XXXJ g f s # 5 -.r.k.l.k.v.v.v.c.e.-.[ ] ] ] ] ] f j H |.;X5X7X8X8X8X8X8XwX4XrXrX4X0X8X7X7X5X5X;X>X",
"8X8X7X5X;X>X;X;X*X;X;X;X1X8X8X8X7X8X8X7X8X8X7X6X;X(.g > 3 3 , ] u.n.n.v.n.c.w.3.s w e e e w 5 g L.OX>X1X7X7X7X8X8X8X8X0X0X0X0X0X8X8X7X5X;X;X=X;X",
"8X7X7X7X;X;X;X*X*X-X;X;X5X8X8X8X8X8X7X7X8X7X7X7X5X+XJ g C C ; h 0.u.e.e.y.q.[ f Z C 7 1 1 2 % G %X>X6X6X7X6X8X7X8X8X8X7X8X0X8X8X8X7X7X5X>X;X-X-X",
"8X7X7X7X5X;X;X*X;X*X;X;X5X7X7X7X7X7X7X8X8X7X7X6X6X7X.X{.P.E R U j 6 6 6 6 5 > g R Y * + + & U |.5X7X7X7X6X7X5X5X1X1X7X7X5X7X7X7X8X7X7X6X>X;X-X-X",
"7X7X6X6X5X;X;X;X;X*X*X;X;X5X5X5X6X7X7X8X8X8X7X7X5X5X;X*X#X~ ~ Q G = ; v v ; = G ~ W F % & G |.;X5X8X8X7X5X;X;X-X;X;X;X;X;X5X5X5X7X7X8X7X5X<X;X;X",
"8X8X8X8X7X5X5X>X;X*X;X;X-X;X;X5X5X6X7X8X8X8X7X5X;X*X$X#X@X~ ~ ~ R R R R E R R W ~ ~ R E P.|.+X6X7X8X6X5X*X%X$X#X#X#X%X*X-X;X;X5X6X7X8X8X7X7X5X5X",
"7X7X8X8X7X7X5X5X;X;X*X*X-X-X;X;X7X7X8X7X0X8X7X5X*X#X@XI.~ ~ ~ U.Q @X@X@X@XI.@XI.~ ~ @X#X;X<X7X7X8X8X7X;X*X#X@XI.~ @X@X$X*X*X;X5X7X6X8X7X7X7X5X5X",
"5X5X5X6X7X7X5X5X5X;X;X*X-X-X;X>X5X5X7X7X7X7X5X;X$X@X~ ~ @X@X@X@X@X@X@X@X@X@X@X@X@X@X#X*X<X7X8X8X8X6X5X;X%X#X@XI.@X@X@X#X$X*X*X;X5X5X5X7X6X5X5X5X",
";X;X;X;X;X;X;X;X;X;X;X;X>X;X;X;X5X5X>X5X5X;X*X*X@XU.~ ~ @X$X&X&X&X$X$X$X#X$X$X$X#X$X*X;X5X8XwX8X8X7X;X;X*X$X#X#X#X$X$X#X$X$X$X*X*X;X;X;X;X;X;X;X",
"$X*X%X$X$X$X$X*X;X5X7X5X5X5X5X5X<X;X;X;X*X*X#X@X~ ~ ~ @X&X;X<X;X-X-X-X-X;X;X;X;X;X;X>X5X7X7X7X6X5X;X;X;X;X;X-X;X;X;X;X*X#X#X@X#X$X%X$X%X$X%X%X%X",
"#X@X@X@X@X@X#X*X;X5X7X6X6X7X5X5X>X;X*X*X$X@X@X~ ~ ~ @X$X;X<X5X7X5X7X5X5X5X5X5X7X5X5X7X7X8X7X7X7X;X;X;X;X;X5X5X7X7X7X;X;X*X@XI.@X@X@X@X@X@X@X$X$X",
"~ ~ ~ ~ ~ @X@X*X;X6X7X8X8X8X7X7X5X;X;X$X#X@X~ ~ ~ I.#X*X;X7X7X8X8X8X0X8X8X8X8X8X7X8X8X7X7X5X5X>X;X;X;X;X7X7X7X8X8X8X7X<X*X#X@X~ ~ ~ ~ ~ ~ ~ #X$X",
"! ~ ~ ~ I.@X@X*X;X5X8X8XwX8X7X7X5X>X;X*X@XI.~ ~ @X#X&X;X5X7X8XwXwXwXwXwXwX8X8X8X8X8X8X7X5X;X;X*X;X;X;X>X7X6X8X8X0X8X7X<X-X&X#X@X@X~ ~ ~ ~ @X$X$X",
"! ~ ~ @X@X$X*X;X5X7X8X8X8X8X7X7X7X7X5X*X#X@XI.@X&X-X+X>X7X7X8XwXeXtXtXeX0X8X8X7X8X7X6X5X-X*X&X*X;X;X5X7X7X7X8X8X8X8X7X7X5X;X-X&X@X@X~ ~ @X#X*X;X",
"W Q @X#X%X*X;X;X7X7X8X8X7X8X8X8X7X6X5X;X$X@X@X#X;X;X7X7X7X7X8XwXeXtXyXeX0X8X7X7X8X7X5X;X&X#X#X$X-X5X7X7X7X8X8X8X8X8X8X8X7X7X<X;X$X@X@X@X$X&X;X;X",
"! ! @X$X*X-X;X5X7X7X7X8X8X7X6X6X7X7X5X-X#X@XI.%X;X7X8X0X7X7X0XwXeXyXyXeXwX0X8X7X8X7X5X;X#X@X@X$X-X7X8X8X8X8X8X8X8X8X7X8X8X7X7X;X%X@XI.@X*X*X;X>X",
"W ~ @X$X*X=X;X5X7X7X7X8X8X8X7X6X5X5X=X%X@X@X#X=X6XwXwXwX0X7X8X8XeXeXeXeX0X8X8X8X8X8X5X-X#XU.U.#X;X7X8X0X8X8X8X7X7X8X8X8XwX8X6X5X%X#X@X#X$X;X;X5X",
"W ! @X%X*X;X;X5X7X7X8X8X0X8X6X5X;X%X%X@X~ ~ #X=X9XeXyXeXwX8X8X0XwXwXwXwX8X8X8X8XwX0X7X;X$X@X@X$X<X7X8X0X8X8X8X8X8X8X7X0X8XwX7X;X%X#XI.#X*X=X;X5X",
"W Q @X$X*X=X;X5X7X8X0X0XwX8X6X>X-X%X#XI.~ ~ $X=X0XtXyXyXeX0X8X7X8X8XwX8X0X8X8X8X8X8X7X;X$X@X@X$X;X5X8X8XwX8X8X8X8X8X8X8XwX8X7X<X%X@X@X#X%X-X;X5X"
};
