/* XPM */
static char *Y29sbGVjdGlibGUu[] = {
/* columns rows colors chars-per-pixel */
"72 72 220 2 ",
"   c #070100",
".  c #523B14",
"X  c #6D3B1F",
"o  c #554315",
"O  c #6F4F1B",
"+  c #4D482E",
"@  c #775A25",
"#  c #695634",
"$  c #6B5A2B",
"%  c #7B612B",
"&  c #7C6A32",
"*  c #625F54",
"=  c #757565",
"-  c #7D7D66",
";  c #7D7C6B",
":  c #787569",
">  c #7E7C72",
",  c #7D7C7C",
"<  c #767573",
"1  c #9F0E09",
"2  c #B81409",
"3  c #89291C",
"4  c #AD2E16",
"5  c #AF362D",
"6  c #8F2D2C",
"7  c #C21B0A",
"8  c #88401D",
"9  c #8F5B29",
"0  c #A74B24",
"q  c #BA5734",
"w  c #83662F",
"e  c #866733",
"r  c #97743A",
"t  c #8D6D32",
"y  c #AF6238",
"u  c #C05134",
"i  c #8D7849",
"p  c #877E58",
"a  c #A17E41",
"s  c #817E66",
"d  c #817E6B",
"f  c #857868",
"g  c #827E71",
"h  c #827E7E",
"j  c #AB6463",
"k  c #D0725D",
"l  c #7F816A",
"z  c #7F8070",
"x  c #9D8048",
"c  c #958855",
"v  c #8E854D",
"b  c #A48244",
"n  c #A88547",
"m  c #B38C4A",
"M  c #B89146",
"N  c #A98C53",
"B  c #B5915A",
"V  c #B09055",
"C  c #B0A95C",
"Z  c #868365",
"A  c #85836C",
"S  c #89866D",
"D  c #8C8B6D",
"F  c #8A8967",
"G  c #918E6D",
"H  c #908B66",
"J  c #8F906E",
"K  c #959366",
"L  c #94936D",
"P  c #9A966C",
"I  c #97986B",
"U  c #9C9C6D",
"Y  c #9C9766",
"T  c #858272",
"R  c #898673",
"E  c #8D8C72",
"W  c #82827E",
"Q  c #88867D",
"!  c #8D8B7A",
"~  c #868871",
"^  c #918E72",
"/  c #958A7A",
"(  c #949372",
")  c #999672",
"_  c #979972",
"`  c #9C9C72",
"'  c #95947B",
"]  c #9C9C7B",
"[  c #AA8E62",
"{  c #A29D6C",
"}  c #A59C64",
"|  c #BC9C6A",
" . c #A19E73",
".. c #A69D76",
"X. c #9EA06D",
"o. c #9EA273",
"O. c #9FA179",
"+. c #ABA364",
"@. c #ACA965",
"#. c #A3A46E",
"$. c #AAA56C",
"%. c #A6A96E",
"&. c #AAAA6E",
"*. c #B6AA66",
"=. c #B3AC6D",
"-. c #B6AA68",
";. c #AEB16F",
":. c #BCB26D",
">. c #B9B267",
",. c #A3A472",
"<. c #A9A673",
"1. c #A6A871",
"2. c #A7A872",
"3. c #A8AA71",
"4. c #A9AA72",
"5. c #AEA971",
"6. c #A9AA75",
"7. c #AAAB73",
"8. c #A3A47A",
"9. c #AAAA79",
"0. c #A8A87C",
"q. c #B3AD72",
"w. c #B6AD75",
"e. c #ADB072",
"r. c #B4B172",
"t. c #BCB373",
"y. c #BCB479",
"u. c #BDBA79",
"i. c #C19864",
"p. c #C98D6A",
"a. c #CBBD6B",
"s. c #C4B769",
"d. c #C2B673",
"f. c #C3B975",
"g. c #CBBD7A",
"h. c #C4BA78",
"j. c #D2BF6F",
"k. c #CDC26B",
"l. c #C6C069",
"z. c #D3C46A",
"x. c #D6C568",
"c. c #CDC375",
"v. c #D2C371",
"b. c #D7C779",
"n. c #7E7D81",
"m. c #827E81",
"M. c #858484",
"N. c #898684",
"B. c #8C8B85",
"V. c #868689",
"C. c #898689",
"Z. c #8C8B8B",
"A. c #918D8C",
"S. c #939383",
"D. c #9D9D83",
"F. c #93918E",
"G. c #9A9887",
"H. c #8F8E91",
"J. c #958F91",
"K. c #939293",
"L. c #9D9B9B",
"P. c #9A9894",
"I. c #8F908D",
"U. c #A19D92",
"Y. c #A4A482",
"T. c #A8A889",
"R. c #ACAA9B",
"E. c #A7A499",
"W. c #B1AF95",
"Q. c #B2B397",
"!. c #B8B485",
"~. c #A09FA2",
"^. c #A3A3A3",
"/. c #ABAAA7",
"(. c #ACABAA",
"). c #A8A6A9",
"_. c #B3AEAA",
"`. c #B4B3AC",
"'. c #B9B8A7",
"]. c #AFADB1",
"[. c #B4AEB2",
"{. c #B4B3B3",
"}. c #B8B6B6",
"|. c #BDBBB3",
" X c #BCBBBB",
".X c #B7B6B7",
"XX c #CA9A95",
"oX c #C9B988",
"OX c #CFAE99",
"+X c #C5B9AE",
"@X c #C1BEBE",
"#X c #C5BBB4",
"$X c #D0AEAD",
"%X c #BFC0BB",
"&X c #C5C6AE",
"*X c #C4C3B4",
"=X c #C4C3BD",
"-X c #CAC6BC",
";X c #DBCAB9",
":X c #E4D0B4",
">X c #BFBDC0",
",X c #C2BFC0",
"<X c #C4C3C4",
"1X c #C9C5C5",
"2X c #CBC9C5",
"3X c #CAC6C9",
"4X c #CCCACB",
"5X c #C7C7C9",
"6X c #D1CECD",
"7X c #D3D0CD",
"8X c #D5D2C7",
"9X c #D2CED1",
"0X c #D4D2D3",
"qX c #D9D6D5",
"wX c #DBD9DA",
"eX c #DBD8D8",
"rX c #CDCAD0",
"tX c #E6DDD7",
"yX c #E4D7C4",
"uX c #E1E1E1",
/* pixels */
"g > > : d d A D { #.7.e.7.7.1.6.`  .` ^ T g g g ; A F L ,.4.$.q.q.=.7.w.9.7.9.7.&.&.&.;.,.o.U ,.U U X.X.o.%.3.e.3.3.%.o.J F ~ l ; > > ; ; d D D ",
"T > g > d A G G ` ,.3.e.&.7.6.2.,.8.` ( R g d g S D J I ..<.5.q.r.w.w.w.e.7.7.1.,.&.%.%.o.U U P I U X.X.3.#.3.e.;.%.%.o.I L D A ; > d g ; A F J ",
"A z d ; S E ( I ,.1.%.7.7.7.6.2.,.6.,.' E T g R ^ L ` 8.#.&.5.q.t.t.t.y.q.$.&.7.7.&.%.,.I L J L U U #.,.3.3.3.e.%.%.%.3.,.o.P L S l l A ~ D L _ ",
"T A A A E ^ _ ` ,.,.%.%.&.7.6.9.7.7.8.` E T d S P U ,.,...$.5.q.f.f.y.f.=.q.$.&.9.,.,.` L S F D U X.,.9.o.3.3.%.3.%.%.e.6.,.X.` J T A l D J _ _ ",
"~ S A l J ( ` ` ,.1.%.%.&.4.<.6.1.,.2.` R R A G ..5.9.q.<.$.5.q.t.t.t.t.=.$.$.$.6.8.,.` D A A D _ ,.1.9.1.3.3.3.%.%.%.3.3.3.3.X.D ~ Z l E _ _ o.",
"T S A A E ( ` o.,.1.3.%.&.%.<.<.,.{ ` E d d A G <.w.y.y.5.5.4.q.r.t.t.t.5.=.$.4.6.6.,.` D d g S _ ,.6.9.6.1.3.3.e.e.%.3.7.6.#.o.J ~ A Z J L _ ` ",
"~ T T A J ( ` ` ,.6.7.&.5.&.,.,.U L G A f d S K q.t.d.y.q.5.&.5.r.=.q.5.5.5.7.4.6.6.,.` D d T R ` o.6.9.6.3.3.3.%.%.3.3.6.9.,.o.J ~ l A J ( _ o.",
"R R ~ A E ( ` ` ,.,.%.7.7.&.#.` G D s s : d F P q.t.y.y.q.5.$.5.5.5.5.5.7.6.&.,.6.6.,.` G s A E ` ,.0.9.1.3.3.%.%.e.3.3.9.9.8.o.E T A A ! ( _ ` ",
"Q W ~ A ( L ` ,.,.1.3.%.;.%.#.X.G A d : f D G U q.r.u.u.=.&.&.#.%.$.4.4.7.&.%.%.6.6.o.o.H F F D o.2.9.6.3.3.%.%.%.%.3.2.9.6.o.o./ T d A ^ ) P o.",
"T R T ~ ( ` o.,.,.1.%.3.e.3.%.` G A ; : d G P { 5.5.r.;.$.$.{ { ,.<.<.<.7.&.;.%.3.6.,.X.J H F L o.o.9.6.3.e.%.%.e.3.6.2.6.o.X._ R R R S ( ` ,.,.",
"T R S D ` ` ,.6.,.3.e.e.7.5.%.` D A s d ^ ) { 4.1.%.%.#.{ { {  .,.,.9.5.7.%.&.&.3.e.,.X.I I L I X.,.6.3.3.3.%.;.3.2.2.6.,.o.o.L R g A D )  .2.6.",
"> T ~ E ` 8.6.9.,.3.6.9.9.<.4.U D A d E ) ..,.,.{ U U U P P ` ` ,.2.6.5.3.7.&.%.6.6.,.X.` _ _ _ o.3.6.e.3.%.&.%.3.2.0.0.8.` ` J R A Z F ` ,.<.6.",
"T T S D ] 8.6.6.,.8.2.8.9.<. .U D S F D ` 8.6.1.X.` U I P _ ` 8. .,.,.<.,.1.#.#.3.3.3.o.o.( _ _ X.X.,.1.7.%.%.&.7.,.2.8.` _ ^ S g d A D ) o.1.7.",
"> ; l D ` 8.,.#.` ` ) ) ] ) P P L L ( L ` 8.,.,.o.U ` L _ ] ] ` ` ) ` { #.,.,.,.o.o.o._ _ J ( ( I _ o.,.1.%.%.%.1.6.` ` ( E E S f ; A G L ,.,.1.",
"> ; T ~ ( ` U I L L D D D G G G L ` ` P  .8.8.U o.X.o.Y.0.Y.8.) ( L G G L P ` ` o.o._ _ J J ~ F S F L ` ,.1.%.%.1.,.` ) G E A d d g d E _ ` U U ",
"; ; A ~ ( ` P I D S A A f f S D P ,.,.,.{ ` ` ` O.8.T.'.*XQ.Y.' ^ E S D ( ( ` ` o._ _ J F l l ~ - A E L ,.1.%.%.o.U P G D S d ; > d d R ( ` ` ` ",
"A A R E ^ ( _ G D S Z Z s A R G  .4.6.6.,.P ) G.R._.*X2X2X-X#XE.S.Q ; / G.D.' ] D.] _ ( ( F l l d A ~ J _ 8.8.X.o.J L L S S S S T S E S ^ ( ^ G ",
"^ ^ ( ( E ( ^ ^ J D D D D G ^ ) <.q.q.7.{ ) W.#X6X<X1X6X0X2X,X,X XE.F.{.8X#X_.'.*X'.T.' ' ! ! ! A S D E ( _ o._ ( J D D D G ( D E E ( ^ E ( ^ ^ ",
"` ] ` ) D S R D _ P P P P P o.2.w.t.t.r...8.+XtXwX4X4XeXqX6X1X,X4X2X,X6X6XqX0X6X8X2X|.`.E.Y._ J J J E D D E E E E S F J _ ` ` ` ` ` ` _ S R E E ",
",.2.` ) D S A D _ o.,.,.#.,.6.r.t.f.t.y.,.Y.#X1X2X3X4X0XqX4X1X3XwX9X,X).[.2XqX9X4X4X5X<X-X%XQ.O.] ' ( ! R ~ A T ; - S D ` U #.1.0.,.` ` D S R R ",
"e.9.,.` H F A S ` 2.2.7.3.3.7.r.:.f.d.r.<.' R.1X1X1X4X9X0X0X2X0XwX.XL.Z.}.9XwXwX0X0XwXwXrX2X%X%XT.G.' E ~ A ; ; ; A D J P #.%.&.6.6.,._ G F A R ",
"9.e.#.U K H F D )  .8.,.3.%.e.r.t.t.:.r.#.P + * 1X1X<X<X2X2X2X}.A.Z.B.A.).3X0X9X@X,X9X9X4X5X%X%X-X|.E./ Q g ; l S E ( o.,.#.%.e.e.e.6.o.L F D E ",
"%.e.%.X.I G L ( ( ` 8.8.6.1.5.e.;.t.q.$.4.I +   eXwX9X,X1X3X^.A.M.Q M.M.(.3XrXrX>X3XwX0X4X7X0X0X7X4X=X_.B.T Z ~ ( ` o.o.2.o.e.e.e.9.6.X.P L J J ",
"%.3.,.#.I I G L _ _ ` 8.,.,.6.7.;.;.=.$.$.| p o yXtXtXtX@X<XL.Z.N.h , m..XrXrX,X,XrXwX0X<X4X0XuX0X4X=X|.G.T A D ` o.o.3.o.3.3.9.&.9.,.X.` L ( I ",
"%.%.#.,.X.X.U _ _ ` _ ` 8.8.#.&.&.5.[ v r n N N oX:XtXtXJ.< C.N.h , n.z >X0XrX5X%X5X5X5X%X%XrX0X0X7X0X=XL.> R E ` 2.6.1.1.%.%.%.3.%.o.X.o.` P ` ",
"#.,.o.,.X.X.X.o.` ` ` ` ` ` U Y %.{ i % w r M M n B OX;XB.  < N.M.V.n.< {.9XrX0X0X0X5X5X5X5X0X0X6X6X0X2X^.z T E  .8.1.7.7.%.%.o.,.,.o.#.X.o.o.o.",
"o.X.X.X.o.%.o.o.,.,.o.` ^ ( L K U 4.N a n M M M m B [ | [ # ; n.M.I.V.< .X4X5X4XwX0X5X5X%X%X5X5X4X}.~.K.B.; A ~ ) 8.<.5.3.3.%.o.8.U o.,.,.,.,.,.",
"` U U X.X.3.%.3.9.,.,.` G D D D P { x b n r n m V r r n V i g , Z.Z.Z.M.{.5X%X<X0X0X7X4X0XrX%X.XK.B., W Q ; A J  .8.<.9.3.%.%.%.o.` P ` ,.#.3.%.",
"` ` U U ,.3.3.;.e.1.,.` S A Z F P %.w r x b n n r @ @ @ @ # f , M.V.M.I..X5X<X0XwX0XrX0XuX9XL.V.Z.M.W h , A ~ J ` ,.6.7.7.5.7.,.)  .` U o.3.3.3.",
"` ` ` U #.,.3.e.7.,.X.L S A A S I { & % w r a b b a % @ @ $ f A.I.M.I.~.%X<X%X%X%X5X5X5X^.z , M.M.Z.B.W T E ( ` ,.,.5.5.;.r.q.&. .` ` P o.3.3.e.",
"` ` ` U 3.3.6.6.3.,.U L A d d S _ { v & % & e r a n t @ @ o A F.B.z ~.4X4X%X(.%X%X{.^.M.n., W W M.A.Z.Q ! ' ] o.,.&.5.=.t.y.t.w.,.` U X.3.2.e.3.",
"` o.U I ,.6.6.6.,.o.L J A d A G ` ,.5.+.c r 9 9 9 r e O o . d B.V.M./.5X{.H.~. X{.Z.z M.V.Z.Z., m.N.A.B.S.] 8.,.,.&.&.=.t.f.f.w.,.U I X.8.2.9.6.",
"8.o.U P ,.8.8.` ) ) _ D D F F ( ....q.5.>.B y 0 9 w O . # f N.Z.n.z ^.4X(.Z.L.%X(.z n.n.n.I.I.n.Z.M.M.I.! Y.9.e.#.&.=.=.d.f.f.t.$.Y Y U #.o.o.o.",
"8.,.o.` ` ` L ( ( D D D D D L U <.5.w.w.:.i.u 4 0 0 3 X j _.A.M.V.V.~. X).V.K.].(., n., n.I.I.I.H.Z.n.B.! Y.6.%.%.&.$.=.:.t.t.w.$.Y X.U o.` _ I ",
"6.,.,.P L ^ D S R A Z F L L X.9.w.d.d.w.r.i.u 2 7 7 4 3 OX=XA.n.H.H.). X~.V.L.].)., n.n.Z.V.V.H.H.V.z M.R Y.1.#.7.&.&.$.=.w.t.q.$.$.#.Y L J ~ ~ ",
"3.%.,.` G D A ; d d S D I #.%.r.t.d.d.s.w.-.k 5 2 7 1 3 XX1XK.n.V.~.%X{.~.V.~.%X).n.V.J.H.M.V.H.V.n.z B.S Y.9.#.,.&.$.$.$.$.5.9.$.&.,.U K F A l ",
"e.%.,.o.J S A A A Z D G o.,.e.;.f.d.d.h.w.-.i.p.k 5 6 j $X<XK.H..X<X%X].L.H.).5X XC.J.J.C., h C.n.V.M.W Z T.9.7.4.$.5.$.&.$.&.7.%.#.<.U J D l l ",
"3.%.#.,.I L D F D D L P #.#.%.r.t.d.d.d.=.5.4...XXXXXX$X}. X.X5X X>X%X{.L.I.).<X XZ.Z.N.M., , M.V.Z.Q d Z 8.9.5.q.w.w.=.=.$.&.1.&.%.,...I J J D ",
"3.3.,.,.X.X.P U I U U #.,.,.3.e.q.q.w.q.q.5.$.8.$X#X$X,X].].<X<X X>X%X>X^.V.~.%X}.M.N.M.m., , N.C.M.Q E _ 2.9.=.r.d.t.:.=.$.&.&.&.4.3.,.X.o._ _ ",
",.,.3.,.,.,.X.X.#.#.#.,.,.6.3.9.9.9.q.<.q.5.5.0.*X,X#X#X{.(.%X{..X.X%X5X^.V.~.%X].m.N.N.N.m.M.K.Z.Z.D.Y.8.9.5.&.t.d.d.d.w.$.+.$.7.1.6.,.o.o.o.o.",
"o.,.6.,.3.3.6.6.2.6.6.3.3.o.,.X.{ #.o.#.%.#.#.o.W.%X'.`.%X%X{.%X{.{. X5X).V.F.(.].m.m.N.h > , Z.S.D.Y.o.9.7.&.&.t.d.d.t.w.=.&.$.,.<.2.2.2.2.7.3.",
"o.,.X.,.,.%.3.e.e.3.3.6.%.o.X.X.U P _ U I U I X._ Y.Y.R.%X2X%X{.{.].{.>X).Z.B.F.J.N.N.T T T T ! ! _ O.o.%.7.&.;.w.t.d.r.=.&.$.{ o.,.,.2.2.<.3.7.",
"X.X.X.X.o.e.e.3.e.3.7.3.,.o.X.I J J D ~ F J J I ` ` 0.T.W.&X%X(.%X%X.X X^.H.Z.V.m.A.' ^ D.] J E J ~ ( I ,.,.7.&.=.w.w.=.q.$.&.#.X.X.#.X.2.7.%.&.",
"X.U X.I 3.o.3.3.%.3.e.9.,.X.I J J ~ A ; z ~ F J o.X.6.,.o.9.T.Q.%X=X X{.^.Z.W > Q S...!.w.U L E ~ z D L ` ,.&.&.=.=.=.$.w.&.5.#.X.X.X.X.` ,.7.%.",
"I U X.X.o.%.3.3.%.%.#.,.o.` L L D S g d ; > E G ` ,.2.6.2.2.6.0.!.%X|._.G.N.z ~ ) ..q.t.r.} L E z z l F ` ,.%.7.$.$.$.$.4.4.#.,.X.X.X.I %.#.%.%.",
"X.X.X.X.%.%.%.o.#.#.X.X.U P L K L G E R A S E L ` #.8.,.8.4.%.&.#.9.W.Q.D.' ] 8.9.9.r.:.=.} K E ~ z l J ` ,.%.&.@.$.$.&.4.,.,.,.o.o.X.X.,.%.%.%.",
",.#.o.%.o.%.%.%.#.` U U I I I I P ` ` _ L D D L P U 8.8.<.<.&.$.%.1.1.7.e.e.e.e.9.&.=.:.:.} P / ~ z l F U ,.&.@.$.&.&.,.7.1.,.2.,.,.3.,.,.%.%.%.",
"3.,.3.%.%.%.%.3.U U U I I I I I #.`  . .` L ` L P ) ` ..<.4.&.$.@.@.$.@.@.:.t.%.5.$.*.:.w.{ ) ^ ~ z l F X.#.&.&.%.$.&.%.4.,.,.,.o.2.,.,.%.%.#.%.",
"&.&.%.&.4.#.4.,.` ) I I P P U X.#.,.,.6.,.` U ) ) ^ ) ` { { +.+.>.C C C >.>.>.@.5.$.-.:.q.} _ E z z A F ` ,.,.%.%.%.&.7.7.5.7.5.9.5.7.7.%.%.%.#.",
";.%.&.1.&.4.,.<.` ` ` I ` X.X.,.,.6.6.9.0.,.` ) ^ / G P ..$.d.g.k.l.l.l.x.a.>.+.$.{ *.s.q.K L S ~ l A D ` ,.1.7.%.$.$.&.=.q.w.q.5.5.7.%.%.%.#.%.",
"&.&.&.1.4.,.,.<. .` ` I o.X.,.3.6.1.1.6.2.8. .) E E R H ..g.b.v.z.z.x.x.k.s.*.$.$.+.*.s.w.c Z A z ; z J ` o.%.&.&.&.5.=.w.t.:.t.q.7.4.&.7.1.,.%.",
"e.&.7.1.4.<.<.,.` P P I o.o.3.6.1.7.6.1.2.2.,. .~ S A f ) y.c.z.j.x.x.x.x.s.*.*.} } C :.q.H Z ; > > ~ E ` ,.%.&.&.+.$.=.:.d.s.:.r.5.,.4.1.2.1.,.",
"5.7.7.4.,.<.,. .I I I I #.1.6.3.7.1.7.1.9.2.,.o.J E S ~ D K +.r.j.j.j.x.z.z.v.l.>.>.k.c.9.Z d ; g A S G ` ,.&.%.5.$.&.=.f.d.d.d.w.5.7.%.6.,.,.X.",
"e.7.,.<.,.,. .U I I X.X.#.1.3.e.&.&.&.7.,.1.6.o.` _ ( S D L K K } s.a.j.k.k.x.k.z.z.k.=.K Z T g S E _ ` ,.1.&.%.&.&.&.=.t.t.d.:.&.5.&.,.,.,.X.o.",
"9.7.7.<... .U I I Y I X.o.3.3.3.&.%.&.7.7.7.3.6.8. .` ^ D D J L K { -.:.g.k.x.x.z.z.z.f.( ; A ~ G ` ` ,.,.1.%.%.$.$.5.r.=.q.=.w.5.7.%.,.X.U U P ",
"9.9.,.,. .U P P I I X.X.#.,.e.3.7.7.1.&.&.,.3.9.6.2.8.` F F A S ^ ) [ { } -.a.b.c.c.g.#.Z - ~ F ` ,.0.6.1.1.%.7.3.%.7.7.5.7.q.&.5.7.7.#.U U I P ",
"6.6.,.,.o.` ` I I U P o.o.,.1.1.3.6.3.6.3.2.6.6.9.0.8.` ~ l ; ~ G ^ (  .L P P <.oX2.F s s A D J ,.8.9.9.,.,.,.,.#.X.,.#.#.%.%.,.9.5.7.,. .U P P ",
"6.3.6.1.,.o.` P I I I U X.o.,.,.3.3.3.2.3.6.3.,.<.` ` ( ~ l ; T R D E E ^ E ^ D Z p - d A E I o.,.6.9.,.` ` I ` I U U U U X.#.%.7.6.6.,. . .` U ",
"%.%.%.1.,.,.,.o.U I _ ` U U X.,.,.3.3.3.6.2.2.o.) ( J ~ A A ; ; g T R R T R d d - - s A ^ ( o.,.,.7.8.8.I ( D S D F D L I U #.#.,.5.7.1.4.,.#.{ ",
"#.,.3.9.7.1.,.,.` _ I P I I U X.#.,.1.3.2.2.o.o.( E S - A l - ; ; A g T g g d g ; d A S ` ` ,.3.%.3.2.8.L D S d A A F D L I P ,.%.7.7.7.<.4.#.#.",
"6.,.,.,.1.,.,.,.o._ U X.I U Y X.#.,.,.,.,.O.O._ E T ; l A S S S A A R d R d g g ; S S L o.,.,.e.e.3.o.U L S S d A F A A D L L ` ` ,.,.o.6.,.,.X.",
"o._ ` o.U U U U ` o.U X.X.U X.X.X.#.o.,.O.` _ J S ; - - S G ( J ^ G ^ ^ ^ G G G E J _ ` ,.6.9.e.3.#.X.U L ( D S D D D S D D E ( _ ` ` U ` ` U U ",
"E ^ J J J D L I X.,.X.%.%.X.X.X.,.` ` ` ] ^ E ~ l ; ; l G ) `  .` U ` U ` `  .P U ` o.o.9.9.9.6.X.X.X.U P U ` ` U U P _ ^ R T R E E E J J J J ( ",
"R T T T A A F J I #.%.%.%.%.X.@.#.` L L E S A l l l l J L  .<.4.#.<.,.$.#.{ ,.#.,.,.,.9.0.0.6.1.X.U U I U X.8.2.<.#.` ` ^ R T g ~ T ~ S l A F D ",
"> ; g T ; d D G { ,.5.7.7.7.%.,.,.) _ L S d d ; ; A F L U %.5.5.7.e.5.9.5.7.7.1.&.7.&.6.<.8.<.<.U P I U 4.2.0.9.4.,.,. .L S A g g g d g ; d S E ",
"; > > > d T ^ L U 4.7.&.e.5.6.6.2. .P ( E d d d A F L ` ,.,.5.5.r.>.y.r.r.&.7.%.%.%.&.,... .) U U U { { <.<.5.9.7.7.4.,.) ) E T g g g g g d E ( ",
": : l R R E ^ ) { ,.%.&.3.7.6.5.9.,.o.` ^ g g g L L `  .,.&.5.=.:.d.t.t.=.&.&.%.4.4.,.,.) L G K U {  .,.0.<.7.4.6.7.%.1.2.` ` ^ R g g g R ! ( _ ",
"= ; T ~ ^ ^ ` ..#.7.,.&.%.&.7.6.e.,.,.` G g R E L  .,.4.&.7.q.r.d.d.d.t.=.&.&.@.7.4.#. .H S D G `  .,.4.7.4.4.7.7.5.7.&.7.,.X.` / R T T ! E _ ] ",
"= ; R E ^ _ `  .,.4.4.&.7.7.7.4.6.,.,._ E T S ( ..9.w.7.5.5.9.=.t.d.d.t.;.@.$.%.9.4.8.` E d A G  .,.9.9.4.7.&.,.7.5.&.&.;.7.#.8.( T A A ' ( ] o.",
"= ; T E ( P ` #.%.7.5.&.7.5.,.,.#.X.P E S d S ) $.r.w.w.q.$.5.=.:.d.:.t.;.&.&.&.5.4.2.` E A d E ` ,.6.e.7.7.5.&.7.7.;.&.;.7.1. .D S S A J ( ` o.",
"= ; T E ( )  .#.,.9.e.5.5.5.1.%.o.I J A ; ; S P 5.t.h.y.r.&.&.&.;.r.>.=.r.&.&.&.7.7.,.` G A A ^ U ,.5.5.7.7.&.5.e.&.&.;.e.3.,.o.L S A F J ( ` o.",
"= : T E ( ` ..,.6.9.e.7.e.e.%.,.L J ~ Z ; d S ` w.d.h.h.t.$.$.&.;.e.;.&.;.&.&.&.5.7.,.o.E A d G ` %.9.e.&.;.&.7.&.&.&.%.6.e.2. .G S Z A ( _ ` o."
};
