/* XPM */
static char *_700690080d54ec8ed70c67931f5a668LqhGrmXmMAH4biVs[] = {
/* columns rows colors chars-per-pixel */
"72 72 232 2 ",
"   c #000000",
".  c #110B0C",
"X  c #381205",
"o  c #3E2D14",
"O  c #0F0F22",
"+  c #002537",
"@  c #2B2722",
"#  c #38382B",
"$  c #3D3D31",
"%  c #4E0B04",
"&  c #451A09",
"*  c #691A03",
"=  c #422500",
"-  c #5B2408",
";  c #4F330D",
":  c #672A07",
">  c #722900",
",  c #683402",
"<  c #7C3905",
"1  c #773608",
"2  c #712615",
"3  c #6C3218",
"4  c #793615",
"5  c #793418",
"6  c #470825",
"7  c #502E27",
"8  c #483A28",
"9  c #693A27",
"0  c #7B3B26",
"q  c #574706",
"w  c #794C0B",
"e  c #7E6916",
"r  c #45442D",
"t  c #56462B",
"y  c #434232",
"u  c #4B4B32",
"i  c #584932",
"p  c #525133",
"a  c #654B28",
"s  c #7B4826",
"d  c #6B522D",
"f  c #634A34",
"g  c #675732",
"h  c #755339",
"j  c #1A3C4E",
"k  c #303F4E",
"l  c #563C46",
"z  c #00485A",
"x  c #184758",
"c  c #274757",
"v  c #294858",
"b  c #334956",
"n  c #28515E",
"m  c #005564",
"M  c #355660",
"N  c #30686F",
"B  c #346F73",
"V  c #3D7C7D",
"C  c #54504B",
"Z  c #474854",
"A  c #495B59",
"S  c #744F48",
"D  c #58655D",
"F  c #6A6545",
"G  c #766C47",
"H  c #6B685A",
"J  c #7A7054",
"K  c #566966",
"L  c #4C7575",
"P  c #5A7C79",
"I  c #6D6E66",
"U  c #777766",
"Y  c #7A7A6C",
"T  c #667C79",
"R  c #737A74",
"E  c #7D7D70",
"W  c #8B2708",
"Q  c #853808",
"!  c #963D03",
"~  c #833E12",
"^  c #893C1C",
"/  c #943A1A",
"(  c #A83600",
")  c #833F2A",
"_  c #834C03",
"`  c #8C4419",
"'  c #924618",
"]  c #845911",
"[  c #8D5813",
"{  c #A64404",
"}  c #B54806",
"|  c #A8481A",
" . c #B64E1C",
".. c #B15519",
"X. c #946E0E",
"o. c #864829",
"O. c #984624",
"+. c #84542A",
"@. c #925429",
"#. c #864A36",
"$. c #875536",
"%. c #96553D",
"&. c #A64823",
"*. c #AB4B23",
"=. c #B64D23",
"-. c #AE5225",
";. c #B35326",
":. c #BC5324",
">. c #AE5535",
",. c #B55A39",
"<. c #977723",
"1. c #B06425",
"2. c #C14A07",
"3. c #DA5A00",
"4. c #C25519",
"5. c #DA5D14",
"6. c #DF6016",
"7. c #E86904",
"8. c #F86C00",
"9. c #FF7100",
"0. c #C35625",
"q. c #C85728",
"w. c #CC5B2A",
"e. c #D25C2B",
"r. c #C25936",
"t. c #CB662A",
"y. c #D7662C",
"u. c #DB642D",
"i. c #D46931",
"p. c #EA6F25",
"a. c #F8752A",
"s. c #E46D32",
"d. c #E36F3A",
"f. c #EB7134",
"g. c #E8723D",
"h. c #F37435",
"j. c #F87736",
"k. c #FD7935",
"l. c #FB7A39",
"z. c #875449",
"x. c #89544E",
"c. c #965745",
"v. c #A85F50",
"b. c #806B49",
"n. c #8A7753",
"m. c #B66147",
"M. c #A77159",
"N. c #877868",
"B. c #807F70",
"V. c #C86C4D",
"C. c #E87840",
"Z. c #C87C78",
"A. c #7F8070",
"S. c #B98B17",
"D. c #B58C26",
"F. c #C08F00",
"G. c #D2A21F",
"H. c #C38C2A",
"J. c #CA9B28",
"K. c #D9A52A",
"L. c #DAA92C",
"P. c #CEA131",
"I. c #DBAD3A",
"U. c #E2B236",
"Y. c #8A845B",
"T. c #988B59",
"R. c #A59259",
"E. c #848365",
"W. c #8C8B65",
"Q. c #878569",
"!. c #8B8B69",
"~. c #928D67",
"^. c #949365",
"/. c #9B9A66",
"(. c #94946B",
"). c #989768",
"_. c #9C9C6C",
"`. c #838370",
"'. c #888770",
"]. c #8C8C70",
"[. c #908F70",
"{. c #8F9070",
"}. c #949470",
"|. c #9A9670",
" X c #979970",
".X c #9B9B70",
"XX c #A09B66",
"oX c #A19D70",
"OX c #9FA070",
"+X c #A4A36D",
"@X c #AAA66C",
"#X c #B3A96B",
"$X c #BDB16F",
"%X c #A4A470",
"&X c #A9A570",
"*X c #A7A870",
"=X c #AAAA70",
"-X c #ADAD70",
";X c #B3AE70",
":X c #B8AD70",
">X c #B5B170",
",X c #BDB370",
"<X c #FE8351",
"1X c #D7AD41",
"2X c #DEB143",
"3X c #E4B744",
"4X c #E4BB52",
"5X c #EA8B7A",
"6X c #FE937B",
"7X c #C3B670",
"8X c #C5B870",
"9X c #E9C35E",
"0X c #EBC865",
"qX c #EECC6B",
"wX c #F1D06D",
"eX c #F2D374",
"rX c #2E7F81",
"tX c #038587",
"yX c #168889",
"uX c #358584",
"iX c #328992",
"pX c #438080",
"aX c #878D8C",
"sX c #968C8C",
"dX c #AE938E",
"fX c #8D9EA8",
"gX c #DA908A",
"hX c #F4978B",
"jX c #D9BED4",
"kX c #EDC2D4",
"lX c #D0D5F4",
"zX c #E1D4F1",
/* pixels */
"E E E E E E `.}..X%X-X-X-X=X*X%X%X.X}.].'.E E E E `.].}..X=X-X-X;X-X;X-X-X-X=X=X=X-X=X=X%X%X%X.X.X X.X%X%X=X-X-X-X-X*XoX}.'.`.E E E E E R Y '.].",
"E E E E B.`.'.}.oX%X=X-X=X=X=X*X%XoX.X}.`.`.E A.`.'.{..XoX*X-X;X>X>X>X>X-X-X=X=X-X=X*X%X%X.X.X.X X.X.X%X*X&X-X-X-X=X*XoX|.}.'.`.A.E E E B.`.].[.",
"`.`.E B.`.].}. X%X%X-X=X=X*X=X=X*X*X%X X].`.E `.{.}..XOX%X*X-X;X,X7X,X>X;X-X=X=X=X=X%X%X X}.}.}..X.X%X%X*X*X=X=X=X=X*X*X%X.X X}.'.`.B.E '.'.}. X",
"`.`.`.`.].}. X.X%X%X=X=X=X=X=X*X-X*X%X X].`.`.'. XOX*X*X*X=X-X;X,X7X7X7X;X-X*X*X=X=X%X.X].'.`.]. X%X%X=X*X*X=X-X=X*X=X*X%X%X%X}.'.`.`.`.].}. X.X",
"'.`.A.`.]. X X%X%X*X=X=X=X=X%X=X*X*XoX|.'.`.'.[..X=X;X-X=X=X=X;X7X7X7X7X;X-X&X*X=X*X%X X'.`.`.]..X%X*X-X*X*X*X&X%X=X*X=X-X=X%X.X].`.`.`.].}..X.X",
"'.'.`.'.{.}. X%X%X%X*X=X*X=X*X%X%X.X X}.`.B.B.[.%X;X>X>X-X=X=X;X:X,X,X:X;X&X&X=X=X=X%X X'.A.A.'..X%X=X-X*X-X&X*X=X*X=X=X-X-X*XOX}.`.`.`.}. X.XoX",
"].'.A.`.].}..XOX%X*X=X=X=X=X%X%X X}.].B.E E B.|.#X$X7X,X;X-X=X=X;X;X;X;X=X=X*X=X=X=X%X X'.A.A.'. X%X-X=X-X&X-X*X=X%X=X=X-X-X%X.X].`.`.`.].}..X.X",
"'.'.A.`.].}..XOX%X*X=X=X-X=X%X.X}.'.`.E Y E '.|.;X7X7X7X>X-X*X*X=X&X-X-X=X=X*X=X=X=X%X.X].`.`.]..X%X=X-X*X*X*X*X=X=X=X=X-X=X=X.X].`.`.`.].}. X.X",
"'.`.`.`.{.|..X%X%X*X=X-X-X=X%X.X].`.E Y E E [.oX#X7X7X,X;X*X%X%X*X*X*X*X=X*X=X=X=X=X%X.X].`.'.]..X%X=X-X=X=X&X*X*X=X=X=X=X=X%X X].`.`.`.}.}. X%X",
"'.`.`.'.}. XoX%X*X*X=X-X-X=X%X.X].E E R `.].|.oX#X:X:X:X/.).%X%X*X*X*X*X*X*X=X=X=X+X).^.}.].].}.%X%X=X&X=X=X=X*X%X=X=X=X%X%X%X X'.`.`.`.}..X%X%X",
"`.`.`.].}.%X%X=X-X-X-X-X-X-X%X.X].A.E `.]. XoX%X&XoX&XXXF F ^.%X%X*X=X=X=X=X=X=X-X+XF F (.}.}.|.%X*X-X-X-X*X*X*X=X=X=X=X%X%X X}.'.`.`.].|.%X%X%X",
"`.`.`.]. X%X*X=X*X&X-X=X-X-X%X.X].A.`.'. X%X%X%XoXoX).Y.` ` Y.^.%X*X=X=X=X*X=X*X+XT.` ' n.(.|._.%X%X*X-X*X*X*X*X=X=X%X%X%X.X|.[.`.`.`.]. X%X=X=X",
"`.`.`.]..X%X=X-X*X%X%X%X%X%X%X|.].`.'.{..X%X=X%XoX(.F @.y.y.@.G (.%X%X%X*X%X%X_.G @.y.y.@.F W. X.X%X%X*X=X=X=X=X=X=X%X%X X}.}.'.`.B.`.]. X%X=X-X",
"E E `.]. X%X%X%XOX.X.X.X.X X X}.}.{.}.}..X%X%X%XoX!.r ` f.f.' t !. XOX.XOX%X%X).p ' f.f.' r E.[.|. X.XoX%X=X*X=X%X%X%X.X X}.'.`.E E `.]. X%X%X%X",
"R E A.'. X.X%X.X}.].'.'.].'.].}.}. X.X.X%X.X%X.X_.^.u ~ f.f.' i !.[.}.}. XoXoX(.p ' f.f.w $ U `.'.'.}. X%X*X=X=X%X%X.X X{.'.`.E Y R `.]. X.X.XOX",
"E E `.'.}. X X}.].'.`.E `.`.`.(. X%X%X%X.X.X.X.X%X).u 5 s.f.' r n.Q.N.N.Q.~.).n.t ' f.s.5 $ U B.A.`.'.}.OX%X=X=X%X.X X}.'.`.E E E E `.'.|. X X X",
"`.`.`.].}.}.}.}.'.'.`.A.A.`.'.}.%X*X=X%XoX X X.X%X).p 4 s.f.` o h %.#.h z.$.%.$.o ` f.f.4 y U A.E `.`.}..X%X%X%X.X X}.].'.`.`.`.`.`.`.].}.}.(.}.",
"[.].].}.].[.].].].].].!.'.].[..X&X:X:X;X%X X X.X%X).p 4 s.f...` ^ O.*.-.-.*.` ~ w ;.f.s.4 y U '.`.`.'.].}. X X X}.[.].].].}.].].].}.}.].].].].{.",
"_..X.X}.].'.'.].}. X.X.X X.XOX*X:X7X,X:X&X.X X.X%X/.p 5 s.l.h.t.< ~ i.f.f.i.~ 4 w.h.l.s.4 u W. X}.{.].{.{.{.].'.`.`.`.].}. X.X.X.X.X.X}.].'.].'.",
"=X%X%X X].`.`.]. X%X%X%XOX%X*X;X7X7X7X:X&XoX X X%X/.p 3 i.l.<Xp.~ ` p.k.<Xs.` ` f.l.l.i.3 p ^.OX X}.}.}.].'.`.A.B.`.`.[. X%X*X=X=X%X%X X].`.'.'.",
"-X-X%X.X{.`.`.]. X%X=X-X*X=X-X>X7X7X7X:X&XoX X_.OX^.u - =.s.l.f.O.O.s.l.l.f.O.O.f.l.s.:.- p ).%X%X X X[.Q.B.E E E `.'.}.oX%X-X-X-X-X%X.X].'.'.'.",
"-X-X=X.X}.'.'.}. X%X%X=X=X-X-X>X,X,X,X:X_.~.W.~..XW.u - *.u.h.f.;.-.f.l.l.f.-.-.f.h.u.| : p /.*X/.~.Q.Q.`.B.E A.`.'.}. X%X%X-X-X-X-X=X.X}.'.'.].",
"-X-X=X%X}.}.].}.}..X.X%X*X=X-X;X>X:X:X@XG a a G ~.Q.i 4 =.e.h.h.q.q.f.l.l.f.q.q.h.h.u.=.1 F /.+Xb.a a F B.B.`.`.{.}..X%X%X*X-X-X-X-X%X%X X}.[.].",
"=X=X%X%X.X}.}.}.}. X.X%X+X=X=X=X+X/.XXT.+.1 , d !.`.i 1 *.e.h.h.u.u.h.l.l.h.u.u.h.h.w.&.1 g +XXXd , 1 o.J U U N.(.%X%X*X=X=X=X=X-X=X%X%X.X}.}.}.",
"*X*X%X%X.X.X X X|. X.XoXOX%X*XOXG a g h -.*.1 g !.Q.f , ~ -.f.l.h.h.h.l.l.h.h.h.l.f.-.4 , g _._.g 1 *.-.s t t F (.%X=X=X=X=X%X=X*X*X%X%X.X.X X X",
"%X%XOX%X%X.X%X.X.X.X.X.X.X.X(.Y.o.< > _ q.0.` g Y.U f 1 !  .f.l.l.l.l.l.h.l.l.C.l.f. .{ 1 h W.Y.f ~ 0.0.~ > < o.Y.+X=X-X=X=X*X%X%X%X%XoX%X%X%X.X",
".X%X.XOX%X%X%X%X%X%X%X.X}.!.F o.} } ! ! q.0.~ ; r t 9 { 3.8.a.l.l.l.h.h.h.l.l.l.l.a.7.3.{ 9 t r ; ~ 0.0.! ! }  .s G +X-X=X*X%X%X%X.X.X%X.X%X%X%X",
".X.X.X.X%X%X=X=X=X=X%X.X'.J 5 ' m.m.c.%.;. .~ =   X Q m.5X6X<Xa.l.l.l.l.l.l.l.k.a.<X6X5Xm.< X   = < =.:.c.c.m.r.' s T.XX=X=X%X%X.X.X.X.X%X%X*X=X",
".X X X.X%X=X=X=X-X=X%X{.F 9 ( ,.N.T P I c.! > =   % ( Z.jXkXhX9.a.l.l.l.l.l.h.a.9.6XkXkXZ.( %   = , ! %.I P T N.,.} s G +X-X@X%XoX X X.X%X*X=X=X",
".X.X X X%X=X-X=X=X%X/.n.s ` ,.M.P tXyXL S ^ 1 -   * 2.gXzXlXgXa.a.j.h.j.h.l.l.a.6.gXlXlXgX2.*   - 4 ^ S L yXtXpXM.,.' s T.-X-X=XoX X|..X%X=X=X-X",
"oX|.|..X%X=X-X-X=X/.G o.} ,.N.T pXuXuXV M l ) Q   > 3.hXzXlXpXM.C.k.k.j.k.k.k.g.M.fXlXzXhX3.>   1 ) l A V uXuXL T N.,.{ ] n.#X#X%X|.|..X%X*X-X=X",
"oXoX X.X%X%X=X%X%XW.t < } V.T tXuXpXV B m Z ) Q   > 7.6XkXjXiXT V.a.j.k.k.k.a.V.L iXjXkX6X3.1   W ) Z m B V uXuXtXR V.2.< a #X$X&X X X X%X*X=X%X",
"%XoX.X.X%X%X%X+X X!.p 1 } m.P rXuXpXN n z Z o.W   1 p.<X6XgXL x ,.p.h.l.l.h.u.,.x K gX6X<Xp.1   Q ) l z n N pXuXrXT V.2.< g #X,X&XoX|..X%X%X%X%X",
"%X%X.X X X X X(.!.n.s ! } m.T yXrXB v j x Z #.) & 4 t.a.8.7.c.z.;.y.h.l.l.h.u.,.z.%.7.8.a.t.5 X 0 h Z x j v B rXrXT m.} ! +.R.@X&X%X.X X X X X X",
"*X&X%X X}.].!.Y F s *.:.} %.P uXN b c c c v b C 0 Q _  .p.a.g.d.f.h.l.l.l.h.a.f.s.f.a.p..._ Q 0 l Z b v c v n N rXP z.{  .-.+.b.XX%X%X.X}.[.'.'.",
"&X*X%X.X}.'.`.I 9 4 :.0.O.S L B n j c v c c z Z S 0 . 1 u.k.k.k.l.l.l.h.l.l.l.k.<Xk.k.u.1 . ) #.Z z x v v c j n B L S ^ q.0.w a /.%X%X.X}.`.`.E ",
"-X*X&X.X}.'.`.U i Q 0.,.S c v n v c c v v c x b Z l O % :.s.j.k.l.j.l.j.l.l.l.l.l.j.s.0.% O k Z n x c v v c c c M n c S r.4.Q g /.-X+X.X}.'.`.B.",
"-X=X%X%X}.[.'.N.i 1 ..>.H K D H I D b c v v v x z j o > / 0.h.k.h.h.j.l.l.h.h.h.l.f.q./ > o j j v v v v v b D D D D K H >. .< g /.=X*XoX}.[.'.'.",
"*X-X*X%XoX.XoXY.d , < o.Y.OX_.+X@X(.A v v v c x + 7 O.&.- ^ f.k.6.5.h.l.l.h.5.5.k.f.~ - ' &.7 + j b n v v A !.%XoX#X#XR.+.< , a /.-X*X%X%X X.X X",
"*X*X*X=X*X%X+X/.b.a t G +X*X=X-X-X%XY A D D D Z @ > w.w.2 4 e.d.V.V.g.h.h.C.V.V.d.e.2 5 w.w.: @ M K K D A U %X;X7X8X8X$XG a a b.XX*X*X=X*X%X%X%X",
"&X%X%X*X*X*X&X@X_././._.+X=X%X%X+X%X X(.(. XOXW.r w s.h.q.| W x.sXdXV.7.3.V.dXdXx.W | w.h.u.Q $ A.OX_. X(.OX=X:X7X7X7X$X+X/.T._.%X%X%X=X*X=X*X&X",
"%X%X%X%X*X-X-X-X-X-X-X@X*X%X%X.X X X X.X X_..XY.$.-.s.h.w.} _ G aXsXv.( ( v.sXaXG _ } w.h.f.-.$.n.(.OXOX+X%X=X;X:X7X,X,X;X-X=X+X%X%X%X%X*X=X*X-X",
".X.X.X%X%X=X=X=X-X=X=X&X%X%X X}.}.{.'.'.!.`.F d i.f.s.0.W _ S.D.G l 6 % % 6 8 b.D.S._ W w.s.f.i.s D !. XOX*X=X-X#X:X;X;X-X=X*X%X%X.X.X%X%X*X=X-X",
".X.X.X.X%X%X=X=X=X=X=X%X%X X|.}.'.`.`.A.Y H @ 3 s.h.q.| w <.1X1XX.1 q q q q 1 X.2X1X<.w ' q.h.s.3 # U {.OX%X=X=X-X&X-X=X=X=X%X%X.X X.X.X%X*X*X-X",
".X.X.X.X%X=X=X=X=X*X*X*XoX X}.].].'.`.U C @   : w.e./ _ S.1X0X0XP.F.H.H.F.H.S.K.0X0XI.S.w / e.q.- $ R !..X%X=X-X=X=X*X=X=X=X%X%X.X.X.X.X%X*X=X=X",
".XOX.XoX%X%X%X=X*X%X.X.X X X}.}.{.].'.U # . & 5 *.| * ] J.3XqXwX4XU.3X3X3XU.U.9XeXqX3XJ.w * | | 1 9 H `. X%X=X=X*X*X%X*X%X=X%X%X.X.X.XOX%X%X=X=X",
"%X%X%X%X%X=X=X%X%XoX.X X X X X X X X XQ.8 - *. .Q : 2 [ J.2XqXeXwXqX0XqXqXqX0XwXeXqX3XJ.[ 2 2 ~ *.&.9 C W.%X=X*X*X*X*X%X*X*X%X%X%X%X%X%X%X=X=X%X",
"%X*X%X*X=X%X=X%XoX.X|. X X X X X%X%X%X(.y - =.0.^ 4 / 1.J.I.9XqXeXeXeXeXeXeXeXwXqX0X2XJ.1./ 1 / q.:.: # W.%X*X-X=X=X=X%X*X%X*X*X=X%X%X%X=X*X*X%X",
"=X=X=X=X*X*X*X%X.X X|.}. X X.X%X%X=X=X^.r & O.*.-.=.=.t.K.U.I.4XqXeXeXeXeXeXeXqX4XI.U.K.t.=.=.0.t.=.: $ W.OX=X=X=X*X=X=X*X=X-X*X=X=X=X%X=X=X*X%X",
"-X=X=X*X=X=X*X%X.X X}.|. X.X.X%X*X=X=X/.F 8 3 ' 0.e.e.t.H.J.K.I.9XqXqX0X0XqXqX9XI.G.J.D.t.q.w.w.q.*.- $ W.%X*X-X*X=X=X=X;X:X:X;X-X=X=X=X=X*X%X%X",
";X-X=X*X=X=X%X%X.X X X.XoX%X%X%X%X=X=X+X+XY.r 3 :.e.e.:.3 e J.U.2X2X2X2X2X2X2X2XU.J.e w :.e.e.0.-.^ & # W.%X*X=X=X*X=X;X$X,X,X,X;X=X*X*X=X=X%X*X",
"-X-X*X*X=X=X%X%X.X.X.X.X%X%X%X-X=X=X=X=X*X/.u = *.q.q.&.% ; D.J.K.K.K.K.K.L.K.L.J.D.- % &.0.0. .^ 3 8 C ~.%X=X=X*X*X-X;X,X7X7X,X;X-X*X*X*X=X%X%X",
";X=X*X%X*X*X%X.X.X.X X.X%X*X=X=X*X=X=X=X-X/.r & / &.*.O.^ 5 q <.J.U.L.L.L.L.U.J.<.; * W O.| ! Q - 8 H !.OX%X=X=X*X*X=X:X7X7X7X,X:X-X*X*X*X%X%X%X",
"-X-X*X%X%X%X%XoX X X.X.X%X%X=X=X=X=X*X=X-XXXF 8 3 0 5 ^ ) 2   ; D.J.J.J.J.H.J.D.= O x.c.O.o.c.x.@ 8 !. X%X=X=X=X=X=X-X;X:X7X,X,X;X=X*X%X%X%X.X%X",
"-X-X*X%XoX.X.X X|. X X%X%X=X=X=X=X=X=X=X=X=X_.Y.8 X X X & & & , w ] e ] ] ] ] w . k sXdXc.c.dXaXZ 8 !.+X%X=X=X-X=X=X-X-X>X:X:X;X-X=X*X%X%X.X X X",
"*X&X*X%X.X.X X X|. X X.X%X*X=X=X=X=X%X%X=X=X=X+XG r u u y 8 f f f f i f f f a f 8 A aXaXz.#.aXaXA F _.=X=X=X=X=X=X=X*X=X=X-X=X-X-X=X%X%XoX X X|.",
"=X=X=X%XoX X X}.}. X XoX%X%X%X=X=X=X=X*X=X=X=X+X/.).^.W.Y U U Y N.E.Q.W.W.Q.E.E.Y I C Z o o Z C Y._.=X=X*X*X%X%X%X%X%X%X*X%X%X=X=X=X%X%XoX.X X X",
"=X=X=X%X%X%X.X X X|. X.X.X%X%X%X%X=X=X=X=X=X=X%X+X%X X}.Q.B.Y E `.'.{.].].[.].Q.E U C # # $ # F _.=X=X*X%X.X X X X X X.XoX%X%X%X*X=X=X*X%XOX.X.X",
"=X=X=X=X=X%X%X%X.X X X X X.X.X%X%X=X=X-X=X=X=X%X.X}.].'.`.B.E E `.`.`.`.`.`.`.B.E E U U N.Q.W./.*X-X=X%X|.[.].'.'.].].}. X.XOX%X*X=X-X=X%X%X%X%X",
"=X%X=X=X=X=X%X%X.X X|.}. X X.X.X%X%X=X=X-X=X%XOX}.'.`.B.B.E E A.A.`.`.A.`.`.B.E E E `.].}.%X*X=X-X*X%X.X}.'.`.E B.`.'.].}. X.XOX%X=X=X-X=X=X%X%X",
"%X%X%X%X=X%X%X%X.X.X.X X X X.XoX%X%X%X%X=X%X%X X].`.E E `.`.`.`.`.`.`.`.`.`.`.`.`.`.'.}..X*X=X-X=X*X%X X}.'.`.B.`.`.`.'.].}.}..XOX%X%X%X*X%XoX%X",
" X.X.X.X.X.X.X.X%XoX.X.XoX.X.X.X%X%X%X%X%X.X X}.'.E E E '.].{.{.{.].].].].].].].].].}. X%X=X-X-X*X+XOX.X}.].'.'.'.].].].].].[.}.|..X.X.X.X.X.X.X",
"}.].}.].].].].}. X%X%X%X%X%X%X%X.X.X.X X}.}.'.`.E E E `.{. X.XOX.X.X X X X.X.X.X.X.X.X%X=X-X=X=X%X.X.X X X.X X.X.X.X X}.].`.`.`.].].[.[.[.].[.}.",
"'.'.`.`.`.`.'.}..X%X%X=X=X*X%X%X%X.X}.}.].`.`.E E E `.]. X%X%X*X%X%X%X%X%X%X%X%X%X%X%X%X=X=X*X%XoX.X.X.XoX%X%X*X*X%X%X X].`.`.`.`.`.`.`.`.`.].].",
"E E E B.E B.'.]..X*X=X-X=X=X*X*XOX.X X{.'.B.E R B.`.'.}. X*X=X-X-X-X-X-X-X&X=X=X=X=X=X*X%X%X%X%X X.X XoX%X*X=X-X-X=X%X.X}.`.`.E E E E E E E '.'.",
"E R E E B.`.].}..X%X=X=X-X=X&X*X%XoX|.}.'.B.E E `.].}. X%X&X-X;X>X>X>X;X-X-X=X=X=X=X&X*X%X X.X X X.X.X%X%X=X=X-X-X-X*X%X X}.'.`.`.E E E E `.'.}.",
"Y E E `.].].}. X%X*X=X-X=X=X=X=X*X*X%X X].B.B.`.]. X X%X%X*X-X;X,X,X7X,X;X-X=X=X=X=X*X.X}.}.}.}..XoX%X*X%X*X=X=X=X=X=X%X%X.X X}.`.`.E B.`.].}. X",
"I Y `.'.].}. X.X%X*X=X=X=X=X=X=X-X*X%X|.].`.`.'. XoX*X*X*X*X=X>X7X7X7X,X;X-X&X=X=X=X*X.X}.'.`.]..XoX%X=X=X=X=X=X=X=X=X*X%X%X%X X].`.B.`.].}. X.X",
"Y E `.].}.|. X%X*X*X=X=X=X=X=X&X=X*X%X}.].`.`.[..X=X-X-X*X=X-X;X7X7X7X7X;X-X=X=X=X=X%X X].`.`.]..X%X=X-X-X=X=X=X=X*X=X=X-X=X%X.X].'.`.`.[.}..X%X",
"I R '.].}. X.X%X&X=X=X=X=X=X=X%X*X.X|.}.`.`.'.}.&X;X,X>X-X-X=X;X>X7X7X>X;X=X=X&X-X=X*X.X'.B.E '..X%X-X-X=X=X*X=X=X=X=X-X-X;X*X%X[.`.`.`.[.|.OX.X",
"U Y `.[.}.|..X%X&X=X-X-X-X=X&X%X|.}.{.`.E `.'.|.;X,X8X,X;X;X=X-X;X;X>X;X;X=X=X-X-X=X*X X].`.`.]..X%X=X-X-X=X=X=X=X=X-X-X-X-X=X.X[.'.`.'.}. XoX%X",
"U Y `.].}.|.oX%X&X-X-X-X-X-X&XoX|.{.`.E R B.'.|.;X7X8X8X>X-X=X=X-X-X;X-X-X=X=X=X-X-X*X X].`.`.]..X*X-X-X-X-X=X=X=X=X-X-X-X;X=X.X[.`.`.`.[.|..X%X"
};
