/* XPM */
static char *ce6b07ed66934fc4804ece0d204859b1ZeMojGKtr6r7Szvt[] = {
/* columns rows colors chars-per-pixel */
"72 72 239 2 ",
"   c #010103",
".  c #170900",
"X  c #00011E",
"o  c #280900",
"O  c #330900",
"+  c #391507",
"@  c #3E2D14",
"#  c #001225",
"$  c #2D2823",
"%  c #36372B",
"&  c #3D3C31",
"*  c #480200",
"=  c #471A08",
"-  c #511509",
";  c #651704",
":  c #711E00",
">  c #5B230A",
",  c #4F330B",
"<  c #672808",
"1  c #742900",
"2  c #693402",
"3  c #773608",
"4  c #712615",
"5  c #69331A",
"6  c #793615",
"7  c #793517",
"8  c #470825",
"9  c #483826",
"0  c #4D332A",
"q  c #6C3B25",
"w  c #763A27",
"e  c #3F4036",
"r  c #574706",
"t  c #794C0B",
"y  c #7E6916",
"u  c #45442A",
"i  c #56462A",
"p  c #484733",
"a  c #5A4633",
"s  c #535334",
"d  c #5A513E",
"f  c #664929",
"g  c #7C4927",
"h  c #714D34",
"j  c #685635",
"k  c #766238",
"l  c #153E53",
"z  c #343D48",
"x  c #4F3A49",
"c  c #024759",
"v  c #194A59",
"b  c #274556",
"n  c #294857",
"m  c #234959",
"M  c #284958",
"N  c #364A57",
"B  c #2C515E",
"V  c #34535E",
"C  c #005666",
"Z  c #2D5560",
"A  c #3C5A61",
"S  c #32636A",
"D  c #3A6F73",
"F  c #2E7A7C",
"G  c #367578",
"H  c #3D7C7D",
"J  c #484645",
"K  c #575746",
"L  c #4B4751",
"P  c #4A4954",
"I  c #495B5B",
"U  c #575958",
"Y  c #67454A",
"T  c #6A534B",
"R  c #77534B",
"E  c #4F615D",
"W  c #57645C",
"Q  c #6B6746",
"!  c #756A47",
"~  c #767055",
"^  c #516A6A",
"/  c #4E7170",
"(  c #457979",
")  c #6C6D66",
"_  c #6E7762",
"`  c #757365",
"'  c #767667",
"]  c #7B7A65",
"[  c #7B7B6C",
"{  c #777970",
"}  c #7D7D70",
"|  c #8B2708",
" . c #863602",
".. c #823C0B",
"X. c #983C01",
"o. c #833E13",
"O. c #883B19",
"+. c #943A1A",
"@. c #A83600",
"#. c #8B3C23",
"$. c #834C03",
"%. c #8D4215",
"&. c #8B451A",
"*. c #924618",
"=. c #845911",
"-. c #8D5813",
";. c #A04607",
":. c #A7481B",
">. c #B34E19",
",. c #B9531B",
"<. c #946E0E",
"1. c #88482A",
"2. c #984623",
"3. c #8A502E",
"4. c #855535",
"5. c #97553E",
"6. c #AB4B23",
"7. c #A84A26",
"8. c #B64D23",
"9. c #AE5125",
"0. c #BC5324",
"q. c #B35229",
"w. c #BB5737",
"e. c #A46E24",
"r. c #CD4F0A",
"t. c #DA5A00",
"y. c #C15419",
"u. c #DF6016",
"i. c #E86904",
"p. c #F86C00",
"a. c #FF7100",
"s. c #C35525",
"d. c #C75728",
"f. c #CC5B2A",
"g. c #D25C2B",
"h. c #CC662A",
"j. c #D7662C",
"k. c #DB642D",
"l. c #D36931",
"z. c #EA6F24",
"x. c #F8752A",
"c. c #E46D32",
"v. c #E36F3A",
"b. c #EB7134",
"n. c #E8723D",
"m. c #F37435",
"M. c #F87736",
"N. c #FD7935",
"B. c #FB7A39",
"V. c #865346",
"C. c #8F5348",
"Z. c #AA5C4B",
"A. c #886B4A",
"S. c #877C5A",
"D. c #AD6B51",
"F. c #837D6C",
"G. c #CC6F50",
"H. c #E87840",
"J. c #C87C78",
"K. c #7D826A",
"L. c #7F8070",
"P. c #B98B17",
"I. c #B58C26",
"U. c #C08F00",
"Y. c #D2A21F",
"T. c #C38C2A",
"R. c #CA9B28",
"E. c #D9A52A",
"W. c #DAA92C",
"Q. c #CEA131",
"!. c #DBAD3A",
"~. c #E2B236",
"^. c #8D875B",
"/. c #938859",
"(. c #A7975E",
"). c #838364",
"_. c #8C8B65",
"`. c #83836B",
"'. c #8C8C69",
"]. c #928D66",
"[. c #8C9169",
"{. c #959465",
"}. c #9A9966",
"|. c #94936A",
" X c #999769",
".X c #9C9B6C",
"XX c #838370",
"oX c #888770",
"OX c #8C8C70",
"+X c #908F70",
"@X c #8F9070",
"#X c #949470",
"$X c #9A9670",
"%X c #979870",
"&X c #9B9B70",
"*X c #A19D68",
"=X c #A19D70",
"-X c #9FA16F",
";X c #A3A36D",
":X c #AAA66D",
">X c #B8AD6D",
",X c #A4A470",
"<X c #AAA570",
"1X c #A7A870",
"2X c #A9A970",
"3X c #AAAA70",
"4X c #ADAD70",
"5X c #B3AD70",
"6X c #B8AD70",
"7X c #B6B170",
"8X c #BDB370",
"9X c #FE8351",
"0X c #D7AD41",
"qX c #DEB143",
"wX c #E4B744",
"eX c #E4BB52",
"rX c #EA8B7A",
"tX c #FE937B",
"yX c #C3B570",
"uX c #C5B870",
"iX c #E9C35E",
"pX c #EBC865",
"aX c #EECC6B",
"sX c #F1D06D",
"dX c #F2D374",
"fX c #3A8484",
"gX c #358B94",
"hX c #428382",
"jX c #878D8C",
"kX c #968C8C",
"lX c #AE938E",
"zX c #8D9EA8",
"xX c #DA908A",
"cX c #F4978B",
"vX c #D9BED4",
"bX c #C2C1DA",
"nX c #EDC2D4",
"mX c #D0D5F4",
"MX c #E1D4F1",
/* pixels */
"} } } } } } XX#X&X,X4X4X4X4X2X1X,X&X#XOXXXXX} { } XXOX#X&X1X4X5X5X4X5X4X3X3X2X3X4X2X2X2X1X,X-X&X&X&X&X&X1X1X2X4X4X4X1X&X#XOXXX} } } } } } } oXOX",
"} } } } L.XXoX#X&X1X2X4X2X2X1X1X,X,X&X#XXX} } XXXXOXOX&X,X1X3X5X7X7X7X7X5X3X3X3X4X2X2X2X,X&X&X&X&X&X&X,X2X2X2X4X4X4X1X,X$X#XXXXXL.} } } } XXOXOX",
"XXXX} } XXOX#X&X,X1X2X2X2X2X<X2X2X2X,X#XOXXXXXXXOX#X&X,X,X2X3X7X8XyX8X7X7X3X2X2X2X2X1X-X#X#XOX#X&X&X,X1X<X2X2X2X2X3X2X1X,X&X&X#XoXXX} } XXoX#X%X",
"XXXXXXXXoX#X&X&X,X1X2X2X2X2X2X2X2X,X,X&XOXXXXXXX%X,X,X1X,X2X3X7X8XuXuX8X7X3X2X2X2X2X,X&X@XOXXX@X&X,X1X2X2X2X2X2X2X2X2X2X,X,X,X#XoXXXXXXXoX#X&X&X",
"oXXXXXXXOX#X&X&X,X1X2X2X2X2X2X2X2X,X,X&XoXXXF.+X&X1X5X4X2X2X3X7X8XyXuX8X6X3X1X1X3X2X,X&XoXXXXXOX$X,X2X4X2X2X2X2X2X2X2X4X2X2X1X&XOXXXXXXXOX#X&X&X",
"oXoXXXXX@X#X&X,X,X2X2X2X2X2X1X1X,X&X&XOXXXF.oX#X<X5X7X7X4X2X1X6X6XyX8X6X5X1X1X1X3X2X,X%XoX} L.oX&X,X2X4X2X2X2X2X2X2X2X2X4X4X2X&X#XXXXXXX#X#X&X,X",
"OXoXL.XXOX#X&X-X,X1X2X4X2X2X1X=X&X#XOXXX{ } F.$X<X8XyX8X7X4X2X2X5X6X6X5X3X3X<X2X3X2X,X&XoXL.XXoX&X,X2X4X2X2X2X2X<X1X2X2X4X4X2X&XOXXXXXXXOX#X&X&X",
"oXoXXXXX@X#X&X&X,X1X2X2X4X2X1X&X#XoXXX{ { } F.=X6XyXuXyX7X3X2X1X2X2X5X3X3X2X2X3X2X1X,X&XOXXXXXoX%X,X2X2X2X2X2X2X1X2X2X2X4X2X1X&XOXXXXXXXOX#X&X&X",
"oXXXXXXX#X#X&X,X,X<X2X4X4X2X1X&XOXXX} { { L.OX=X6XyXyXyX5X<X1X,X,X2X2X1X1X2X2X3X3X2X,X&XOXXXoX@X&X1X2X3X2X2X2X1X2X2X2X2X2X2X,X&XOXXXXXXX@X%X&X-X",
"oXXXXXoX#X&X&X,X1X2X4X4X4X2X1X&XoXL.} } XXOX#X=X<X6X8X6X<X,X,X,X,X1X1X2X2X1X2X3X3X2X1X-X#XOXOX#X&X1X3X4X2X2X2X<X1X2X2X<X2X1X,X#XoXXXXXoX#X&X-X,X",
"XXXXXXOX#X,X1X2X2X4X4X4X4X4X1X&XOXL.} XX@X%X&X,X=X<X<X=X=X&X&X-X,X1X2X3X2X3X<X2X2X2X1X&X#X#X#X&X,X2X4X3X3X2X2X1X2X2X2X1X1X,X&X#XoXXXXXOX#X-X1X<X",
"XXXXXXOX#X,X1X2X2X2X2X2X4X2X,X$XoXXXXXoX%X,X1X1X=X=X&X.X'.'.&X-X,X1X2X3X2X2X1X1X2X1X}. X&X&X#X&X,X1X2X3X2X2X2X2X2X2X2X1X=X&X#XOXXXXXXXOX&X,X1X2X",
"XXXXXXOX&X,X1X<X1X,X,X,X1X,X&X&XOXoXoX@X&X,X1X1X=X&X&X'.Q j |..X,X,X,X1X,X1X1X1X2X.XQ Q '. X#X&X&X,X,X1X<X2X2X2X<X1X1X,X&X&X@XOXXX} XXOX&X,X2X2X",
"} } XXOX&X,X1X,X&X&X&X&X&X&X&X#X@X@X@X%X&X,X,X,X=X&X XS.3.*.^.{.%X&X&X-X-X,X,X,X.X/.2.-.S.'.|.#X#X&X&X=X1X2X2X2X1X,X,X&X&XOXXXXX} } XXOX$X,X1X1X",
"{ } L.oX#X&X,X&X#X@XoXoXOXoXoX#X#X%X&X&X-X-X-X-X-X{.! 3.l.j.3.Q oX@X@X#X%X&X&X X! 3.j.j.3.T K.`.XXOX#X&X1X1X2X<X1X,X&X#X#XXXXX} { } XXoX#X&X&X&X",
"} } XXoX#X&X%X#X@XXXXXXXL.XXoX@X%X,X,X,X&X&X.X-X-X{.i *.b.m.*.i `.oXoXoX#X#X&X'.i *.m.b.*.9 _ [ XXXXXX#X&X1X2X1X,X&X&X#XXXXXXX} } } XXoX#X&X&X%X",
"XXXXoXOX#X#X#X#XOXXXXXXX} L.OX#X,X,X4X<X=X&X#X&X,X{.p o.c.b.*.a F.F.} F.OX+X.X[.s *.b.b.6 & _ L.} XXXX#X&X,X,X,X&X#X#X+XoXXXXXXXXXXXXXOX#X#X#X#X",
"@XOXOXOXOXOXOX'.@XOXOXOXOXOX#X.X<X5X6X:X=X&X&X&X;X}.s 6 c.b.%.i ` F.' F.F.].|.^.i &.b.c.6 p ] oXXXXXXXOX#X&X&X$X#XOXOXOXOXOXOX+XOX#X#XOXOXOX@XOX",
"&X&X&X#X@XoXoXOX|.%X&X&X#X%X-X:X6XyXyX>X=X.X#X&X,X}.s 6 b.b.%.@ 1.C.h 4.4.5.C.4.@ %.b.c.6 p _.|.|.OX#XOX#XOXOXOXXXXXOX'.#X&X&X,X&X&X&X#XOXoXOXOX",
"2X1X,X&XOXXXXXOX%X-X2X;X X{.}.*X:X>XyX>X*X_._.|.;X}.s 6 c.m.9.t O.+.7.9.6.7.+.o.$.9.m.b.6 s {.-X|._._.`.oXoX[ ' ` ` ] `.#X=X2X,X2X1X&X&XOXXXXXoX",
"4X2X1X&XOXoXXXOX.X,X1X;X! f j h f /.8X>XA.i f ! .X Xs 6 c.B.m.h.t %.h.b.x.h.o.o.h.m.B.v.6 s .X;X! f i Q OX`.T 0 a i i Q  X1X<X4X3X3X1X&X@XoXoXoX",
"4X4X1X,X#XoXoX@X%X-X-X/.3...3 ..$.3.(.(.3.3 2 h |.|.p 5 j.B.B.b.O.O.b.B.9Xc.o.%.b.B.B.l.6 s ;X*Xh 2 3 1.F.~ g ....3 ..1.^.;X4X4X7X4X1X-X@XOXoXoX",
"4X4X1X&X#X#X@X@X X|.Q g >.,.s.y.y.>.4.k 9.6.3 j '.`.p > 0.c.B.b.2.2.b.B.B.b.2.2.b.B.c.0.> s ;X.Xj 3 9.9.h h >.s.y.y.y.>.g ! ;X4X4X2X1X-X%X#XOXOX",
"2X2X1X,X&X%X#X#X].^.g %.q.w.d.Z.d.7.3  .s.s...j `.} & < 7.k.m.n.9.9.b.B.B.b.6.q.b.m.k.:.< s .X.Xj ..s.s. .3 7.d.w.w.w.9.*.g /.;X2X2X1X,X&X#X#X#X",
"2X1X,X,X&X&X&X|.Q 1.>.q.V.Y Y Y Y Y O.X.d.s...j +XF.a 3 >.k.m.m.d.d.n.B.B.b.s.d.b.m.k.8.3 j .X Xj o.s.d.X.O.Y Y Y Y Y V.q.>.1.! }.<X1X,X&X&X&X&X",
"1X,X,X=X,X-X&X].f 3 9.Z.U C C C C S R 5.q.>.3 j |.'.d 3 :.g.m.m.k.k.m.B.B.m.k.k.m.m.g.7.3 j .X|.j 3 >.s.5.R V C C C C U Z.7.3 f {.1X,X=X&X,X=X&X",
"&X,X&X&X&X,X:X{.f 5 Y U ( F F F G H ( ) 5.X.3 k :X.Xj < 6 9.n.B.m.m.B.B.B.B.m.m.B.b.6.O.2 j .X|.j 2 X.C.` ( H F G F F ( U h 5 f |.&X=X&X,X,X,X1X",
"&X&X&X&X,X1X<X*XA.j I E G ( hXhXhXfXgX/ V. .3 h (./.j 3 ;.,.b.B.B.B.B.m.B.B.B.B.B.b.y.X.3 j ).S.h 3  .V.( fXfXhXhXhXhXG ^ E j A.#X&X&X&X,X,X1X1X",
"&X&X&X&X,X1X2X2X;X}. XK.A S H hXhXfXfX( V.X.+.g s i 5 ;.t.i.x.B.B.B.B.m.m.m.B.B.H.x.p.t.;.q p 0 w +.X.V./ fXfXhXhXH S I OX-X}.}.$X&X&X&X,X1X3X3X",
"&X&X#X&X,X2X4X2X2X2X;XOXU A D H hXH H / R #.2.6 + O | G.rXtX9XM.M.m.B.B.B.B.B.M.N.H.tXrXZ. .O + o.+.O.R ^ F hXhX( G I ] :X5X5X<X=X&X%X&X,X3X3X3X",
"=X$X$X&X,X1X2X4X2X,X&X#XL.) A S H H S B P Y #.O.o * @.J.nXnXtXa.x.B.m.B.m.B.m.x.p.tXnXvXJ.@.* O O.#.Y N B S H H S ^ '.:X8XyX8X6X=X$X%X&X,X2X3X3X",
"=X&X&X&X,X1X<X1X;X.X&XOXXX{ I M D D Z l c L 1.6 o ; @.xXmXmXxXi.x.M.B.B.B.B.B.x.i.xXmXmXxXr.- o o.1.L c v B D D B W .X6XyXyXyX6X,X&X%X&X,X1X1X1X",
",X&X&X&X-X,X,X,X%X%X@X@XXX[ I M Z V b m c L 1. .. 1 t.cXMXmXzXD.H.N.N.B.M.N.N.n.D.zXmXmXcXt.1 .  .#.P c v M B B M W .X7X8XyXyX8X<X=X&X&X=X,X,X=X",
"<X,X&X%X&X&X#X%X#X@XOXOXOXXXI b M l b m v L h w   1 i.tXnXbXgX^ G.x.M.M.B.m.x.G./ hXbXnXcXi.1   w h P v m n b b M W .X5X8X8X8X6X<X,X$X&X&X&X%X%X",
"<X,X,X&X#XOXoXoXXXXXoXOX#XXXI M M M M M M N P z X 1 z.9XcXxX^ v w.u.m.B.B.b.z.w.v ^ xXtX9Xz.3 X z P N m M M M m M I  X2X5X5X5X4X2X,X=X&X#XOXoXoX",
"2X<X,X&X@XoXXX} } L.XX@X&X|._ W ) W N M M m c c # 3 h.x.a.i.C.V.w.j.m.B.B.x.j.w.V.C.i.a.x.h.3 # c c m M m N E W E _ -X2X<X4X4X:X2X1X,X&X@XoXXXL.",
"4X4X1X&X#XXXXXL.L.L.oX@X&X,X.X:X<X*XI b n m c P g  ...>.z.x.n.n.n.m.m.B.M.B.m.b.n.n.x.z.>.%. .w L c m M M I _.-X.X;X:X2X2X<X1X1X3X3X1X&X@XoXXXL.",
"2X2X1X,X#X#XoXoXoXOX@X%X,X1X4X7XyX>XF.U W E m P V.w o 3 k.N.N.N.B.B.B.B.B.m.B.B.N.N.B.j.3 . #.R P m E W E _ ;X2X5X5X5X5X4X<X1X1X3X3X1X,X%X@XoXoX",
"2X2X1X,X&X&X&X#X%X&X&X-X1X1X2X5X5X5X:X:X:X[.I N P z X > s.c.M.B.B.B.B.m.B.B.B.B.N.M.c.0.> X z P N I '.;X.X&X1X6X6X8XyX6X5X2X1X1X2X2X2X,X=X&X&X%X",
"2X<X1X<X1X,X,X,X,X,X,X1X1X2X2X2X4X4X5X:X:X;X_ V n z 0 2 +.d.m.B.x.m.m.B.B.m.x.m.N.b.s.+.1 9 z b A ) =X2X2X2X2X7XyXyXyX8X5X2X1X1X1X2X1X1X1X,X,X,X",
"1X1X,X1X1X2X2X2X2X2X2X2X2X2X1X,X1X,X,X,X,X,X&X).d w :.:.= O.b.N.u.u.b.B.H.N.u.u.M.b.O.- *.7.w K K.%X1X1X1X2X2X5X8XyXyXyX5X4X1X,X,X1X1X1X1X1X3X3X",
"&X,X,X1X<X2X2X4X4X4X2X2X1X1X,X-X&X#X%X%X%X&X&X|.d  .f.f.6 6 h.v.G.G.H.m.B.H.G.G.H.d.6 4 f.f. .a _.&X&X.X,X1X2X5X8XyX8X8X5X2X1X,X,X,X,X,X1X3X3X3X",
"&X&X&X,X1X2X2X4X4X4X<X1X,X-X&X#X#XOXOXoXoX'.@X[.s $.c.b.d.;.| C.lXlXG.t.t.G.lXkXC.| @.l.m.c...p `.'.#X#X&X1X4X5X5X5X5X5X4X<X1X,X=X&X&X=X,X1X3X3X",
"&X&X&X-X,X2X2X2X2X2X2X1X=X&X#X#XoXXXXXL.} `.).] 4.9.c.b.g.>.$.Q jXkXZ.@.@.D.kXjX! $.:.g.m.c.9.4.~ [ OX@X&X1X2X4X2X2X4X4X2X1X1X=X&X&X&X=X,X1X1X3X",
"&X&X&X&X,X1X<X2X<X1X1X1X&X&X#XOXOXXXXXXX} ' K g l.b.c.d.| t P.I.~ x 8 * O 8 0 A.I.P.t | 0.c.b.j.g P K.'.&X,X2X2X<X<X1X1X2X2X1X,X&X&X&X&X,X1X2X3X",
"&X&X&X&X,X1X1X<X1X1X&X&X&X&X#X#X#XOXXXXXXX` % 5 c.m.d.:.t e.0X!.<.2 r r r r t <.!.0Xe.t :.d.m.c.7 $ ) `.%X,X2X2X1X1X,X1X2X2X,X,X=X&X&X=X,X1X1X2X",
"1X,X,X,X1X<X1X1X,X&X&X&X#X&X#X#X&X&X&X#X#XF.p > d.f.+.=.I.!.pXiXE.U.R.T.T.R.P.Q.pXpX0XP.t +.g.f.>   $ K '.1X2X3X1X1X1X1X1X,X,X,X,X,X,X,X<X,X1X1X",
"1X1X1X1X1X1X1X,X&X&X&X&X#X#X&X&X&X,X;X.X|.S.a 7 :.:.: t R.wXsXsXeX~.~.wX~.wX~.wXsXsXwXR.t < :.:.6 = o % _.1X2X3X2X2X1X1X1X1X1X1X,X,X<X1X1X1X1X1X",
"<X2X2X2X2X2X1X,X&X&X&X#X&X%X&X&X;X2X2X}.Q f 6.9...< 4 -.R.wXaXdXsXaXpXpXaXpXpXaXdXdXwXR.2.4 1 o.0.:.> & ).1X2X3X3X1X<X2X4X4X<X4X3X2X2X2X3X2X,X,X",
"2X4X2X2X2X2X1X,X&X#X#X#X&X&X&X1X2X3X3X{.& < 0.d.%.3 +.w.R.wXiXaXdXdXdXdXdXdXdXdXsXeX~.R.e.#.3 %.0.q.> u _.,X2X3X3X1X2X4X5X5X5X5X4X3X2X2X2X2X2X,X",
"5X4X2X2X2X2X1X=X&X&X#X&X&X,X1X1X1X3X1X}.p > 0.f.0.8.8.h.E.~.!.eXaXdXdXdXdXdXdXsXeX!.~.E.h.8.8.8.9.#.= % _.:X2X3X1X2X2X5X6XyX8X8X5X1X2X1X2X2X1X,X",
"4X4X2X1X1X1X1X,X&X&X&X&X,X,X1X<X3X1X1X}.s > :.d.f.f.f.h.I.R.E.~.iXaXaXaXpXpXaXiX!.E.R.T.h.g.g.s.#.5 9 K '.2X2X3X1X1X4X5XyXyXyX8X7X4X2X1X2X2X,X,X",
"5X4X1X1X1X1X1X,X&X#X&X&X,X,X<X2X3X1X3X}.u = +.9.d.g.g.0.t y I.~.!.qXqXqX!.qXqX!.~.R.=.t 0.g.g.0.6 % _ )..X,X2X3X2X2X4X5X8XyXyXyX5X3X2X1X1X,X,X,X",
"4X<X1X,X,X,X&X&X&X&X&X&X,X1X2X2X3X1X3X}.Q i 5 %.,.y.d.8.* , I.Q.W.W.W.W.E.E.W.E.Q.I., * 7.d.d.:.= 9 '.&X,X1X2X2X2X<X4X5X8X8X8X8X6X3X1X,X,X,X=X&X",
"4X2X<X,X&X&X&X&X#X&X&X&X1X2X4X2X1X3X1X1X-X^.i > | @.7.+.| : , <.Q.W.W.W.~.~.!.R.<.5 w #.2.7.7.O.= e [.,X1X2X2X4X2X4X4X4X5X6X5X5X4X3X,X,X,X&X&X%X",
"4X<X1X,X-X&X%X%X#X$X&X&X,X2X2X2X3X1X1X1X3X}.s $ V.A.1.1.C.C.X , I.Q.R.R.I.R.R.I.,   4 #.O.w 7 7 0 Q }.2X1X<X2X2X2X2X2X2X2X4X4X4X2X2X1X,X&X&X%X%X",
"2X2X2X,X-X&X&X$X%X%X&X&X,X1X1X1X<X1X2X2X2X}.u J kXkXC.C.kXkXz . t t =.=.=.t =.t > = = + + + + 9 )..X2X2X<X,X,X,X,X,X,X,X,X1X1X2X2X2X2X,X=X&X%X%X",
"2X2X2X2X,X&X&X&X&X#X#X&X&X,X,X,X1X1X2X2X2X.XQ U jXkXV.V.kXjXU & i a a a q a a d h a 9 & e p % Q .X2X4X,X,X&X&X&X$X&X&X&X&X-X,X1X2X2X2X2X,X=X&X&X",
"4X2X2X2X1X,X,X&X&X#X&X&X&X&X&X=X1X1X2X4X4X2X;X).K x 0 @ J U ) ` ' ' ] ] [ { ' ` ` ` ` [ ).).[.}.:X2X2X,X%X#XoXoXOXXX#X#X%X&X-X,X2X2X4X2X2X1X,X,X",
"2X2X4X2X2X2X,X,X&X&X#X#X#X&X&X&X,X2X2X2X4X2X:X{.K % & % % J ' L.L.L.L.L.F.F.F.`.{ } XXoX%X,X2X2X4X2X1X&X#XXXXX} F.XXXXOX#X#X&X-X,X2X2X2X1X1X,X,X",
",X,X,X2X1X1X,X,X=X&X&X#X&X&X&X&X,X1X1X1X1X,X,X%X).' ) ) ' ' XXXXXXXXXXXXXXXXXXXXF.XXoX#X,X2X2X4X3X2X;X&X#XXXXXXXXXXXXXOXOX#X#X&X&X,X,X1X,X,X,X=X",
"%X%X&X&X&X&X&X&X-X&X&X&X&X&X&X&X&X,X,X=X,X&X%X#X`.} } F.XXOX#XOX@XOXOXOXOXOXOXOXOXOX#X&X,X2X4X4X2X:X&X&X#XOXOXXXXXOXOXOXOXOX@X#X%X&X&X&X&X&X&X&X",
"+X+X#XOXOXOXOX#X&X,X1X,X,X,X,X,X,X&X&X&X#X#XOXXX} } } XX@X&X&X&X%X&X#X&X&X&X&X&X&X&X&X,X1X2X1X2X,X&X&X&X&X&X&X&X&X&X%X#XOXXXXXXXoX@X+X+X+X+X#X#X",
"oXXXXXXXXXXXoX#X&X,X1X<X1X1X,X,X&X&X#X#XOXXXXX} } } XXOX&X-X1X1X,X,X,X,X,X,X,X1X,X,X1X1X2X2X1X1X&X&X&X&X&X,X,X,X2X,X,X%XOXXXXXXXXXXXXXXXXXXXOXOX",
"} } } } } XXXX#X&X1X2X4X2X2X1X1X,X&X#X#XoXXX} } } XXOX#X&X,X2X4X4X4X4X4X4X2X2X2X2X2X2X2X1X,X,X&X&X&X&X&X,X2X2X4X4X2X,X&X#XOXXX} } } } } } } oXoX",
"{ { } F.} XXoX#X&X1X2X4X4X4X2X<X,X&X&X#XXX} } } XXoX#X%X,X,X2X7X7X7X7X5X4X4X<X2X4X4X2X,X,X&X&X&X&X&X&X,X,X2X4X4X4X4X2X,X&XOXXXXXXX} } } } XX+X@X",
"} { [ XXXXOX#X&X,X1X2X4X2X2X2X2X<X1X&X&XoXXXXXXXOX#X&X-X,X1X4X7X8XyXyX8X5X4X2X2X2X2X2X=X#X@X@X#X%X&X,X,X2X2X2X2X3X3X1X1X,X&X%X#XOXXX} } oX+X@X%X",
"{ { XXoXOX#X&X&X,X2X2X3X2X2X2X4X2X1X,X&XoXXXXXoX&X-X,X2X1X2X2X7X8XuXyX8X5X4X2X2X4X2X,X&X#XXXOXOX&X,X,X2X2X2X2X2X2X2X2X3X1X,X,X%XXXXXXXXXoX@X&X&X",
"{ } XXOX#X#X&X,X1X1X<X2X2X<X2X2X2X<X,X%XXXXXXXOX&X2X5X4X2X2X4X7X8XuXuXyX5X4X2X,X2X2X,X&XOXXXXXOX&X,X2X4X2X2X2X2X2X2X2X3X4X3X,X$X+XXXF.XX+X%X&X&X",
"` { XXOX#X&X&X,X1X2X2X3X4X4X2X<X,X-X%X#XXXXXOX$X2X7X7X7X4X3X1X6X8X8X8X7X5X4X2X2X4X2X,X%XOXF.L.OX&X1X3X4X4X2X2X3X3X1X3X3X4X5X2X,X+XXXXXXX+X%X&X=X",
"` { XXOX#X$X&X,X1X2X3X3X4X4X<X,X&X#XOXXX} XXOX$X5X8XuX8X5X3X2X4X5X5X5X5X5X4X2X4X4X4X,X&XOXXXXXXX&X,X3X4X4X2X3X3X3X3X4X4X4X4X2X&X+XXXXXoX+X%X,X,X",
"' { XX#X#X#X=X,X<X3X4X6X4X4X<X=X%XOXOXF.{ } XX$X6XyXuXuX7X7X4X2X4X5X4X5X4X2X4X<X4X4X1X&XOXXXXXOX&X1X4X4X4X4X3X3X3X3X4X4X4X5X2X=X+XoXXXoX+X&X&X=X"
};
