/* XPM */
static char *result[] = {
/* columns rows colors chars-per-pixel */
"72 72 29 1 ",
"  c #747569",
". c #797A6C",
"X c #777970",
"o c #7D7D70",
"O c #807F70",
"+ c #7F8070",
"@ c #838370",
"# c #898770",
"$ c #878870",
"% c #8C8C70",
"& c #908F70",
"* c #8F9070",
"= c #949470",
"- c #9A9670",
"; c #979970",
": c #9B9B70",
"> c #A19E70",
", c #9FA070",
"< c #A4A470",
"1 c #AAA570",
"2 c #A7A870",
"3 c #AAAA70",
"4 c #B1A770",
"5 c #B3AE70",
"6 c #B9AF70",
"7 c #B6B170",
"8 c #BDB370",
"9 c #C3B570",
"0 c #C5B870",
/* pixels */
"oooooo@&:2373332>:;%@@ooo@%=,2355535333333312<<:::::<135532,=$@+ooooXo@%",
"ooooo@%=:23333222,:=@oo+@$*:<235777753333332<::::::<2133332,;*$@@oooo@%&",
"@@oO@%=:<<33323212<;%@@@*=:,<23778987333332,====::<222233332<:;=$@.@@%==",
"@@@@$=::<213333332<:%@+$=,2223378098732333<:%$@%:<213233333322<=$@@@%=::",
"$@@@%=::<232132212<=#OO&:33533379998533233<:$@@%:<3333233333332:%@@@%=>:",
"$$@@&=:<<2332322<:==@O#=158733336898533233<=$oO$:<3333322333333:&@@@*=:<",
"%@@@%=::<233332>:=%@ooO-499873334564332233<:%@@@=<3333222333331:%@@@%=::",
"$#@@%=:<<233312:=#OoXo#-499973333333332331<:$@@$:23333213233332:%@@@*=::",
"#@@@&=:<<233332,%@oXX+%>4999512<22222333322:%#@=:2333222223332<:%@@@&=::",
"@@@#=::<2135532;%ooo@$->46661<<<22223223332:=$%=,333333323122<>=$@@#=:><",
"@@@%;,223333532;%+.@=::>1>1>>::,<2333223332>;==:<233331213322<:=$@@%-,22",
"@@@%:<23133333<:%@@#=<22>>::-::<<233332131<<::=:<22313233322<:=*@@@%:<23",
"@@@%:<2122<222,;%$$&:<22>::==:::,<32222222<::-=::<<22122122<:==$@o@%:<23",
".@@%:<2<::-::;;;=%*=:<2<>:;:::::::::<><<<<<:=====::>233322<:==$@oo@%-<22",
"oo+$-:<:=%$$$$%*=;:::<<:,,<<<<::==*==::<:::=%$$@$$=-<3322<:=%#@ooX@$=:,>",
"oo@$==:=&@@@@@$=:,<<::::<<2231<:*$@$==::::;=%@@oo@$=:212<:-=%@Oooo@$=:=-",
"O@#%====%@@@o@@=<131>:::<22333<:$@o@%==:::==%$@oo@@=:<<<:==%$@@@@@#$====",
"%%%%%%%%%$%%$$=:3551<-=:<33331<=$ooO%==::::==%%$@@$%=::-=*%%%&%&%&=%&%&%",
"<::=%$$%=::::;:16986<:::<23332:=@OoO$=::<<><<::===&%&&%$@@@%=::,:::=%$$%",
"22>:%@@%;,<2<<3599961:;;<232<:==@@@@%=::<<2222<,:===%@@@o@@*:>2322,:%@$$",
"332:=@@%:<23333599981::::<<<:-=%$@#$==:,<2333332:::%$@oo.@@=:213332:%#$$",
"732<=$$%:<<2335788851>:=:::===%%%&===:><21335332<:=%@ooO@%&;<233733,=$%$",
"332:-=&==::2233775542<,;=%$$@$$==::<><<221333322<::=@@o@=;:<2335332<-=%*",
"332<:====:::2333333332<:=$@oo@$%:><22<2222333122::=%@@@$:,222333322<:===",
"322>::::=:::,<223223333>=$@oXo@*:23333332122322>::=%@@@*:233333322<<::::",
"2<<,<:<:::::::::<<335551>&#Ooo@%:235333332322<<::=%@oo@%:2333322<<<>:<::",
":<::><222<<:==*;:23589861>=%@o@*:13733321222<<::=$@ooo@%:21332<<<::<<<<2",
"::::<<23312:%$$*:<37999853,=@@@%:2333322312<>:==%@oooo@%:<3332<<::::<<21",
"::::<23333<=$@+$=<37999973<;*@@%;,<23233333<:-=%@Oooo@$=:2333332::::2333",
"::;:<23332<-@oo$=,377998772,=%$%=;,<2233333<:=%@@oo@@%=:>2357541>-=:<333",
">--:<2332<:=@oo$;,235556533<;=*%%%=;,335332<=%@Oooo@=-:<22456985>:;:<133",
">>:;<212<:=%@@@$:<333533333<,;=%$@$*,333332:=$ooXo@%=<<<223590961:;;<222",
"<,:::<<<:;=%@@#=>333332<22<<,:=%@@O$=<<112:=%@ooo@$=,<33333580061>:::<<,",
"<,:::-:==*%%%%=:157532<<<<<<::-%@oo@==::<::=@@o@@%=:,333223578871>::::-:",
"11,:=%$#@@$%=;<17988532<::::::=%@ooo@$%*%%%@@o@$&::<<233<223355532,:=&$#",
"21<>&#@ooo@%=,37999953<<,::=::==@@oo@@@@@@@Ooo@%:>2333232233344232<:&@@o",
"332>=@@Oo@$=:<378909731,:;;;::==%#@@@@@@@@@@oO@%:<33333333423222332:=$@@",
"332,:%$$$%==<2388988732<:;;=::::==%$$%%%%$%@Oo@=,253333355553222332>-%$@",
"342<:::=:-::22357777733<:==::<<<<:::::::::;*@+@%>235323588865222332<<::;",
"22222<<<<<2222333353332<:;:::<22<2<<<<<22<<-$@@%:<3323378008542221222<<<",
"2<2<23323333322<2<<<<<<,::::213313333333332:%@@%;,22<2359908522<<2222133",
",<<<2433333322<,::;;;::::::<223333333333532,=%%%=;,,<2356898542<<2<<2333",
",>:,<3353312<,:=%%%$$%*=:<<2221333322333332<:==%%%&;,2355755342<:::<<133",
"::::<<333332>:==%@@+@@$=:<23123332333133322<,==%$@$*,<333333322,:::><233",
":::><3333122::=*%@@@oo@=:<13322122232122332<::=*@@@%:,334222322<::::<233",
",::,<<2222:::====%$@@@$%:<23333212122232332<<:=%@.@$:<333<2222<<::::<221",
",<<<222<<::::===:::==%*=::<22333232232333332<:-=@O@%:<33222<<2<<<<<<<22<",
"22<2222<:::=:=:::<<>:====:::<231122321323222>:=%@@@%:<33332222222<22212<",
"2323332<>:;=:::><212:::===::<<221223331222<<::=%@@@%:<23321333333313322<",
"3432332,:;==::>,23332<::=%%=:<<2223331222<<::=%@oo@%:<333233476553323222",
"5332232<:;::><<<233322:=&$@$=:>223333312<>::=$@@oo@$:<33233569975322332<",
"5332221,::=>,<22332331<:%@@$==:<<233322<<:-=%@Oooo@%:<2322359999532223<<",
"33222<<,::;:<2223233332:=#@$===:<<2122<<:==$@Oooo@@=:23323358999733222<<",
"5322<<,::=:><2331332331:==%$%%==:<<222<::=%@ooo@@$=:<133235579975322<<:<",
"333<,>::=::><233323233222::=%$%==::<<>::=%@@ooo@==:<233333355755332<:::=",
"332<,:;===:,<2333322333312<:%#@$=::::::=$@@ooo@%-<232333333333433122:::=",
"322<:::=:==>,<221213232322<:$@+@%==:===%@@ooo@$=:23322<<<<22<222332<::=:",
"4322<>>:;:::,,,122333312<<:=$ooo#$%*=%%$oooO@%=:2332>:::-::::<<<21322:::",
"33332<<,:=;=-:,,22333332:=%@@ooo@@@@@@@oooo#==,2133<-=$$#$&=;::<233322<<",
"2333322,>;=:-::,<333332:=$@@Ooo+o@@o@@@ooo@$-<23332:=@@Oo@@%==:<213331<<",
"<<<22<<<>:;:;;:><<2312<-%@oo@@@@@@@@@@@@@@$=<33332<:%$@OO@@$%==::22222<>",
";::::>::::>>>:::<<<:<:;=#ooo$%***%%$$%%%%$=:233332::=%$%%%%$%%%=-:::::::",
"***%%%*=:,<<<<<,::::=*%@Ooo@*;:,::=::::::::<2331<::::::::::=%#@$%%&&%%==",
"$$@@@@$*><2222<<<:==%@@oo.@$:,<2<<<<<<<2<<221322::::>><<22,:%@O@@@@@@@$%",
"oooooO@=:2333322<:==#@ooo@$=:2333533333333322<<:::::<233333,=$@o+ooooo$%",
"Xoooo@$=:<333333<::=@Ooo@$*:<335777753333332<::-:::<2233333,;*$@+oooo@$&",
" oo$$%=:<233333312::%@O@%=:,<33789975333332:====::<2233333332:;*$@oo@$=:",
" .@$%=-:<233333332<:$@@#;<<2233799085333312:=$@%;<213333323332,;$@@@%=::",
"XX@%=;:<2233333132<=$@@&,23523378009733333<:$@@$;23333333333331:&@@#&=:<",
" X#%=--<223333112:-=@@#&177733378887733333<:$+@%,33333313333733:&@@@&-::",
" .#%=::<2333331<:=%@o+#-4808733377775333332:%@@$:23533333333533,&@@@=-<<",
" .@%=::<2357371>-%#Ooo$>4900853335373333532:%@@%:23533333333552:&#@#%::>"
};
