/* XPM */
static char *aGlzb2thX3JpZ2h0d2FsazE_[] = {
/* columns rows colors chars-per-pixel */
"72 72 254 2 ",
"   c #020402",
".  c #0A0003",
"X  c #03030A",
"o  c #09070A",
"O  c #1C030B",
"+  c #160406",
"@  c #0A0815",
"#  c #1A0615",
"$  c #061616",
"%  c #111510",
"&  c #270106",
"*  c #3A0705",
"=  c #270814",
"-  c #370216",
";  c #301B18",
":  c #122218",
">  c #312E12",
",  c #091A2D",
"<  c #181925",
"1  c #130D2C",
"2  c #2A1623",
"3  c #351B27",
"4  c #3E1B37",
"5  c #2F0626",
"6  c #1A2B29",
"7  c #15342B",
"8  c #25272A",
"9  c #2F3133",
"0  c #570117",
"q  c #4D0B18",
"w  c #522E11",
"e  c #470527",
"r  c #461729",
"t  c #451B35",
"y  c #58112E",
"u  c #71132F",
"i  c #492434",
"p  c #582838",
"a  c #513233",
"s  c #6F2E3A",
"d  c #18402F",
"f  c #2B4232",
"g  c #525133",
"h  c #764A2E",
"j  c #62451D",
"k  c #0F2856",
"l  c #2F2B4D",
"z  c #002260",
"x  c #201C54",
"c  c #413548",
"v  c #503049",
"b  c #722D52",
"n  c #483476",
"m  c #6E1C4D",
"M  c #364852",
"N  c #1F555F",
"B  c #464656",
"V  c #554C51",
"C  c #67474E",
"Z  c #6F4C52",
"A  c #7A7C53",
"S  c #515567",
"D  c #70526E",
"F  c #526E6F",
"G  c #7C7D6D",
"H  c #777869",
"J  c #7D7D71",
"K  c #797875",
"L  c #6F6972",
"P  c #93041E",
"I  c #921232",
"U  c #9F1D39",
"Y  c #855A1B",
"T  c #AE0E44",
"R  c #8A304D",
"E  c #AF2E4B",
"W  c #AE396F",
"Q  c #9F1B4A",
"!  c #D91551",
"~  c #C52353",
"^  c #E4225E",
"/  c #88565E",
"(  c #AC5058",
")  c #896A59",
"_  c #8B476A",
"`  c #9A5877",
"'  c #91526E",
"]  c #AF5A78",
"[  c #84636E",
"{  c #817E6D",
"}  c #877B65",
"|  c #827E72",
" . c #877B76",
".. c #967777",
"X. c #926C77",
"o. c #B26D78",
"O. c #CE527D",
"+. c #C67E7F",
"@. c #7C865C",
"#. c #7E816D",
"$. c #788768",
"%. c #7F8172",
"&. c #7A877B",
"*. c #688C68",
"=. c #A79310",
"-. c #AA8735",
";. c #E5A50D",
":. c #FCCF16",
">. c #8C915D",
",. c #93A15F",
"<. c #AEA65C",
"1. c #84836E",
"2. c #8A856C",
"3. c #858A6C",
"4. c #8B8C6D",
"5. c #868965",
"6. c #938E6B",
"7. c #948869",
"8. c #8C926D",
"9. c #89956B",
"0. c #94946E",
"q. c #9A966C",
"w. c #959A6C",
"e. c #9B9C6D",
"r. c #999865",
"t. c #848471",
"y. c #8A8573",
"u. c #868972",
"i. c #8C8C71",
"p. c #888779",
"a. c #918E71",
"s. c #96887A",
"d. c #8E9172",
"f. c #889576",
"g. c #949472",
"h. c #9A9672",
"j. c #969A72",
"k. c #9B9B72",
"l. c #99957B",
"z. c #99987B",
"x. c #A19E6E",
"c. c #A59A6A",
"v. c #A4897D",
"b. c #A19C73",
"n. c #A79978",
"m. c #B39D75",
"M. c #AE8F71",
"N. c #9DA363",
"B. c #9DA16D",
"V. c #9AA769",
"C. c #9DA272",
"Z. c #9CAA72",
"A. c #98A379",
"S. c #90AA6E",
"D. c #A4A46E",
"F. c #A9A66E",
"G. c #A6A96E",
"H. c #AAAA6E",
"J. c #A7A665",
"K. c #B3AD6E",
"L. c #B1A76A",
"P. c #A5B269",
"I. c #B5B16E",
"U. c #BCB36E",
"Y. c #A5A671",
"T. c #A4A471",
"R. c #AAA672",
"E. c #A5AA72",
"W. c #A9A971",
"Q. c #ABAA71",
"!. c #ACAB7B",
"~. c #A8A57A",
"^. c #B3AD71",
"/. c #B4A47A",
"(. c #B5A875",
"). c #ACB173",
"_. c #B5B171",
"`. c #BCB371",
"'. c #BBB574",
"]. c #AE9E51",
"[. c #C2B46E",
"{. c #C3BA6F",
"}. c #C3B571",
"|. c #C5B972",
" X c #2D5684",
".X c #134989",
"XX c #717C89",
"oX c #987083",
"OX c #A57687",
"+X c #B87497",
"@X c #B27088",
"#X c #9F6D92",
"$X c #D07093",
"%X c #C56294",
"&X c #72828B",
"*X c #858884",
"=X c #988984",
"-X c #99958D",
";X c #A58987",
":X c #A99A85",
">X c #A88A95",
",X c #BA8499",
"<X c #BD9998",
"1X c #B8938D",
"2X c #8EA38D",
"3X c #A8A585",
"4X c #B6A682",
"5X c #B4B385",
"6X c #B590A7",
"7X c #ADB3B1",
"8X c #9CB9B7",
"9X c #C58899",
"0X c #C79696",
"qX c #D6868B",
"wX c #ED8885",
"eX c #C7A28E",
"rX c #C4AB97",
"tX c #C998A7",
"yX c #D797A8",
"uX c #D79ABA",
"iX c #D08AA9",
"pX c #E889AC",
"aX c #D0ABAF",
"sX c #E5A7BB",
"dX c #E7B9AF",
"fX c #BDC2A1",
"gX c #DCD8B2",
"hX c #D3B5D1",
"jX c #FAB8D8",
"kX c #EFB3D0",
"lX c #FDB7F1",
"zX c #F28FDC",
"xX c #B5C5CB",
"cX c #D8C8DA",
"vX c #D2D2D4",
"bX c #FDC3D7",
"nX c #EECDCC",
"mX c #D5E2D7",
"MX c #F2EBD6",
"NX c #DDD4E4",
"BX c #F2CEED",
"VX c #DAF2F1",
"CX c #F4E9E5",
"ZX c #FBFAEE",
"AX c #E7E8F5",
"SX c #F7EAF8",
"DX c #E9FDFB",
"FX c #FEF4F5",
"GX c #FCFDF4",
"HX c #FEF4FD",
"JX c #F4FDFD",
"KX c #FDFCFE",
"LX c #F2F9FA",
"PX c #E9EBE8",
/* pixels */
"G G J J J G 1.a.e.D.!.Q.Q.H.Q.H.b.e.0.4.#.%.G J J 1.2.0.C.E.G.K._.Q.K.K.H.H.H.H.W.Q.H.W.Y.T.T.e.k.k.r.e.T.~.Q.^.Q.H.G.B.0.4.1.{ #.G J J H J 1.i.",
"G J J | | 1.i.g.e.Y.Q.Q.H.H.G.D.T.D.k.0.t.t.G %.t.i.8.k.C.T.H.K._._._._.^.Q.G.H.Q.Q.Q.W.T.k.k.k.k.k.e.D.Y.R.R.Q.H.H.D.C.w.4.y.t.t.J G | G t.i.i.",
"1.%.%.| 1.i.0.e.D.Y.Q.Q.G.Q.W.D.F.D.Y.k.i.t.G t.8.0.e.C.T.W.Q.^._.U.[.`._.Q.Q.Q.Q.H.D.B.j.g.g.g.k.k.D.D.Q.Q.H.H.Q.H.H.W.C.k.h.g.u.t.G t.y.i.g.0.",
"1.t.t.t.i.g.k.e.Y.R.Q.Q.H.Q.Q.W.H.F.R.j.i.1.#.3.w.k.D.F.G.Y.Q.'.}.{.[.[._.H.Q.Q.Q.Q.D.e.4.2.t.i.k.T.H.D.G.R.H.Q.!.H.H.Q.R.Y.T.0.u.1.{ 2.i.g.k.k.",
"1.t.1.1.4.h.e.B.D.Y.Q.H.D.D.Q.W.F.D.T.h.u.{ 1.d.e.W.^.H.H.H.Q._.}.}.[.U.H.Q.G.Q.H.H.B.0.1.1.t.u.k.Y.H.H.G.Q.H.Q.H.D.F.H.Q.Q.W.w.i.t.t.1.4.g.k.B.",
"2.3.1.1.i.j.e.e.D.Y.Q.Q.H.H.W.Y.D.r.h.i.t.1.1.g.F.^.U.^.K.F.H.Q._.U.}.[._.Q.H.D.H.H.T.j.2.1.%.t.e.Y.Q.H.H.Q.R.G.Q.Y.H.H.Q.Q.W.e.a.1.1.1.4.0.C.T.",
"i.1.1.y.i.g.k.x.Y.Q.Q.Q.Q.Q.Y.T.k.6.4.t.J { 1.h.K.U.}.[.K.H.H.Q.(.K.I.K.Q.Q.W.D.H.R.T.k.i.1.t.t.q.T.R.H.Q.W.G.G.Q.G.Q.H.H.!.W.e.p.1.t.1.a.0.k.e.",
"i.1.1.1.i.g.k.T.Y.Y.D.F.Q.Q.D.r.j.3.#.G K G 2.z.L.}.}.[.I.H.H.Q.H.F.H.H.G.Q.G.H.R.R.T.j.4.t.t.t.k.R.Q.H.Q.Q.W.D.W.G.Q.H.H.R.Y.e.i.1.2.t.a.g.k.e.",
"t.1.1.y.4.0.e.T.D.D.R.Q.Q.Q.D.C.4.1.J K H H 4.b.(.[.{.}.K.Y.R.D.D.H.H.N.R.!.Z.H.(.E.R.n.3.f.} g.r.~.R.Q.G.D.Q.D.Y.R.H.F.G.Q.T.k.u.3.1.1.4.w.r.b.",
"1.1.1.i.0.w.b.Y.G.G.Q.K.K.H.T.B.i.#.H J 3.8.q.k.(.K.I.K.F.T.T.D.3XD.G.H.).].Z.!.P.Q.Z.r.h.$.d.h.Y.!.R.R.H.F.Q.Q.F.Q.H.G.G.D.C.0.u.t.1.1.g.k.e.T.",
"u.#.1.4.j.e.Y.G.G.H.H.H.H.Q.D.e.i.G G t.g.k.e.D.c.F.F.T.b.e.k.D.N.5X).R.~.yXP.m.E.<.Q.n.w.w.>.e.D.Q.F.J.).H.W.W.R.Q.H.H.D.T.e.0.u.1.1.i.j.k.D.W.",
"t.1.1.i.k.Y.G.G.G.H.H.H.H.Q.T.j.i.t.1.i.l.C.D.G.b.b.k.k.h.k.k.e.J.D.N.aXE./.o.p b < r aXv.aXf.C.B.E.F.J.K.H.D.E.F.Q.Y.D.T.k.w.4.t.1.t.i.e.D.G.H.",
"#.#.t.4.k.T.W.G.Y.Y.Y.T.H.Y.C.h.i.2.i.a.k.B.G.E.D.k.h.j.j.j.e.k.c.T.sXE.R y   = @ = ;   p h.w.C.B.E.E.D.F.F.G.E.D.F.D.T.k.h.d.2.%.J 1.2.j.D.G.H.",
"#.G 1.i.j.T.Y.T.k.e.h.k.e.e.j.g.0.i.4.0.e.T.W.D.e.k.k.k.e.e.e.e.A.z.$X$X+X* Q I u = % ^ q 8 sX=X6.0.A.C.D.Q.Q.W.Q.Y.T.b.j.4.i.1.t.%.1.i.j.T.Y.H.",
"G G 1.3.0.k.T.k.0.4.2.i.2.5.4.g.j.j.h.h.B.D.B.k.B.T.b.T.D.D.e.h.qXtX] u & r U U ~ I U 0 ! 0 d p.v.2.d.C.T./.Q.F.R.T.e.0.4.2.t.J J G { i.0.B.x.x.",
"G %.t.2.0.h.k.0.6.1.#.t.t.1.3.d.e.C.~.T.B.r.e.k.D.Y.~.R.H.D.D.k.j.p.yXe Q U 0 u * T T I I ~ 0 s <X..3.9.q.L.F.F.T.e.e.0.4.1.| J G J | u.g.w.w.0.",
"#.1.2.d.g.l.g.0.u.y.1.#.#.#.1.g.Y.F.F.R.x.k.h.e.B.E.G.H.Q.R.~.q.$.@.>XX.- u I y a q u U P P U + 9X .t.h.x.C.Z.R.j.h.g.i.i.t.t.t.t.1.2.2.d.g.g.0.",
"4.4.4.i.u.i.4.5.4.4.4.i.2.3.g.k.Q.^.K.(.x.e.q.k.T.W.H.H.Q.Y.~.k.s.&XH R @ 4 u T ! P R pX0Xo.( - tX .#.4.6.A.j.k.g.i.4.i.i.i.g.i.i.i.0.8.i.d.4.8.",
"T.b.k.g.i.1.i.d.0.0.k.j.k.h.e.Y.I.U.}.(.R.e.j.j.D.W.H.H.H.D.k.j.| { H iXq - 3 r m I wXvXKXMX( - <Xs.9.0.6.d.i.7.t.1.2.4.g.k.e.x.k.b.k.0.4.2.u.d.",
"R.Y.T.j.d.1.t.u.e.C.T.W.E.T.D.^.[.[.}.`.R.k.j.k.T.G.H.G.D.e.k.a.p.t.5.5.#X5 t * & 0XZ ) o.GX& [ n.g.j.g.2.u.t.{ %.#.3.i.k.T.D.H.Y.Y.T.e.4.2.u.u.",
"H.H.G.k.8.1.1.t.e.T.H.G.Q.H.H.^.[.[.}.U.F.x.h.h.k.T.Y.B.e.k.g.i.t.5...=Xt & q D 9 M.dXY ( 9 + eXn.j.j.4.1.#.J | J #.t.8.e.D.F.H.Q.Q.H.e.0.i.t.u.",
"I.H.H.b.j.4.i.d.k.b.D.D.Q.H.K.K.`.}.U.K.R.k.e.w.e.w.k.0.0.g.a.a.4.d.9.A.q.' m V A :XmXgX5X# o.D.T.k.k.4.1.t.J G t.u.g.j.T.Y.H.H._.Q.H.e.0.i.3.u.",
"H.H.D.D.j.6.8.0.g.k.B.D.H.Q.(.^._.K.K.K.R.T.e.e.j.4.i.y.1.y.y.v.c.0.r.~.b.E.E.4 + tXMX0.MXhX3 R.C.k.k.i.t.t.#.1.0.j.C.T.Q.Q.H.H.Q.Q.Y.T.j.6.4.d.",
"H.H.D.b.k.j.j.0.g.j.e.B.Y.R.Q.Q.Q.H.H.Q.R.Y.C.e.d.5.1.| | { y.:Xk.b.0XR.P.Z.@X& > ;XMXnXnXB V R.C.w.q.i.t.t.1.i.e.B.D.W.H.H.H.Q.H.D.Q.Y.k.g.6.j.",
"Q.Q.T.D.k.e.e.e.g.0.k.e.e.Y.T.F.R.Q.G.J.H.Q.R.D.g.2.1.G K G 2.h.A.D.K.:XkXoX= Y a   9 GX} w Y.T.r.e.g.i.1.1.2.i.k.T.H.H.H.Q.Q.H.G.Y.Y.D.e.e.e.k.",
"D.Y.T.x.B.e.B.C.k.e.D.e.h.k.e.x.Y.Y.F.H.^.^.^.F.b.a.2.t.J J t.a.q.J.<.'.+XO f  Xj =.=.  n kXm.j.e.g.i.1.| { t.a.k.W.H.H.H.W.G.G.Y.T.T.b.e.D.x.k.",
"x.x.e.x.e.Y.Y.Y.T.T.T.e.0.j.d.g.k.Y.Q._._.}.}.K.R.b.0.i.t.J t.d.-X<.C.) . l  XS z a w < l dXzXf.g.3.1.G G G t.i.j.Y.Q.H.Q.D.D.D.C.e.C.b.D.F.D.T.",
"k.k.e.e.T.D.H.H.H.H.Y.h.4.i.u.d.k.T.Q._.`.}.[.[.^.Q.e.g.t.t.t.i.m.kXX.j @ x  X@ > :.:.  a qX:X,.i.1.G G J G t.p.e.Y.Q.R.Q.G.E.B.e.e.e.C.D.D.D.F.",
"k.k.0.e.T.R.Q.H.F.H.T.h.1.{ t.u.w.C.Q._.`.{.[.[.'.Q.Y.e.4.t.u.i.wXbX< h % l N x =.:.;.a - p BX7.t.%.G %.t.1.3.g.e.Y.Q.H.H.H.F.R.k.w.k.k.Y.H.H.Q.",
"k.w.e.x.T.W.Q.H.H.F.T.j.1.G G u.w.k.Q._.U.U.U.[._.^.H.x.j.4.2.4.aX_ D (   l M x > Y -.>X@ [ 6X .%.%.G %.1.4.g.j.D.R.R.Q.I._.K.Q.k.w.0.k.T.E.H.G.",
"k.k.0.e.T.Y.Q.G.Y.e.k.g.1.t.G t.w.e.Q.H.K.K._._._.).H.D.k.g.i.4.zXc u $X+ k l l   C aX@X. h ..i.J %.%.1.4.h.k.B.D.Q.Q.K.U.U._.(.b.e.h.k.T.G.W.W.",
"T.e.r.k.T.Y.Y.D.T.e.0.4.t.t.#.u.e.T.Y.H.H.K.K.Q.R.E.D.D.b.h.g.4.lXV 0 %Xa X M k 1 $ O.W - S 6XK H J 1.4.j.T.H.D.D.Q.Q.K.[.}.}.[.Y.e.q.k.T.Y.D.W.",
"Y.x.e.q.k.T.T.T.e.k.g.i.1.1.3.g.x.Q.Q.Q.H.R.Y.Y.R.D.R.~.B.N.9.s.>XC ;Xb r - , k , X u W * D zX&. .2.3.8.b.V.V.(.!.G.H.K.U.|.}.U.R.x.q.q.e.T.T.D.",
"D.b.e.k.q.j.j.j.a.6.i.i.4.4.0.k.F.^._.^.H.H.D.D.T.B.T.A.r.r.n.kXm oXFX% nXqXX , $ @ 1 oXg a lXs. .i.g.e.B.R.(.D.W.H.H.K._.`.U.U.R.T.e.q.k.j.j.q.",
"F.D.T.k.g.6.2.3.1.y.t.i.0.k.T.Q.U.}.'.`.K.F.Y.B.q.T.c.g.~.w.4.jX_ S LX  s.$X  $ @ y & gXfXC $X} 5.g.k.!.V././.P.Z.Q.H.H.H.K.K.K.H.Y.T.e.g.g.i.1.",
"J.F.R.k.g.t.1.J J { t.i.j.x.H.I.[.}.}.[.K.K.G.D.C.w.x.9.6.C.-X@XC PXS / ....V O t R * Z KX8 L :XA.~.W.D.R.R.T.).Y.Y.R.H.H.Q.Q.Q.H.D.T.k.8.1.{ | ",
"F.H.R.n.g.1.1.%.{ 1.u.g.e.D.H.I.[.[.}.[.U.H.F.B.j.w.k.A.w.C.3X` 3 BXr $X| jXD e ] ` b = PXMXt +Xh.c._.Y./.!.G.J.Q.Q.H.R.Q.Q.R.Y.G.H.W.k.g.t.1.%.",
"Q.Q.W.D.0.4.2.i.2.4.g.j.e.D.H.I.^.[.`.`._.Q.D.T.n.n.6.j.C.9.:XX.8 %X$ $XbX' V nXSXHXaX: hXlXW - 0XT._.(.R.H.H.H.K.^.K.^.H.Q.Y.Y.H.H.Y.C.q.8.2.t.",
"Q.Q.W.D.D.k.j.j.j.w.e.k.C.H.H.^._._.^._.^.Q.Y.E.w.r.9.k.w./.qX3 JX0Xo iXOXC AXDXKXSXKX6XO $XW = @XrXL.L.Y.!.H.K.U.`.'._.K.Q.H.D.Q.Q.F.D.B.k.j.j.",
"W.G.Y.G.D.T.T.T.D.D.B.W.W.Q.Q.R.Q.H.L.H.H.R.Y.E.z.q.j.b.r.m.qXS &XD s uXX PXKXDXJXKXDXCX< OXSXvX= 0X4X).J./.F.I.U.|.|.`.K.J.H.G.R.D.R.F.F.Y.T.T.",
"Y.D.D.D.R.Q.F.F.Q.W.!.G.H.H.R.T.E.Y.B.D.B.T.C.B.x.0.k.j.Q.J./.eXi C c.' XXLXSXZXSXKXK PXZXB XXZ Z n.V.H.Q.Y.Q.I.[.}.|.U.K.H.J.Y.D.G.G.G.D.D.Q.Q.",
"T.T.D.D.F.Q.Q.Q.Q.Q.H.G.H.D.T.T.e.k.k.k.e.e.e.e.k.V.j.T.D.J.(.eXBXkX_ v xXcXFXKXGXKXX vXZXNX$ a <X:XY.N.x.!.Q.L.`.`.`.`.I.H.Y.Y.D.D.D.W.Q.Q.Q.Q.",
"k.b.e.D.T.Q.Q.Q.F.H.W.W.D.T.w.0.4.4.2.i.i.2.8.0.k.B.B.R.D.P.!.c.).T.- &XxXHXvXDXSXB L mXJXJX9 >X;Xl.6.w.B.B.Q.^.K.K.K.K.K.H.F.T.e.e.e.D.D.D.Q.F.",
"k.k.k.x.D.Q.Q.Q.H.Q.D.R.B.k.0.8.4.1.t.t.t.1.3.g.b.V.D.(.W.V.G.(.(.bXl 2XGXAXKXDXcXX cXKXPXKXmXi tX} 3.w.w.Y.F.H.Q.H.H.H.H.H.D.D.k.q.e.x.Y.Q.Q.Q.",
"j.k.e.B.T.D.R.H.Q.R.D.E.k.k.0.8.d.1.1.| J G 3.a.b.D.H.(.R.E.c.4XkXb B NXHXFXKXAXt >X, mXKXSXVX% OX .$.$./.x.D.H.Q.E.G.D.W.W.D.D.k.k.e.e.T.Q.Q.Q.",
"e.e.e.D.T.T.H.D.W.T.D.k.w.w.0.g.g.4.1.t.1.1.2.i.k.D.G.F.Q._.T.4X1Xc 7XKXGXCXJX3 ' nX, vXHXKX7 o & K u.2.q.R.W.H.G.W.G.D.T.Y.Y.D.k.e.0.e.D.D.F.D.",
"B.D.B.D.D.Y.Y.D.T.e.e.q.w.0.g.g.e.k.j.h.g.i.g.g.k.w.B.(.H.r.5X0Xv -XJXKXK xXxX4 iXm.# AXZXD $ B . <X;Xi.A.D.H.G.H.D.D.T.D.Y.D.D.T.T.D.Y.Y.R.R.D.",
"G.D.D.D.H.W.Y.Y.k.e.j.w.k.0.k.k.r.T.Y.C.w.0.g.g.8.C.w.B.N.P./.a 7XLXJX&X. 6 g ,XjXR.D D ZXNX6 o F [ yXy.w.Q.L.E.Q.H.W.E.W.E.R.R.W.Y.Y.Y.Q.D.Y.D.",
"H.Q.Q.Q.Q.R.Y.D.k.k.j.g.q.e.x.b.D.D.G.D.N.r.k.0.r.f.:Xr.A.T.@X< LXGXLXX 6 # p jXqXT.hX# mXLXCX7XNX. 2.6.B.jXL.~.W.Y.F.F.L.Q.^.R.H.K.F.F.Q.G.G.D.",
"Q.Q.Q.H.Y.W.Y.D.e.e.j.h.q.e.B.x.D.W.Q.Q.D.T.e.j.l.3.4.w.k.tXm hXLXKXCXHX  = E.R.3Xn.$X2 7XAXFXHXxX% kXs.e.!.E.P.R.Q.H.F.K.^.^.^.Q.K.R.F.W.Q.Q.D.",
"Q.Q.Q.W.Q.Q.T.D.e.k.w.k.b.T.T.D.Y.Q.Q.Q.Q.T.k.0.y.g.@.5.j.uX+ SXSXPXKXKX-Xc kX3XC.C.uX2 &.8XKXAXXX; H tX9XtXeX^.W.Q.H.K.I.}.}.`.H.H.H.H.G.W.Y.D.",
"_.Q.H.D.W.R.Y.D.e.w.k.k.T.Y.G.R.Q.Q.H.Q.W.Y.T.e.l.} 1.$.j.uXi XXVXKXJXMX# F.F.<.Z.w.bX9Xt L *XF @ J $.uXn.N.F.~.E.G.H.K.U.}.}.[.K.H.F.D.W.W.Y.D.",
"H.).Q.G.Y.W.T.k.e.j.k.k.D.D.H.W.Q.Q.Q.F.Q.R.Y.e.d.p. .8.d.:XuX. H VXLX&XZ 3XW.q.c.0.a.=X+X5 X = o  . .uX,.S.yX4XQ.H.K.K.}.}.}.}._.Q.H.G.Y.E.Y.T.",
"H.H.G.D.T.T.T.e.w.e.k.k.D.D.W.W.F.D.F.Q.Q.Q.D.e.>.-Xy.4.4.@.uX& i B S Z R.E.4XV.k.8.9.#.jX' 8 %X+ *Xq.N.^.sXcXL.Q.F.Q.K._.[.U.U.Q.Q.H.R.T.T.k.e.",
"H.Q.H.D.e.e.k.w.0.k.k.T.D.G.Q.Q.F.F.H.H.Q.Q.Q.D.).0.z.0.8.p.r R ` # a V.C.D.9.h.8.l.2.*...9Xy R W b uXV.` r t J.Y.Q.Q.K.K.^.(.^.H.Q.D.T.B.e.k.j.",
"H.Q.!.D.x.k.e.0.0.0.j.T.T.G.H.E.Q.R.Q.D.H.Q.Q.Q.J.F.V.C.5.6X& W b R g.<Xr.n.V.g.2.%...{ -XbXb 4 O.2 : i 6 @ O !.R.Q.Q.F.H.(.Q.R.G.W.W.T.e.w.q.j.",
"Q.W.G.D.x.e.j.j.k.0.h.k.T.D.D.E.R.F.R.R.F.F.F.Q.(.S.R.6.:Xr # _ # ' jXiX9.0.w.d.#.t. .=X .t.#.9 u # 6 8 < = ;Xn.T.Y.T.D.T.Y.W.D.Q.R.R.Y.e.0.j.j.",
"Q.Q.Q.D.Y.b.e.k.k.0.j.k.C.k.B.D.D.Y.Q.Q.H.Q.Q.Q.c.Z.q.3X%.+ $ o O Z ,X;Xf.9.a.1.G 1.G t.{ 2.:Xg.% < : < * ;X:Xk.0.k.e.e.C.T.D.F.Q.Q.F.Q.D.B.k.k.",
"H.H.H.H.G.Y.D.e.j.j.j.e.e.e.B.C.Y.Q.H.F.Q.Q.Q.G.T.4.7.1.&.D + @ f <   [ } { i.K G #.{ i.h.0.x.~.# . . ..jX=X#.2.1.2.d.0.0.k.B.D.F.F.Q.H.H.G.D.B.",
"G.H.H.H.Q.H.D.D.b.k.0.0.w.e.k.C.D.Q.Q.G.H.R.Y.r.d.g.} u.} 9XX.i o   < O  .%.t.%.G #.G 2.k.Y.D.F.' Z oXaXl.1.7.$.J t.3.i.g.j.e.e.F.Q.Q.H.H.H.D.B.",
"Y.Y.D.Y.W.Y.D.D.C.k.e.w.w.e.e.k.D.W.W.Y.R.~.T.q.3.#.{ H p.y. .| ` [ ] / y.4.1.1.t.#.i.g.x.Q.Q.^.T.Q.Q.q.a.f.&.K %.#.1.u.i.d.j.k.x.T.R.T.D.Y.F.e.",
"k.j.k.k.k.k.k.e.r.k.e.B.k.B.e.e.B.T.C.C.C.k.j.6.y.u.%.H u.f.3.j.p.dX;XjX$.s.9.2.4.3.g.A.R.Q.H.D.!.C.w.b.x.5.$.7.i.4.4.i.i.2.i.g.h.k.k.k.k.e.e.k.",
"8.d.4.i.2.8.d.g.e.B.C.E.T.D.B.C.e.k.e.0.g.g.i.2.t.H H u.g.k.e.e.A.w.i.j.2Xr.n.e.e.w.0.D.G.H.Q.Q.c.x.n.z.9.0.3Xn.k.e.0.0.4.t.1.3.i.a.g.4.a.6.g.g.",
"3.u.t.3.1.1.i.i.C.T.E.E.D.T.E.T.T.e.0.0.4.1.1.{ H t.%.u.k.r.R.D.J.D.Q.T.V./.c.Z.c.!.Q.D.H.G.F.Q.D.9.A.w.T.V.N.D.Q.D.D.k.d.1.#.1.t.1.1.t.1.1.u.a.",
"J J #.G J 1.1.a.e.T.R.Q.H.H.Q.H.T.k.0.g.y.t.K J | t.4.0.C.T.F.L.^.Q.K.(.Q.R.H.H.H.H.H.W.D.Y.D.e.j.k.e.x.T.R.R.Q.Q.H.Q.B.g.i.t.G G G J J | | t.d.",
"G G %.%.%.t.1.j.e.Y.!.H.H.G.H.G.T.e.r.0.i.| G #.t.y.6.0.T.W.G.I._._._._.(.R.F.H.H.H.W.E.T.C.k.k.k.k.e.D.R.R.E.W.H.H.H.B.w.d.i.1.#.t.J G J { 2.4.",
"H H &.1.y.i.0.k.B.Y.Q.H.H.H.H.Q.F.D.C.j.i.1.1.t.i.g.e.T.W.E.H.I.`.}.}.'.^.F.F.H.Q.R.T.C.w.0.g.a.0.e.D.Y.W.W.Q.H.Q.Q.Q.R.T.k.h.i.t.#.G | t.i.0.k.",
"H H %.u.i.g.0.C.T.W.W.G.G.H.H.Q.G.R.T.j.i.1.t.1.j.C.Y.D.D.G.Q._.[.}.}.`.^.(.Q.H.Q.R.Y.k.8.2.y.i.e.C.Y.H.W.Q.Q.W.Q.Q.Q.Q.Q.Y.C.k.i.t.t.t.i.0.k.C.",
"H G 3.i.g.j.e.T.W.W.Q.H.F.R.F.R.H.G.C.j.u.1.y.4.e.Q.L.H.H.G.K.'.[.{.|.}.`.Q.H.Q.Q.Q.T.j.2.1.t.u.C.T.Q.H.Q.H.Q.G.H.G.J.Q.H.H.D.e.i.t.1.t.0.w.e.e.",
"H H t.i.g.z.e.Y.G.H.G.H.H.Q.F.D.D.B.j.d.t.{ 2.g.F.^.`.I.H.H.Q.).`.U.U.U._.Q.E.G.R.Q.D.e.i.t.t.i.e.E.K.H.F.H.H.H.).H.R.Q.K.K.D.x.8.2.| t.4.r.e.e.",
"H H u.4.g.k.e.D.G.Q.H.H.H.H.R.D.e.0.4.t.J G 4.h.K.`.|.`.I.H.G.Q._._.U.I.K.Q.Q.G.Q.H.G.w.i.%.1.8.e.W.H.K.H.Q.R.D.H.H./.Q.I.K.Y.k.4.2.| y.g.r.B.T.",
"H H 1.2.g.k.e.D.Q.H.K.Q.^.^.Y.b.q.4.1.t.J G 2.b.L.}.|.{.`.^.Q.Q.H.).K.H.H.Q.R.R.Q.H.H.e.i.%.1.3.e.T.H.K.H.Q.Q.F.G.W.R.^.I.H.Y.k.4.i.t.p.4.w.k.T."
};
