/* XPM */
static char *_c18d69cfc6f42dbce3e368ec159c6d8fUK1pErgrPgWQczK[] = {
/* columns rows colors chars-per-pixel */
"72 72 255 2 ",
"   c #010301",
".  c #0C0103",
"X  c #0A020A",
"o  c #040808",
"O  c #1C0003",
"+  c #150409",
"@  c #12160C",
"#  c #080514",
"$  c #170916",
"%  c #061315",
"&  c #0E1510",
"*  c #2B0103",
"=  c #27040B",
"-  c #250B17",
";  c #370416",
":  c #31100D",
">  c #122419",
",  c #322B0A",
"<  c #071A29",
"1  c #181827",
"2  c #12092C",
"3  c #261926",
"4  c #371627",
"5  c #350F2B",
"6  c #18372C",
"7  c #392225",
"8  c #392B34",
"9  c #2F2F2F",
"0  c #490315",
"q  c #570413",
"w  c #491617",
"e  c #503515",
"r  c #461A26",
"t  c #481B34",
"y  c #4F0D29",
"u  c #790D28",
"i  c #711736",
"p  c #472837",
"a  c #542D33",
"s  c #6F2B39",
"d  c #304639",
"f  c #5A4C2A",
"g  c #1C124D",
"h  c #0C2A47",
"j  c #382642",
"k  c #253049",
"l  c #001D64",
"z  c #27306D",
"x  c #341E42",
"c  c #563149",
"v  c #70314F",
"b  c #4A3972",
"n  c #6A214E",
"m  c #2D4F5C",
"M  c #574947",
"N  c #4F4B53",
"B  c #714E55",
"V  c #7D7857",
"C  c #504E64",
"Z  c #7B5B6B",
"A  c #6E4E6F",
"S  c #546B68",
"D  c #7C7D6D",
"F  c #757669",
"G  c #7D7D71",
"H  c #777975",
"J  c #776A71",
"K  c #8F1232",
"L  c #A1153A",
"P  c #B0143E",
"I  c #921831",
"U  c #926327",
"Y  c #8C2E4E",
"T  c #B3325C",
"R  c #B03775",
"E  c #A31F4E",
"W  c #D01352",
"Q  c #D21C5D",
"!  c #944B6A",
"~  c #975667",
"^  c #935173",
"/  c #A8546E",
"(  c #817E6D",
")  c #877969",
"_  c #99687B",
"`  c #827E72",
"'  c #8A7E79",
"]  c #967679",
"[  c #8D6A71",
"{  c #AA7778",
"}  c #966550",
"|  c #D44B7B",
" . c #C06878",
".. c #7E816C",
"X. c #788768",
"o. c #7E8072",
"O. c #7A8877",
"+. c #709468",
"@. c #AC8F15",
"#. c #E19D00",
"$. c #F9D00E",
"%. c #F4C12A",
"&. c #99955E",
"*. c #A69550",
"=. c #ABA95D",
"-. c #B2AB5E",
";. c #84836E",
":. c #8A856E",
">. c #858A6D",
",. c #8B8C6E",
"<. c #888864",
"1. c #918B6D",
"2. c #988B6B",
"3. c #8D916E",
"4. c #899868",
"5. c #93946E",
"6. c #9A966D",
"7. c #96996D",
"8. c #9B9C6D",
"9. c #989865",
"0. c #848471",
"q. c #8A8672",
"w. c #868973",
"e. c #8B8B71",
"r. c #8A867B",
"t. c #918E72",
"y. c #978A79",
"u. c #8E9172",
"i. c #8B9879",
"p. c #949472",
"a. c #9A9672",
"s. c #969A72",
"d. c #9B9B72",
"f. c #98967A",
"g. c #A19E6F",
"h. c #A8986A",
"j. c #A19E72",
"k. c #A39B7B",
"l. c #AC9C7C",
"z. c #A89876",
"x. c #B49872",
"c. c #9EA16E",
"v. c #9DAB6C",
"b. c #9AA665",
"n. c #9EA272",
"m. c #9AA875",
"M. c #85A167",
"N. c #A4A46E",
"B. c #A9A66E",
"V. c #A6A96E",
"C. c #AAAA6E",
"Z. c #A7A865",
"A. c #B2AC6E",
"S. c #B7A96A",
"D. c #A7B16A",
"F. c #B5B26D",
"G. c #BCB36E",
"H. c #B8B867",
"J. c #A5A671",
"K. c #A4A471",
"L. c #AAA672",
"P. c #A5AA72",
"I. c #A9A971",
"U. c #AAAA71",
"Y. c #A4A47B",
"T. c #ABA57B",
"R. c #A9AB7A",
"E. c #B3AD72",
"W. c #BAAC73",
"Q. c #B4A778",
"!. c #A7B173",
"~. c #AAB274",
"^. c #B5B172",
"/. c #BCB372",
"(. c #B4B27A",
"). c #C3B46D",
"_. c #C5BB6E",
"`. c #C4AB7B",
"'. c #C3B572",
"]. c #C6B874",
"[. c #C7AF6F",
"{. c #275489",
"}. c #717D89",
"|. c #927185",
" X c #AC6885",
".X c #A9778C",
"XX c #B37591",
"oX c #D2779A",
"OX c #CC6D94",
"+X c #D476A1",
"@X c #78858A",
"#X c #928681",
"$X c #9E9681",
"%X c #9C979D",
"&X c #A68A87",
"*X c #A59984",
"=X c #BA9899",
"-X c #B08D90",
";X c #97A790",
":X c #A8A883",
">X c #B9AB83",
",X c #B5A88E",
"<X c #B78FA8",
"1X c #9BB3A9",
"2X c #B0AFAC",
"3X c #9D94A5",
"4X c #C6948B",
"5X c #D7859D",
"6X c #C99598",
"7X c #CB8C92",
"8X c #ED8786",
"9X c #C8AB90",
"0X c #D89AB3",
"qX c #CF8FA9",
"wX c #EE90BD",
"eX c #CAA5A7",
"rX c #D7A7B4",
"tX c #D9B3B1",
"yX c #E9B2B9",
"uX c #BEC5B5",
"iX c #DDC6B1",
"pX c #F0C5BF",
"aX c #CBEBAC",
"sX c #B4BCC4",
"dX c #DDB5D2",
"fX c #FAB8C7",
"gX c #EDB6D5",
"hX c #F9BAD7",
"jX c #F1A7D6",
"kX c #FBBAE5",
"lX c #F3AFFC",
"zX c #FF8AEB",
"xX c #B8CDD0",
"cX c #D8C8DB",
"vX c #D9DAD9",
"bX c #CCCACE",
"nX c #F2CECA",
"mX c #D0E2DA",
"MX c #F0EADC",
"NX c #DAD5E4",
"BX c #F3D0EB",
"VX c #DCF3F3",
"CX c #E4E6E9",
"ZX c #F3E7E7",
"AX c #FBFBEE",
"SX c #E8E7F6",
"DX c #FAEAFA",
"FX c #ECFEFD",
"GX c #EBF9F4",
"HX c #FEFDF4",
"JX c #FFF5FC",
"KX c #F4FDFD",
"LX c #FDFDFD",
"PX c #F5F7F6",
"IX c #EAF7ED",
/* pixels */
"D D G G G D :.,.8.J.R.E.U.C.U.V.j.8.5.,.;.o.G D G >.>.p.n.K.C.E.~.E.A.A.C.V.V.C.U.U.C.U.L.K.j.g.d.d.9.g.K.T.U.E.U.C.C.n.5.<.0.` ..G D G F ` q.e.",
"D G G ` ` >.e.p.8.N.U.U.C.C.N.N.K.g.d.5.w.0.D G 0.q.1.8.n.K.C.S.^.^.^./.^.U.C.C.P.U.U.P.j.d.d.8.s.d.g.g.P.L.L.U.C.C.N.n.7.,.e.;.0.D G ` D 0.>.t.",
";.o.o.` ;.e.5.8.J.J.U.U.C.U.U.N.C.N.P.p.q.o...>.,.p.8.K.J.V.C.E.^.G.)./.^.U.U.C.U.C.N.c.s.5.t.p.8.d.N.N.U.L.B.C.U.C.C.P.c.d.a.t.q.0.D 0.0.e.p.5.",
";.0.0.0.q.p.d.8.J.J.U.U.C.U.U.U.C.B.L.d.e.;...>.7.n.N.N.U.C.U.(.).).'.G.F.U.U.U.U.U.N.8.,.>.e.e.d.K.V.B.B.U.C.U.U.U.U.U.U.Y.K.8.w.;.( ;.e.p.s.d.",
">.0.;.;.e.a.8.c.N.J.U.C.N.B.U.P.B.h.V.a.q.( ;.e.8.V.C.A.C.C.U.E.).'._.G.C.U.U.P.C.P.V.5.:.;.` w.d.J.U.C.C.U.U.U.B.B.C.C.P.U.J.8.e.0.;.;.,.p.d.c.",
":.>.;.0.e.p.8.8.K.L.U.U.C.V.U.J.N.8.s.e.0.( >.p.B.E.G.G.C.C.C.U.^./././.^.U.C.N.C.C.K.5.>.D 0.w.6.J.U.C.C.U.B.C.U.P.B.C.C.U.N.8.e.0.0.:.1.5.d.n.",
"q.>.;.>.t.p.8.g.J.J.U.U.U.U.J.N.d.5.,.>.` D :.p.A.W.'.G.F.C.C.U.E.A.S.S.U.U.U.N.C.L.J.a.:.;.;.0.6.K.U.C.C.U.V.V.U.V.U.U.U.U.U.8.e.0.0.>.e.p.d.j.",
"q.>.( q.q.p.d.K.J.N.N.B.C.B.N.8.5.;.;.D H G >.f.S.'.].).F.C.C.U.U.C.A.B.V.U.V.C.B.L.K.d.e.0.>.0.d.L.U.C.U.P.J.V.P.V.C.U.L.U.L.8.e.( :.;.p.p.j.9.",
"0.;.;.q.,.5.8.K.V.N.L.L.U.U.V.n.,.>.G F F ;.5.k.C.[._.H.S.V.C.h.C.m.P.L.C.~.S.C.C.P.P.s.1.>.q.p.8.P.U.U.U.V.V.V.B.L.C.V.Z.U.Y.8.e.;.;.>.,.5.8.8.",
">.;.;.q.5.8.d.J.V.C.C.A.A.C.K.c.>.;.D H 0.,.5.8.W.^.^.'.T.m.n.K.P.:X*.P.B.v.N.Y.C.C.N.d.1.,.,.p.N.L.U.U.U.V.V.C.B.L.C.C.V.J.n.5.w.0.;.>.p.d.8.K.",
"0...>.,.p.c.N.C.Z.C.C.C.C.C.V.5.e.0.D 0.p.d.g.c.j.h.^.7.L.k.h.b.B.C.eX:XQ.P.>XS.C.C.U.K.a.5.p.6.8.C.U.C.U.C.B.U.L.C.U.N.N.K.8.5.0.;.>.e.a.n.N.V.",
"0.0.0.e.d.N.V.C.P.U.U.C.A.U.K.s.e.;.` ,.a.j.N.C.n.n.eXf.qXr 1 v a { :XU.eXv.h.Z.B.N.V.c.s.6.6.8.N.J.B.N.C.U.L.U.C.L.U.N.K.n.5.,.0.G ;.u.8.N.N.C.",
"..o.;.,.d.J.U.N.J.L.K.J.C.P.d.d.u.w.>.3.7.V.C.C.b.j.a.a o 4 ; o = . q Y R.tXL.L.L.L.N.g.a.a.a.7.8.K.K.K.L.U.J.N.L.B.N.N.d.s.1.,.o.o.;.,.7.V.C.U.",
"..D ;.e.s.K.J.K.d.d.6.a.7.8.p.f.u.u.3.3.c.P.K.j.-XtX9 0 Q : - K K E w XXOXOXT.J.K.P.N.d.p.p.p.p.p.d.d.j.L.U.C.C.U.K.K.j.5.t.w.;.o.o.;.q.s.K.J.L.",
"D D ;.>.p.d.K.8.5.,.>.q.>.>.,.p.6.7.s.c.8.n.l.l.l.6 y W q E I W L P y * y / 0X7Xs.8.8.5.,.q.>.>.w.e.p.a.K.U.V.C.J.K.8.5.,.q.;.` G D ..e.p.8.g.8.",
"D ` 0.>.5.s.a.6.1.;.;.0.;.<.>.u.6.n.Y.c.8.6.l.,Xs q T I u P L ; i q I Y y rXz.c.s.d.s.p.e.w.` G D 0.>.1.j.J.N.V.N.8.8.5.,.;.` G D G ` q.p.8.9.7.",
"( ;.>.e.f.f.p.3.q.q.;.......>.t.j.C.C.L.L.5.y.7X* L K K P u 0 e w i I ; ] *X4.9.6.d.a.p.t.>.( ( o.D :.3.d.K.J.N.d.f.p.e.q.0.0.0.;.;.:.,.p.p.p.5.",
",.,.,.q.q.,.,.4.,.,.3.e.q.>.p.d.L.A.S.B.K.s.*X6X* T &X7X8XY K W W i 5 # Y f.i.z.j.d.6.5.5.t.>.>.>.;.>.1.p.d.s.8.u.,.,.,.e.e.e.t.e.p.3.e.,.e.3.3.",
"K.j.d.p.e.>.:.e.5.5.d.s.d.5.8.J./.).G.W.J.7.f.=X= / MXHXbX8XI n w 4 ; r 5Xt.d.s.L.J.N.K.j.j.s.a.t.5.1.3.p.,.,.>.>.;.>.,.p.d.g.g.a.d.d.5.,.>.q.e.",
"U.J.K.d.u.;.0.w.8.n.K.K.P.K.B.E.'.)._.W.P.9.8.&X[ = HX&.} B qX* = p 5 _ >.i.c.9.J.K.N.N.U.L.K.g.d.a.p.p.e.0.;.;.G ;.>.e.s.N.N.C.L.P.J.8.,.>.w.q.",
"C.C.N.d.1.>.;.w.8.N.U.C.U.B.A.E.G.)._.W.V.9.8.f.4X@ 8 Y U tXx.6 A ; = p f.2.P.k.K.N.B.C.C.C.C.U.8.8.5.e.q.0.o.G D 0.>.5.d.N.C.Z.U.^.V.8.5.q.0.w.",
"F.C.C.j.p.,.q.u.a.K.V.N.U.B.A.F./.S.[.E.N.N.g.s.y.{ $ 9XaXvX-XV B n ^ a.f.s.7.v.P.L.U.E.F.C.U.U.g.g.f.t.0.( G o.0.q.e.s.K.L.C.C.^.U.N.8.5.,.w.>.",
"C.C.N.N.7.u.3.5.p.d.8.N.U.U.L.E.(.S.F.E.J.N.N.s.5.r bXMXy.nXeXo 8 c.a.z.z.S.N.B.T.U.N.C.C.B.J.K.K.d.d.t.0.( ;.;.3.s.d.K.P.U.U.E.U.U.N.K.s.5.,.p.",
"C.C.N.K.d.d.5.5.p.s.8.8.P.U.L.E.R.B.B.U.K.N.V.s.y.M N nXnXMX&X: + OXK.R.L.4XR.L.>XQ.L.C.U.B.J.P.8.8.p.e.;.( ;.:.8.c.P.V.C.C.C.U.B.B.L.P.d.p.5.p.",
"U.U.L.N.8.8.7.8.p.7.d.8.g.K.K.N.U.U.V.B.C.U.P.g.4.1.i ) HX9 X e U :  XgXl.A.Y.U.U.L.B.N.B.C.N.N.8.8.p.e.0.( >.u.d.P.C.C.C.U.U.C.C.J.K.N.8.N.8.a.",
"J.N.N.d.c.8.n.c.d.8.g.8.s.j.8.g.J.N.B.C.F.^.E.B.K.2.dXb o @.#.d {.d X .X(.Z.D.V.L.B.B.C.U.J.N.8.8.p.e.;.( ( 0.e.d.J.C.C.C.U.V.V.N.K.K.d.N.8.g.d.",
"g.g.8.g.j.K.J.N.K.N.J.8.5.p.p.p.d.K.C.F./././.S.k.wXiX9 g , f l b {.c   } ;XS.Y.L.B.L.B.N.N.8.7.5.>.;.D D ( ;.e.d.P.U.C.C.P.V.N.c.n.d.d.N.N.N.K.",
"8.d.d.8.K.N.C.B.C.L.L.d.3.q.w.u.7.K.E.^./.'.'.[.=.9X4Xc   %.$., o {.g o f  XrX`.C.B.N.g.N.s.p.p.e.;.D G G D ;.r.8.J.L.C.U.N.K.c.8.d.d.K.N.N.N.B.",
"d.s.7.8.K.J.U.C.C.B.J.p.:...D w.7.d.U.^./._._.).[.lXa * e #.$.@.2 m z @ U 2 hX8XU.U.B.K.8.p.p.e.o...G o.0.( q.p.8.P.L.C.C.U.C.L.8.7.s.d.J.V.C.U.",
"d.8.6.8.K.L.U.C.C.N.K.p.;.D D w.5.n.L.F.G.G.G.).C.tX[ # XX*.U , z m j   } B ! yXC.U.U.P.d.p.q.q.o.o.o...>.,.p.d.g.U.U.U.S.^.A.L.d.a.7.d.K.U.C.C.",
"d.8.6.8.K.P.U.U.L.c.d.p.>.` D w.8.c.U.C.A.^.E.E.-.9Xs . XXeXZ o 9 z 6 + +Xi 8 jXC.U.U.J.8.e.0.` G G ..0.1.s.d.N.N.L.U.A.G.G.^.W.j.8.6.d.K.V.U.U.",
"K.8.8.8.K.J.J.N.K.8.5.,.0.` ;.w.8.n.J.C.C.A.A.U.!.eXN ; T | o 2 h z   c | q M lXC.U.J.8.1.>.( G F G >.,.p.K.N.N.V.U.U.A._.'._.W.K.8.6.d.K.J.N.J.",
"J.g.9.8.g.K.K.K.g.s.p.e.<.;.>.1.T.b.Z.Q.U.v.R.h.v.zXA , E n # < h < 0 r c -XM eXl.R.9.5.t.0.H ) D ( ,.5.8.K.L.C.U.B.C.A.G.].'.G.L.g.6.9.j.K.K.N.",
"K.g.j.a.6.s.a.p.5.1.e.e.e.,.5.d.Z.`.'.D.E.U.C.L.:XBXp f _ < # % < $ 5XdX@ AX] i pXy.n.a.D r.X.>.0.,.5.8.K.J.U.C.P.V.C.A.^.'.G.F.L.K.9.a.s.d.s.5.",
"B.N.K.d.p.,.>.>.0.;.0.e.p.s.K.J.H.`.`.H.(.Q.9.b.&.OXv iXdX* t # %   { { o KXS Y fXi.;.<.` ' o.:.t.a.j.K.P.U.U.C.K.L.U.U.A.A.A.A.C.J.j.8.p.t.,.:.",
"Z.B.L.d.p.q.;.G ` ( q.e.p.N.U.F.).H.`.'.D.C.T.!.:X[ , AXB ; Y t $ N _ y.~ C NXB OXG >.q.F ` O.3.6.j.N.B.U.P.U.C.N.P.C.B.C.U.U.U.C.C.K.s.e.>.;.` ",
"B.B.L.j.p.0.;.0.` ;.w.p.8.N.C.F.[.H.'.`.G.Z.h.z.XXt ZXCX: B ^ OXy Z hX' oX4 BX4 ^ 2XD D 0.D w.t.g.N.C.C.U.P.U.C.U.U.U.U.L.U.U.J.C.V.J.d.5.w.;.G ",
"C.U.L.K.6.>.>.q.:.,.5.s.c.N.C.G.G.'.G./.9XB.U.=X; R kXdX> eXDXBXcXc ^ BXoX% OX9 _ r...u.( D ) f.j.L.^.C.C.C.U.C.A.E.A.A.C.U.J.K.V.U.P.N.5.1.>.w.",
"U.U.U.N.N.8.8.p.8.7.s.g.K.N.C.E.^.W.^.D.E.L.9XXXX R +X+ 3XLXPXKXFXFXc .XoX@ 6XFXr 4Xk.>.) O.w.>.g.J.U.C.C.U.U.C.G./.'.^.A.C.V.V.U.U.L.N.g.8.p.7.",
"L.P.U.N.J.J.K.n.K.c.V.J.P.U.U.L.U.B.(.C.Z.9X6X* bXDX-X- ZXKXKXPXGXJXIX  0Xv B @XM 7Xl.5.y.X.;.y.8.K.U.C.Z.U.E.E.G._.'./.A.C.N.V.L.C.B.B.N.L.V.Y.",
"N.N.N.B.L.U.C.B.U.U.R.Z.U.C.L.P.B.P.n.K.B.K.*XB B @XN HXIXH LXDXHXDXFX}.^ T.M t eXh.C.8.t.0.;.e.8.n.J.P.N.N.C.^.'.'._./.F.C.V.V.N.N.C.B.N.C.U.U.",
"J.J.N.N.J.U.U.U.U.U.C.C.C.J.J.d.j.d.f.d.7.8.z.9Xa $ mXGXbXo KXLXLXJXNX2Xc ! dXkX9X(.C.8.p.e.>.t.5.p.n.n.J.N.C.S././././.A.U.N.K.K.N.N.P.U.U.U.U.",
"d.j.8.g.K.U.U.U.B.C.C.P.N.K.8.7.,.<.t.>.X.u.z.&X-X8 KXKXvXJ N SXFXnXDXxX@X$ T.(.z.!.b.m.Y.p.u.e.>.1.5.6.c.L.U.A.A.A.A.S.A.C.N.J.8.8.9.g.N.N.B.C.",
"d.d.8.g.N.U.U.U.C.U.N.U.8.d.5.3.>.q.0.D e...] 6Xp mXLXCXKXcX# bXFXLXSXHX%Xx nXQ.E.!.v.K.j.4.5.u.q.0.>.3.8.J.B.C.U.C.C.C.C.B.N.V.d.d.d.g.K.U.U.U.",
"d.d.8.8.K.J.L.C.U.U.N.L.8.d.5.p.p.F 0.r...F ` { $ VXPXJXmX2 XX5 CXLXJXJXNXN v gXQ.Z.C.P.6.9.7.w.>.0.( >.s.J.C.B.U.U.V.V.P.C.J.N.d.d.8.g.K.U.U.C.",
"8.8.8.8.K.N.C.N.J.J.N.d.8.5.5.5.e.3.3.V q.w.#X+ & 6 JXHXxX1 nX X7 FXZXHXJX1X8 =X9Xx.N.U.L.8.7.e.;.( ` e.7.J.U.L.U.V.N.V.J.J.N.N.s.8.9.8.g.N.N.N.",
"c.N.c.V.J.J.J.N.K.8.8.7.7.5.p.5.n.6.j.7.a.&X<XX m o A AXVX$ x.qXj xX2XH LXLX%Xc =X>XC.Z.L.8.5.t.;.D 0.w.8.N.U.L.N.N.N.K.J.K.N.N.J.J.N.N.L.U.U.J.",
"V.V.V.V.C.U.J.N.d.8.s.5.d.7.s.s.m.h.B.c.a.eX[ S % 3 vXFXA Z W.hX<XM 6 . @XKXKX2Xa l.D.b.K.a.s.1.<.0.r.e.d.N.U.U.U.C.C.P.J.P.U.L.P.J.J.J.U.J.B.N.",
"V.U.U.U.U.U.P.N.d.d.a.p.6.8.8.g.N.Z.hXU.7.8.o CX2XSXLXvX2 0X~.oXhXa 3 >   KXJXIX3  XN.:X9.z.u.,.0.0.0.,.8.V.N.C.L.U.B.B.B.U.R.A.U.B.B.B.C.U.V.N.",
"C.U.U.B.J.U.K.N.8.6.5.a.8.g.g.g.V.R.~.B.C.jX3 2XJXJXvXsX1 +XN.:XC.D.= o LXZXLXGXdXa 4Xn.6.4.i.:.G D ;.,.s.K.U.U.J.U.C.C.S.E.E.W.E.C.C.L.C.U.U.N.",
"U.C.U.B.U.U.N.g.8.s.s.d.j.K.N.K.Q.=X6X4X9XB.8 O.DXPX1X}.3 0Xm.N.;XjXj 3XLXJXPXDXVX+ wXs.f.<.>.` G D ` ,.8.K.U.U.V.U.C.A.G.'./.G.A.C.N.C.P.U.J.J.",
"^.U.U.B.U.U.J.N.8.8.s.j.K.J.C.J.=.Q.(.T.eXb.*X+ S @XJ c 7XnX4.P.-.Z.S.+ IXLXLXVX}.t 0Xp.>.>.F ` G G 0.,.d.K.P.U.V.U.C.S.^.'.'.).A.C.C.V.V.L.N.N.",
"C.U.P.B.N.U.K.n.8.s.s.d.N.N.C.P.S.0Xm.P.0X(.n.X 5   5 oXy.e.a.h.h.P.:XB }.PXVXS o rXy.q.q.J O.D D ` q.p.d.V.C.U.P.B.C.E.'.'.'.).E.U.C.V.P.J.J.K.",
"C.~.C.N.K.K.j.8.8.8.d.d.N.N.C.U.8.fXdXx.=.D.h.$ OX7 A fX<.4.y.p.b.l.K.T.B C M a O 0X4.G D r.G >.:.>.t.s.K.C.U.U.U.C.E.S.G././.G.E.U.C.J.K.n.n.d.",
"C.U.C.J.n.j.8.8.5.s.d.K.V.V.U.U.L.c ;  XD.rXv R n i <X*X+.;.y.u.5.M.9.v.v.8 2 ^ Y t ( r.D F 0...5.p.j.P.V.C.C.U.P.U.U.A.E.E.E.S.C.B.V.c.8.8.8.8.",
"C.U.U.K.8.8.5.5.5.6.d.d.N.V.U.P.B.$ # > 8 1 : | p s kX*X$X` q.<.f.5.l.h.=Xz.Y Y R O <X) X.X.) #X8.8.L.U.C.Z.C.L.L.U.C.L.E.U.U.U.C.U.P.K.8.8.p.s.",
"U.B.N.V.g.8.s.p.s.6.7.d.Y.V.V.V.Q.&X$ 1 9 > + i 7 :XK.6.$Xr.` D w.4.<.n.5XgX^ X ! + p &X) ;.+.t.j.P.U.L.B.L.N.K.K.J.J.J.K.J.U.Z.U.L.L.J.8.7.5.d.",
"U.U.U.N.N.g.j.8.s.5.a.s.n.8.c.c.Q.d.&X0 > < 3 & Y.:X9.a.q.G H 0.q.>.5.r.y.qXB O o % X o.0.1.4.l.K.L.U.P.K.8.d.8.p.8.8.8.d.J.N.V.L.U.C.C.N.c.d.d.",
"U.C.C.C.C.J.g.8.d.s.p.8.8.8.c.K.l.~.>XyX|.# # + Y.<.,.t.) G D D O.:.( <.[   % d o + Z w.i.z.N.c.B.U.U.K.a.3.q.w.>.>.1.5.s.d.8.N.B.U.U.C.C.N.K.c.",
"C.C.C.U.U.V.V.V.j.d.8.5.5.8.s.n.Z.Z.Z.T.tX.XA ! 5.,.w.D D ;.D 0.` ' ..G - $ % + t _ 7Xq.p.h.N.!.C.C.L.d.p.>.o.G G ` w.,.p.p.8.c.N.C.U.B.C.C.V.c.",
"J.J.J.P.U.J.N.N.n.d.7.7.8.8.s.d.Y.v.~.J.L.L.N.9.4.0.H G r.;...0.>.;.>.G ~ |._ ! q.r.) k.K.L.E.Z.Z.C.K.s.,.>.0.0.o.;.0.q.e.p.s.8.g.K.L.L.N.B.N.g.",
"d.7.s.s.d.d.d.8.8.8.8.c.8.8.8.8.h.v.P.h.N.b.s.p.;.D H 0.e.>.5.>.3.<.y.>.fXy.rXy.3.X.f.d.n.!.U.B.P.N.n.7.5.,.>.q.q.,.,.>.q.q.u.u.a.d.d.d.d.d.8.8.",
"3.3.,.e.>.,.u.p.8.c.K.K.K.n.V.8.8.z.f.s.f.1.y.' o.G ` 0.e.5.K.n.h.f.9.i.m.k.M.f.d.8.8.L.N.V.V.(.N.8.8.8.s.8.8.s.8.8.6.p.>.0.;.>.t.t.e.1.t.1.p.p.",
"w.w.q.>.;.>.q.e.c.K.P.P.V.P.K.P.K.5.d.5.e.>...` H D ..<.n.c.8.C.m.L.z.L.k.B.B.C.c.P.K.C.N.!.U.j.8.8.8.s.j.K.J.N.U.J.N.s.t.>...;.0.( >.0.;.>.>.e.",
"D G o.....;.;.p.8.K.U.R.C.C.L.V.K.8.a.p.q.` ` G ` 0.,.5.n.K.Z.C.C.E.E.Q.L.C.U.C.C.C.U.U.J.V.c.d.d.d.8.8.N.N.C.C.U.C.U.8.p.w.0.( D D G G ` ` 0.e.",
"F D o...o.0.>.p.8.J.U.U.Z.C.C.V.K.8.d.p.q.( ( ..0.q.1.7.K.J.C.F.^.E.W.E.U.U.B.U.C.C.P.K.N.d.d.s.d.8.8.K.N.V.U.C.C.C.C.V.8.u.q.>.;.o.D G G 0.;.5.",
"F D o.o.w.e.1.d.c.J.P.C.C.C.U.U.N.N.j.a.>.0.;.;.e.p.8.K.P.U.C.^.'.'.].W.E.U.C.C.L.U.J.n.8.5.p.p.6.d.K.P.V.J.U.U.U.U.U.J.K.d.p.e.0.;.D G q.e.5.8.",
"F H ;.w.e.p.5.K.J.U.C.C.C.C.U.U.C.U.J.s.q.;.0.:.s.n.K.N.N.C.C.^.'.'.'.'.E.C.U.U.U.U.J.d.3.:.q.w.8.j.J.U.C.C.C.U.U.U.U.U.U.J.K.s.w.0.0.;.e.5.s.n.",
"F F 0.e.f.f.7.K.J.U.C.V.B.U.B.L.U.J.K.f.>.;.,.1.8.C.A.C.C.C.C./.G._.'.'.^.C.U.U.U.U.J.s.>.;.>.q.d.K.U.U.B.B.U.U.C.C.U.C.C.C.N.8.e.q.0.0.1.5.8.8.",
"F D >.e.p.d.7.V.L.V.C.C.C.L.B.B.L.8.p.p.;.( :.p.B.E.G.F.C.C.U.(.G.'.'./.F.C.U.U.B.L.N.7.e.0.0.q.d.L.U.C.B.C.U.U.C.U.U.L.A.A.N.8.,.>.` q.5.7.9.8.",
"F F ;.,.a.s.8.N.C.U.C.C.A.C.L.N.j.5.,.q.G D ,.a.E./.]./.G.C.V.U.^.^.^.F.C.C.U.C.U.C.N.8.e.0.0.,.8.P.U.A.C.C.U.L.C.U.U.E.F.A.L.j.,.:.` 0.3.8.c.K.",
"F F >.,.p.s.8.J.C.U.F.U.E.U.L.j.d.,.;.0.G D 1.d.S.'.]._./.U.C.U.U.A.E.A.C.D.N.K.E.C.C.8.e.0...>.8.J.U.A.A.U.U.J.Z.C.T.U.E.A.N.8.3.q.0.q.,.8.d.K."
};
