/* XPM */
static char *aGlzb2thX3JpZ2h0d2FsazI_[] = {
/* columns rows colors chars-per-pixel */
"72 72 256 2 ",
"   c #010402",
".  c #060707",
"X  c #130503",
"o  c #15000A",
"O  c #15080B",
"+  c #011505",
"@  c #0D0114",
"#  c #050912",
"$  c #150514",
"%  c #08161B",
"&  c #171819",
"*  c #1F100B",
"=  c #23020B",
"-  c #280408",
";  c #390409",
":  c #270416",
">  c #321A11",
",  c #0D2613",
"<  c #342A10",
"1  c #161625",
"2  c #040C26",
"3  c #271827",
"4  c #320C2C",
"5  c #1A2C2B",
"6  c #362723",
"7  c #3A383A",
"8  c #2E2E32",
"9  c #490216",
"0  c #5A1613",
"q  c #6E061C",
"w  c #460627",
"e  c #570826",
"r  c #44172A",
"t  c #4C1A36",
"y  c #58122E",
"u  c #7A0828",
"i  c #671B2B",
"p  c #781635",
"a  c #620930",
"s  c #492638",
"d  c #423F38",
"f  c #4D3032",
"g  c #70293B",
"h  c #5B2405",
"j  c #7D6F00",
"k  c #4E4C32",
"l  c #737130",
"z  c #615F2E",
"x  c #241246",
"c  c #14344C",
"v  c #323351",
"b  c #343976",
"n  c #1A1557",
"m  c #4A124C",
"M  c #651F44",
"N  c #54324D",
"B  c #743B4A",
"V  c #71384F",
"C  c #6E2E61",
"Z  c #58136C",
"A  c #00435C",
"S  c #324943",
"D  c #2B5B68",
"F  c #5C4457",
"G  c #504F4E",
"H  c #66444F",
"J  c #764658",
"K  c #6F5554",
"L  c #6A705C",
"P  c #4F6D67",
"I  c #766765",
"U  c #75756A",
"Y  c #7C7D6D",
"T  c #7A7C66",
"R  c #716476",
"E  c #7D7D71",
"W  c #787978",
"Q  c #676573",
"!  c #5E5764",
"~  c #87011A",
"^  c #8D1437",
"/  c #AE0A35",
"(  c #9D253E",
")  c #837C00",
"_  c #BD184C",
"`  c #862444",
"'  c #902F59",
"]  c #AA2752",
"[  c #923961",
"{  c #9E205A",
"}  c #CE2059",
"|  c #8A4859",
" . c #915672",
".. c #A75777",
"X. c #B1586D",
"o. c #807E6D",
"O. c #897B69",
"+. c #946772",
"@. c #817E72",
"#. c #8C7875",
"$. c #977D74",
"%. c #916A6E",
"&. c #AF6B7D",
"*. c #8D655D",
"=. c #76805D",
"-. c #7D826D",
";. c #7D896B",
":. c #758765",
">. c #7E8171",
",. c #778577",
"<. c #768E71",
"1. c #7BA857",
"2. c #A59216",
"3. c #F2B528",
"4. c #EEB506",
"5. c #FACA08",
"6. c #8B905C",
"7. c #A2995E",
"8. c #838364",
"9. c #84836E",
"0. c #8A856D",
"q. c #858A6C",
"w. c #8B8C6D",
"e. c #888964",
"r. c #918C6D",
"t. c #968A6B",
"y. c #8C906D",
"u. c #8A9868",
"i. c #94946E",
"p. c #99966D",
"a. c #97996D",
"s. c #9B9C6D",
"d. c #999965",
"f. c #848471",
"g. c #8A8673",
"h. c #868973",
"j. c #8C8C71",
"k. c #8A867B",
"l. c #908F71",
"z. c #968779",
"x. c #8E9172",
"c. c #899977",
"v. c #949472",
"b. c #9A9772",
"n. c #969971",
"m. c #9B9B71",
"M. c #91927A",
"N. c #9A9979",
"B. c #A09E6E",
"V. c #A4966B",
"C. c #A28977",
"Z. c #A19E72",
"A. c #AB9C7B",
"S. c #A59975",
"D. c #B89B7B",
"F. c #9DA16E",
"G. c #99A667",
"H. c #9EA172",
"J. c #9DA57B",
"K. c #98A976",
"L. c #90AA6C",
"P. c #A6A963",
"I. c #A4A46E",
"U. c #A9A66E",
"Y. c #A6A86E",
"T. c #AAA96E",
"R. c #A9A565",
"E. c #B3AD6E",
"W. c #B6A66B",
"Q. c #A7B569",
"!. c #B5B26E",
"~. c #BDB36E",
"^. c #B7B866",
"/. c #A5A671",
"(. c #A4A471",
"). c #A9A672",
"_. c #A5A972",
"`. c #A9A971",
"'. c #AAAA71",
"]. c #A4A47C",
"[. c #ACAC7A",
"{. c #A7A87A",
"}. c #B3A472",
"|. c #B3AD72",
" X c #B6A976",
".X c #A7B174",
"XX c #B5B171",
"oX c #BCB371",
"OX c #B7B477",
"+X c #BCAB5D",
"@X c #C4AB6C",
"#X c #C3B56E",
"$X c #C3B569",
"%X c #C3B571",
"&X c #C6B772",
"*X c #C7AB78",
"=X c #C6A149",
"-X c #727684",
";X c #B35683",
":X c #9A7187",
">X c #A57481",
",X c #B67C96",
"<X c #B76588",
"1X c #CD548C",
"2X c #D27991",
"3X c #E77A80",
"4X c #DB75A7",
"5X c #709486",
"6X c #898587",
"7X c #938A87",
"8X c #959290",
"9X c #A79687",
"0X c #B98997",
"qX c #BA9795",
"wX c #A7858B",
"eX c #A3A683",
"rX c #B6A387",
"tX c #B0AE92",
"yX c #B294A9",
"uX c #94A9A8",
"iX c #A9A8B7",
"pX c #ABAFB0",
"aX c #92A285",
"sX c #C88898",
"dX c #CD918F",
"fX c #C9AE93",
"gX c #C68AA1",
"hX c #C89BA7",
"jX c #D095AE",
"kX c #D4AEAF",
"lX c #E7AFB8",
"zX c #E896A6",
"xX c #D7DC9F",
"cX c #B6B9C3",
"vX c #F7B7C6",
"bX c #F9B9D8",
"nX c #F0B1D1",
"mX c #FEA6E8",
"MX c #F4B6EE",
"NX c #D8B6CF",
"BX c #ADCFC1",
"VX c #D1D3CF",
"CX c #FBC6DB",
"ZX c #EBC9CC",
"AX c #ECE9CC",
"SX c #DBD3E4",
"DX c #F7D4EE",
"FX c #DCEDF2",
"GX c #EAFAE9",
"HX c #FFFBE8",
"JX c #EDFDFA",
"KX c #FFF4FE",
"LX c #F4FEFE",
"PX c #FDFCFF",
"IX c #F5F7FC",
"UX c #EFEAF1",
/* pixels */
"Y Y E E E o.9.j.s.U.[.|.'.T.'._.Z.p.a.w.9.>.E Y E 9.w.i.H._.Y.E.XX'.T.E.T.Y.Y.T.'.'.'.'.(./.(.s.m.m.s.s.(.{.[.|.'.T.Y.H.i.e.f.@.Y 9.Y E U @.f.x.",
"Y E E E f.9.j.v.s.(.'.'.T.T.Y.I.(.B.m.v.f.f.Y E f.h.i.b.H.(.T.E.XXXXoXoXXX'.T.T.'.'.T.(.(.m.m.p.b.m.s.I.).).U.T.T.U.I.I.a.w.w.f.f.E Y E Y g.0.v.",
"-.f.f.E 9.j.i.s.I.(.'.'.T.'.T.I.T.U./.n.h.f.-.9.w.n.s.I.(._.T.|.XX~.#XoXXX.X'.'.'.T.I.F.b.v.v.v.p.F.I.I.'.).U.T.'.T.'._.H.m.b.l.h.@.Y f.f.l.l.i.",
"f.f.f.f.h.v.s.s.(.).'.'.Y.'.'.'.T.U./.m.j.9.-.q.i.m.I.I.'.T.'.OX%X#X#X~.E.T._.'.'.T._.a.w.0.h.j.m.(.Y.T.'.T.T.'.'.T.'.'._.(.(.b.j.9.o.9.h.v.b.b.",
"9.g.9.9.j.b.B.s.I.(.'.T.I.I.'.'.T.I.S.b.g.9.9.x.F.Y.E.T.T.T.'.|.%X#X#X~.E.'.Y.'.T.'.I.a.0.9.f.h.m.(.'.T.T.T.'.'.'.I.T.T.'.T.(.s.j.f.9.9.h.n.m.F.",
"0.9.9.f.j.v.s.s.(.(.'.'.T.T.'.(.I.s.p.x.9.9.9.v.U.|.~.E.T.T.T.'.XXoX#XoXXX'.Y.I.T.T.(.i.9.-.-.g.p.(.'.T.T.'.Y.'.T.U.'.T.'.[._.d.j.f.f.0.r.i.H.I.",
"j.q.9.0.j.v.m.B.(.'.'.'.'.'.(.I.m.y.w.9.E Y 0.v.E.oX%X~.!.T.T.'.|.E.E.E.'.'.'.Y.U.).(.b.j.9.9.f.s.(.'.T.T.'.Y.I.'.Y.'.T.T.[.'.s.j.f.9.9.l.r.m.s.",
"j.9.9.9.l.l.m.(.(.I.U.U.T.T.I.s.v.e.9.Y W Y 9.N.W.%X&X#X~.T.Y.'.).T.E.T.Y.T.Y.U.T.).(.m.j.f.9.g.m.).'.'.'.'._.Y._.'.'.T.U.).).s.j.9.0.f.l.n.B.d.",
"g.9.0.h.w.i.p.(.Y.Y.'.'.'.'.I.H.w.-.E W T T r.S. X#X&X%XE./.U._.I.Y.Y.Y._.T.T.T.T.T._.m.r.9.j.l.m.K.Q.J.Y.R.Q.)._.}.T.'.T.}.I.s.h.8.#.h.z.d.A.u.",
"9.9.9.h.v.a.(./.Y.T.T.E.E.'.(.F.j.o.U Y h.w.i.m.W.E.!.E.'.(.(.I.I.Y.Y.Y.Y.Y.T.I.T.Y.I.m.r.w.w.v.S.T.R.). X}.G.[.G.T.V.|.K.'.m.u.h.@.f.:.u.N.p..X",
"9.-.9.w.i.F.I.Y.I.T.T.T.E.'.I.a.j.9.Y f.M.m.F.I.U./.T.S.B.m.H.F.(._._.T._.T.).).T.T.'.(.b.i.i.a.V.OX|.P.T.T.].bX;X{ [ 6 H kXeXl.0.q.9.zXrXS.Q.S.",
"f.f.9.j.m.(.T.Y.Y.T.T.T.T.'.(.n.h.9.9.h.b.H.I.Y.B.Z.s.b.b.b.s.F.(.Y.'.T.T.'.).).U.U.I.F.p.b.a.s.{.R.J.|.P.K.M w X   X - f o  .MX-.,.#.C.p.{.).Y.",
"-.>.9.w.m._._.T.)./././.T._.H.n.w.0.h.v.m.F.Y._.m.m.b.n.a.b.s.m.I.I.Y.Y.T.I._.).).'.I.F.p.b.n.a.N.P.S.{.2XzX-Xe p ^ i - i / X +.,.9.k.9XN.B.(.|.",
"-.Y 9.j.b.(.(.(.Z.b.p.m.a.s.n.v.v.l.r.i.s.I._.I.B.s.b.b.p.s.s.m.m.a.s.s.I.I.(.(.(./.H.s.n.v.v.v.S.2XK.7.' y ; 9 ( _ ] ^ u ` ] - I t.#.f.sX_.I.}.",
"Y Y 9.0.n.m.(.s.r.w.q.h.0.e.w.v.a.n.b.p.F.I.I.m.F.(.(.(.I.I.B.s.i.y.y.v.n.p.s.(.b.H.a.i.w.g.g.9.h.8Xy.S.A.; _ ^ i i q / _ u } ^ ;  .6Xq.m.p.K.s.",
"-.E f.q.y.b.b.p.w.0.f.f.f.-.q.v.a.(.].(.s.s.s.n.(./.{.).T.I.B.m.x.0.0.j.j.M.p.F.b.m.n.v.j.h.>.>.E $.r.c.(.V a 0 p e * i ( ~ ~ ~ ] = @.kXz.n.d.s.",
"o.0.j.j.v.N.n.i.h.g.9.-.-.Y 0.v.(.).T.).B.m.b.s.(.).).'.'.[.(.s.q.f.@.f.x.i.a.b.s.s.i.i.0.g.-.>.W 8.z.z.0XM e y p _ ] u | 3X,XX.( 4 dXjXc.p.t.c.",
"w.w.w.w.h.h.w.e.w.j.w.w.j.0.l.m.'.|.E.}.B.s.p.b.(.'.'.T.T.).B.a.9.Y E @.h.v.a.a.H.m.b.a.v.v.j.h.k.;.;.q.aX .X 3 r q ^ ( dXAXHXkX^ - u.N.t.yXc.e.",
"].Z.m.v.j.0.h.j.i.a.m.n.m.n.s.(.!.~.oX X(.p.b.m.(._.T.T.U.I.m.i.g.Y E @.w.i.a.s.(.F.(.Z.H.m.n.i.h.V.w.i.k.y. .o Z : 9 qX*.&.ZXZX: gXH.z.;.e.0.i.",
"(.I.(.b.v.9.9.h.p.F._.(._.(.U.E.#X#X&XoX).m.n.m.I.T.'.Y.I.F.i.v.f.f.f.9.j.v.b.s.(.I.I.U.'.U.(.I.S.V.u.p.e.0X= X e G < fXqXs K f ; eXi.(.<.z.q.9.",
"T.T.I.m.w.9.9.h.s.I._.T.'.T.T.E.#X#X&XoXT.s.b.n.I.I.(.F.s.n.i.j.g.q.9.w.w.n.p.s.I.I.T.T.E.'.T.Y.L.v.p.w.h.g.0XC m W I V.AXxXO.> kX].}.b.w.e.z.<.",
"!.T.T.B.n.j.j.x.b.(.I.Y.'.T.E.XXoX~.~.E.).(.p.a.p.b.n.v.v.i.j.j.0.x.i.i.i.N.(.I.U.U.T.T.T.'.T.T.Z.s.u.c.O.:.mXO.gX, 6 bX&X1.GXt.B '.lXF.i.e.6.6X",
"T.'.I.I.n.i.y.i.v.m.s.I.'.'.}.|.|.E.E.E.).(.m.s.i.l.j.f.g.f.w.v.n.b.s.I.(.(.I.I.).U.T.T.'.'.Y._.I.9XV.C.:.g.dXMXX.o v kXGXlXVXf | P..XI.sX9Xq.M.",
"T.T.I.(.b.n.i.i.v.b.s.F._.).).'.'.T.T.'.)._.I.s.v.h.9.E E f.h.j.b.G.I.I._.(.T.U.U.T.T.'.'.'.(.(.G.b.u.z.,.O.mX$.- 2.) r tXHXK g nXP.J.U.qX9Xd.N.",
"'.'.(.I.H.s.s.s.v.a.m.s.B.(.(.U.).'.I.T.T.'.'.B.v.0.9.E W Y 9.i.p./.'.T.T.T.'.'.'.).I.T.Y.T.I.B.s.m.c.k.8.0.;X@ ! v k 2.o x ..kXY.(.(.S.B.d.p.m.",
"U.I.(.Z.s.s.F.H.b.s.I.s.m.m.s.B._.(.T.T.E.|.|.'.Z.v.0.-.E E 9.y.m./.[.'.T.T.'.'.).'.T.Y.Y.(.(.s.V.p.e.;.>.<X# ) 3.z 5 k l 0 nXP.I.(.(.(.I.F.s.m.",
"B.B.s.B.F.(.(.(.(.I.(.p.i.n.v.v.m.(.T.E.oXoXoX!.).Z.i.j.f.E f.j.s.U.'.!.T.T.'._.'.U.U.Y.I.I.s.n.aXO.>.,.0X# < 5.5.3.+ n G z 6 ].H.F.m.Z.I.B.I.(.",
"m.m.s.s.(.I.T.T.T.'._.b.w.h.h.j.m.(.'.oXoX#X&X#X XT.s.v.h.9.f.j.s.I.'.'.T.T.T.'.I.U._.I.I.b.n.i.h.;.f.W W X 3 &X=Xh # b b f o :XF.p.m.(.I.U.U.U.",
"m.b.p.F.(.(.'.T.T.U./.n.9.9.-.h.a.H.'.oXoX#X#X#XoX'.I.s.j.g.g.h.p.F._.Y.T.T.'.'.T.'.'.(.s.n.x.w.z.o.T :.zX. ! DXVX1 5 b b { 4 :Xm.a.n.m.(.U.T.T.",
"m.p.p.s.(._.'.T.T.U.(.v.9.Y Y h.i.F.'.!.~.~.oX@X|.|.'.F.n.w.j.j.n.n.m.(._._.'.'.'.'.).(.b.v.j.g.E @.>X0.O.+ 9 4X_.6 : c c 0 . ,Xs.n.a.m.(.'.T.T.",
"H.s.p.s.(.).'.T.(.I.m.v.9.@.Y g.a.F.(.T.E.!.XX!.|.T.T.(.m.x.x.x.j.j.y.s.(.'.'.'.T.'.'.(.a.j.9.@.=.Y ,.O.c.  e 1X<Xt : v A . C fX(.p.a.m.(.).'.U.",
"H.s.p.F.(.(._.I.(.p.i.w.f.f.9.h.F.H._.T.T.T.|.'.'.'.T.I.H.n.y.w.g.0.w.y.s.T.'.T.U.'.(.s.i.q.9.Y -XT k.l.x.; X | r + 2 n 1 f MX+X).s.i.n.(.).).I.",
"(.B.s.s.s.(.(.(.s.b.n.r.9.0.0.v.V./.[.'.T.).(.(.I.Y._.(.F.p.n.l.g.-.o.0.n.Z./.(.'.(.B.i.0.9.o.E @.0.7Xw.fX%.N fX= . ,   . :XfX@X/.B.p.p.B.(.(.I.",
"(.B.s.b.b.b.n.n.r.j.j.j.w.y.i.m.T.|.XX|.T.U.I.I.I.I.H.F.F.i.v.j.f.o.Y 9.l.n.m.b.(.m.b.v.g.f.@.f.@.e.v.m.9X>Xv HXf w t > N bX@XQ.'.(.B.a.p.b.b.a.",
"U.I.(.m.n.w.0.q.g.9.g.h.x.m.(.).~.%X%XXXE.T._.I.s.s.m.s.s.p.v.j.-.E E @.h.0.x.w.j.j.w.h.-.Y f.f.x.J.d.(.fX<XS KX8 . } ..% +.[.*XT.(.H.s.v.w.j.0.",
"I.U.).m.v.0.9.E @.o.f.j.n.F.).|.@X&X&X#X!.T.I.I.s.s.n.a.a.m.n.x.9.9.E @.f.9.9.g.f.9.9.o.E Y 9.j.a.b.P..X{.<XS IX< P * [ g B bXG.T.Y.(.b.y.h.9.@.",
"R.'.).Z.v.9.f.f.o.f.h.v.b.I.T.^.~.#X%X~.!.T.I.F.H.m.n.n.n.p.a.i.w.h.9.9.9.9.9.g.9.9.9.-.o.Y h.j.H._.@XR.K.4Xr lXv 8XKXDXQ N W._.T.T.(.m.v.0.f.>.",
"E.'.'.Z.a.w.0.h.0.w.i.n.s.I.T.^.~.~.oXoXoX'.T.I.n.b.n.a.s.s.m.m.a.i.0.w.0.w.w.w.w.w.h.g.o.Y g.x.s.[.V.E.{.$.& dXe P SXLXKX!  ._.T.T._.(.a.w.0.h.",
"'.'.).I.F.s.i.n.n.p.b.F.I.T.'.|.XXoXXXoX|.'.(._.i.n.n.i.s.(././.I.s.b.b.p.a.s.a.s.s.b.j.9.o.f.j.).m..X|.dXm LX2X` + uXDXLX<.C fX'.'.U.I.B.m.n.n.",
")._.T.Y.'.(.(.(.Y.F.I._._.'.'.'.T.T.T.T.T.).).(.s.m.b.m.s.(./.).I.I.].(._.I.I._.I.U.(.n.0.9.f.j.V.K.'.T.yX: KXSXCX: -XBXPXL C fX(.'.U.U.U.(.(.(.",
"I.I.I.U.).'.T.U.).'.'.Y.T.T.)./._.(.I.F.I._.F.F.m.p.s.F.I.T.'.T.T.T.'.T.T.U.'.T.T.'.).s.w.e.g.j.a.T.K.R.D.H U PX%.7 uXNXPX5XJ fXI.Y.Y.T.I.T.'.'.",
"(.(.I.I.I.'.'.'.'.T.'.Y.T._.(.m.m.a.m.n.n.s.s.s.s.p.s.I.I.T.'.I.U.T.T.).'.U.'.'.T.'.).Z.i.0.h.j.u.z.Z.Z.L.|.k & O 6XPXUXJXh.C D.I.I.I._.Y.'.'.'.",
"Z.Z.s.B./.'.'.'.T.'.U.'.I.(.s.a.y.w.0.j.h.e.y.i.m.(.(._._.'.T.).U.'.'.'.'.'.T.'.T.'.'.(.m.n.l.l.6Xv.u.b.m. XrXf k GXLXUXPX-XV CXs.s.s.B.I.I.T.U.",
"m.m.m.B.(.'.'.'.T.'.I.'.s.m.i.y.w.9.9.f.f.9.h.v.H./.'.'.'.I.U.'.T.U.'.T.U.U.'.'.T.).).(.m.i.v.w.z.0.g.u.].vX..v JXPXJXLXFXI B A.b.s.s.I.(.'.'.'.",
"b.n.s.F.(.).U.U.'.'.I._.F.m.y.v.x.0.o.@.@.o.9.l.s.I.).'.T.I.).U.U.(.T.).I.T.'.'.'.U.Y.(.B.p.i.w.8.:.8.w.n.}.+.@ ,.KXPXPXVXs >XeXm.m.p.s.(.'.'.'.",
"F.F.s.I.I.(.T.I.'.(.I.m.a.a.i.i.i.w.9.9.9.9.0.j.p.(.)._.I.'.'.'.I.T.).T.'.I.I.T.'.'.T.I.(.m.i.i.T Y #.e.rXJ  .uXQ PXiXpX7XF I.p.m.p.s.s.B.I.U.I.",
"F.I.F.I.(.'.(.I.H.s.p.a.a.i.i.i.m.m.N.n.v.w.v.v.a.s.(.I.(.'.'.'.T.U.).'.T.I.'.).'.'.'._.(.m.n.v.7XT ;.l.2Xx PXLXVX6Xo , 8 s kXG.(.(.I.(.I.'.'.(.",
"Y.Y.I.I.T.(.T.(.H.a.m.a.m.i.m.m.s.H.(.(.i.i.v.n.p.s.s.s.I.'.T.I.).T.'.I.).'.T.'.T.Y.Y._.F.b.i.j.Y O.e.7X0X& cXFXJX1 # d : N U.Y._.)._.(.).'.U.I.",
"Y.'.'.U.(.).'.I.m.m.n.v.a.p.B.B.I.Y.Y.I.G.s.p.n.v.b.b.s.(._._.I.I.I.U.T.'.'.T.I._.U.S./.s.n.n.q.;.9.e.k.gX3 iXFXHXSX# @ : qX[.).'.}.T.I.T.'.I.I.",
"T.'.'.'.'.).(.I.F.p.b.a.s.B.B.B.I.'.'.T.I.B.b.n.M.r.w.i.p.(.(._.U.'.'.'.'.T.(.U.I.U.I.s.m.M.e.9.E o.-.z.gX1 iXiXJXJXpX. d !.~.Q.'.E.T.U.T.'.'.U.",
"|.'.'.U.'.'.(.I.s.n.n.m.Z.(.(.I.(.'.'.'.T.(.Z.a.x.e.8.w.n.p.I.I.T.'.'.T.T.T.U.U.I.I.(.n.N.q.T z.E #.Y sXt a 2 8X:XiXN uX& fX$X|.E.T.Y.Y.Y.'._.I.",
"|.'.T.I.'.'.(.F.s.s.m.m.(.(.'.(.'.'.T.).T.(.I.p.j.9.9.h.v.i.s.I.I.Y._.T.T.T._.I.).i.m.x.q.k.#.#.gX$.0Xe V ..1 # N 5 cX! N bX$X*XE.T.I.Y.Y._.(.I.",
"T..XT.I._.(.(.I.s.b.b.m.I.I.T.T.'.'.U.T.'.'.I.s.M.e.9.j.M.x.i.s.I.(.I.T.T._.(.I.m.b.w.q.k.Y @.VXV $ o V ' ; jXN c.R D J tXfX&X@XXX|.T.Y._._.(.(.",
"T.T.T.I.(.(.H.m.a.s.m.m.I.I._.'.).U.).T.'.'.I.B.b.v.w.j.j.w.v.b.p.(.(.(.(.(.(.Z.b.i.j.9.Y f.f.#.jXF &   S ..CXK X 4 . }.#X#X&X$X'.'.T.(.(.(.H.s.",
"T.'.'.(.I.Z.p.a.a.n.m.(.I.Y.'.'.U.U.U.U.'.'.U.I.(.Z.b.v.0.0.w.M.a.m.(.I.I.(.m.b.v.l.j.@.U Y o.o.wX3 1 S $ bX1X7 <Xt <XQ.@X^.^. XT.U.Y.H.F.s.p.m.",
"T.'.'._.s.m.p.a.i.a.n.(.(.Y.T.'.'.'.T.U.T.'.[.'.).).(.N.y.0.q.j.i.n.p.s.s.s.m.v.h.9.o.@.E T 9.z...@ 8 : >XlX .O [ : R.T.I.'. XT.T.T._.(.s.a.n.n.",
"'._.I.I.F.p.b.n.m.i.n.m.(.H.I._.).U.).).).U.U.'.Y.Y.I.b.h.E Y 9.j.i.a.n.b.n.v.w.f.@.E @.@.o.l.N.kXG % $ eX2X@ 6 X - * jX9XrX{.Y.'./.).U.s.p.v.n.",
"'.'.T.Y.(.(.m.p.n.a.a.m.H.H.F.I.I.'.).T.'.T.'.'.I.F.s.i.g.f.@.>.0.0.w.x.x.w.0.q.o.o.Y 9.g.0.v.Z./. .  . @ gX+ $ + 7 8 # S 9X).G.T.'.'.).I.F.m.m.",
"T.T.T.T.T.(.I.B.N.a.n.p.s.s.F.H.(.'.'.T.T.'.'.U.F.i.w.q.f.E E E f.f.g.9.9.9.9.9.E Y 9.9.y.a.F.I.W.[.+.g B 2X. 6 1 @ . $ % 6 n.'.U.'.'.T.T.Y.I.F.",
"T.T.T.'.'.T.I.I.H.m.i.a.a.a.m.(.I._.'.T.'.'.(.d.c.q.9.Y f.E E -.f.>.>.-.f.>.>.E @.Y 9.w.b.(.U.T.R.}.].aXM.6XN ,X,X| K V J &.b.G.U.T.'.U.T.Y.I.I.",
"(._.(.(.'._.I.I.H.m.a.a.a.a.m.H.I.'._.(.).{.(.s.j.9.Y E f.f.f.9.g.f.9.9.9.9.g.f.f.f.9.i.(.U.T.Y.E.J.|.6.C.l.-.bXU z.wXhXw.y.m.m.B././.(.I.).I.F.",
"m.s.m.m.m.s.m.s.a.s.F.H.F.s.s.s.F.H.(.F.(.m.n.r.g.>.W -.0.w.x.x.w.w.w.0.0.w.w.w.j.x.v.b./.[.T.'.F.W.V.].u.q.$.w.u.v.,.z.x.e.n.z.b.m.S.m.m.s.s.p.",
"x.y.y.j.w.w.x.v.s.F.(.(._.F.F.F.m.s.p.i.v.j.w.0.9.E Y g.x.a.s.H.a.a.a.a.b.p.a.s.n.s.s.I.).'.'.'..Xd.d.a.n.m.L.d.d.a.J.v.<.-.-.j.l.j.l.l.v.w.v.v.",
"q.h.f.9.9.9.h.j.F.(._._.I._.(._.(.s.a.i.w.0.o.@.T Y f.h.n.F.I.'.(._.I.(._._.(._.H.I.R.T.I.T.I._.i.N.H.V.s.Z.I.I.(._.F.].z.$.E ;.9.9.9.9.9.9.g.j.",
"E >.>.Y >.-.9.v.s.(.'.'..XT.U.'.(.b.i.i.j.o.@.E @.f.w.i.m._.I.E.|.T.!.Y.T.T.'.T.T.T.'._.I.(.I.s.m.b.s.G.(.).).T.T.'.'.s.i.h.9.o.Y E E E E @.g.j.",
"U Y >.-.>.g.0.v.s.(.).'.T.T.T.T.(.s.p.i.h.@.Y @.f.g.r.a.(._.P.!.XXOX!.!.T.'.T.T.T.T._._.(.F.m.b.m.m.s.I.(.(.T.T.'.T.T.I.p.v.h.g.f.Y Y E E f.e.w.",
"U Y ,.9.h.w.y.m.I.(.T.Y.T.Y.T.'.Y.I.F.i.w.f.o.o.j.v.s.(.(._.T.oX%X~.%X~.E.T.T.T.T.T.(.H.a.i.v.v.n.m.I.I.(.T.'.T.'.'.'.).(.m.n.j.f.9.Y Y 9.j.v.b.",
"U Y 9.f.l.M.i.(.(._.'.T.T.T.T.'.Y.'.(.b.h.f.g.g.n.H.(.I.Y.Y.'.XX%X&X%X~.|.'.'.'.'.[.(.m.y.0.g.h.m.I.Y.'.T.Y.T.T.'.'.'.'.'./.(.n.h.9.f.g.j.n.m.H.",
"U Y 9.j.M.b.s.I.(.'.T.T.U.T.).U.T.Y.J.v.h.g.0.w.s.T.T.T.T.T.T.OX%X#X%X~.XX'.'.'.'.'.(.m.w.9.f.g.s.(.'.T.T.U.T.T.T.T.U.T.T.T.I.s.w.g.9.g.w.p.a.s.",
"U T h.j.n.N.a.I.).T.T.T.U.'.U.I.I.F.n.x.f.Y g.v.U.XX~.~.T.T.'.XX%XoX~.oXXX'.'.T.'.U.I.p.h.>.g.j.s.).T.T.T.).'.'.T.'.'.'.!.T.U.m.w.9.E g.i.a.s.G.",
"U U q.j.n.m.p.I._.T.T.T.T.|.U.I.s.i.w.f.>.E 0.b.|.oX&XoX!.T.Y.'.oXXXoX!.'.'.T.T.'.T.I.a.j.f.f.q.F.(.'.E.E.'.'.'.T.'.[.'.E.E.'.Z.w.0.@.g.w.s.s.(.",
"U T 9.0.v.m.s.(.T.T.!.'.|.'.).Z.p.y.e.f.E T w.Z.}.%X&X%XoXXXT.'.'.E.T.T.|.T.T.I.|.T.T.s.j.9.9.q.s.(.'.E.'.'.).(.P.'.).|.E.E.I.m.i.h.@.f.i.s.m.(."
};
