/* XPM */
static char *_7f14f7a56074adfd06cf31268c9a84d9iGVeqw1RLBtPLQ2[] = {
/* columns rows colors chars-per-pixel */
"72 72 256 2 ",
"   c #020201",
".  c #0B0103",
"X  c #070708",
"o  c #190304",
"O  c #12020C",
"+  c #170507",
"@  c #001306",
"#  c #060413",
"$  c #190716",
"%  c #091619",
"&  c #181915",
"*  c #240009",
"=  c #27020B",
"-  c #350004",
";  c #290315",
":  c #350517",
">  c #36131A",
",  c #09221E",
"<  c #332C11",
"1  c #1B1E23",
"2  c #051A30",
"3  c #271B24",
"4  c #331228",
"5  c #0C282B",
"6  c #362A29",
"7  c #2C2D2F",
"8  c #500A14",
"9  c #660C18",
"0  c #48182A",
"q  c #531230",
"w  c #69132F",
"e  c #462736",
"r  c #512E34",
"t  c #6C2E2F",
"y  c #652E0D",
"u  c #2D4C3C",
"i  c #30510A",
"p  c #736606",
"a  c #7A6539",
"s  c #575719",
"d  c #031651",
"f  c #27194B",
"g  c #2E2D76",
"h  c #1D295C",
"j  c #4B3A47",
"k  c #55334A",
"l  c #7D3959",
"z  c #6F2F4E",
"x  c #7B3368",
"c  c #611C57",
"v  c #334A44",
"b  c #3C5F65",
"n  c #5C4754",
"m  c #4E4F4D",
"M  c #784659",
"N  c #665557",
"B  c #6D4850",
"V  c #4D516C",
"C  c #784966",
"Z  c #675966",
"A  c #73536C",
"S  c #6D786B",
"D  c #75746A",
"F  c #7C7D6D",
"G  c #787D67",
"H  c #7D7D71",
"J  c #7C7A77",
"K  c #6A6A70",
"L  c #8C0F34",
"P  c #A60C2B",
"I  c #88253B",
"U  c #AD2238",
"Y  c #9C101D",
"T  c #C01B3D",
"R  c #876A03",
"E  c #845D00",
"W  c #940E49",
"Q  c #B7144F",
"!  c #8D2B4B",
"~  c #B12E53",
"^  c #9D3465",
"/  c #B02C68",
"(  c #980D6B",
")  c #C5385C",
"_  c #C00647",
"`  c #8C525C",
"'  c #894B68",
"]  c #93546D",
"[  c #AA567A",
"{  c #AB5575",
"}  c #817E6E",
"|  c #857A6B",
" . c #996775",
".. c #817E72",
"X. c #8B7D74",
"o. c #877B7A",
"O. c #967977",
"+. c #886270",
"@. c #B06874",
"#. c #9E635B",
"$. c #C75078",
"%. c #C7787B",
"&. c #7E826C",
"*. c #778569",
"=. c #7D8172",
"-. c #7A8975",
";. c #708B6B",
":. c #7B865C",
">. c #AD910A",
",. c #B1A81E",
"<. c #E59E15",
"1. c #FECA13",
"2. c #E5EC22",
"3. c #929958",
"4. c #A9AA5D",
"5. c #84846E",
"6. c #89856D",
"7. c #858B6C",
"8. c #8B8C6D",
"9. c #878865",
"0. c #938A6C",
"q. c #8C9266",
"w. c #8E916D",
"e. c #8C9A6A",
"r. c #94946E",
"t. c #99966D",
"y. c #969A6C",
"u. c #9B9C6D",
"i. c #969965",
"p. c #848471",
"a. c #898573",
"s. c #868972",
"d. c #8B8C71",
"f. c #89887A",
"g. c #918E72",
"h. c #978778",
"j. c #8D9173",
"k. c #8A9576",
"l. c #949472",
"z. c #9A9672",
"x. c #969A71",
"c. c #9B9B72",
"v. c #9A957A",
"b. c #97957A",
"n. c #A19E6E",
"m. c #A59768",
"M. c #A6887B",
"N. c #A29D73",
"B. c #A49D7A",
"V. c #A79977",
"C. c #B69A7A",
"Z. c #B28D6F",
"A. c #9EA16E",
"S. c #9BA669",
"D. c #9EA172",
"F. c #98A575",
"G. c #94B073",
"H. c #A4A46E",
"J. c #A9A66E",
"K. c #A6A96E",
"L. c #AAA96E",
"P. c #A6A866",
"I. c #B3AD6E",
"U. c #B2A769",
"Y. c #A6B36A",
"T. c #BCB36E",
"R. c #B7B16D",
"E. c #A4A471",
"W. c #A9A672",
"Q. c #A5AA72",
"!. c #AAAA71",
"~. c #A5A37B",
"^. c #ABA57B",
"/. c #ABAC7A",
"(. c #A3AB79",
"). c #B3AD71",
"_. c #BAAD74",
"`. c #B6A676",
"'. c #A8B175",
"]. c #B5B071",
"[. c #BCB371",
"{. c #B9B27A",
"}. c #A4985C",
"|. c #C2B46E",
" X c #C3B571",
".X c #C4B972",
"XX c #CAB974",
"oX c #C1A87F",
"OX c #DC9E43",
"+X c #583FA7",
"@X c #3D5287",
"#X c #786F84",
"$X c #882486",
"%X c #AF5484",
"&X c #957285",
"*X c #AA7688",
"=X c #B2708D",
"-X c #9E5A81",
";X c #C75A88",
":X c #CC7895",
">X c #CC7691",
",X c #D076A4",
"<X c #7D8F8D",
"1X c #9B898A",
"2X c #8E8C8B",
"3X c #A58986",
"4X c #A69686",
"5X c #B79787",
"6X c #A98996",
"7X c #B98692",
"8X c #B99799",
"9X c #AE8D92",
"0X c #8FA294",
"qX c #ABAA81",
"wX c #B5A885",
"eX c #B9A395",
"rX c #B09CA6",
"tX c #B0B1B1",
"yX c #8BA2B2",
"uX c #D88798",
"iX c #C88E96",
"pX c #D196AC",
"aX c #D0AEAA",
"sX c #EAB3BA",
"dX c #F7AAB2",
"fX c #D7A09D",
"gX c #B8CEA8",
"hX c #C4CCBB",
"jX c #E9C4BC",
"kX c #B4BEC2",
"lX c #D0B5C6",
"zX c #E7B9C8",
"xX c #FBACD7",
"cX c #FCBAD6",
"vX c #F1AFD0",
"bX c #F09DDF",
"nX c #B8C6C2",
"mX c #D1D5CF",
"MX c #FAC3C8",
"NX c #F6CDD5",
"BX c #D3E2D0",
"VX c #F6E5D6",
"CX c #EAE8DC",
"ZX c #E3D9E3",
"AX c #ECDDEE",
"SX c #D8E6E6",
"DX c #D0F6F5",
"FX c #E6E6E6",
"GX c #F9EAEA",
"HX c #F5EAF9",
"JX c #E8F7F6",
"KX c #F4FDFC",
"LX c #FDFDFE",
"PX c #F7F6F8",
"IX c #F0F3EB",
"UX c #C9D5E1",
/* pixels */
"F F H J H } 6.d.u.H./.).!.L.Q.Q.N.y.r.8.5.=.F H H 5.7.r.D.Q.L.I.].!.I.L.L.K.L.L.!.!.!.Q.W.W.N.u.c.c.u.u.E.^.L.).!.L.Q.H.r.8.5.} &.F H =.D ..5.d.",
"F =.H ....5.d.l.u.E.!.!.L.L.J.J.H.n.N.r.s.p.H H p.d.g.c.D.E.J.I.].].].[.].!.K.L.!.!.L.W.N.c.c.c.c.u.u.H.W.^.J.L.L.L.H.H.r.8.a.5.p.=.D a.F p.d.d.",
"&.p.=...5.d.r.y.H.W.Q.!.L.L.L.H.Q.J.W.x.s.=.F 6.w.l.u.H.E.K.Q._.[.[. X[.[.!.!.Q.Q.L.H.H.y.r.l.x.y.D.H.H.!.Q.L.L.!.J.L.Q.A.c.z.l.p.=.F p.p.d.l.r.",
"p.5.p.5.d.l.c.u.E.Q.!.L.L.!.Q.W.L.K.W.z.d.5.&.7.r.u.H.H.Q.L.!.]. X X|.T.).Q.L.!.L.Q.E.y.g.6.p.d.N.E.H.J.J.W.L.!.).Q.Q.!.Q.~.E.t.d.5.} p.d.l.c.c.",
"6.p.5.5.8.z.u.A.H.E.!.J.J.H.Q.Q.J.n.H.z.7.5.&.j.A.H.I.L.L.L.L.]. X|. X_.I.Q.L.!.L.Q.H.y.6.5.p.s.u.E.Q.L.L.L.L.!.W.J.W.L.Q.!.Q.u.d.p.5.6.8.l.c.H.",
"7.6.5.p.d.l.u.u.E.W.!.!.J.L.Q.W.H.u.t.g.p.5.5.l.J.].T.R.L.L.L.!._.[. X|.).!.Q.K.L.L.E.r.7.5.=.p.t.E.!.L.L.!.Q.L.L.L.L.L.L.!.J.u.d.p.5.5.8.r.c.u.",
"d.6.5.p.d.l.c.n.E.Q.!.!.!.L.W.H.u.r.8.p.H } 6.b.I._. XT.].L.L.!.L.).R.I.).!.L.H.L.W.E.t.d.5.5.p.t.~.L.L.L.!.L.H.Q.L.!.L.).W.W.u.d.p.p.6.g.l.c.n.",
"d.5.5.5.g.l.c.E.E.J.J.J.L.J.H.u.l.7.5.D J F 6.b.U. XXX|.R.L.L.!.W.L.L.L.H.!.Q.L.J.W.W.v.7.p.6.p.c.W.L.L.!.Q.W.K.Q.L.L.Q.J.Q.W.u.d.5.5.6.g.l.c.u.",
"s.5.6.p.g.r.u.E.H.L.W.!.!.!.H.D.8.5.H J D *.0.N.U. X XXXU.L.W.n.P.`.N.U.'.^.jX`.'.pX/.i.9.h.&.e.u.W.W.!.Q.K.K.K.J.W.L.P.L.W.Q.c.d.5.5.6.d.r.u.u.",
"5.&.p.d.r.y.n.E.K.K.L.I.I.!.E.A.d.&.D H 6.8.t.c.L._._._.L.n.V.qX~.G.4.W.~.S.`.^.P.W.n.qXl.*.j.g.H.W.!.L.!.L.K.L.W.W.L.J.H.E.D.r.s.5.5.7.l.u.A.E.",
"5.&.6.8.r.u.H.Q.P.W.L.L.L.L.H.y.d.&.D p.l.c.c.H.W.H.n.n.A.S.u.E./.}.T.L.(.1XuX=XwX!.N.F.r.V.g.n.H.K.L.W.!.L.L.Q.J.!.L.L.E.E.u.r.p.p.5.d.l.A.E.K.",
"p.p.p.d.c.E.K.L.Q.L.L.L.I.!.E.c.d.6.p.d.x.c.Q.H.u.N.E.y.r.c.t.~.P.`.P.&Xl . - o n #.@.H.i.V.e.u.H.E.J.L.W.L.J.W.J.Q.W.H.E.c.y.8.p.5.p.d.c.A.L.L.",
"&.&.p.d.c.E.Q.L.E.W.E.E.L.W.D.z.d.6.7.g.x.H.K.Q.H.y.z.v.g.4X3X5X~.F.[ o 8 q = q $ : ] F.4Xc.e.c.u.E.E.E.W.!.L.J.H.J.H.E.c.l.r.7.p.F 5.7.y.H.L.L.",
"&.H 5.8.c.E.E.H.c.c.y.z.y.y.x.b.r.g.g.r.u.E.Q.H.~.i.q.A.i.S.S.S.i. .: U U 8 w T Q 8 { c ;X4Xq.b.l.z.c.N.W.!.L.W.Q.E.E.N.r.l.a.p.=.=.p.d.c.E.Q.E.",
"F F 5.7.r.c.N.u.r.8.6.d.7.7.8.l.r.c.z.u.u.H.D.A.n.u.(.Q.u.i.K.q.{ - l ~ 8 U P L L 9 w w pXg.9.O.5.d.l.c.E.Q.L.L.W.E.n.r.8.6.5...H F } d.l.u.n.n.",
"F H p.6.g.c.c.t.8.6.} p.5.9.7.j.y.E.~.E.u.u.u.u.H.A./.~.aXsXpX-X8 L Y q P Q 8 6 9 Q 8 l d.| -.*.F 5.8.g.c.E.K.H.E.n.y.r.8.5...H H F ..d.l.y.u.r.",
"5.5.s.j.l.b.l.w.f.6.5.&.&.F 6.l.E.W.L.W.n.c.c.u.~.P.P.`.`.Y.(.+.8 I ) I ) t 9 Q W 8 1 iXxX8.*.o.&.p.5.l.c.^.E.H.c.z.l.d.s.p.a.p.p.6.7.8.w.x.r.r.",
"8.8.8.8.d.d.7.q.8.8.8.8.d.7.l.c.Q.)._.L.n.y.t.z.F.I.P.E.^.P./.+.- @.sXMXjXO.) P L w @ ! 5Xf.k.:.p.6.5.8.l.c.y.u.d.l.8.8.d.d.l.d.d.g.g.8.d.d.j.8.",
"~.N.c.l.d.7.a.d.r.l.c.c.c.l.u.E.R.T. X_.E.u.c.z.~.J.L./.W.Q.aX%X- 8XGXVXiXaX#.! q ;  .vXF.t.t.m.l.r.w.8.j.8.8.6.p.5.7.8.l.c.u.u.c.c.c.r.8.7.d.d.",
"J.H.E.z.d.5.5.d.y.H.E.E.W.E.J.I.|.|. X_.W.c.c.z.^.S.Y.W.m.y.c.M o 7 hX%.t y wXm @ 6 B W.N./.H.S.c.l.c.j.d.6.6.5.=.5.6.d.c.E.J.L.W.W.E.y.8.6.p.s.",
"L.L.H.c.l.5.5.d.u.E.Q.L.Q.L.L.].|.|. X_.L.n.c.l.u.P.S.~.C.C.g.k.j . M.< #.gXjX#.yX5 { H./._.).H.u.y.x.7.d.} =.=.F =.6.w.y.H.L.L.).!.K.u.w.d.p.p.",
"R.!.J.H.l.7.d.j.y.D.H.J.!.L.I._.[.T.|.I.W.c.y.y.u.n.c.x.7.b.d.iXN N GXBXBXhXjX` = :XsXeX4.S.G.~.E.c.z.d.p.F H H p.s.j.c.E.W.L.L.].!.L.u.r.8.s.d.",
"L.L.H.H.l.r.8.r.l.c.u.H.L.!.W.).].].I.I.Q.E.n.y.t.6.d.h.X.f.d.iX4Xt ` VXMXM.aX3 5XF.L.^.J.`.K.L.E.N.v.g.6.F &.p.r.x.c.E.Q.!.L.L.!.!.K.D.c.l.8.l.",
"L.L.H.E.c.x.l.r.l.c.u.A.W.W.W.).!.L.J.!.W.W.E.n.k.f.-.1XpXiXh.i.NX! M iXVXaX0 N ,XzXbXzXdXP.U.S.n.N.z.g.5.6.5.s.u.A.Q.L.L.L.L.!.J.J.Q.W.z.r.r.r.",
"!.!.E.H.c.u.u.y.l.y.c.u.u.~.P.J.!.Q.L.J.L.!.Q.n.e.p...G S J 1X@.,.i i a t.a 5 r X n ] B 7XY.4.~.v.aX0.s.&.} 5.8.c.E.L.L.L.!.!.L.L.Q.E.H.u.n.y.c.",
"H.E.E.n.A.u.A.D.c.u.n.u.c.c.u.u.E.H.L.L.I.].).L.B.k.h.dXS bX6 y >.X +XK C v f s f p p I - 7XvX4X5Xd.l.6.a.G 6.k.c.Q.L.L.L.Q.L.L.H.E.E.c.u.H.n.c.",
"E.u.u.n.n.E.E.W.E.H.E.u.r.l.l.r.c.E.L.I._.[.[.R.`.u.t.M.2Xt E V @X#.>.2.1.p x g a 1.1.4XZ.0 >XxXM.d.*...D a.a.7.c.W.Q.L.L.E.H.H.A.c.c.E.H.H.H.E.",
"c.u.c.u.E.H.J.L.L.W.W.c.8.d.s.j.u.E.!.[.|. X X|.U.Q.y.3...= E d g j N N b Z v d ,.1.@.=X@.$.: 7Xs.O.X.H J J p.d.y.W.!.J.Q.K.E.H.u.c.c.u.H.H.J.W.",
"c.c.t.u.E.E.L.L.L.J.W.l.6.&.&.f.y.D.!.]. X|.|.|.].P.`.m.8X> # q w h @Xc V ( e d ,.1.9X^ / ^ 4 *X-.| 4X-.F a.9.l.u.J.Q.L.L.L.L.W.u.y.c.c.E.L.L.!.",
"c.y.t.n.E.Q.Q.L.L.J.E.l.5.F F s.y.c.L.].R.T.T.|._.T.F.bX7 L f ( Y g f $XW 9 4 d E <   ^ ~ pXrXo O.s.=.o.6.6.c.l.H.Q.^.I.].].U.L.c.t.x.c.E.Q.L.L.",
"c.y.t.u.E.W.Q.L.E.H.c.l.p...F p.y.A.Q.L.I.].[.)._.G._.xXX %Xw $ c , 2 , w q 5 + 3 B C 9 *XmXVX+.` p.-.D z.i.i.qXH.W.!.I.T.T.[._.H.t.t.c.E.J.K.Q.",
"E.u.u.u.N.W.Q.J.E.y.r.8.p.p.5.s.u.D.W.L.L.I.L.!.Q.L.4.eX6 VXN X 5 % & 2 2 3   j `.zXM   N LXVXtXO zXX.j.r.H.W.N.P.Q.!.I.T..X X_.~.u.t.c.E.W.K.E.",
"E.n.u.t.u.E.E.E.u.c.l.d.5.6.8.r.u.W.W.!.L.!.E.E.!.S.Y.C.+ aX3X* . O O # O o 8 F.5Xr j eXmXVXaX4  ...d.b.r.D./.U.W.Q.U.I.[..X[.T.W.n.t.t.n.E.E.H.",
"H.n.n.u.c.c.x.l.r.8.g.d.8.8.r.c.L._.].).L.L.H.H.H.(.P.r aXaX+ 0 [ / { ;Xq 1 sX4Xe M IXIXzXk o @.zX8Xl.c.Q.Y.P.Y.W.Q.L.I.[.[.[.R.W.E.u.t.y.c.c.t.",
"H.H.~.c.l.8.7.6.p.6.p.d.r.x.E.E.[. X X].I.L.E.A.c.H.5X> pXD   4 c W ! W x % B M A AXrX> X ] | l.h.V.t.H.H.m.).'.E.Q.L.L.I.I.I.I.L.W.N.y.l.d.7.6.",
"J.J.W.c.l.6.5.H F ..p.d.z.u.L.R.|. X X|.I.I.K.H.B.3.NX5 e j 2Xe ,X,X,X[ 0 AXb $ ! ] O 7XaX5.d.iXc.n.).K.].wXm.E.H.Q.W.L.L.!.!.Q.L.L.E.c.j.6.p...",
"P.L.W.N.l.6.5.=...5.d.j.c.H.L.R.|.|. XT.].L.H.A.B.y.:XA X tXLXLXHXLXPXJXJXHXDX7 w C # M :X....uXv.wX`.W.K.H.I.Y.!.!.Q.L.L.W.Q.J.L.L.E.c.r.6.5.=.",
"I.W.W.E.y.g.6.s.6.8.w.c.u.J.L.R.R. XT.[.[.!.L.H.z.h.z 3 v tXSXPXPXGXLXJXKXPXHX*Xe IXrXeX4 cX=.b.c.`.{.H.K.{.J.J.I.).I.).!.!.W.E.L.Q.Q.H.r.g.7.s.",
"!.Q.E.H.n.y.x.l.y.y.c.c.H.L.L.I.].).].].).!.W.W.4XNX` o 0XSXAXLXPXLXPXKXKXIXlXKX<X6 jX6 rXo.*.q.S.S.P.).!.u.^.oXR. X[.[.U.J.L.H.Q.L.J.H.n.c.c.l.",
"W.Q.L.K.L.E.E.E.E.E.H.K.Q.Q.Q.L.L.I.L.L.L.W.Q.Q.V.=X= o tXKXKXHXLXBXKXLXFXLXPXSXJXrX3 :XcX:Xh.-.V.W./.L.J.Y.Y.T.T..X.X[.I.L.J.Q.W.W.J.J.J.E.E.E.",
"J.H.E.H.Q.!.J.J.W.!.!.L.L.L.W.~.W.E.A.H.H.E.E.A.lXl Z pX  nXKXPXLX7 nXKXLXKXGXLXHXUXO MXuX6.-.0.y.D.Q.E.H.H.L.I.|..X XT.I.L.P.E.H.L.K.J.J.H.!.!.",
"E.E.H.H.J.!.!.!.W.L.!.L.K.Q.W.c.u.c.c.c.y.y.y.u.MXz K GX7 hXKXHXJXm Z KXLXKXLXKXKXmX3 9Xh.j.j.7.r.x.c.E.H.J.L.I.[.[. XT.].L.Q.E.H.H.H.Q.Q.!.!.!.",
"N.N.u.n.E.!.!.!.J.L.L.Q.H.E.y.y.8.8.7.a.6.7.w.r.N.*XK   rXLXFXKXJXe ; <XIXLXIXKXKXPX  NXA.j.3.g.8.8.w.y.N.H.W.I.I.I.I.I.I.L.J.H.y.u.u.n.H.J.J.J.",
"c.c.u.n.H.W.Q.).L.Q.J.W.u.c.r.r.d.7.5.p.p.5.d.l.c.5XO.= <XHX&XkXJX$ pX$ ZXLXLXnXD LXK -X8XB.q.a.7.a.8.r.c.E.L.L.Q.L.L.L.L.W.H.H.c.u.u.n.W.Q.!.!.",
"c.c.u.u.E.W.J.J.!.!.J.W.u.c.r.j.d.p.&.p.J F 6.j.y.W.C.M.7 V O   nX0Xe C #XLXtX7   Z ZX$ zXm.z.k.p.| p.8.c.E.J.J.!.Q.L.K.Q.Q.L.H.c.c.u.n.E.W.!.Q.",
"u.u.u.H.E.H.Q.H.Q.E.H.c.y.y.r.r.l.8.6.p.6.5.7.8.t.wXK.qX> # j   j LX$ 8XO LXS   r   SXm A i.j.9.5.} H d.c.H.Q.L.Q.K.H.K.E.H.H.J.c.y.t.u.n.J.J.H.",
"A.S.A.H.E.J.J.H.E.u.u.y.y.r.y.l.u.c.z.z.l.8.l.l.y.N.Q.G.6 K . Z LXUX2Xe &Xj KXZ X mXJXn j x.x.b.5.=.p.f.c.H.L.!.L.J.H.E.H.E.E.H.E.E.H.H.H.Q.W.J.",
"K.K.K.H.L.Q.W.E.c.y.c.r.c.r.c.c.u.D.E.D.t.r.l.l.y.c.N.4X1 <XkXPXLXLXSX; &X> KXLXKXPX8XV 2XB t.s.9.p.p.d.y.J.L.^.L.J.L.Q.Q.E.W.W.Q.W.W.W.Q.W.H.H.",
"Q.W.W.L.!.W.Q.H.n.c.l.z.t.u.n.N.H.J.H.P.u.u.y.z.g.y.c.v.r N kXZXKXnXJ k Y.0 <XSXKXmXtXSXKX7 ] sX3Xa.X.8.F.E.W.L.Q.L.J.L.L.!.!.!.W.L.J.J.W.L.J.J.",
"!.).Q.L.Q.W.W.H.u.y.r.z.u.u.A.n.J.Q.!.L.H.H.c.z.l.s.7.y.~.k v Z A K # ^.wX=Xf 0XZXLXJXKX1X7 iX#XX.-.6.8.x.W.E.K.W.!.L.L.U._._.).).!.L.J.Q.Q.Q.H.",
").!.W.L.Q.!.H.n.u.c.x.c.E.E.H.E.W.!.!.Q.L.E.E.y.l.5.9.;.1XN.j O k = O pXI.fXrX0 rXDXLXk % A cX1X..S | 5.l.W.W.!.L.Q.L.I.R. X[.[.I.L.L.L.L.!.W.E.",
"!.!.L.J.!.W.E.H.u.u.c.c.E.E.L.E.!.!.L.J.Q.E.n.y.9.6.o.2Xe.iXeXC ! $.k j Y.Y.P.pX0 3 j c 0 ^ J ;.7Xh.0.g.F.E.S.Q.E.L.U.I.[. X X|.).L.P.H.J.Q.J.H.",
"R.!.L.J.E.Q.E.N.u.c.y.c.n.K.L.Q.!.!.W.L.Q.!.E.u.v.h.f.:.h.m.xX .3 / t # ^.L.S.D.iX9X# ' ^ = >Xo.O.D | q.F.J.U._.J.L.I.I. X.X|.|.].!.L.L.E.Q.E.E.",
"L.L.Q.H.E.E.E.u.y.c.c.c.H.H.L.Q.J.W.J.!.!.!.H.H.d.q.q.p.;.h.5XlXC ! $.$ ^.qXm.S.3XcX*X: ;Xq M p.a.-.c.u.A.).Q.K.Q.Q.!.I._.[.[.T.!.L.!.Q.H.E.D.c.",
"L.!.Q.H.n.N.u.y.t.c.z.E.H.H.!.!.J.J.J.J.!.!.!.H.L.c.x.r.l.-.iX5Xe $ ! $ uXy.`.V.v.h.X.=X: { = 9X4Xk.c.^.A.U.L.J.W.!.W.).).).).I.L.W.K.E.A.u.u.x.",
"!.!.!.Q.n.y.y.l.r.r.c.E.E.L.L.Q.!.W.L.J.L.!.W.!.^.J.K.m.r.f. .k X 1 @ 5 + vX4Xi.;.9.a.=X+ +.4 C sXwXC._.K.P.L.W.W.!.!.U.L.).!.W.L.J.Q.E.u.y.y.y.",
"!.!.L.H.N.y.c.l.c.r.x.c.E.E.H.K.W.H.W.W.L.J.J.W.G.H.P.~.6Xn # 1 v 1 O % : cXF.| ..f.2X&X+ . 3 & j &XzX`.P.W.E.K.E.W.H.E.E.E.W.K.W.W.W.E.u.u.l.b.",
"!.Q.J.H.H.H.c.c.c.r.c.c.c.D.A.H.H.W.!.Q.L.W.L.L.Z.F.S.M.iX; % @   * K . > X.&.r.*.D | 6Xo O 1 5 3 3 Z ^.S.x.l.n.z.y.u.u.E.E.H.P.L.W.!.L.H.u.c.c.",
"L.L.L.L.Q.J.E.u.z.x.l.y.c.u.A.D.W.J.L.L.W.).Q.H.A.t.&.;.p.7X=X=X*X>X..7X>Xh.0.G H H o.O.+.pX> ; o * r B.y.x.f.9.6.7.r.l.x.c.u.H.J.L.!.L.L.K.H.A.",
"L.L.L.!.Q.J.P.H.D.c.y.r.r.y.c.E.J.Q.Q.L.L.!.J.u.c.&.a.o.-.J O.xX..X.-.H ..-.*.&.....F k.M.aXpXuXwXiX5XB.q.5.a.*.H =.p.7.l.z.u.u.J.Q.!.L.L.L.H.H.",
"E.E.H.Q.Q.W.H.H.E.c.y.y.y.y.c.c.H.Q.W.E.!.^.E.t.7.| o.f.F 5.s.-.*.F 5.-.s.6.| a.s.&.9.q.wX`.^.^.K.qX~.r.r.7.H p.=.5.p.p.d.d.x.c.n.E.W.W.H.J.H.H.",
"c.c.c.c.c.u.c.u.y.u.u.A.A.u.A.u.A.D.H.D.D.c.l.r.s.p.=.D 8.8.8.8.b.0.w.*.5.6.h.8.7.9.x.i.H.L.L.'.L.P.u.y.r.d.p.f.d.8.8.d.d.d.8.l.z.c.c.c.c.c.u.y.",
"j.w.8.d.8.8.g.x.y.H.D.Q.E.H.H.u.u.c.y.r.l.l.6.6.p.=.G 6.g.e.Q.u.y.n.t.V.F.x.A.u.~.i.A.Q.L.`.`.m.L.m.Z.F.r.m.N.x.u.y.r.r.8.p.5.7.d.g.g.d.g.8.l.l.",
"7.s.s.5.&.6.f.d.u.E.E.Q.Q.Q.E.Q.E.u.y.r.8.6.} ..F } &.7.V.N.n.P.J.G.H.A.~.H.S.L.n.H./.H.H.!.S.Q.y.e.F.x.E.n.H.H.Q.W.H.c.j.p.&.5.5.5.5.5.5.6.a.d.",
"H F =.F H 5.5.l.u.E.Q.!.!.L.Q.L.~.u.t.g.d...H H ..a.6.r.H.E.P.L.!.!.I.L.L.L.Q.L.L.L.!.Q.H.E.A.c.c.c.y.H.H.L.J.L.Q.L.!.u.r.d.p.F F F H H J H 6.d.",
"J F =.&.H p.7.l.u.E.!.!.L.L.J.L.H.n.t.r.d...F H p.p.g.y.E.Q.L.].].].].].L.L.L.L.L.L.Q.Q.E.H.c.c.c.y.u.E.H.H.Q.L.L.L.L.H.y.j.s.6.5.=.H F ..5.7.w.",
"S D p.5.a.d.g.y.H.E.L.L.L.L.L.!.H.P.u.r.d.} 5.5.d.l.u.E.Q.K.L.]. X XT.T.].L.L.L.Q.!.W.N.y.r.g.l.y.u.E.Q.W.L.!.L.W.!.Q.W.E.c.z.j.p.&.H ..p.d.r.c.",
"D G p.s.d.l.r.E.W.Q.Q.L.L.L.Q.L.L.Q.E.c.d.p.5.a.x.D.E.H.K.L.L.].|..X.X[.I.L.!.!.).!.E.c.8.7.a.d.c.N.W.W.J.L.!.Q.).!.!.!.W.W.D.c.d.p.5.p.d.r.c.c.",
"D D s.d.x.z.x.E.E.!.Q.L.L.W.W.W.L.Q.D.x.s.5.6.8.A.L.L.L.L.L.L.{.|. X.XT.).).!.Q.W.Q.E.c.7.5.p.d.c.W.W.!.L.J.L.Q.K.L.L.L.L.L.H.u.j.5.p.p.g.r.i.u.",
"D G 5.d.b.z.u.H.J.L.L.L.J.L.L.H.H.A.x.d.p.} 6.r.J.).T.R.L.L.!.].[. X|.[.).!.L.K.L.L.H.y.d.X.p.d.A.W.W.L.L.J.!.!.I.L.Q.!.].L.J.u.8.6.X.p.r.y.u.u.",
"D F 6.8.l.c.u.H.L.Q.L.L.L.I.H.H.u.r.8.s.H F 6.v.I.[. X|.].L.K.L.[.].R.].).Q.W.L.W.L.J.y.d.p.p.d.u.E.!.I.I.L.!.W.L.L.W.!.I.].Q.N.8.7.p.p.r.y.H.E.",
"D G 5.8.l.c.u.E.K.!.R.!.).!.W.D.z.8.5.6.H F 8.N.U. XXX.XT.).!.Q.!.L.I.L.).L.W.W.).L.J.u.d.&.&.7.u.E.!.I.L.!.!.W.P.L.^.).I.I.H.u.r.p.X.p.8.u.u.E."
};
