/* XPM */
static char *aGlzb2thX3JpZ2h0d2FsazM_[] = {
/* columns rows colors chars-per-pixel */
"72 72 256 2 ",
"   c #040101",
".  c #060607",
"X  c #12000A",
"o  c #150706",
"O  c #060415",
"+  c #160315",
"@  c #041919",
"#  c #18151A",
"$  c #0F1607",
"%  c #260407",
"&  c #360505",
"*  c #22170C",
"=  c #290719",
"-  c #360416",
";  c #291212",
":  c #361611",
">  c #2F310C",
",  c #1B1426",
"<  c #100B23",
"1  c #3A1733",
"2  c #2D0C28",
"3  c #042333",
"4  c #112928",
"5  c #272625",
"6  c #373436",
"7  c #2F2C33",
"8  c #13221B",
"9  c #480506",
"0  c #4E0F10",
"q  c #61001F",
"w  c #422112",
"e  c #5A052B",
"r  c #551937",
"t  c #50152B",
"y  c #690525",
"u  c #790729",
"i  c #691839",
"p  c #6B1031",
"a  c #422537",
"s  c #473838",
"d  c #502A2F",
"f  c #6F2C35",
"g  c #3A552A",
"h  c #644F1A",
"j  c #132D4F",
"k  c #383844",
"l  c #302844",
"z  c #321B61",
"x  c #4E174B",
"c  c #5C2948",
"v  c #593852",
"b  c #4B3450",
"n  c #64364E",
"m  c #722B49",
"M  c #422C74",
"N  c #36434D",
"B  c #534F4F",
"V  c #674B5C",
"C  c #75435A",
"Z  c #735355",
"A  c #564A6E",
"S  c #6E5369",
"D  c #7C7D6E",
"F  c #747769",
"G  c #7D7D71",
"H  c #767B78",
"J  c #726770",
"K  c #92102E",
"L  c #B01035",
"P  c #8D1246",
"I  c #B11649",
"U  c #8F2952",
"Y  c #B13666",
"T  c #9B3259",
"R  c #C80D46",
"E  c #D2335C",
"W  c #89495B",
"Q  c #A7504D",
"!  c #8C5472",
"~  c #B65177",
"^  c #807E6D",
"/  c #8B796D",
"(  c #817E71",
")  c #88797B",
"_  c #947979",
"`  c #976571",
"'  c #A66B75",
"]  c #9E7652",
"[  c #C27078",
"{  c #C94157",
"}  c #7F806D",
"|  c #7A8767",
" . c #7F8071",
".. c #7B8873",
"X. c #7A9469",
"o. c #72875E",
"O. c #978F19",
"+. c #A7A500",
"@. c #A68B32",
"#. c #EAB325",
"$. c #FFC111",
"%. c #DAC222",
"&. c #E8E206",
"*. c #8F944E",
"=. c #9DA55C",
"-. c #B5BA5E",
";. c #84836E",
":. c #89866E",
">. c #858A6D",
",. c #8B8C6E",
"<. c #858765",
"1. c #938C6B",
"2. c #8E916E",
"3. c #8D996A",
"4. c #93946E",
"5. c #99966E",
"6. c #96986D",
"7. c #9B9C6D",
"8. c #979964",
"9. c #848471",
"0. c #898673",
"q. c #868973",
"w. c #8C8C71",
"e. c #85857B",
"r. c #918E71",
"t. c #948A78",
"y. c #8F9071",
"u. c #8B9C75",
"i. c #949472",
"p. c #9A9771",
"a. c #969971",
"s. c #9B9B71",
"d. c #92947A",
"f. c #9B967B",
"g. c #9A9C7B",
"h. c #A19E6E",
"j. c #A39868",
"k. c #B29B6A",
"l. c #A88F77",
"z. c #A19D72",
"x. c #AA9B73",
"c. c #A39C7B",
"v. c #A89678",
"b. c #B19A71",
"n. c #95A46D",
"m. c #9EA16E",
"M. c #9AA967",
"N. c #98B268",
"B. c #9DA172",
"V. c #98A678",
"C. c #96AB73",
"Z. c #A4A465",
"A. c #A4A46E",
"S. c #A9A76E",
"D. c #A6A86E",
"F. c #AAA96E",
"G. c #A8A964",
"H. c #B2AC6E",
"J. c #B5A66B",
"K. c #B6B16F",
"L. c #BCB36E",
"P. c #A5A671",
"I. c #A4A471",
"U. c #A9A672",
"Y. c #A5A972",
"T. c #A9A971",
"R. c #AAA971",
"E. c #A6A27A",
"W. c #ADA57C",
"Q. c #ACAA7B",
"!. c #A3AC7D",
"~. c #B3AD72",
"^. c #BBAE79",
"/. c #B6A876",
"(. c #ACB377",
"). c #B5B171",
"_. c #BCB371",
"`. c #B8B279",
"'. c #AAB167",
"]. c #B88A59",
"[. c #C3B46E",
"{. c #C7B064",
"}. c #C6AA77",
"|. c #C3B571",
" X c #C4B972",
".X c #CAB974",
"XX c #CE9C47",
"oX c #A7D364",
"OX c #92728C",
"+X c #A96884",
"@X c #B97997",
"#X c #B0748C",
"$X c #B676A5",
"%X c #C1608D",
"&X c #D57FA4",
"*X c #C65885",
"=X c #7C948D",
"-X c #88858B",
";X c #9A8586",
":X c #9B9689",
">X c #8D8892",
",X c #94959A",
"<X c #99899A",
"1X c #A98886",
"2X c #A69A86",
"3X c #B79C8B",
"4X c #BC859A",
"5X c #B58D96",
"6X c #A7A686",
"7X c #B6A786",
"8X c #A7A291",
"9X c #B9A897",
"0X c #A79FB2",
"qX c #B58FA4",
"wX c #B0B2B4",
"eX c #95A3A4",
"rX c #C7878C",
"tX c #C99095",
"yX c #E08082",
"uX c #C7AD91",
"iX c #D093B3",
"pX c #E09FB7",
"aX c #CAA5A2",
"sX c #D0B1AE",
"dX c #FEB9AA",
"fX c #C1CA9B",
"gX c #E1E3BE",
"hX c #C1D2B0",
"jX c #B6BBCB",
"kX c #DD88C1",
"lX c #D4AAC6",
"zX c #F9B8C9",
"xX c #F9B8D8",
"cX c #EDB8C8",
"vX c #FBADE1",
"bX c #B0CAD1",
"nX c #B8D6E0",
"mX c #C7C6CB",
"MX c #D3CDCC",
"NX c #E9C4CA",
"BX c #F5C9D5",
"VX c #F3ECD0",
"CX c #E4DBEA",
"ZX c #FDDEE5",
"AX c #FBC0E0",
"SX c #EAE8EC",
"DX c #E4F8EE",
"FX c #FFF4EB",
"GX c #FAEAF9",
"HX c #EAFEFD",
"JX c #E6FAF9",
"KX c #FCF5FD",
"LX c #FEFCFE",
"PX c #F7F9F8",
"IX c #FFE1E9",
"UX c #D0D4E0",
/* pixels */
"D G G G G ^ 9.,.7.P.Q.).R.F.R.Y.z.7.4.,.;. .D D G 9.>.4.B.Y.F.H.).R.H.F.F.F.D.F.R.R.F.R.R.I.x.m.p.s.7.7.E.U.U.~.R.F.D.B.4.>.;.^ } D G  .F ( ;.w.",
"D D G G 9.;.w.i.h.A.R.R.F.D.D.A.I.h.s.4.q.9. .}  .w.4.s.B.Y.S.H.).).)._.).R.F.F.R.R.R.Y.I.s.s.7.a.s.7.Z.P.U.R.R.F.F.D.A.6.2.0.;.9. .D G D 9.w.r.",
"} 9. .( ;.,.4.7.A.P.R.R.F.R.F.A.R.S.P.i.q. .} ;.2.i.7.m.I.I.R.).).L.[.|.).T.R.R.D.R.A.m.i.i.i.i.p.B.A.A.R.U.S.F.R.R.F.Y.B.s.p.r.9.9.D 9.9.w.d.4.",
"9.9.9.9.q.i.s.7.P.P.R.U.D.R.R.R.F.S.U.s.w.;.} :.4.s.A.S.R.Y.R.).|.[.[.L.K.R.T.T.R.R.P.7.,.>.0.w.s.P.D.D.R.R.F.F.R.F.R.R.Y.E.I.7.w.;.^ ;.w.i.5.7.",
";.9.;.;.w.p.m.7.A.P.R.S.A.S.D.R.S.h.A.p.w.;.;.w.m.D.H.F.F.F.F.).[.|.[.[.K.R.D.Y.F.R.A.6.;.;.9.0.s.P.F.F.F.R.R.R.R.A.R.F.R.R.Y.7.w.9.;.;.,.i.s.7.",
">.:.;.9.w.i.7.7.A.U.R.R.F.F.U.P.A.7.p.r.;.;.;.i.S.~.L.H.K.F.F.R.)._.[.).~.Y.F.D.F.F.I.4.>.;. .q.7.P.R.F.F.R.R.F.R.S.F.F.F.R.A.7.w.;.9.;.,.i.B.A.",
"w.;.;.:.w.i.s.h.P.P.R.R.R.R.Y.I.s.4.>.9.G D :.i.J.). XL.K.F.D.R.R.H.K.H.R.R.D.D.S.U.I.p.w.;.;.9.5.I.U.F.F.Y.D.A.R.D.R.F.R.U.R.7.t.;.;.;.r.4.s.h.",
"w.;.;.:.r.i.p.I.P.P.S.F.R.R.A.8.i.<.^ G D G ;.f.J.|..X[.K.F.F.R.R.F.J.F.D.R.D.F.S.U.I.s.w.;.;.9.s.U.R.F.R.R.Y.F.Y.F.R.F.R.R.U.7.w.;.:.9.r.i.s.7.",
";.;.;.q.,.4.7.I.6XM.J.U.U.F.G.I.w.q.o.G H ..1.j.J.|.[..XH.R.U.B.G.D.D.A.D.R.F.G.R.F.Y.p.w.:.:.r.7.P.R.R.R.D.D.D.A.R.F.G.A.U.E.6.w.;.;.;.,.6.7.7.",
";.;.;.w.4.7.s.P.M.J.A.).(.'.x.V.>.F ) ( F | n.x.R.K.K.J.S.A.A.Y.Y.Y.Y.D.D.D.D.F.D.Y.A.B.i.<.,.i.A.R.R.R.R.F.D.Y.U.R.F.F.R.P.B.6.q.9.;.:.i.7.7.I.",
"q.} ;.,.i.A.A.D.F.J.(.n.J.J.V.2X+XT r b :Xy.j.n.A.S.S.h.z.7.7.m.A.Y.R.F.R.R.U.P.F.F.R.I.p.i.4.7.Z.P.R.S.R.F.F.R.S.R.F.S.A.I.7.4.9.9.9.>.a.B.A.D.",
">. .;.w.p.I.F.D.Z.J.C.S./.b.f 6 X . : 9 = V zX6Xh.8.s.7.f.s.6.m.P.Y.R.F.R.R.U.U.R.S.A.7.7.5.5.7.I.P.S.S.R.F.A.F.S.U.R.A.I.B.4.2.9.;.;.w.a.A.D.F.",
" .} ;.w.s.Y.R.D.W.Y.R.U.7XrX~ - P f $ w K 9 g Y.7Xs.4.p.i.p.s.7.A.A.D.D.G.P.P.R.U.R.A.7.p.p.a.a.7.I.I.I.U.R.S.U.A.S.A.A.s.a.4.>.9.G ;.w.a.A.D.F.",
"D } ;.,.a.I.P.I.c.l.3.7.f i e y I L L y K E & W 3X2Xi.B.6.5.7.m.p.7.7.7.I.A.I.P.E.P.I.7.a.i.i.i.i.a.s.z.U.R.F.S.R.U.I.s.4.y.0.9. .G ;.w.a.I.P.R.",
"D D ;.>.i.s.I.7.g.:.l.,.;Xe U p f e L Y y R R y W 3XE.A.A.I.7.B.i.2.2.i.i.p.m.A.7.7.7.4.,.:.;.;.9.w.i.p.I.Y.D.F.U.I.7.5.w.:.;.( D D D w.4.B.A.7.",
"} G 9.:.4.a.p.6.1..._ ^ ( C 0 U p r & K I u u K ; 1X!.A.G.~.s.s.2.:.:.q.w.i.a.7.a.s.a.i.w.e.9.} } 9.:.4.z.P.D.D.I.7.5.4.,.;.( G G G ^ w.i.7.6.6.",
"^ ;.w.w.d.i.i.4.<.0.0.e.G c = t I P u Q ' l.%X{ + aXE.C./.R.Z.s.>.( ( 9.w.4.a.6.s.7.4.,.,.9. . .G } ;.4.s.I.I.I.s.a.i.w.q.9.9.9.9.;.>.>.r.i.4.2.",
",.,.,.w.>.w.,.,.w.0.0.0.q.` % t 0 R &XsXBXFXgX{   aXG.G./.x.j.d.;.( G ( >.i.6.6.B.s.7.p.4.y.w.q.9.;.>.2.4.s.s.6.i.w.,.>.w.w.w.i.w.r.4.r.,.r.,.2.",
"I.s.s.i.w.:.>.w.i.g.s.Y.M.c.` = o &X! OXOXNXZX5 ! uXE.Y.~.U.j.d.;.( ( ( w.i.7.s.A.I.I.h.I.s.a.6.i.r.,.r.r.2.,.>.9.;.:.,.i.p.7.A.s.s.s.4.,.:.w.w.",
"R.P.I.s.y.;.9.w.5.M.j.A.M.P.& l > i.uXC w ] ' + rXcX`.M.V.8.M.i.9.;.9.9.w.4.p.7.I.A.U.S.S.U.P.m.s.7.4.r.w.0.;.}  .} :.y.s.I.S.A.P.U.P.7.,.:.q.q.",
"F.F.A.s.r.;.;.q.7.M.Q.W.R.x.rXB OX].ZXVX@.1XB ) sXj.c.W.Z.f.r.w.9.;.;.,.,.4.s.7.A.A.F.F.~.F.F.D.h.5.4.,.0.9. . .G } ;.4.s.A.F.F.~.R.D.7.2.:.q.q.",
"K.R.F.A.i.,.w.y.6X8.U.F.Z.uXBXuX= W MXoXnXPXiXc aX8X8.1.d.1.d.w.w.4.4.4.a.7.A.A.A.S.F.F.F.F.F.F.I.7.f.r.;.( G ( 9.q.y.a.I.P.F.F.).R.D.7.4.w.:.w.",
"F.F.A.m.4.i.2.2.,.A.7.F.J.zX$Xd z , 2XZXaXfX^ r iX<.t.e.o.>.<.4.i.7.7.A.B.E.A.S.S.S.F.F.R.R.Y.E.I.z.s.w.9.^ ;.;.4.a.B.I.R.F.F.F.R.R.A.I.a.i.,.y.",
"F.F.D.I.s.a.6.4.6.6.f.g.aXkXr h +.w O eXGX@X: n.1X| <.( D 0.e.w.6.m.A.A.Y.U.A.F.R.S.R.S.R.R.Y.I.7.5.i.w.;.;.;.;.7.B.Y.R.F.F.F.R.D.D.R.Y.s.i.4.i.",
"R.U.A.A.s.7.7.7.4.6.E.:XC.& O 1 C O.%.* . B {.c.4.>.;.G H D ;.4.s.P.R.F.F.F.R.R.R.U.A.G.Y.R.A.Z.7.7.i.w.;.;.;.y.7.P.F.F.F.R.R.F.R.P.P.A.7.j.7.p.",
"S.P.A.z.m.7.m.B.a.x.5.A.rX& *.O.< 4 B O.9 9X(.b.z.4.:.^ G G ;.,.7.P.(.R.F.F.R.R.P.R.F.F.D.P.P.7.7.4.w.;.^ ;.9.w.s.Y.F.F.F.R.D.D.A.I.I.s.A.m.h.s.",
"7.A.7.h.7.I.P.A.N.x.W.8.> %.&.$.h . z M k c vXL.U.z.4.w.9.G 9.w.7.S.R.).F.F.R.R.U.F.F.A.A.A.7.a.4.>.^ D D D ;.w.s.P.R.D.F.A.A.A.m.B.s.I.A.A.A.I.",
"s.s.p.7.I.P.F.F.Y./.G.2X* XX$.h * O x P 0 d |.|./.S.h.i.q.;.9.w.7.A.R.R.F.F.R.Y.A.F.P.A.I.p.i.4.w.;.D G G D 9.0.7.P.R.R.R.D.Y.A.7.a.7.z.I.A.A.S.",
"s.s.5.7.A.P.R.F.U.I.Y.:X# [ dXS   3 1 i r b fX}.).H.A.s.2.9.q.q.7.m.Y.D.F.D.R.R.F.R.R.P.7.a.y.w.9. .D  .9.;.:.d.7.U.R.F.F.R.F.P.7.6.a.s.I.F.F.R.",
"s.7.7.7.I.R.R.F.F.N.b.5.* Q 0.5X$ 3 k b % 6 uX{.~.~.R.7.i.w.w.w.i.a.s.I.Y.R.R.R.R.R.U.P.s.i.w.9. . .}  .;.2.4.s.A.R.R.R.).K.H.U.B.4.a.s.I.R.F.F.",
"s.7.4.7.I.P.U.R.W.A.8.u.= i ! t O j k l + 7XpX^.~.F.F.Y.s.i.y.2.w.,.4.6.I.R.R.R.F.R.Y.I.6.w.9. .G  . .;.w.p.B.A.A.P.R.H.L.L.K./.I.5.p.s.I.D.D.R.",
"I.7.7.7.I.P.Y.A.m.iXxX9 hXAXp $ 3 M M 3 s Q.H.S.R.R.F.A.B.a.2.,.0.:.>.2.7.F.R.F.F.R.P.7.4.:.D G F  .9.>.i.I.A.A.A.U.R.H.[.|.|.[.I.7.7.p.I.Y.A.P.",
"I.h.7.7.7.I.P.I.n.8.c.t wXKXrXO 3 @ , O uX6XI.N.A.Y.P.A.m.7.i.y.0.;.^ :.i.I.P.P.R.A.h.4.w.;.G G D ;.,.4.s.I.U.F.F.F.F.H.|. X|.L.U.h.5.5.7.I.P.A.",
"A.h.7.7.s.p.a.i.d.tXaX2 UXVXh i ; o . C `.I.I.k.A.A.B.B.7.6.i.w.;.G ^ 9.w.p.s.p.I.s.p.i.9.( ^ 9.9.w.4.7.I.Y.R.F.P.R.F.H.K._.L.K.U.I.7.7.7.a.p.4.",
"S.A.c.s.i.,.>.:./ q.>.7 mX0XX ~ Y m # lXG.J.!.Y.7.7.7.7.7.s.i.w.;.D G ( 9.,.y.,.y.w.w.w.;.^ ^ 0.r.p.h.I.Y.R.R.F.I.Y.F.F.~.H.H.H.F.P.I.p.i.y.w.:.",
"Z.S.U.z.i.>.;.G iXH X.1 NXsX  2 Y U . iX/.}.I.f.7.7.a.6.6.s.i.i.;.;.G G 9.9.;.9. .;.} D D G 9.w.5.z.A.S.F.Y.R.F.A.Y.R.S.F.R.R.R.F.D.I.s.2.;.;.( ",
"G.F.U.z.i.;.;.( | _ cX- ,XOX5 e.= ' - tX_.J.A.S.B.s.p.a.a.7.4.4.,.0.9.^ ;.:.;.9.;.;.;.9.D D 9.y.h.I.F.F.R.Y.R.F.R.R.R.F.S.R.R.S.G.U.Y.p.y.:.;. .",
"~.W.U.A.6.,.>.w.:.X.2.1 m *X- bXGXGXlXr tX7XN.M.p.a.i.6.7.7.s.p.6.4.,.>.>.,.,.,.,.>.>.0.^ ;.0.y.h.U.).F.F.F.R.F.H.).K.R.R.R.P.P.F.F.Y.I.6.2.:.q.",
"R.R.A.A.A.p.p.i.g.&XlXv 9X[ 0 N GXHXHXlX- BX2XW.4.a.a.7.7.A.P.E.A.7.7.p.7.6.7.7.7.7.p.r.;.^ 9.w.z.P.R.F.F.F.F.F.L._._._.J.F.A.Y.R.R.F.A.A.p.6.a.",
"U.Y.D.R.P.P.I.I.z.zX# bXPXNXJ , NXPXJXJX7 qXuXZ.6.s.a.p.m.A.P.Y.G.A.P.E.I.A.I.P.F.A.I.i.:.;.9.w.7.I.R.F.F.F.~.~.L.|. X_.H.F.A.F.P.S.U.S.A.P.I.E.",
"A.P.I.A.S.R.F.S.iXxX#XB PXLXJ 4 0XSXLXKXDX5 #XV.p.7.7.s.A.R.R.S.U.S.F.R.S.F.R.F.F.R.U.7.,.<.0.q.p.B.Y.Y.A.A.F.H.|.|. XL.H.F.S.A.D.D.D.D.D.A.R.R.",
"I.P.A.A.U.U.R.R./.G.^.#Xs ; g -X,XCXPXKXJXOXd 7.7.7.7.Z.P.R.R.S.U.R.S.R.R.S.R.R.F.R.U.z.4.,.w.w.4.a.7.B.A.S.F.H._._._.L.K.F.D.Y.I.A.A.P.F.R.R.R.",
"s.z.h.A.U.R.R.R.G.'.j.zX&X! 6 JXB >XLXLXHX,Xn p.s.I.P.Y.F.R.S.R.S.R.R.R.R.R.R.R.F.R.R.I.s.i.y.r.,.,.2.7.B.S.R.H.K.H.H.H.H.F.A.P.7.7.7.m.A.S.S.S.",
"s.s.7.7.A.R.R.R.(.G.6XQ.xXOXl LXk k KXKXHX,Xc c.7.P.U.R.Y.S.A.R.F.S.R.F.F.S.R.F.F.U.U.I.s.4.i.,.w.>.:.4.p.P.F.S.R.F.F.F.F.S.A.A.s.s.7.j.P.R.R.R.",
"p.s.s.7.I.P.S.S./.G.W.Z.rXs PXIXB X mXSXHX,Xc c.7.I.P.R.Y.S.A.U.P.S.R.U.S.S.R.R.F.F.D.P.7.7.4.,.;.( ;.>.a.P.R.S.R.R.D.D.R.D.P.A.s.p.7.7.I.R.R.R.",
"m.7.7.I.A.I.R.A.x.N.M.5X+ bXHXJ 6 mXPXLXHX-Xn g.7.I.U.Y.F.R.R.R.A.S.R.A.S.D.A.F.R.R.F.P.I.s.4.4.;.^ ( w.7.A.F.U.R.D.D.D.Y.P.S.A.s.7.7.7.h.A.A.S.",
"m.A.M.A.A.U.P.A.S.7.1.+XS PXwXA J UXSX-XwX) r d.7.7.I.P.P.R.U.R.R.S.R.F.U.S.S.U.R.R.R.P.A.s.i.i.;.} 9.0.s.D.R.R.A.A.A.A.I.P.A.A.P.I.A.A.U.R.U.A.",
"D.D.A.A.F.Y.U.A.6.f.sX= mXHX>X, LXHX=X. 8 V iXd.4.5.7.7.Z.R.P.G.S.R.U.D.F.Y.R.R.F.D.D.Y.s.7.i.r.<.9.e.w.p.A.R.R.R.F.D.Y.Y.P.U.U.Y.P.P.P.R.P.S.A.",
"D.D.R.F.F.R.D.I.m.s.V J PXjXk OXSXHX  5 @ d 1X3.i.i.p.7.A.I.Y.I.A.A.D.F.F.U.A.S.Y.D.A.I.7.p.i.w.9.9.;.,.7.A.A.R.Y.S.F.S.S.R.~.R.R.S.S.S.F.R.D.A.",
"D.D.U.R.R.F.A.h.8.v.x =XJXwX, KXKXKXGX$   b 8X8.i.r.1.4.7.I.I.R.F.R.R.R.R.F.R.F.A.Y.m.7.s.i.>.9.G D ;.,.7.P.R.R.R.R.F.F.J.).~.~.~.F.F.U.F.R.R.A.",
").R.R.Y.F.R.R.7Xm.u.C ) SXwXO LXLXKXKXLX..s 7X8.d.;.<.>.4.7.A.D.F.R.R.F.F.R.S.A.A.m.m.7.i.,.;.^ G G ( ,.a.Y.R.R.R.R.F.J.K.|.|._.H.R.G.D.F.R.P.A.",
"K.F.D.A.D.Y.7X7X7.f.pX1 H UXN eXJXFXJXjX2 9XS.c.w.;.} w.d.4.7.A.P.A.R.D.F.F.U.A.m.7.4.i.,.9.9.G G G ;.w.p.Y.R.R.A.R.F.H._.|.|.[.~.F.A.D.Y.R.P.A.",
"F.F.D.Y.Y.P.U.v.E.sXb e r >XJ   CXmXbXB m W.M.z.i.>.;.0.d.i.4.7.A.I.A.F.D.R.P.A.m.6.,.,.;.^ G G D ^ :.i.7.Y.S.R.Y.S.H.H._.|.|.[.~.R.F.F.Y.Y.P.I.",
"F.F.U.Y.A.A.s.c.u.5Xa P *X  O i C b # Z uXY.Y.8.5.4.>.w.w.,.r.s.7.h.P.P.P.P.I.s.a.i.,.;.D D D 9.;.:.d.s.P.D.R.R.F.R.F.H.L.|._.L.~.R.F.P.I.I.s.B.",
"F.R.R.A.7.7.s.s.t.C 2 W = o n ~ % n 5X9XF.S.(.D.I.h.5.i.,.>.,.r.7.s.I.7.A.I.z.s.i.,.9.9.G D } 9.4.4.z.P.A.F.F.R.U.R.R.H.~.~.~.~.F.F.D.A.7.7.6.p.",
"F.R.Q.S.A.7.6.3.[ < 4 % ) * = +   , iXaX).G.F.Q.U.W.E.7.,.>.:.w.4.p.7.7.7.s.p.i.>.;.^ (  .D 9.w.7.z.P.R.F.G.F.R.U.R.R.U.J.~.U.S.S.R.Y.B.m.6.6.4.",
"R.R.D.A.7.7.p.i.@XO @ 6 ;   8 5 7 7 . tXS.U.Y.D.D.D.A.6.w.G D ;.w.4.4.a.p.a.4.,.}  . .D D ;.>.i.A.Y.U.U.S.U.A.P.I.P.Y.I.I.Y.Y.S.R.U.U.A.m.4.a.g.",
"R.R.D.D.P.I.s.p.v.` + @ 7 a +X. * 8 N $ 3X^.j.W.m.m.m.4.0.9.(  .>.>.,.i.y.2.,.;.} D  . .9.,.i.s.A.R.Q.Y.I.7.s.p.a.p.7.7.7.I.I.G.U.F.F.R.A.m.s.s.",
"F.F.F.F.F.P.I.7.8.i.#X= O $ 5 tXt 2 O O + 7X'.P.B.4.,.:.9.G G G 9.9.9.;.;.;.;.;. .D D 9.r.d.I.I.A.R.R.P.p.2.w.9.:.,.y.4.p.s.7.Z.S.U.R.F.F.D.A.B.",
"F.F.F.R.R.F.G.A.M.l.w._ n B W 2XxXOXc C +XV.S.n.u.>.;.D  .G G G 9.( 9.G ;. .G G G } } ,.s.I.U.F.F.F.U.s.4.;. .G G } ;.w.i.a.s.s.S.F.R.S.F.R.A.Z.",
"P.P.P.Y.U.Y.P.A.E.6.Q.r.9X2X9Xl.6XR.H.zXx./.S.1.w.9.D D 9.9.9.;.9.0.;.;.;.;.9.9.;.} :.i.I.R.F.F.F.D.I.6.y.>. .9. .;.9.w.w.y.i.7.h.I.U.U.A.Y.A.j.",
"s.a.7.p.s.7.s.7.3.s.7.E.6.8.W.s.V.=.M.p.S.m.3.f.9.9.D  .>.,.y.y.r.,.>.>.>.,.,.,.2.,.4.m.P.F.F.S.D.A.B.7.4.,.>.w.w.,.,.>.w.q.y.i.p.s.s.s.s.s.s.7.",
">.2.2.w.>.,.4.i.B.7.A.S.k.A.U.n.l.c.C.d.1.4.X.;.;.G G 9.i.6.7.B.7.6.4.7.a.7.7.p.p.p.7.A.Y.S.R.F.m.m.7.7.p.6.7.p.s.7.6.4.>.q.;.:.w.r.r.r.i.,.i.i.",
"w.q.q.;.;.;.w.w.v.A.'.M.Y.E.I.A.G.3.2.8.;X;./ ( D G 9.0.4.m.A.U.P.I.A.P.P.P.P.R.P.P.P.R.R.A.D.R.7.6.6.s.B.I.I.A.U.A.B.s.y.:.} } ;.;.;.;.;.;.:.w.",
"..D  .D D ;.;.i.7.I.R.R.R.F.F.Y.I.s.5.4.0.9.G G ( 9.:.4.A.I.G.F.F.F.K.F.F.F.R.F.F.F.R.Y.A.Y.A.7.s.s.6.m.A.D.F.F.R.F.R.m.i.q.;.G D D G G G G 0.w.",
"G F  .}  .9.:.i.7.I.R.R.D.F.F.F.I.7.5.4.w.( G G 9.0.r.7.I.Y.F.K.`.).K.K.F.F.F.F.F.F.Y.Y.I.m.p.p.s.s.7.I.A.D.R.F.R.F.F.A.6.i.w.9.9.D G D G 9.>.,.",
"F G  .9.0.w.2.s.I.P.Y.R.F.D.F.R.A.A.m.4.w.;.^ 9.w.i.7.z.Y.Y.F.K.|.|.L._.K.F.F.F.R.R.P.B.4.4.i.i.6.s.I.P.Y.F.R.F.R.R.R.P.I.s.i.y.9.} D ( ;.w.4.7.",
"F F  .q.y.i.6.B.P.Y.R.G.F.F.R.R.F.R.I.p.w.;.9.:.a.B.I.A.A.F.R.).[. X XL.~.R.R.R.R.U.U.s.4.;.w.0.7.I.P.U.S.D.R.R.R.R.R.R.R.P.I.a.w.;.9.9.w.i.p.I.",
"F D 9.w.i.a.p.I.P.R.R.F.F.U.U.S.D.D.B.a.q.9.0.,.7.R.H.'.F.F.H.`.|.[. X_.).R.R.R.R.R.I.a.,.;.9.q.7.P.R.R.F.S.F.R.F.F.F.F.F.F.A.7.w.0.^ 9.i.4.7.7.",
"F F q.,.d.s.6.I.F.F.F.F.F.S.S.S.A.m.a.w.9.^ :.r.S.).).K.F.F.Y.~._.[.[.L.).R.F.F.U.F.A.7.w.9.9.w.7.U.Q.F.S.F.R.R.F.F.R.F.H.F.F.7.,.:.( 0.,.7.7.7.",
"F F q.,.i.s.7.A.R.R.F.F.H.F.S.h.m.4.,.9. .D :.p.~.|.|._.K.F.D.F.`.K.L.K.R.R.F.F.R.F.A.6.w. .9.,.7.P.R.H.F.F.R.U.F.F.R.R.K.H.R.z.,.>.9.0.4.7.M.I.",
"F F ;.,.i.s.7.A.F.F.F.~.~.R.U.U.7.,.>.9.G D ,.z.J.^..X|._.).F.R.R.F.H.F.~.R.S.F.~.F.F.7.w.} ;.>.7.A.R.H.H.R.R.P.F.R.W.~.H.H.A.s.r.w.( 9.,.6.h.z."
};
