/* XPM */
static char *_58ed4f4427c4fd29b807462202b5c41fQ2twOFvuu5XTqJo[] = {
/* columns rows colors chars-per-pixel */
"72 72 234 2 ",
"   c #010202",
".  c #0C0104",
"X  c #0B040A",
"o  c #030B0A",
"O  c #160106",
"+  c #1B020C",
"@  c #04100E",
"#  c #0A0117",
"$  c #170916",
"%  c #041714",
"&  c #161419",
"*  c #28070B",
"=  c #380004",
"-  c #230313",
";  c #280616",
":  c #3A0418",
">  c #24131C",
",  c #29111C",
"<  c #381119",
"1  c #28251D",
"2  c #3D2F14",
"3  c #111730",
"4  c #231B23",
"5  c #2B1925",
"6  c #341325",
"7  c #200E3E",
"8  c #06212B",
"9  c #172726",
"0  c #2A2729",
"q  c #362529",
"w  c #35342A",
"e  c #372834",
"r  c #393737",
"t  c #46051B",
"y  c #560415",
"u  c #41121D",
"i  c #630019",
"p  c #783E19",
"a  c #4A0C28",
"s  c #560625",
"d  c #45192D",
"f  c #531926",
"g  c #5B1432",
"h  c #6C0725",
"j  c #641B3B",
"k  c #751836",
"l  c #43242B",
"z  c #4B2737",
"x  c #4D3136",
"c  c #51373E",
"v  c #682537",
"b  c #73243A",
"n  c #3B4218",
"m  c #695C1D",
"M  c #300C4A",
"N  c #15304C",
"B  c #37314E",
"V  c #270262",
"C  c #1A2E6C",
"Z  c #2F346F",
"A  c #4B2944",
"S  c #4A3A45",
"D  c #50374E",
"F  c #4A245B",
"G  c #78294B",
"H  c #63374B",
"J  c #6A334B",
"K  c #1B4A68",
"L  c #304774",
"P  c #504950",
"I  c #5B4E58",
"U  c #57555A",
"Y  c #684656",
"T  c #78425B",
"R  c #6F5250",
"E  c #655B62",
"W  c #685865",
"Q  c #7D5368",
"!  c #5D6768",
"~  c #747569",
"^  c #797A6C",
"/  c #6E6E70",
"(  c #746974",
")  c #777970",
"_  c #7D7D70",
"`  c #79777E",
"'  c #950A31",
"]  c #9A193B",
"[  c #B70D3A",
"{  c #957F0F",
"}  c #961647",
"|  c #AA1C47",
" . c #90334E",
".. c #AC2C54",
"X. c #853969",
"o. c #A73462",
"O. c #CC1B4F",
"+. c #834D59",
"@. c #8D4866",
"#. c #89566B",
"$. c #93566D",
"%. c #895973",
"&. c #985A76",
"*. c #B05677",
"=. c #8B6778",
"-. c #9B6B7F",
";. c #847276",
":. c #807F70",
">. c #987173",
",. c #AD7775",
"<. c #D65375",
"1. c #7F8070",
"2. c #B1A900",
"3. c #93902B",
"4. c #DCA320",
"5. c #FFC901",
"6. c #96906C",
"7. c #838370",
"8. c #898770",
"9. c #878870",
"0. c #8C8C70",
"q. c #908F70",
"w. c #8F9070",
"e. c #949470",
"r. c #9A9670",
"t. c #979970",
"y. c #9B9B70",
"u. c #A19E70",
"i. c #A5967D",
"p. c #9FA070",
"a. c #A4A470",
"s. c #AAA570",
"d. c #A7A870",
"f. c #AAAA70",
"g. c #B1A770",
"h. c #B3AE70",
"j. c #B9AF70",
"k. c #B5A57D",
"l. c #B6B170",
"z. c #BDB370",
"x. c #C3B570",
"c. c #C5B870",
"v. c #E2CB6B",
"b. c #285187",
"n. c #767A83",
"m. c #B436B6",
"M. c #C33BBC",
"N. c #B95C8E",
"B. c #9A6981",
"V. c #986E8D",
"C. c #867C83",
"Z. c #A86D89",
"A. c #BC6C8A",
"S. c #A6788A",
"D. c #B67994",
"F. c #AE78A9",
"G. c #C45C86",
"H. c #C06C90",
"J. c #C77598",
"K. c #C34BB0",
"L. c #D664B7",
"P. c #DE76B5",
"I. c #CC35C8",
"U. c #D630D2",
"Y. c #E238E3",
"T. c #D14DC8",
"R. c #E869CB",
"E. c #DE47E4",
"W. c #F569EC",
"Q. c #7F8A90",
"!. c #8C898C",
"~. c #918D97",
"^. c #A38A88",
"/. c #A99984",
"(. c #B3978A",
"). c #A58896",
"_. c #B98A99",
"`. c #AD9599",
"'. c #BD9897",
"]. c #9AA09C",
"[. c #BAA687",
"{. c #B2A89F",
"}. c #B688A1",
"|. c #AE98A9",
" X c #92AAAA",
".X c #A8ACB4",
"XX c #B1AFB7",
"oX c #C89898",
"OX c #D09292",
"+X c #C7A992",
"@X c #C788A6",
"#X c #D686A6",
"$X c #CE99A9",
"%X c #D497AC",
"&X c #C99BB4",
"*X c #D798B6",
"=X c #E697A7",
"-X c #C8A5A5",
";X c #D4AAA7",
":X c #D6A7B8",
">X c #D0B2B5",
",X c #E2AAB8",
"<X c #E4BCB4",
"1X c #DBC4BC",
"2X c #BAB7C3",
"3X c #D89EDB",
"4X c #FF89DE",
"5X c #CFB8C4",
"6X c #F2AECB",
"7X c #F7B7D4",
"8X c #FFB6DA",
"9X c #FDBDDC",
"0X c #DAA6EE",
"qX c #FAAAEC",
"wX c #CCC5C5",
"eX c #C7D4D5",
"rX c #D5D2D5",
"tX c #E1CDD4",
"yX c #FACFD6",
"uX c #DEEBD9",
"iX c #DEDDE2",
"pX c #FEC7E4",
"aX c #E6DBE4",
"sX c #FDD9E9",
"dX c #E5E5E9",
"fX c #FDE9E6",
"gX c #EAF5EF",
"hX c #FBF3E7",
"jX c #ECF8F8",
"kX c #FCF8F3",
"lX c #F4F5FA",
"zX c #FDF6FC",
"xX c #F5FDFE",
"cX c #FCFDFF",
/* pixels */
"_ _ _ _ _ _ 7.q.y.d.f.l.f.f.f.d.u.y.t.0.7.7._ _ _ 7.0.e.p.d.f.h.h.h.f.h.f.f.f.f.f.f.f.s.d.a.a.y.y.y.y.y.a.s.f.h.h.f.d.p.e.9.7.1._ _ _ _ ) _ 7.0.",
"_ _ _ _ _ 7.0.e.y.d.f.f.f.f.d.d.d.p.y.e.7._ _ 1.7.9.w.y.a.d.f.h.l.l.l.l.h.f.f.f.f.f.f.d.a.y.y.y.y.y.y.a.d.s.f.f.f.f.d.p.t.w.9.7.7.^ _ _ _ 7.0.e.",
"7.7._ :.7.0.e.y.a.a.f.f.f.d.f.d.s.f.a.t.0.7.7.7.w.e.y.p.a.d.f.l.l.z.x.z.l.f.f.f.f.f.d.p.e.e.e.e.y.y.a.d.d.d.d.f.f.f.f.d.a.y.t.e.9.7.^ 7.7.0.e.e.",
"7.7.7.7.9.e.y.y.a.d.s.f.f.f.f.f.f.a.a.y.0.7.1.9.e.p.d.d.d.f.f.l.z.c.x.z.l.f.d.f.f.f.a.y.0.9.7.0.y.a.d.s.f.d.f.f.f.f.f.f.d.d.a.e.9.7.7.7.0.e.y.y.",
"9.7.7.7.0.e.y.y.a.d.f.d.s.f.d.d.s.f.a.e.8.:.:.q.y.f.f.h.f.f.f.l.x.x.x.z.h.f.f.d.f.f.a.y.9.7.7.0.y.a.f.f.f.f.d.f.f.f.f.f.f.f.d.y.0.7.7.7.0.e.u.y.",
"9.9.7.7.q.e.y.a.a.d.f.f.d.f.d.d.a.y.e.e.7.:.8.e.s.h.z.l.f.f.f.f.j.z.x.z.h.f.f.d.f.f.a.e.9._ :.9.y.a.f.f.f.f.f.d.d.f.f.f.f.f.f.y.q.7.7.7.w.e.y.a.",
"0.7.7.7.0.e.y.y.a.d.f.f.f.f.d.u.y.e.0.7.^ _ :.r.g.x.x.z.l.f.f.f.g.h.j.g.f.f.d.d.f.f.a.y.0.7.7.7.e.a.f.f.f.f.d.d.d.f.f.f.f.f.s.y.0.7.7.7.0.e.y.y.",
"9.8.7.7.0.e.y.a.a.d.f.f.f.s.d.y.e.8.7._ ) _ 8.r.g.x.x.x.l.f.f.f.f.f.f.f.f.f.d.f.f.s.a.y.9.7.7.9.y.d.f.f.f.f.d.s.f.d.f.f.f.f.d.y.0.7.7.7.w.e.y.y.",
"8.7.7.7.q.e.y.a.a.d.f.f.f.f.d.p.0.7._ ) ) 7.0.u.g.x.x.x.h.s.f.a.d.d.d.d.d.f.f.f.f.d.d.y.0.9.7.e.y.d.f.f.f.d.d.d.d.d.f.f.f.d.a.y.0.7.7.7.q.e.y.y.",
"7.7.7.8.e.y.y.a.d.s.f.h.h.f.d.t.0.^ _ _ 7.9.r.u.g.j.j.l.s.a.a.a.d.d.d.d.f.d.d.f.f.f.d.y.e.9.0.e.p.f.f.f.f.f.f.f.d.f.s.d.d.a.u.e.9.7.7.8.e.y.u.a.",
"7.7.7.0.t.p.d.d.f.f.f.f.h.f.d.t.0.1.^ 7.e.y.y.u.s.u.s.u.u.y.y.p.a.d.f.f.f.d.d.f.f.f.d.u.y.e.e.y.a.d.f.f.f.f.s.d.s.f.f.d.d.a.y.e.9.7.7.0.r.p.d.d.",
"7.7.7.0.y.a.d.f.s.f.f.f.f.f.a.y.0.7.7.8.e.a.d.d.u.u.y.y.r.y.y.a.a.d.f.f.f.f.d.s.f.s.a.a.y.y.e.y.a.d.d.f.s.f.d.f.f.f.d.d.a.y.e.w.7.7.7.0.y.a.d.f.",
"7.7.7.0.y.a.d.s.d.d.a.d.d.d.p.t.0.9.9.q.y.a.d.d.u.y.y.e.e.y.y.y.p.a.f.d.d.d.d.d.d.d.a.y.y.r.e.y.y.a.a.d.d.s.d.d.s.d.d.a.y.e.e.9.7._ 7.0.y.a.d.f.",
"^ 7.7.0.y.a.d.a.y.y.r.y.y.t.t.t.e.0.w.e.y.a.d.a.u.y.y.y.y.y.y.y.y.y.y.y.a.u.a.a.a.a.a.y.e.e.e.e.e.y.y.u.d.f.f.f.d.d.a.y.e.e.9.7._ _ 7.0.r.a.d.d.",
"_ _ 1.9.r.y.a.y.e.0.9.9.9.9.0.w.e.t.y.y.y.a.a.y.p.p.a.a.a.a.y.y.e.e.w.e.e.y.y.a.y.y.y.e.0.9.9.7.9.9.e.r.a.f.f.d.d.a.y.e.0.8.7._ _ ) 7.9.e.y.p.u.",
"_ ^ 7.9.e.e.y.e.q.7.7.7.7.7.9.e.y.p.a.a.y.y.y.y.a.a.f.a.f.s.a.y.w.9.7.9.e.e.y.y.y.y.t.e.0.7.7.^ ^ 7.9.e.y.d.s.d.a.y.r.e.0.7.1._ _ _ 7.9.e.y.e.r.",
"7.7.8.0.e.e.e.e.0.7.7.7.1.7.7.e.a.s.f.s.u.y.y.y.a.d.d.f.f.f.a.y.9.7._ 7.0.e.e.y.y.y.e.e.0.9.7._ _ 7.7.e.y.a.a.a.y.e.e.0.9.7.7.7.7.7.8.9.e.e.e.e.",
"0.0.0.0.0.0.0.0.0.9.0.0.9.9.e.y.f.h.h.s.a.r.e.y.a.f.f.f.f.s.a.e.9._ _ :.0.e.e.y.y.y.y.e.e.0.0.9.7.7.9.0.e.y.y.r.e.w.0.0.0.q.0.q.0.q.e.0.q.0.q.0.",
"a.y.y.e.0.9.9.0.e.y.y.y.y.t.y.a.l.x.z.j.a.y.y.y.a.d.f.f.f.f.y.9X^.7._ :.9.e.y.y.a.a.u.a.a.y.y.e.e.e.e.0.q.q.0.9.7.7.7.0.e.y.y.p.y.y.y.e.0.9.9.0.",
"d.d.u.y.0.7.7.0.t.p.a.d.a.a.d.l.x.x.x.j.s.y.t.y.a.d.f.s.a.i.j G s @X7.7.0.e.y.y.a.a.d.d.d.d.a.p.y.e.e.e.0.7.7.7._ 7.7.w.y.u.d.f.d.d.p.y.0.7.9.9.",
"f.f.d.y.e.7.7.0.y.a.d.f.f.f.f.h.x.x.x.z.s.y.y.y.y.a.a.T d % * * a ; 9 8.e.r.y.u.a.d.f.f.f.f.f.d.y.y.y.0.9.7._ _ ^ 7.7.e.y.d.s.f.f.f.d.y.0.8.9.9.",
"l.f.d.a.e.9.9.0.y.a.a.d.f.f.h.l.z.z.z.h.s.u.y.e.y.#X(.@Xt ' ] u ; | h < /.y.u.a.d.s.f.f.h.f.f.d.a.y.e.0.7._ _ :.7.0.q.t.a.d.f.f.l.f.f.p.e.9.0.9.",
"f.f.d.y.r.e.q.e.e.y.y.f.,Xf.f.l.l.h.h.g.d.a.y.y.e.J.h t < ] ] | k i O.j ; a.a.f.d.s.f.f.f.f.d.d.a.y.y.e.7.7._ 7.e.t.y.a.d.f.f.h.f.f.d.a.r.e.0.w.",
"f.f.d.a.y.e.e.e.e.y.y.#XJ #Xf.f.f.f.f.f.f.d.a.y.e.7.v b ] b h i ..] ' | h d [.d.d.d.f.f.f.s.d.d.y.y.e.0.7.7.7.9.y.p.d.d.d.f.f.f.f.d.d.a.y.e.e.e.",
"f.d.d.u.y.y.y.y.e.y.8XT z B._.a.f.d.d.f.f.f.f.p.6.9.^.u ] y k l i [ y ] ] u +.+Xd.s.d.d.f.d.d.u.y.y.e.0.7.7.7.w.y.d.f.f.f.f.f.f.s.d.a.a.y.y.y.y.",
"d.a.a.p.a.y.a.y.y.y.#X%X1.o 0 y.a.a.f.f.h.h.h.d.p.6. .; > } | '  .OXOX,...i $.;Xf.d.f.d.d.a.a.y.y.e.0.7.1.^ 7.0.y.d.f.f.f.f.d.s.a.a.a.u.y.a.y.y.",
"y.a.y.y.u.a.d.d.s.a.a.@X  Q.x : y.f.f.h.z.x.z.j.f.p.oXa > k h <.=X;XyXhXoX= #.yXs.d.f.s.a.a.y.y.e.9.7._ _ _ 7.0.y.d.s.f.f.d.a.a.a.y.y.a.a.a.a.d.",
"y.y.y.y.a.a.d.f.f.s.D.c >XrX^.G a }.J.J.P.x.x.x.h.f.p.}.$ O @.>.>.,.+XhX1.. $.f.f.s.d.a.u.y.e.e.0.7._ _ _ _ 7.0.y.a.,Xs.6Xd.a.a.y.y.y.y.a.a.d.s.",
"y.y.y.y.a.d.f.f.f.f.a.D.- ` S #.X.s w w e Q x.6Xl.f.;Xx - w m yX>.f R (.. . Z.[.f.f.f.a.y.r.e.0.7.7._ _ ^ 7.9.q.y.d.f.d.%Xf.f.a.r.y.y.y.d.f.f.f.",
"y.y.t.y.a.d.f.f.f.a.a.r.7Xd <XD.@.N.fXsXzXC.Q +.@X+Xf.qXR Q.=.yXuXv.R 1X< Y yXd.f.f.f.a.y.e.0.7.7.^ _ 7.S.L.$XP.P.R.L.l.<X:XsXpX-XpXe.y.a.f.f.f.",
"u.r.r.y.a.d.f.f.f.a.y.'.:Xx , P + X  .oX;XhXE c l I v R 0Xx 2 yX6.1XkX{.R A.a.h.%Xs.a.a.e.0.7.:._ _ @XL.K.m.T.M.I.I.m.3XkXdX> wXzXsXt.y.a.s.f.f.",
"u.u.y.t.a.d.s.d.a.y.6.0.7.A.$.6X&.}.J O O 1 hXj.*.k #.w z J # R <XhX-X;.+ 9Xf.oXf.f.f.y.e.8._ _ ` _ 7.R.T.W.T.I.U.Y.T.F.gX1 @   eXaX5Xt.a.d.d.a.",
"a.a.y.y.y.a.a.a.y.y.e.0.7.7.9.e.8Xf.*X}.).>.u G o...V.4.p V { m U hX|.x *Xs.a.s.s.s.y.e.9.7._ _ _ 7.9.e.a.d.d.L.T.E.m.V.kX.X  ! lXtX:Xy.y.a.a.a.",
"a.y.y.y.y.r.y.e.e.q.0.^.0.0.e.y.oXh.j.h.f.pXD.: a #.4.5.2.7 U C 3.n $ :.r.6.y.y.k.y.y.e.7.7._ 7.7.0.e.y.'.R.N.P.4XL.K.F.~._.=.`.).S.y.y.y.y.r.y.",
"s.s.u.y.e.0.7.9.7.7.9.0.e.y.a.s.l.x.x.z.h.f.d.a.&.+.5.4.2.F K b.Y Z ; A.7.7.0.%X0.0.0.7.7._ 7.9.0.y.y.a.a.qXf.f.u.f.s.qX&Xh.l.l.f.d.p.y.e.q.9.8.",
"d.s.a.u.e.9.7._ 1.^ 7.0.e.p.f.l.x.x.x.x.h.f.a.a.i.* 3.p N C L L A T G a 7.7.7.7.7.7.7.:._ _ 7.0.y.u.f.f.f.f.d.f.OXs.f.f.f.g.s.d.f.d.a.y.0.7.7._ ",
"f.f.d.u.e.7.7.7._ 7.9.e.y.a.f.l.z.x.c.x.l.f.s.p.(.#X1 % 3 K b.K M } j + 7X7.7.7.7.7.7.7._ 7.7.0.y.a.f.f.f.f.f.f.f.f.g.d.f.d.d.d.f.f.d.y.e.9.7.7.",
"f.f.d.p.y.0.9.9.9.0.e.e.a.d.f.z.z.x.z.z.l.f.f.a.6.y.q $ # 7 B Z D a ; S.8.0.0.0.0.9.0.7.7.^ 7.e.p.f.h.f.f.f.f.f.h.h.h.h.f.f.d.d.f.f.d.u.r.0.9.7.",
"f.g.d.a.y.y.y.e.y.y.y.y.d.d.f.h.l.l.l.l.l.f.f.a.y.e.#X- 8 3 3 B 8 3 - y.y.y.y.y.y.y.t.w.7._ 7.0.u.d.f.h.f.d.f.h.z.z.z.j.h.d.d.d.f.f.d.a.a.y.y.t.",
"d.d.d.d.a.a.a.a.a.a.d.d.d.d.f.f.f.f.h.f.f.f.a.a.y.e.+Xd o 8 % # # $ ).a.a.a.a.s.d.a.a.r.9.7.7.0.y.a.f.f.d.f.f.l.z.c.c.z.h.g.d.d.d.s.d.d.d.a.a.a.",
"d.a.d.a.d.f.f.d.f.f.f.f.f.d.d.a.d.a.a.a.a.a.a.p.y.y.y.(.z   4   %.G X s.f.f.f.f.f.f.d.t.0.7.7.0.t.p.d.d.a.d.f.h.x.x.c.z.h.d.d.a.a.d.d.d.d.s.f.f.",
"p.a.a.a.d.g.f.f.f.f.f.f.d.d.a.p.y.y.t.t.t.y.y.y.y.y.y.a.#X+ o.<...F.S D.d.$Xf.f.h.f.d.p.e.0.0.0.e.t.p.p.a.d.f.h.j.z.x.z.h.g.d.a.a.d.a.a.d.f.f.f.",
"p.u.y.p.a.f.f.h.f.f.s.d.a.p.y.e.0.0.0.9.9.0.w.e.y.a.s.f.-XJ y } G.cXXX4 Z.6Xf.oXf.f.d.a.y.e.e.0.0.0.q.t.p.d.f.h.h.l.h.h.f.g.d.a.y.y.y.a.a.s.f.f.",
"y.y.y.y.a.a.f.f.f.f.f.d.u.y.e.e.0.7.7.1.7.7.9.e.y.a.-Xf.s.@X3 aXcXzXzX Xz G.f.f.f.d.d.a.p.e.e.0.9.7.9.w.p.a.f.f.f.f.f.f.f.d.d.p.y.y.y.u.a.d.f.f.",
"y.y.y.u.a.f.f.f.f.s.d.d.y.y.e.e.0.7.7.7.^ _ 7.e.y.a.s.f.*Xz wXcXxXcXcXcX( A s.s.f.f.d.a.y.y.e.w.7.7.7.0.y.p.f.f.g.d.d.d.f.d.d.a.y.y.y.y.a.d.f.f.",
"p.y.y.p.a.a.d.d.d.a.y.y.y.e.e.e.e.0.9.7.7.7.9.0.y.a.f.f.@X> cX! ` zXkXcXn.H pXk.f.f.d.a.a.y.e.0.7.^ 7.9.y.a.f.f.f.a.d.d.d.d.a.a.y.y.y.y.a.d.d.s.",
"p.a.a.a.d.d.d.a.a.y.y.y.y.e.e.e.y.y.y.e.e.0.e.e.y.y.a.s.$ ].cXC.P xXcXxXXXA *Xf.f.f.f.d.a.y.y.e.7.:.7.0.y.a.f.f.d.d.d.a.a.d.a.a.a.a.a.a.a.d.d.a.",
"d.d.a.d.d.d.d.a.y.y.y.e.y.e.y.y.y.a.a.y.y.e.e.e.e.y.y.y.& dXkXcX0 Q.cXcXjXD Q ,Xf.d.d.d.p.y.e.9.7.7.7.0.y.a.f.f.f.f.d.d.d.d.d.d.d.a.d.d.d.s.d.a.",
"d.f.d.f.f.f.d.a.u.y.t.e.y.y.y.u.a.d.s.d.y.y.y.e.e.i.y.B.P xXlXzXP 0 iXcXxXW T f.d.d.a.a.y.y.e.0.7.7.7.0.y.a.d.f.f.d.s.f.f.f.f.f.f.f.s.f.f.d.d.a.",
"f.g.f.d.f.f.d.p.y.t.e.e.y.y.u.p.d.f.f.f.d.a.y.y.e.0.9XO lXjXlXdXr   5XcXxXU #.9Xd.a.a.y.y.e.0.7._ _ 7.0.y.a.f.f.f.d.f.f.g.l.l.h.h.f.f.d.f.d.d.d.",
"h.f.f.d.d.f.d.a.y.t.y.y.u.a.a.a.d.f.f.f.d.d.y.e.0.7.I ( cXzXxXrX0 X 2XcXxX/ Y 6Xa.u.y.y.e.9.7.7._ _ 7.9.y.a.f.f.d.f.f.h.j.x.x.l.h.f.d.d.f.f.d.a.",
"h.f.f.d.d.d.s.p.y.y.e.u.p.a.d.d.f.f.d.f.f.s.a.7X0.@.! zXzXcXcXP ( e XXxXjXrXz Z.s.y.r.e.0.7._ _ _ _ 7.0.y.a.d.f.d.d.f.h.x.x.x.x.h.f.d.d.d.f.a.a.",
"f.f.d.d.d.a.a.p.y.y.t.y.a.d.d.d.f.a.f.f.f.f.d.t.Y W zXxXxXxXn.A 9X4 .XxXcXhXr ;./.e.e.9.7.7._ _ _ 7.7.e.y.d.f.f.f.f.f.h.z.x.x.x.l.f.f.d.d.d.a.a.",
"h.f.d.d.a.a.p.y.y.e.y.u.a.d.f.f.s.f.f.f.f.f.-.. U cXkXcXgXXXe %.9X, 2XzXdXcXR B.y.e.0.7._ _ _ 7.7.9.e.y.a.s.f.f.a.f.h.h.l.x.x.l.h.f.d.d.a.a.y.a.",
"f.f.f.a.p.u.y.y.e.y.y.u.a.d.f.f.f.f.s.s.f.$.S eXxXiX].xXC.A %.t.e.5 2XzXcXrX> -.6X0.7.7._ _ _ 7.e.e.y.a.d.f.f.f.f.f.f.h.h.l.h.h.f.f.d.a.y.y.y.e.",
"f.f.d.a.p.y.t.e.e.e.y.p.a.d.f.f.f.f.a.a.B.W lXxXdXq   r J &.9.9.e.5 ~.iXcX`   &X9.7.7._ _ _ 7.0.r.a.d.f.d.f.f.f.f.f.f.f.f.f.g.f.f.s.d.d.y.y.y.e.",
"f.d.d.a.y.y.y.e.y.e.e.u.p.a.d.d.s.d.s.;X$ XXzXcXC.X =.=.0.7.1.7.8.5 n.iXcXxX0 O :.8.^ :._ :.9.e.y.d.f.f.d.f.a.a.a.a.f.s.a.d.d.d.f.f.d.a.y.y.e.y.",
"g.f.d.d.a.u.u.y.t.y.y.y.p.p.p.s.d.d.=X6X6 ~.dXzXxX9 &.pX8.^ 1.^ 8.6 n..XeXxXxX5 D.:.:.:.7.0.e.y.d.f.f.d.u.y.y.y.r.y.y.y.y.a.a.a.d.s.f.d.d.y.y.y.",
"f.f.f.f.d.a.a.p.y.e.t.e.r.y.p.p.d.d.f.f.{., C.aX!.I 0.7.7._ *X1.7.*X0 ~.gXcXlX6 @X:.^ 9.e.e.u.d.s.f.f.a.r.e.7.9.9.9.q.e.t.y.y.a.d.f.f.f.d.d.a.a.",
"d.f.f.f.f.d.d.p.u.t.e.y.r.y.y.p.d.f.*Xf.t H $ X T '.7.7.7._ &X1._ 7.e ( n.XXB V.9X^ 8.9.r.a.s.f.f.f.d.y.e.7.7.7._ 7.7.0.e.e.y.a.d.s.f.f.f.s.a.a.",
"a.a.a.d.d.a.a.a.u.y.t.y.t.t.y.u.a.a.d.D j ..d =.9.7._ _ 7.7.7.7.7.7.7.+ s . n.7.#X7.7.e.a.f.f.f.f.d.a.y.0.9.7._ _ 7.7.9.0.e.e.y.y.d.d.d.d.d.a.u.",
"t.y.y.y.y.u.y.y.y.y.u.u.u.y.y.y.a.a.a.5 g G.; S.7._ _ _ 9.0.w.w.w.0.8.O N.6 5 0.:X7.e.y.d.f.f.f.f.d.y.y.e.0.9.0.0.0.0.9.0.0.0.e.r.y.y.y.y.y.y.y.",
"w.w.w.0.0.0.w.e.y.p.a.a.a.a.a.p.y.y.J o $ ; o 9 z )._ 7.w.t.y.p.y.y./.  * $ % x I k.y.a.d.f.f.s.a.y.y.y.y.y.y.y.y.y.y.e.0.8.7.9.0.0.q.q.0.0.e.e.",
"9.9.7.7.7.7.9.w.u.a.d.d.d.d.a.a.a.y.$.  0 + r 9 > , J.9.y.p.a.d.a.a.J.o O 6 0 , X H d.d.s.f.d.d.y.y.y.y.u.u.a.a.d.f.p.y.0.7.1.7.7.7.7.7.7.7.9.0.",
"^ _ _ _ _ 7.7.e.y.d.f.f.f.f.d.d.a.y.$.  o     @ 4 . H.e.y.d.f.f.f.h.;X  S Q   @ & $ f.f.d.a.a.y.y.y.y.y.a.d.f.f.f.f.f.p.e.9.7.^ 7._ _ _ _ _ 9.0.",
") _ _ _ _ 7.9.e.y.a.f.f.f.f.f.f.a.y.y.e.7.7.^ :.7.8.0.y.a.f.f.h.l.l.l.+Xl.f.f.f.f.f.f.f.a.y.y.r.y.y.y.a.d.d.f.f.f.f.f.p.t.w.9.7.1._ _ _ _ 7.7.e.",
"~ _ _ 9.9.0.e.y.a.d.f.f.f.f.f.f.s.d.y.y.0.7.:.7.0.e.y.a.a.f.f.l.z.x.x.l.h.f.f.f.f.[.d.t.e.e.e.e.y.y.a.d.d.f.f.f.f.f.f.f.d.y.t.w.9.7._ _ 7.9.e.y.",
"~ ^ 7.9.0.e.r.y.a.d.f.f.f.f.f.f.f.d.a.y.^.7.7.8.oXa.a.a.d.f.f.l.x.x.c.z.h.f.f.f.k.d.f.y.e.9.7.0.t.a.d.s.f.f.f.f.f.d.f.f.f.d.p.t.9.7.7.7.0.e.y.y.",
") ) 7.0.e.t.y.a.d.d.f.f.f.f.f.s.f.d.a.e.9.7.7.q.p.d.f.h.d.f.f.l.z.c.c.x.l.f.f.f.f.f.a.y.9.7.7.9.t.d.f.f.f.f.f.f.f.f.f.f.f.f.s.y.e.7.7.8.w.e.y.a.",
"~ ) 8.0.e.r.r.a.d.d.f.f.f.f.s.s.d.y.r.e.7.7.8.q.s.l.l.l.f.f.f.l.z.z.z.l.l.f.f.f.f.f.a.y.9.1.7.0.p.f.f.f.f.f.f.s.f.f.f.f.l.f.f.y.0.7.7.7.q.r.y.y.",
"~ ^ 8.0.e.y.y.a.d.f.f.f.f.f.s.a.y.e.0.7._ 7.8.r.g.z.c.z.l.f.f.f.l.l.l.l.h.f.f.f.f.f.f.y.0.7.7.9.y.d.f.h.f.f.f.f.f.f.f.f.h.f.f.p.q.7.7.7.e.r.a.a.",
"~ ^ 7.0.e.y.y.a.d.f.h.l.f.l.s.u.y.9.9.:._ _ 7.a.g.x.c.c.z.h.f.f.f.h.f.l.f.f.f.f.h.f.s.y.0.7.7.0.y.d.f.h.f.f.f.f.f.f.f.f.h.h.d.y.q.8.7.8.0.y.y.u."
};
