/* XPM */
static char *_bbf880ad29d4b3a88f6eb61c30fb3d8QUMieW9QUQTwwZIO[] = {
/* columns rows colors chars-per-pixel */
"72 72 232 2 ",
"   c #010202",
".  c #0C0104",
"X  c #0B040A",
"o  c #030A0A",
"O  c #160106",
"+  c #1B020C",
"@  c #04100E",
"#  c #0A0117",
"$  c #170916",
"%  c #041714",
"&  c #161419",
"*  c #28070B",
"=  c #380004",
"-  c #230313",
";  c #280616",
":  c #3A0418",
">  c #24131C",
",  c #29111C",
"<  c #381119",
"1  c #362B17",
"2  c #111730",
"3  c #231B23",
"4  c #2C1925",
"5  c #341325",
"6  c #200E3E",
"7  c #06212B",
"8  c #172726",
"9  c #2A2729",
"0  c #37272A",
"q  c #35342A",
"w  c #372834",
"e  c #393737",
"r  c #46051B",
"t  c #560415",
"y  c #41121D",
"u  c #630019",
"i  c #783E19",
"p  c #4A0C28",
"a  c #560625",
"s  c #45192D",
"d  c #531926",
"f  c #5B1432",
"g  c #6C0725",
"h  c #641B3B",
"j  c #751836",
"k  c #43242B",
"l  c #4B2737",
"z  c #4D3136",
"x  c #51373E",
"c  c #682537",
"v  c #73243A",
"b  c #3B4218",
"n  c #695C1D",
"m  c #300C4A",
"M  c #15304C",
"N  c #37314E",
"B  c #270262",
"V  c #1A2E6C",
"C  c #2F346F",
"Z  c #4B2944",
"A  c #4A3A45",
"S  c #50374E",
"D  c #4A245B",
"F  c #78294B",
"G  c #653249",
"H  c #63374B",
"J  c #73354F",
"K  c #294B57",
"L  c #304774",
"P  c #504950",
"I  c #5B4E58",
"U  c #57555A",
"Y  c #684656",
"T  c #78425B",
"R  c #6F5250",
"E  c #655B62",
"W  c #675964",
"Q  c #7D5368",
"!  c #5D6568",
"~  c #747569",
"^  c #797A6C",
"/  c #6E6E70",
"(  c #746974",
")  c #777970",
"_  c #7D7D70",
"`  c #79777E",
"'  c #950A31",
"]  c #9A193B",
"[  c #B70D3A",
"{  c #957F0F",
"}  c #961647",
"|  c #AA1C47",
" . c #90334E",
".. c #AC2C54",
"X. c #853969",
"o. c #A73462",
"O. c #CC1B4F",
"+. c #834D59",
"@. c #8D4866",
"#. c #89566B",
"$. c #93566D",
"%. c #895973",
"&. c #985A76",
"*. c #B05677",
"=. c #8A6577",
"-. c #9B6B7F",
";. c #847276",
":. c #807F70",
">. c #987173",
",. c #AD7775",
"<. c #D65375",
"1. c #7F8070",
"2. c #A08A1A",
"3. c #B1A900",
"4. c #85953C",
"5. c #DCA320",
"6. c #FFC901",
"7. c #96906C",
"8. c #838370",
"9. c #898770",
"0. c #878870",
"q. c #8C8C70",
"w. c #908F70",
"e. c #8F9070",
"r. c #949470",
"t. c #9A9670",
"y. c #979970",
"u. c #9B9B70",
"i. c #A19E70",
"p. c #A7977C",
"a. c #9FA070",
"s. c #A4A470",
"d. c #AAA570",
"f. c #A7A870",
"g. c #AAAA70",
"h. c #AFA17D",
"j. c #B1A770",
"k. c #B3AE70",
"l. c #B9AF70",
"z. c #B6A57D",
"x. c #B6B170",
"c. c #BDB370",
"v. c #C3B570",
"b. c #C5B870",
"n. c #E2CB6B",
"m. c #285187",
"M. c #767A83",
"N. c #B233B8",
"B. c #AD4F93",
"V. c #9A6981",
"C. c #867C83",
"Z. c #977385",
"A. c #BC6C8A",
"S. c #A67688",
"D. c #B67994",
"F. c #AC54B5",
"G. c #B472AE",
"H. c #C45C86",
"J. c #C06C90",
"K. c #C77598",
"L. c #D167B4",
"P. c #E06BBA",
"I. c #CC34D0",
"U. c #B945C2",
"Y. c #CC59CC",
"T. c #D14BD1",
"R. c #E75CD7",
"E. c #D765CC",
"W. c #7F8A90",
"Q. c #8C818C",
"!. c #80948B",
"~. c #918D97",
"^. c #AD8889",
"/. c #A89884",
"(. c #B19A88",
"). c #A68897",
"_. c #B88897",
"`. c #A9949B",
"'. c #B99997",
"]. c #9AA09C",
"[. c #BAA689",
"{. c #B2A89F",
"}. c #A59BA6",
"|. c #BB91AB",
" X c #97AFAC",
".X c #A8ACB4",
"XX c #B5A8B3",
"oX c #B1B2B9",
"OX c #CE8C96",
"+X c #C79796",
"@X c #C3A48B",
"#X c #CAA399",
"$X c #C689A5",
"%X c #D788A6",
"&X c #CF9CAA",
"*X c #D395AC",
"=X c #C79BB1",
"-X c #D799B6",
";X c #E595A7",
":X c #C9A4A8",
">X c #D1ADA6",
",X c #DAABB4",
"<X c #CDB1B5",
"1X c #E3B4B5",
"2X c #DBC4BC",
"3X c #BAB7C3",
"4X c #CFB5C6",
"5X c #EEADC6",
"6X c #F7B7D4",
"7X c #FFB6DA",
"8X c #FDBDDC",
"9X c #E7ABEE",
"0X c #CEC8C5",
"qX c #C6D6D5",
"wX c #D5D2D5",
"eX c #F5D1D4",
"rX c #DEEBD9",
"tX c #E3FEDD",
"yX c #DEDDE2",
"uX c #FFC5E5",
"iX c #E6DAE3",
"pX c #FBD2EE",
"aX c #E5E5E9",
"sX c #FFEAE6",
"dX c #FBF3E7",
"fX c #F0EAF3",
"gX c #ECF8F8",
"hX c #FDF6F4",
"jX c #F4F5FA",
"kX c #FDF6FC",
"lX c #F5FDFE",
"zX c #FCFDFF",
/* pixels */
"_ _ _ _ _ _ 8.w.u.f.g.x.g.g.g.f.i.u.y.q.8.8._ _ _ 8.q.r.a.f.g.k.k.k.g.k.g.g.g.g.g.g.g.d.f.s.s.u.u.u.u.u.s.d.g.k.k.g.f.a.r.0.8.1._ _ _ _ ) _ 8.q.",
"_ _ _ _ _ 8.q.r.u.f.g.g.g.g.f.f.f.a.u.r.8._ _ 1.8.0.e.u.s.f.g.k.x.x.x.x.k.g.g.g.g.g.g.f.s.u.u.u.u.u.u.s.f.d.g.g.g.g.f.a.y.e.0.8.8._ _ _ _ 8.9.r.",
"8.8._ :.8.q.r.u.s.s.g.g.g.f.g.f.d.f.s.u.q.8.8.8.e.r.u.a.s.f.g.x.x.c.v.c.x.g.g.g.g.g.f.a.r.r.r.r.u.u.s.f.f.f.f.g.g.g.g.f.s.u.y.r.0.8.^ 8.8.q.r.r.",
"8.8.8.8.0.r.u.u.s.f.d.g.g.g.g.g.g.f.s.u.q.8.1.0.r.a.f.f.f.g.g.x.c.b.v.c.x.g.f.g.g.g.s.u.q.0.8.q.u.s.f.d.g.f.g.g.g.g.g.g.f.f.s.r.0.8.8.8.q.r.u.u.",
"0.8.8.8.q.r.u.u.s.f.g.f.d.g.f.f.d.s.s.r.9.:.:.w.u.g.g.k.g.g.g.x.v.v.v.c.k.g.g.f.g.g.s.u.9.8.8.q.u.s.g.g.g.g.f.g.g.g.g.g.g.g.f.u.9.8.8.8.q.r.i.u.",
"0.0.8.8.w.r.u.s.s.f.g.g.f.g.f.f.s.u.r.r.8.:.9.r.d.k.c.x.g.g.g.g.l.c.v.c.k.g.g.f.g.g.s.r.9.^ :.0.u.s.g.g.g.g.g.f.f.g.g.g.g.g.g.u.r.8.8.8.e.r.u.s.",
"q.8.8.8.q.r.u.u.s.f.g.g.g.g.f.i.u.r.q.8.^ _ _ t.j.v.v.c.x.g.g.g.j.k.x.j.g.g.f.f.g.g.s.u.q.8.8.8.r.s.g.g.g.g.f.f.f.g.g.g.g.g.d.u.q.8.8.8.q.r.u.u.",
"0.9.8.8.q.r.u.s.s.f.g.g.g.d.f.u.r.9.8._ ) _ 9.t.j.v.v.v.x.g.g.g.g.g.g.g.g.g.f.g.g.g.s.u.0.8.8.0.u.f.g.g.g.g.f.d.g.f.g.g.g.g.f.u.q.8.8.8.e.r.u.u.",
"9.8.8.8.w.r.u.s.s.f.g.g.g.g.f.a.q.8._ ) ) 1.9.s.j.v.v.v.k.d.f.s.g.f.f.f.f.g.g.g.g.f.f.u.q.9.8.r.u.f.g.g.g.f.f.f.f.f.g.g.g.f.s.u.q.8.8.8.r.r.u.u.",
"8.8.8.9.r.u.u.s.f.d.g.k.k.g.f.y.9._ _ _ 8.0.t.i.j.l.l.x.d.s.s.s.s.g.f.f.g.f.f.g.g.g.f.u.r.0.q.r.a.g.g.g.g.g.g.g.f.g.d.f.f.s.i.r.0.8.8.9.r.u.i.s.",
"8.8.8.q.y.a.f.f.g.g.g.g.k.g.f.y.q.8.^ 8.r.u.u.s.d.i.d.i.i.u.u.a.s.f.g.g.g.f.f.g.g.g.f.i.y.r.r.u.s.f.g.g.g.g.d.f.d.g.g.f.f.s.u.r.9.8.8.q.t.u.f.f.",
"8.8.8.q.u.s.f.g.d.g.g.g.g.g.s.u.q.8.8.8.r.s.f.f.i.i.u.u.t.u.u.s.s.f.g.g.g.g.f.d.g.d.s.s.u.u.r.u.s.f.f.g.d.g.f.g.g.g.f.f.s.u.r.e.8.8.8.q.u.s.f.g.",
"8.8.8.q.u.s.f.d.f.f.s.f.f.f.a.y.q.0.0.r.u.s.f.f.i.u.u.r.r.u.u.u.a.s.g.f.f.f.f.f.f.f.s.u.u.t.r.u.u.s.s.f.f.d.f.f.d.f.f.s.u.r.r.0.8._ 8.q.u.s.f.g.",
"^ 8.8.q.u.s.f.s.u.u.t.u.u.y.y.y.r.q.e.r.u.s.f.s.i.t.u.u.u.u.u.u.u.u.u.u.s.i.s.s.s.s.s.u.r.r.r.r.r.u.u.i.f.g.g.g.f.f.s.u.r.r.0.8._ _ 8.q.t.s.f.f.",
"_ _ 1.0.t.u.s.u.r.q.0.0.0.0.q.e.r.y.u.u.u.s.s.u.a.a.s.s.s.s.u.u.r.r.e.r.r.u.u.s.u.u.u.r.q.0.0.8.0.0.r.t.s.g.g.f.f.s.u.r.q.9.8._ 8.) 8.0.r.u.a.i.",
"_ ^ 8.0.r.r.u.r.w.8.8.8.8.8.0.r.u.a.s.s.u.u.u.u.s.s.f.f.g.d.s.u.e.0.8.0.r.r.u.u.u.u.y.r.q.8.8._ ^ 8.0.r.u.f.d.f.s.u.t.r.q.8.:._ ^ ^ 8.0.r.u.r.t.",
"8.8.9.q.r.r.r.r.q.8.8.8.^ 8.8.r.s.d.g.d.a.u.u.u.s.f.f.g.g.g.s.u.9.:.:.8.q.r.r.u.u.u.r.r.q.0.8.^ _ 8.8.r.u.s.s.s.u.r.r.q.0.8.8.8.8.8.9.0.r.r.r.r.",
"q.q.q.q.q.q.q.q.q.0.q.q.0.0.r.u.g.k.k.d.s.t.r.u.s.g.g.g.g.g.s.r.9._ :.:.q.r.r.u.u.u.u.r.r.q.e.0.8.8.9.q.r.u.u.t.r.e.q.q.q.w.q.w.q.w.r.q.w.q.w.q.",
"s.u.u.r.q.0.0.q.r.u.u.u.u.u.u.d.l.v.c.l.s.u.u.u.s.f.g.g.g.f.u.r.8.:.^ :.0.t.(.8Xs.s.a.s.s.u.u.7.r.r.r.q.r.q.q.0.8.8.8.q.r.u.u.a.u.u.u.r.q.0.0.q.",
"f.f.i.u.q.8.8.q.y.a.s.f.s.s.g.k.v.v.v.l.d.u.y.y.s.f.g.f.s.u.r.r.8.8.8.8.q.$Xa F h h.f.f.f.f.s.a.u.r.r.r.q.8.8.8._ 8.8.e.u.i.f.g.f.f.a.u.q.8.0.0.",
"g.g.f.u.r.8.8.q.u.s.f.g.g.g.g.k.v.v.v.c.d.u.u.u.u.s.s.s.u.t.r.q.0.9.9.8.8 * d O O & y X.j.d.d.d.u.u.u.q.0.8._ _ ^ 8.8.r.u.f.d.g.g.g.f.u.q.9.0.0.",
"x.g.f.s.r.0.0.q.u.s.s.f.g.g.k.x.c.c.c.k.d.i.u.r.u.u.u.r.r.r.q.q.q.w.(.: g | * y  .' y $X@X%Xg.g.s.u.r.q.8._ _ _ 8.q.w.r.s.f.g.g.x.g.g.a.r.0.q.0.",
"g.g.f.u.t.r.w.r.r.u.u.f.f.g.g.x.x.k.k.j.f.s.a.y.r.q.0.9.8.9.9.r.t.i.; c O.u ] | ' ] : r g K.g.f.s.u.u.r.8.8._ 8.r.u.,Xd.f.g.g.k.g.g.f.s.t.r.q.e.",
"g.g.f.s.u.r.r.r.r.u.u.u.f.g.g.g.g.g.g.g.g.f.s.u.r.0.8._ _ 8.9.q.h.l a | ' ] ..g g c ] v z d.f.f.u.u.r.q.8.8.8.0.u.%XJ $Xf.g.g.g.g.f.f.s.u.r.r.r.",
"g.f.f.i.u.u.u.u.r.u.u.u.a.s.f.f.g.f.f.g.g.g.g.i.r.0.8.^ ) _ 8.'.X.r ] ] t [ u 1 j u ] y `.g.f.i.u.u.r.e.8.8.8.r.D.Z.l +.7Xg.g.g.f.f.s.s.u.u.u.u.",
"f.s.s.a.s.u.s.u.u.u.u.u.u.u.u.u.s.s.g.g.k.k.k.d.i.w.0.8.:.^ 8.:X$.u o.,.@XK. .' | } > *  .s.s.u.u.r.q.8._ _ 8.q.0   M.*XOXj.d.g.s.s.s.i.u.s.u.u.",
"u.s.u.u.i.s.g.d.f.s.s.u.r.r.e.y.u.f.g.k.c.v.c.l.d.i.r.q.8.^ 8.6X#.= +XdXeX1X;X<.g j , s +Xs.u.u.r.0.0.1._ _ 0.: z !.  $Xg.f.s.s.s.u.u.s.s.s.s.f.",
"u.u.u.u.s.s.f.g.g.d.f.u.q.0.0.e.u.s.g.x.v.v.v.c.k.g.a.r.8.8.8.9.&.. 1.sX#X,.$.7.@.$ + `.i.u.7.y.q.8.L.K.K.|.p F (.wX<XA D.f.s.s.u.u.u.u.s.s.f.d.",
"u.u.u.u.s.f.g.g.g.g.f.r.9.8.8.0.r.s.g.x.v.v.v.v.l.g.s.y.e.8.8./.V.. O ^.n c >.eXn e ; z -Xu.r.5X8.#.e e q a X.Q A ;.+ D.g.g.g.s.u.u.u.u.f.g.g.g.",
"u.u.u.u.s.f.g.g.g.f.f.u.8._ ^ 0.r.a.g.x.x.v.v.c.x.x.g.a.r.q.8.q.8XY < 2XR n.rXeX=.W.Q 9Xi.'.K.+.Q ;.hXiXsXB.@.D.1Xs 8Xx.k.k.j.d.i.t.r.u.s.g.g.g.",
"i.t.t.u.s.1XpXd.:Xs./._.8.G.P.P.y.a.f.g.k.k.k.l.k.g.g.s.y.r.*Xq.q.A.Q {.hX0X7.eX1 z 9XR c I 0 x E sX>X+X .X + P 3 l ,X#Xl.v.c.x.i.u.y.u.s.d.g.g.",
"i.i.u.pXfXzX! {.jXpXF.N.I.I.Y.R.u.s.g.g.g.k.g.g.g.g.g.s.a.u.r._.0.uX+ ) &XsX,X{ # H 0 k #.j *.w.sX1 O O J D.&.6X$.A.g.k.v.b.v.l.d.u.y.y.s.f.f.g.",
"s.a.u.u.lXP     qX4XF.I.I.I.T.E.R.E.Y.Y.Y.E.'.-Xf.g.s.s.i.u.r.q.8.8.-Xx '.dX! n 2.B b 5.-.o.o.F < >.`._.-Xs.7Xg.g.g.g.x.c.b.b.l.d.i.u.u.u.s.s.a.",
"s.a.u.u.zX X  w tX4XB.I.I.R.^.u.*X%X#Xg.g.h.f.s.s.s.s.s.t.u.p.9.8.^ _ 9.$ 1 4.V U m 3.6.5.#.p : D.uXr.u.a.g.+Xg.f.f.g.[.x.c.c.x.d.i.u.u.u.u.t.u.",
"d.d.a.|.).`.Q.Q.}.G.F.U.I.T.T.T.x.c.L.L.k.f.f.s.u.u.u.u.u.u.r.*X8.1.^ K.; C R L V D 3.5.6.+.*.0.e.u.u.s.s.f.g.g.s.f.f.g.g.k.k.k.g.f.a.u.r.w.0.q.",
"f.d.s.a.e.0.8._ ) ` 8.q.r.p.g.x.v.v.v.v.k.g.s.s.a.u.u.r.u.u.r.r.8.8.1.: F T N L m.V M i 2.* ,.q.u.i.f.g.g.g.f.g.f.f.g.g.g.j.j.g.g.f.s.u.q.8.8.^ ",
"g.g.f.s.r.8.8.1._ 8.0.r.u.s.g.x.c.v.b.v.x.g.d.a.u.y.y.y.u.u.r.r.q.9.6X+ h } m L L K 2 % 9 %X^.q.u.s.g.g.g.g.g.g.g.g.j.f.g.f.f.f.g.g.f.u.r.0.8.8.",
"g.g.f.u.u.q.0.0.8.q.r.r.s.f.g.x.c.v.c.c.x.g.f.s.u.y.y.r.u.u.u.u.r.r.q.S.: p N K V 6 2 $ 0 ^ 8.r.a.f.k.g.g.g.g.g.k.k.k.k.g.f.f.f.g.g.f.i.t.q.0.8.",
"g.j.f.s.u.u.u.r.u.t.u.u.f.f.g.x.x.x.x.x.x.g.g.s.u.r.r.u.u.s.s.s.s.t.t.u.* 2 2 N 7 6 7 - %X8.8.q.i.f.g.k.g.f.g.k.c.c.c.l.k.f.f.f.g.g.f.s.s.u.u.y.",
"f.f.f.f.f.s.s.s.s.s.f.f.f.f.g.g.g.f.x.g.g.g.f.s.u.y.u.u.u.s.f.g.s.g.s.s.).# # 2 @ % o s (.8.8.q.u.s.g.g.f.g.g.x.c.b.b.c.k.j.f.f.f.d.f.f.f.s.s.s.",
"f.s.f.s.f.g.g.f.g.g.g.g.g.f.f.s.f.s.s.s.s.s.s.a.u.u.u.u.f.d.g.g.d.g.g.g.X F @.# 4 o l (.q.8.8.q.y.a.f.f.s.f.g.k.v.v.b.c.k.f.f.s.s.f.f.f.f.d.g.g.",
"a.s.s.s.f.j.g.g.g.g.g.g.f.f.s.a.u.u.y.y.y.u.u.u.u.u.u.s.f.f.g.g.g.*Xg.D.e $X..o.o.; %Xu.r.q.q.q.r.y.a.a.s.f.g.k.l.c.v.c.k.j.f.s.s.f.s.s.f.g.g.g.",
"a.s.u.u.s.g.g.k.g.g.d.f.s.a.u.r.q.q.q.0.0.q.e.r.u.s.s.f.f.f.d.+Xs.5XS.3 oXzXH.} t G :Xd.t.r.r.q.q.q.7.y.a.f.g.k.k.x.k.k.g.j.f.s.u.u.u.s.s.d.g.g.",
"u.u.u.u.s.s.g.g.g.g.g.f.i.u.r.r.q.8.8.1.8.8.0.r.u.s.f.g.d.f.g.g.d.A.l  XkXzXkXiX2 $Xd.s.:Xr.r.q.0.8.0.e.a.s.g.g.g.g.g.g.g.f.f.a.u.u.u.i.s.f.g.g.",
"u.u.u.i.s.g.g.g.g.d.f.f.u.u.r.e.q.8.8.8._ _ 8.r.u.s.d.g.g.g.g.j.s.Z ( zXzXzXlXlX0Xl -Xs.u.u.r.e.8.8.8.q.u.a.g.g.j.f.f.f.g.f.f.s.u.u.u.u.s.f.g.g.",
"a.u.u.a.s.s.f.f.f.f.u.u.u.r.r.r.r.q.8.8.8.8.0.q.u.s.f.g.g.g.g.(.uXH ` zXjXkX` ! zX> $Xs.s.u.r.q.8.~ 8.0.u.s.g.g.g.s.f.f.f.f.s.s.u.u.u.u.s.f.f.d.",
"a.s.s.s.f.f.f.s.s.u.u.u.u.r.r.r.u.u.u.r.r.q.e.r.u.u.s.f.g.g.g.g.-XZ oXzXzXzXP C.zX].- g.s.u.r.r.8.8.8.q.u.s.g.g.f.f.f.s.s.f.s.s.s.s.s.s.s.f.f.s.",
"f.f.s.f.f.f.f.s.u.u.u.r.u.r.u.u.u.s.s.s.u.r.r.r.r.u.u.u.s.d.g.,XQ S fXlXzX!.9 zXzXaX& s.s.u.r.q.8.8.8.q.u.s.g.g.g.g.f.f.f.f.f.f.f.s.f.f.f.d.f.s.",
"f.g.f.g.g.g.f.s.i.u.y.r.u.u.u.s.s.f.d.f.u.u.u.r.r.r.u.u.s.s.f.g.T W zXzXyX9 P kXlXlXP V.u.p.r.q.8.8.8.e.u.s.f.g.g.f.d.g.g.g.g.g.g.g.d.g.g.f.f.s.",
"g.j.g.f.g.g.f.a.u.y.r.r.u.u.i.u.f.g.g.g.f.s.u.u.r.q.q.r.u.d.s.8X#.U lXzX4X  w iXjXgXfXO 8Xr.q.8.^ ^ 8.q.u.s.g.g.g.f.g.g.j.x.l.k.k.g.g.f.g.f.f.f.",
"k.g.g.f.f.g.f.s.u.y.u.u.i.s.s.s.f.g.g.g.f.f.u.r.w.0.8.0.r.t.i.6XY / lXlX3Xo 0 wXjXzXzX( I 8.8.8._ _ 8.9.u.s.g.g.f.g.g.k.l.v.v.x.k.g.f.f.g.g.f.s.",
"k.g.g.f.f.f.d.a.u.u.r.i.a.s.f.f.g.g.f.g.g.d.s.u.q.8.8.0.t.7.i.-.l qXgXzXXXw ( P zXzXkXzX! @.:.6X_ _ 8.q.u.s.f.g.f.f.g.k.v.v.v.v.k.g.f.f.f.g.s.s.",
"g.g.f.f.f.s.s.a.u.u.u.u.s.f.f.f.g.f.g.g.g.g.f.u.r.9.8.0.r.r./.=.z dXlXzX.X3 8XZ ` gXlXlXkXW Y _ _ 8.8.r.t.g.g.g.f.g.g.k.c.v.v.v.x.g.g.f.f.f.s.s.",
"k.g.f.f.s.s.a.u.u.r.u.i.s.f.g.g.d.g.g.f.g.g.d.u.r.r.q.0.q.q.r.-.U zXaXzX3X4 8X%.w 3XaXlXhXzXE . V.0.r.t.s.d.g.g.f.g.k.k.x.v.v.x.k.g.f.f.s.s.u.s.",
"g.g.g.s.a.i.u.u.r.u.u.i.s.f.g.g.g.f.g.f.g.g.f.f.f.u.u.r.q.0.5XZ., wXzXzX3X4 u.u.%.Z Q.lX].yXlXqXA &.u.s.g.g.g.g.g.g.g.k.k.x.k.k.g.g.f.s.u.u.u.r.",
"g.g.f.s.a.u.y.r.r.r.u.a.s.f.g.g.g.g.f.f.g.g.g.g.d.f.s.u.q.9.1.=X. ` zXiX~.4 u.r.0.&.G e   9 yXlXjXI V.g.g.g.g.g.g.g.g.g.g.g.j.g.g.d.f.f.u.u.u.r.",
"g.f.f.s.u.u.u.r.u.r.r.i.a.s.f.f.d.f.d.g.f.g.f.g.f.f.f.u.9.8._ O 9 lXlXyXM.4 r.q.8.8.8.&.=.o ` zXjX.X> <Xf.f.s.s.s.s.g.f.s.f.f.f.g.g.f.s.u.u.r.u.",
"j.g.f.f.s.i.i.u.y.u.u.u.a.a.a.d.f.f.g.g.g.g.d.f.s.s.u.r.9.:.D., zXlXqX.XM.5 q.9._ _ _ pX&.8 jXzXiX~.5 5X;Xu.u.u.t.u.u.u.u.s.s.s.f.d.g.f.f.u.u.u.",
"g.g.g.g.f.s.s.a.u.r.y.r.t.u.a.a.f.f.g.g.g.g.g.f.u.r.9.8.8._ $X5 jXlXfX~.9 *X8._ -X_ _ 9.r.I Q.iXC.> [.f.t.r.0.0.9.0.q.r.y.u.u.s.f.g.g.g.f.f.s.s.",
"f.g.g.g.g.f.g.a.u.u.r.u.t.u.u.a.s.g.g.g.g.g.f.u.r.0.8.8.8._ 8XZ.A oXM.` w 8.8._ =X_ 8.0.t.>XT . > H r u.-X:.8.1._ 8.8.q.r.r.u.s.f.d.g.g.g.d.s.s.",
"s.s.s.f.g.a.s.s.i.u.y.u.y.y.u.i.s.s.f.g.d.f.s.t.q.8._ _ 8.8.%X8.M.X a O _ 8.8.8.8.8.0.r.f.g.f.=.s o.f S q.0.8.1.8.8.8.0.q.r.r.u.u.g.f.f.s.g.s.i.",
"y.u.u.u.u.a.u.u.u.u.i.i.i.u.u.u.s.s.s.u.s.u.y.r.9._ _ _ 0.q.,Xq.4 s *.O 8.q.q.q.q.9.r.u.f.g.g.S.; H.f 5 r.q.0.q.q.q.q.8.q.q.q.r.t.u.u.u.u.u.u.u.",
"e.e.e.q.q.q.e.r.u.a.s.s.s.s.s.a.u.u.u.u.r.e.q.8.:._ _ 8.w.p.Y z % $ *   /.u.u.u.u.u.u.s.f.).z 8 o ; $ o J a.u.u.u.u.u.r.q.9.8.0.q.q.w.w.q.q.r.r.",
"0.0.8.8.8.8.0.e.i.s.f.f.f.f.s.s.s.u.r.r.q.8.8._ _ ) 8.0.u.H o 3 9 , + @ K.s.s.f.s.s.s.s.K., * 8 N + 9   #.i.s.s.f.f.s.u.q.8._ 8.8.8.8.8.8.8.0.q.",
"^ _ _ _ _ 1.8.r.u.f.g.g.g.g.f.f.s.u.r.r.8.8._ _ _ 8.0.r.u.$ & @   Q P   >Xg.g.g.g.g.g.f.J.. 3 @     o   $.f.g.g.g.g.g.a.r.0.8.^ 1._ _ _ _ _ 0.q.",
") _ _ 1._ 8.0.r.u.s.g.g.g.g.g.g.s.u.u.r.8.8._ _ 8.9.e.u.s.g.g.k.x.x.k.@Xk.g.g.g.g.g.g.f.s.u.u.i.u.u.u.s.f.f.g.g.g.g.g.a.y.e.0.8.1._ _ _ _ 8.0.r.",
"~ _ _ 9.0.q.r.u.s.f.g.g.g.g.g.g.d.f.u.u.q.8._ 8.q.r.u.a.s.@Xg.x.c.v.v.x.k.g.g.g.g.g.f.u.r.r.r.r.u.u.s.s.f.g.g.g.g.g.g.g.f.u.y.e.0.8._ _ 8.0.r.u.",
"~ ^ 8.9.q.r.t.u.s.f.g.g.g.g.g.g.g.f.s.u.9.8.8.9.y.s.s.f.g.g.z.x.v.v.b.c.k.g.g.g.g.d.f.u.r.0._.q.u.s.[.d.g.g.g.g.g.f.g.g.g.f.a.y.0.8.8.8.q.r.u.u.",
") ) 8.q.r.y.u.s.f.f.g.g.g.g.g.d.g.f.s.r.9.8.8.r.a.f.g.k.f.g.g.x.c.b.b.v.x.g.g.g.g.g.s.u.0.8.8.0.y.f.g.g.g.g.g.g.g.g.g.g.g.g.d.u.w.8.8.0.q.r.u.s.",
"~ ) 9.q.r.t.t.s.f.f.g.g.g.g.d.d.f.u.t.r.8.8.9.q.d.x.x.x.g.g.g.x.c.c.c.x.x.g.g.g.g.g.s.u.0.1.8.q.a.g.g.g.g.g.g.d.g.g.g.g.x.g.g.u.w.8.8.8.r.t.u.u.",
"~ ^ 9.q.r.u.u.s.f.g.g.g.g.g.d.s.u.r.q.8.1.8.9.t.j.c.b.c.x.g.g.g.x.x.x.x.k.g.g.g.g.g.f.u.q.8.8.0.u.f.g.k.g.g.g.g.g.g.g.g.k.g.g.a.w.8.8.8.r.t.s.s.",
"~ ^ 8.q.r.u.u.s.f.g.k.x.g.k.d.s.t.q.9.^ _ _ 0.i.j.v.b.b.c.k.g.g.g.k.g.x.g.g.g.g.k.g.f.u.q.8.8.q.u.f.g.k.g.g.g.g.g.g.g.g.k.k.f.u.w.q.8.9.q.u.t.u."
};
