/* XPM */
static char *ada4c27ab7f84cedafe7778ffcd144370F8gmZD4VWawQzuk[] = {
/* columns rows colors chars-per-pixel */
"72 72 256 2 ",
"   c #030102",
".  c #010B01",
"X  c #03020B",
"o  c #0A060A",
"O  c #180207",
"+  c #050615",
"@  c #160616",
"#  c #151516",
"$  c #2B0406",
"%  c #350004",
"&  c #270415",
"*  c #380718",
"=  c #27171D",
"-  c #331714",
";  c #002518",
":  c #352715",
">  c #23241F",
",  c #090923",
"<  c #140429",
"1  c #121725",
"2  c #370D25",
"3  c #261C28",
"4  c #3C1826",
"5  c #240E2D",
"6  c #3B2634",
"7  c #3C3236",
"8  c #2A302D",
"9  c #152421",
"0  c #550716",
"q  c #450013",
"w  c #72021B",
"e  c #483306",
"r  c #560823",
"t  c #49172A",
"y  c #52132C",
"u  c #66072A",
"i  c #761A34",
"p  c #6F1330",
"a  c #452736",
"s  c #423836",
"d  c #4F2C30",
"f  c #663137",
"g  c #633003",
"h  c #314338",
"j  c #524F32",
"k  c #62662B",
"l  c #153455",
"z  c #202252",
"x  c #2F3568",
"c  c #0E045A",
"v  c #6D174C",
"b  c #572B41",
"n  c #493842",
"m  c #462A48",
"M  c #762F4E",
"N  c #77394C",
"B  c #763759",
"V  c #68304C",
"C  c #5A1B56",
"Z  c #2E484A",
"A  c #2C5E5D",
"S  c #5B484D",
"D  c #494D4A",
"F  c #6E484C",
"G  c #78435B",
"H  c #73534E",
"J  c #727550",
"K  c #4E5662",
"L  c #724A67",
"P  c #7A636A",
"I  c #75756A",
"U  c #7D7D6E",
"Y  c #7B7A68",
"T  c #7D7D71",
"R  c #7A7B7B",
"E  c #6C676F",
"W  c #880928",
"Q  c #841535",
"!  c #901235",
"~  c #AB153C",
"^  c #882F39",
"/  c #C5003C",
"(  c #877C00",
")  c #927937",
"_  c #B51B48",
"`  c #8C2B4B",
"'  c #AE2751",
"]  c #9B2B5D",
"[  c #C01F4B",
"{  c #E30C4F",
"}  c #8D4C58",
"|  c #847F5F",
" . c #965777",
".. c #8E5168",
"X. c #A9506E",
"o. c #817E6E",
"O. c #887C6E",
"+. c #817E71",
"@. c #897A78",
"#. c #977777",
"$. c #8A6971",
"%. c #A8697B",
"&. c #AE6B78",
"*. c #AD5D5E",
"=. c #C17670",
"-. c #7E816D",
";. c #78886B",
":. c #7F8071",
">. c #7C8A76",
",. c #6F8D7C",
"<. c #648262",
"1. c #A69208",
"2. c #E8B123",
"3. c #FFD000",
"4. c #908E5D",
"5. c #A09C5D",
"6. c #90A65A",
"7. c #AAAA5B",
"8. c #B4B55B",
"9. c #84836E",
"0. c #89866D",
"q. c #868A6D",
"w. c #8B8C6E",
"e. c #848765",
"r. c #918C6B",
"t. c #988C67",
"y. c #8E926D",
"u. c #8B9969",
"i. c #93946E",
"p. c #9A966C",
"a. c #96996D",
"s. c #9B9C6D",
"d. c #999A64",
"f. c #848471",
"g. c #898672",
"h. c #868972",
"j. c #8C8C71",
"k. c #878A7A",
"l. c #918F71",
"z. c #968A77",
"x. c #8F9070",
"c. c #889972",
"v. c #949472",
"b. c #9B9572",
"n. c #969971",
"m. c #9B9B71",
"M. c #9D9B7A",
"N. c #96937A",
"B. c #A19E6D",
"V. c #A59B66",
"C. c #A19E72",
"Z. c #A79979",
"A. c #AB9771",
"S. c #8CA167",
"D. c #9AA264",
"F. c #9DA16D",
"G. c #99AA66",
"H. c #9DA173",
"J. c #99A575",
"K. c #9CB377",
"L. c #9EB066",
"P. c #A4A46E",
"I. c #A9A66E",
"U. c #A6A96E",
"Y. c #AAA96E",
"T. c #A7A865",
"R. c #B2AD6E",
"E. c #B5A76A",
"W. c #A7B16B",
"Q. c #B5B16E",
"!. c #BCB36E",
"~. c #B1B767",
"^. c #A5A671",
"/. c #A4A471",
"(. c #AAA672",
"). c #A5A972",
"_. c #A9A971",
"`. c #AAAA71",
"'. c #A3A37A",
"]. c #ACAA79",
"[. c #A8A87B",
"{. c #B3AD72",
"}. c #BBAC73",
"|. c #B4A779",
" X c #AAB175",
".X c #B5B272",
"XX c #BCB371",
"oX c #BAB974",
"OX c #C2AB6D",
"+X c #C3B46E",
"@X c #C6B66D",
"#X c #C5A87B",
"$X c #C3B571",
"%X c #C4BA72",
"&X c #C8B676",
"*X c #D4B56B",
"=X c #D19A61",
"-X c #384D82",
";X c #787D81",
":X c #AE5D8B",
">X c #936D87",
",X c #AE738D",
"<X c #9A5582",
"1X c #CC4B86",
"2X c #CB7497",
"3X c #D37FA1",
"4X c #E9799A",
"5X c #7F868C",
"6X c #958986",
"7X c #919488",
"8X c #B29A89",
"9X c #B69795",
"0X c #AF908D",
"qX c #ABA682",
"wX c #BAA888",
"eX c #B8A696",
"rX c #BAB485",
"tX c #AF90A6",
"yX c #97B0AF",
"uX c #ADAEB5",
"iX c #93AE81",
"pX c #C98998",
"aX c #C5989C",
"sX c #CA938F",
"dX c #C6A98A",
"fX c #C5AB96",
"gX c #D7BB83",
"hX c #D389AB",
"jX c #C796A7",
"kX c #CF94B1",
"lX c #E496B7",
"zX c #D2ABB0",
"xX c #EDADB4",
"cX c #E2859A",
"vX c #D7C6B2",
"bX c #DDD99B",
"nX c #B8BCCD",
"mX c #E9B6C6",
"MX c #FCB8C8",
"NX c #FBADD5",
"BX c #F5ADE8",
"VX c #CFBCD8",
"CX c #ACC6D3",
"ZX c #D3D3D0",
"AX c #F7C1D2",
"SX c #EDD3D0",
"DX c #F8FFD9",
"FX c #DFD8E0",
"GX c #FCC6E5",
"HX c #DDEEF2",
"JX c #EFEEFE",
"KX c #F8E6FA",
"LX c #E9F9F9",
"PX c #FDFDFF",
"IX c #F8FAF8",
"UX c #F1EAE9",
/* pixels */
"U T T T T o.9.x.s.^.].{.`.`.`.U.C.s.a.w.9.:.Y T T f.q.p.H./.U.Q.{.{.Y.R.U.U.U.Y.`.`.`.`.(.^.C.B.m.m.d.s./.[.].{.{.I.U.H.i.0.9.o.-.U T R I o.f.j.",
"U U T T +.9.j.v.s.P.`.`.Y.U.U.P./.B.m.x.h.f.T 9.f.h.i.m././.U.R.`..X!.XX.XU.Y.Y.`.`.`.U.P.M.m.s.m.m.s.P.(.(.I.I.U.Y.P./.a.y.g.9.f.T Y f.U g.q.l.",
"-.f.:.+.9.j.a.s.P.^.`.`.U.`.`.P.Y.I.(.n.h.f.U 9.y.v.m.s.^.).Y.{.XX!.+XXXXX X`.`.`.U.P.F.a.v.v.v.s.m.P.P.`.`.I.Y.`.Y.`.`.F.M.b.v.h.9.U f.9.j.v.a.",
"f.f.f.f.g.v.m.s.^.(.`.`.U.`.`.`.Y.(.(.n.h.9.-.q.a.m.P.I.`.`.`..X+X$X%X!.R.`.`.`.`.`.P.b.w.9.h.j.m./.).I.`.U.Y.`.`.Y.U.`.`././.a.h.9.U g.j.v.N.s.",
"9.g.f.9.w.b.F.s.P.^.`.I.U.I.U.`.T.P./.v.h.9.9.j.s.U.E.`.Y.`.`.{.+X$X@XOXR.`.).U.U.`.P.a.0.9.f.h.m.(.`.Y.U.`.`.`.`.P.U.`.).`.`.s.j.g.9.9.w.v.m.H.",
"q.9.9.0.j.v.s.s./.`.`.Y.U.U.`.(.P.s.b.l.9.9.9.v.I.{.!.!.R.Y.U.`..XXX$X!.R.`.U.U.Y.U.^.a.q.U f.h.p.^.`.Y.Y.`.I.`.U.`.U.`.U.`.^.s.j.9.9.9.w.a.m.F.",
"j.9.9.9.j.v.m.B.^.(.`.`.`.`.^./.m.r.q.9.+.o.0.v.E.XX$X!.Q.`.U.`.`.R.Q.Q.`.`.`.I.U.`./.n.h.9.9.9.p./.`.Y.Y.`.U.U.`.U.`.E.Y.].).s.j.f.g.9.l.i.m.B.",
"j.9.9.0.j.v.m./.^.^.I.U.`.(.P.d.v.q.o.T T U 0.N.E.$X&X!.Q.W.`.`.`.Y.Y.Y.I.`.U.I.(.(.(.b.r.f.9.9.m.(.`.U.`.`.).U.`.U.Y.I.I.`.(.s.j.O.9.f.l.v.m.s.",
"k.O.+.9.r.c.C.P.T.).(.I.T.Y.P.H.t.;.>XI J @.7Xp.}.+X%X$X{./.`.U.U.U.U.U.U.`.Y.Y.U.Y.`.m.w.9.0.N.d.(.`.`.`.U.U.U.(.U.U.Y.Y.`./.m.h.q.9.9.w.a.p.s.",
"| 5XO.0.t.Z.V.J.G.T.).{.XXT.|.u.q.-.>.,.r.-.c.(.E.R.Q.R.I./.P.P.P.U.U.U.U.U.Y.I.Y.U.P.m.i.0.w.v.P.].`.`.`.U.U.U.(.`.U.I.P.I.m.a.h.f.9.9.v.m.P./.",
"e.9.0XlXS.M.).K.9XxXF a } ` X.BX:.-.I @.i.d.C.D.C.(.I./.C.B.s.H.P.).`.U.U.`.].(.Y.`.U./.b.v.v.s.P.U.`.I.`.Y.I.`.(.`.`.I././.s.a.f.9.9.w.m.H.P.U.",
"g.:.q.6XC.D.Y.AX$.O y $     # y f g.O.z.q.G.].E.C.C.m.b.b.m.m.F./.).`.Y.U.I.).(.I.P.P.P.s.a.p.p.P.^.I.I.Y.`.U.(.I.U.Y.I./.m.a.w.f.9.g.j.s.F.I.U.",
"o.>.9.0Xc.T.|. .O ! u & p Q Q r P kX3Xr.J.8XH.P.s.m.m.v.a.b.s.m.P./.U.U.Y.T.).(.(.(.P.s.m.b.m.a.s./././.(.`.I.I.I.I.P./.m.v.i.q.:.T 9.j.m.P.U.U.",
"R T cXy.D.[.$.O ' ! i i _ ~ ^ 0 q p M p.t.pX[.K.s.m.m.m.s.s.s.m.m.s.s.B.B././.^.^.^./.m.v.v.v.v.v.n.m.C.(.`.U.`.(././.m.a.j.g.f.f.T 9.h.n./.`.`.",
"<.>X+.;.z.&.% ! { p ~ / w p p W [ * N.u./.fXC.V.P.C././.P.P.B.s.i.i.w.v.v.m.m.P.m.s.a.y.w.h.g.9.g.j.N.p./.).U.U.(./.s.p.w.g.9.+.U U o.j.a.m.B.s.",
"9.:.;.lXp.o ' W W W ^ f * r i p 0 F ].F.Z.d.J.a.P./.[.(.U.P.B.m.j.q.9.h.j.v.m.s.m.m.m.v.j.h.f.U U 9.0.i.C.(.U.U.P.s.s.i.w.9.+.T T U +.h.v.a.a.p.",
"e.9.>.jXfX= ~ *.9X4X^ w _ ' Q t 2 v 8XqXA.d.M.s./.^.(.`.{.]./.a.9.f.+.+.j.i.a.b.m.a.a.i.w.h.:.:.:.-.9.y.m./.^./.n.n.v.j.h.g.g.f.9.9.0.w.v.v.v.i.",
"e.9Xj.#.z.* p SXIXFX=X' ! u a 4 O  .dX'.(.5.j.B.^.`.`.U.U.(.C.a.9.+.T +.h.v.a.a.s.m.m.p.a.j.j.h.9.9.q.y.v.m.m.a.v.j.w.j.j.j.x.w.j.j.i.j.w.j.w.i.",
"qXx.s.d.e.kX$ SXvX=.} A.4 * C < J &XOX.X(.b.m.s.).).Y.Y.I.P.m.a.9.f.U f.w.v.n.s./././.C.C.m.n.a.l.v.w.l.v.w.w.q.9.g.9.w.v.m.m.B.m.C.m.i.w.q.j.h.",
"W.|./.S.;.6X* d H a tXzX: 7 0 * $ 8X%XQ.I.C.v.m.P.Y.Y.Y.P.s.s.l.g.f.+.g.j.i.m.s./.P.^.I.I.(./.P.m.m.v.r.j.g.9.-.:.-.q.w.m.P.I.U.^.^./.s.w.9.h.h.",
"T.Y.}.u.N.g.zX% J bXUX!.J @.C V 8X*X8.&X(.a.n.D.s././.H.m.a.v.j.9.9.q.q.j.v.s.s.P.P.U.Y.`.Y.Y.Y.B.s.a.j.g.f.T T T :.q.x.m.P.U.Y.{.Y.I.s.i.h.g.h.",
"}.T.(./.xX>.f #.DX6.gXAX: # tX~.BXdX}.}.T.Z.P.w.p.s.n.v.v.v.w.l.j.w.i.p.m.n.P.P.P.I.`.E.Y.`.Y.Y.B.m.b.l.g.U T f.f.h.x.m./.^.Y.Y. X{.U.B.i.j.q.h.",
"Y.|.aXJ.Z.t...7 ZXvXIXfX6 < X.BXhXE.!.].P.F.'.a.b.l.j.g.g.h.j.w.v.s.s.F.H./.^.T.(.I.U.Y.`.`.).)././.N.l.9.o.9.9.i.n.m./.`.Y.Y.R.`.`.(.^.m.w.w.x.",
"].qXaXP.a.v.mXF H IXeXt k 1.$ ,XNXE.U.(.W./.(.b.v.h.-.U T :.h.v.m.F.P.U.^.^.(.Y.U.U.I.`.`.`.(./.d.n.N.j.9.o.9.9.s.F.U.`.U.U.Y.`.I.U.U.^.m.v.i.v.",
"].).).V.d.a.Z.fX .c O 1.j x F @ *.|.S.|.`..XF.'.v.w.-.U R Y 9.y.m./.].R.Y.Y.Y.).^.`.P.Y.U.U.P.B.d.s.N.j.9.9.q.w.m.^.Y.Y.Y.`.Y.Y.U.(.^.P.s.s.s.m.",
"U.P.H./.[.F.H.Z.zXg ) d l k 2.( X 2XE.`.qX7.XX(.M.i.q.9.T T 9.j.s.^.`.`.Y.Y.`.`.`.`.U.U.U.(./.s.m.a.w.9.o.U g.j.m.).Y.U.Y.`.U.U.P.^./.m.P.P.B.m.",
"V.F.J.M./.D..X8X6 k D z o 2.3.2.e . dXXX.X&XXX}.(.B.i.j.f.T f.j.s.P.`..XY.Y.`.`.`.I.U.P.P.P.m.m.v.q.o.U U U 9.z.m.^.`.U.U.^.P.P.F.H.m./.P.P.B./.",
"d.s.n.M.^.D.(.#.& m -Xx   e =X#X3   T.!.OX@X#X~.|.I.B.v.h.f.f.j.s.P.`.`.Y.U.`.).P.(.I.P.P.m.a.r.h.9.U U T U f.k.s.^.`.`.`.U.P.).s.n.m.m.P.P.I.I.",
"b.F.a.M.`.7.A.>X& v x x z > ZXUXK @ hX~.*X!.oX@XXX`.^.s.l.g.h.j.s.F.).P.Y.Y.`.`.I.`.(./.s.n.x.j.f.:.U :.f.9.q.l.s.^.`.U.E.`.P.(.m.a.m.m.^.U.Y.`.",
"n.F.s.s.P.T.wXjX$ t x l % e R 4X0 + L.dXdX*XoX~.{.{.P.P.v.q.h.j.v.m.m./.).`.`.`.`.{.`.^.m.x.j.h.:.:.-.:.9.w.v.m.P.`.].{..X.XE.(.m.a.a.m.^.`.Y.Y.",
"C.s.a.t.(.`.].Z.G . l l , 6 1X1X- O ].7.T.8.Q.|.{.`.U./.m.v.j.w.j.w.y.a.H.`.`.`.Y.`.`./.a.j.f.:.T :.:.9.w.m.s.F.P.I.`.R.!.!.XX{./.p.b.m.^.U.U.`.",
"B.m.m.s./.J.G.T.BXd 1 z , . - X.@ $ '.qX X`.E.].`.U.Y.U.H.n.i.y.g.0.q.a.s.U.{.Y.U.U.^.m.i.q.U T I T 9.w.v./.`.P.P.`.`.Q.!.%X$X}.^.s.p.m./.^.P.).",
"P.s.m.M.a.P.].Z.n.%.X o ; o O zXb ,XdXL.|.L. XV.P.).^.P.s.s.v.l.g.f.o.0.v./.^./.`.^.s.i.q.f.T T U O.w.i.s./.(.Y.U.U.E.Q.XX%X%X!.(.B.p.d.m././.F.",
"P.B.C.m.a.d.m.b.N.NXb y y q 7 IXZ >XdX$X|.`.C.].P.P.H.H.s.a.v.h.9.U o.9.l.n.m.n./.m.m.v.g.+.o.f.f.w.i.s.P.].`.U.).`.`.E..XXXXXR.]./.s.p.m.m.b.a.",
"U.P.C.C.x.x.w.e.h. .1 X.' # 8 LXZ ,XgXOX{.(.qXD.s.s.s.a.s.m.v.v.U T +.+.g.w.j.j.x.j.j.0.9.o.o.g.v.b.B./.).`.`.Y.^.).U.Y.R.R.R.R.U.I.C.n.i.x.j.0.",
"].T.T.s.x.k.-.-.NXF b ` 5 K 7 DXn :X%XOXoXJ.p. Xs.s.n.a.s.m.v.v.9.9.T T -.9.9.g.f.-.9.-.U T f.j.p.C.P.^.).`.`.U.P.(.`.I.U.`.`.`.Y.U.^.m.j.9.9.+.",
"].U.Y.B.v.g.-.U >.V P JXKXtX: mX2 hX~.OXT. X].V.H.n.n.b.n.s.a.w.w.g.9.9.9.9.g.9.f.9.9.:.T U h.x.s./.Y.Y.Y.`.`.Y.`.`.`.`.`.`.`.(.Y.U.(.m.v.g.f.T ",
"`.`.T.P.a.w.g.z. .S IXPXZXA y lX@ ,XrX+X@XP.U.T.s.m.n.v.s.s.m.m.p.i.w.q.w.w.w.q.w.j.h.g.o.U g.x.P.(. XR.Y.U.`.`.R.{.R.{.Y.`.^.^.U.U.`.P.a.r.q.h.",
"`.`.^./.F.a.M.8XV ,.PXKXyXO M 4XPX6 9XXX}.`.T.'.a.a.a.p.s.P.^./.P.s.m.b.a.s.s.m.s.d.a.l.9.o.9.j.C./.`.Y.U.Y.Y.E.!.XXXXXXE.Y.U.P.`.`.I.P.B.m.n.n.",
"T.`.[.H.U.P.qXfXB <.LXCXR & AXSXLX& kX).`.W.Y.J.a.M.n.m.s.P.(.].P./.'.^./.P.P.^.I.^./.v.0.9.g.j.s./.`.U.Y.Y.{.{.!.%X%XXXR.Y.U.U.^.I.(.I.I.^././.",
"U.^.^.P.Y.Y.|.fXG 5XIXVXyX7 >XIXR f Z.[.J.T.V.J.m.s.p.s.P.`.`.I.I.I.Y.`.I.Y.`.`.Y.`.(.s.w.e.g.g.m.H.^.).^.T.Y.R.+X$X$XXXR.Y.T.^.P.P.U.U.I.I.`.`.",
"D.[.].s.T.P.(.wXB $.IXLXPXk.. > D qXu.Z.c.J.Z.n.s.s.s.P.P.U.`.U.U.Y.Y.`.`.I.`.`.E.`.].C.a.w.h.j.i.a.m.C./.I.Y.R.XXXX$X!.Q.Y.).^.P.P.P.).`.`.`.`.",
"/.a.d.^.`.I.rXvXB +.IXLXPXUXK a z.t.e.0.j.z.r.N.s.P.^.).`.`.(.`.I.`.`.`.Y.`.`.`.Y.`.)./.m.v.x.l.q.w.i.a.s.(.`.R.R.R.Q.R.{.Y.I./.s.s.s.P.P.P.I.U.",
"m.M.m.s.P.P.I.|.M E HXPXPXLXPX7 :XMXz.-.;.9.w.v.s.P.].`.`.I.P.U.U.I.`.Y.Y.(.Y.U.U.I.^./.m.v.v.w.w.h.q.i.m.^.Y.U.`.U.U.Y.U.I.P.P.m.m.m.B.^.`.`.`.",
"a.m.s.s.^.].].`.%.s ZXPXIXJX;Xo R R k.0.o.Y 0.b.d./.].U.(.I.I.I.I.(.I.`.P.I.`.`.Y.Y.U.^.B.a.i.w.9.O.9.q.m./.(.I.`.`.).U.U.U.(.P.m.m.s.s./.`.`.U.",
"'.s.p.P.P.d.I.].eXn 5XnXuXPXE yX..P #.9.q.h.k.q.s./.^.[.U.`.`.Y.I.I.`.I.P.`.I.U.`.`.U.^./.m.i.i.9.+.f.h.s.P.U.(.U.U.P.U.).(.P.P.m.s.p.d.B.P.I.P.",
"a.).(.U.U.).`.T.fXb 8 >   6XZXLXIX2 pXl.Z.g.j.N.p.B./.P.^.`.`.`.I.I.`.`.U.I.`.(.`.`.`.(.P.m.v.v.9.T f.g.m.P.Y.`.I.I.P.P.^.^.P.I./.^.P.^.(.`.`.(.",
").P.D.`.).F.^.P.m.V 1 7 O 3 LXHXnX, pXm.s.y.s.u.i.s.s.s.P.U.U.P.I.`.(.U.`.(.U.`.U.U.Y.`.m.s.v.l.e.:.k.j.s.P.`.].I.`.U.).).^.^.(.).^.^.^.`.^.P.P.",
"`.`.`.`.`.].P.P.F.sX@ + # SXLXHXtX9 hXqXS.v.s.N.z.b.b.s././.^.^.P.I.U.Y.`.`.I.P.`.U.P./.s.m.v.w.f.f.f.w.s.P.`.U.(.`.I.I.Y.{.`.(.`.`.I.I.`.`.P.P.",
"`.`.`.`.(.`.P.P.S.n.n   uXLXJXnXyX@ pX|.T.[.S.H.b.l.w.a.s.P./.).I.`.`.`.`.I.`.I.U./.F.s.m.v.h.g.o.U 9.w.a./.U.`.`.`.`.Y.E.{.{.{.`.E.Y.Y.`.`.`.I.",
"{.`.`.I.`.`.^.P.p.Z.# yXn yX0X>X+ b v 9X/.Z.C.t.j.q.e.q.i.s.P.P.U.`.`.Y.U.U.I.I.F.F.s.m.v.q.9.o.T U +.w.m./.`.`.).`.Y.R.!.$X$XXXR.U.Y.U.U.`.).P.",
"`.`.U.I.).(.^.P.Z.MXS L nX8 6 + 2 } B r 0X,XjXn.l.9.-.g.N.i.s.P.P.I.`.Y.Y.U.^.P.F.s.a.i.j.9.o.T T T O.j.m.).`.`.P.U.E.R.XX$X$X+XR.Y.Y.P.U.(.P.^.",
"R. XU.I.^.`.^.C.u.aX0XL A P 7XD jXr B B . o ..AXv.9.9.h.N.x.a.s.P./.I.U.U.).^./.F.a.w.q.f.o.T T U f.g.v.s.).U.`.`.U.Y.{.XX$X$X@X{.{.U.U.^.).^.^.",
"Y.Y.`.P././.m.s.m.m.c.Z.O * @ L GXX.s   = C kXa.m.i.w.j.j.w.i.N.s.C.^.^.^.^./.B.m.v.w.g.o.U U f.9.q.v.s./.U.U.(.`.Y.`.{.!.XX$XQ.{.`.U.(././.m.m.",
"Y.`.Y.^.B.m.s.a.b.d.u.).:Xt :Xa ,XMX@ Z # - 0XT./.C.b.N.w.0.q.v.b.s.P.C.P./.C.b.v.w.9.f.T U 9.h.i.v.M.^.P.Y.Y.{.`.`.`.E.{.{.{.{.Y.U.U./.F.s.s.n.",
"U.`.`.).s.m.s.a.v.v.A.A.[.$ } o >XlX&.# 8 X <X|.(.(./.n.y.q.0.j.i.n.s.s.s.m.m.i.h.9.o.+.T U 9.h.d.C.].U.U.T.Y.`.(.`.(.E.I.{.`.(.I.U.)./.s.a.a.n.",
"`.`.I.P.s.s.m.v.J.x.0XkX@ o O 3   2XeX  # S lXwXU.U.P.m.h.T T 9.w.v.i.n.m.n.v.w.9.:.:.T U 9.q.v.P.^.`.`.I.(.(.P./.^.^././.(.).Y.`.(.`.(.s.a.i.n.",
"`.`.U.U.^./.m.s.d.7Xn o 8 h # O + pXX ; @ P [.L.P.F.s.i.g.f.T -.q.q.w.v.x.w.q.q.-.U :.9.f.q.v.m.P.).].^./.s.s.b.v.m.s.s.m./.P.T.(.`.U.`.P.s.s.M.",
"Y.Y.Y.Y.U.^.P.s.M.d o # o   > z + pX} y *.qXqXD.n.a.w.q.f.T T T f.f.f.9.9.9.9.o.T U U g.l.n./.^.P.U.]./.b.y.h.h.q.q.j.i.v.m.s.P.(.(.`.Y.U.U.P.F.",
"Y.Y.U.`.`.U.P.P.J.%.G S H ..:XpXf wXG.T.). X|.J.x.q.9.U f.T T T f.+.f.U f.:.f.T U U -.j.N./.(.I.Y.Y.`.m.v.9.:.T T 9.q.j.v.m.s.s.T.`.`.`.Y.Y.U.P.",
"(.^./.^.].P.P.P.Z.).u.zX8Xi.s.MXP.}.T.R.T.a./.V.x.:.U U 9.f.f.9.f.g.9.9.9.9.f.f.9.9.q.i./.`.Y.T.Y.U.P.m.j.q.:.f.T 9.g.h.j.v.v.s.B./.^.(.^.P.P.s.",
"m.s.m.m.m.s.m.B.d.d.(.B.Z./.J.t.J.B.'.y.qX'.a.p.k.-.U :.g.w.x.x.j.w.q.q.q.w.w.w.w.q.i.m.(.`.Y.Y.U.P.s.s.i.w.q.j.j.w.q.q.h.h.x.v.b.m.m.m.m.C.s.s.",
"x.y.w.j.q.w.j.v.M.S.P.Z.'.P.F.iXm.i.J.'.y.r.j.-.-.T T g.v.a.s.m.s.s.a.a.p.m.s.s.m.m.s.P.(.`.`.U./.H.s.m.m.a.a.m.m.s.a.v.w.g.9.q.j.l.l.r.v.w.l.v.",
"q.h.h.9.9.9.j.l.P.'.].Y.G..XA.P.P.s.t.i.e.0.f.T Y T f.h.n.F.U.(./.P././.^.^.^.^./.^.^.`.`.P.P.).s.d.a.m.C././.P.`.P.P.m.j.9.-.9.9.9.f.9.9.9.g.l.",
"T T -.U T -.9.v.s./.`.`.`.Y.U.Y./.m.p.i.j.+.T T +.f.0.a.m./.U.E.].Y.Y.Y.Y.U.`.Y.Y.Y.`.`./.U.F.m.m.m.a.F.P.U.I.U.U.`.`.P.i.h.f.o.U U T T T +.g.w.",
"-.I :.:.:.g.0.v.s./.`.`.Y.U.Y.U./.C.p.i.j.+.T T f.g.r.m./.).Y.Q.XX.X!.Q.R.Y.U.Y.Y.Y.`.)./.B.m.m.m.s.s.P.P.U.`.Y.`.Y.U.P.a.v.h.9.9.:.T U T +.q.y.",
"I -.>.-.g.j.y.m.P.^.`.Y.U.Y.U.`.U.P.s.v.h.9.o.9.j.v.s.B.).).Y.Q.$XXX!.!.R.`.Y.U.Y.U.^.H.m.i.v.l.n.s./.^.I.Y.Y.`.`.`.`.(./.M.v.x.f.9.U +.f.j.i.m.",
"I I :.h.j.v.i./.^.`.`.Y.Y.Y.`.`.Y.)./.m.j.9.g.h.n.H./.I.U.U.`..X$X@X%X%XR.`.`.`.`.].^.m.r.q.g.j.s.C.^.].`.U.`.`.`.`.`.`.(.^./.a.h.9.f.f.j.i.m.H.",
"I I g.h.v.n.a.P.).`.U.U.U.Y.(.(.Y.U.H.n.h.g.0.w.s.`.R.Y.U.Y.R..X$X@X$XXX{.{.U.`.`.`.^.n.q.9.9.h.s./.].`.I.Y.Y.`.Y.Y.U.I.Y.`.P.s.j.g.f.g.r.a.p.s.",
"I Y q.j.N.M.s.P.`.U.Y.Y.Y.Y.I.P.P.F.a.j.f.U 9.v.P.{.!.Q.Y.Y.`..XXX$X!.XX.X`.`.`.Y.(.P.s.j.+.g.h.s.).{.Y.I.Y.`.`.Y.Y.`.{.Q.Y.I.s.w.9.+.f.v.a.d.s.",
"I Y 9.y.v.m.s.P.).Y.Y.Y.E.`.I.P.s.i.w.g.:.U q.b.E.oX$X+XQ.Y.).`..X.X!..XY.`.`.U.`.Y.P.s.j.f.f.q.s.^.`.{.Y.Y.`.(.Y.Y.`.].R.R.`.C.w.q.f.f.v.m.F./.",
"I I 9.w.v.m.s./.Y.Y.R.Y..X].(./.s.w.q.+.T Y w.Z.E.$X%X%XXX{.`.`.`.Q.Y.Y.R.`.(.(.{.Y.U.s.j.f.9.q.s.^.`.Y.E.`.`.(.T.I.].{.R.R.P.s.i.g.+.g.w.d.m./."
};
