/* XPM */
static char *b19af6afb0224ee2dd0fe4ed0e26db2a8DMHZ8tj6Dz8CYdm[] = {
/* columns rows colors chars-per-pixel */
"72 72 246 2 ",
"   c #000000",
".  c #060700",
"X  c #001300",
"o  c #370000",
"O  c #281502",
"+  c #361703",
"@  c #372100",
"#  c #352815",
"$  c #00353B",
"%  c #393929",
"&  c #3F3F30",
"*  c #491B07",
"=  c #551F0B",
"-  c #6D0000",
";  c #472600",
":  c #572604",
">  c #5B2C01",
",  c #53310C",
"<  c #652B08",
"1  c #752D0A",
"2  c #6A3306",
"3  c #753709",
"4  c #7C3A0C",
"5  c #672D12",
"6  c #6D3415",
"7  c #743515",
"8  c #793817",
"9  c #573726",
"0  c #53352B",
"q  c #6E3A28",
"w  c #7A5007",
"e  c #7E6007",
"r  c #46442C",
"t  c #57472A",
"y  c #484832",
"u  c #574732",
"i  c #5C4C34",
"p  c #595534",
"a  c #654828",
"s  c #774A26",
"d  c #7A5928",
"f  c #654831",
"g  c #744F34",
"h  c #645532",
"j  c #765732",
"k  c #7D6A34",
"l  c #034559",
"z  c #1F4557",
"x  c #274657",
"c  c #354B54",
"v  c #005665",
"b  c #2B5863",
"n  c #345A63",
"m  c #186F74",
"M  c #3D7779",
"N  c #504E4F",
"B  c #5A5947",
"V  c #484955",
"C  c #6D5349",
"Z  c #4E685E",
"A  c #54635C",
"S  c #676546",
"D  c #756B46",
"F  c #797347",
"G  c #6E6B5A",
"H  c #7D7558",
"J  c #445C61",
"K  c #507473",
"L  c #616861",
"P  c #757565",
"I  c #7A7865",
"U  c #74756A",
"Y  c #7A7A6C",
"T  c #757B74",
"R  c #7D7D70",
"E  c #810A00",
"W  c #AA001B",
"Q  c #843B0C",
"!  c #833B1B",
"~  c #873B18",
"^  c #903311",
"/  c #B50022",
"(  c #BC0221",
")  c #BE1B25",
"_  c #823F24",
"`  c #B6342B",
"'  c #BD362E",
"]  c #C10521",
"[  c #C21320",
"{  c #C11F20",
"}  c #C22422",
"|  c #8A4017",
" . c #8C4314",
".. c #924516",
"X. c #93421D",
"o. c #984719",
"O. c #9C4A1B",
"+. c #8C5313",
"@. c #B54903",
"#. c #A64A1D",
"$. c #B94E17",
"%. c #A8511E",
"&. c #856317",
"*. c #9A4621",
"=. c #89532A",
"-. c #8D562E",
";. c #875A33",
":. c #A64824",
">. c #AB4C24",
",. c #B34E22",
"<. c #BA4B27",
"1. c #AA512F",
"2. c #B65123",
"3. c #BB5324",
"4. c #B7542A",
"5. c #B94938",
"6. c #BC5638",
"7. c #8B6D2C",
"8. c #937734",
"9. c #AC6A2E",
"0. c #D55002",
"q. c #C94A1E",
"w. c #C9571C",
"e. c #D25B1C",
"r. c #E25D03",
"t. c #D8781B",
"y. c #E5641A",
"u. c #F77010",
"i. c #C74D2E",
"p. c #C35526",
"a. c #CC5925",
"s. c #C45628",
"d. c #C65828",
"f. c #CB5A29",
"g. c #D25623",
"h. c #D15D2B",
"j. c #C25A35",
"k. c #CC632D",
"l. c #C36C29",
"z. c #D4632D",
"x. c #D9672C",
"c. c #CC6739",
"v. c #DD6930",
"b. c #E76C2C",
"n. c #F06C20",
"m. c #FB7529",
"M. c #E46D32",
"N. c #E86E35",
"B. c #E87134",
"V. c #EC7234",
"C. c #F37536",
"Z. c #F87736",
"A. c #FD7A35",
"S. c #F57739",
"D. c #FC7B3A",
"F. c #88534C",
"G. c #96564B",
"H. c #A75946",
"J. c #BC5C41",
"K. c #8B714D",
"L. c #B66A4B",
"P. c #B07151",
"I. c #847C6C",
"U. c #A97765",
"Y. c #CA6944",
"T. c #D27152",
"R. c #E87948",
"E. c #F17B47",
"W. c #E77E55",
"Q. c #CD786E",
"!. c #7D8268",
"~. c #7F8072",
"^. c #B88A17",
"/. c #BF962D",
"(. c #E79917",
"). c #ECA215",
"_. c #F2AC13",
"`. c #F5B211",
"'. c #CB932B",
"]. c #D1A432",
"[. c #FEC20D",
"{. c #89835A",
"}. c #94865D",
"|. c #938A59",
" X c #94905E",
".X c #A38D5C",
"XX c #B38B5C",
"oX c #AD9459",
"OX c #858365",
"+X c #8E8C65",
"@X c #84836B",
"#X c #8C8C6C",
"$X c #938D66",
"%X c #8F906B",
"&X c #959365",
"*X c #9C9B65",
"=X c #94946B",
"-X c #989768",
";X c #9B9B6C",
":X c #838370",
">X c #888770",
",X c #8C8C70",
"<X c #908F70",
"1X c #8F9070",
"2X c #949470",
"3X c #9A9670",
"4X c #979970",
"5X c #9B9B70",
"6X c #AC8E6B",
"7X c #A89867",
"8X c #A19D70",
"9X c #9FA170",
"0X c #A3A26C",
"qX c #ABA56B",
"wX c #B7A76B",
"eX c #B5AA6C",
"rX c #A4A470",
"tX c #A9A570",
"yX c #A7A870",
"uX c #AAAA70",
"iX c #ACAA70",
"pX c #ADAD70",
"aX c #B3AD70",
"sX c #B7AD70",
"dX c #B6B170",
"fX c #BDB370",
"gX c #EB835D",
"hX c #D7B353",
"jX c #DAB162",
"kX c #C3B570",
"lX c #C5B870",
"zX c #E6C568",
"xX c #007B80",
"cX c #008688",
"vX c #368383",
"bX c #3F97AA",
"nX c #5D8593",
"mX c #8E8E8F",
"MX c #B4908C",
"NX c #AAABB5",
"BX c #C99C9F",
"VX c #D4B8CE",
"CX c #BED4F6",
"ZX c #CDC4DC",
"AX c #D2D4F3",
"SX c #DFE3FF",
/* pixels */
"R R R R R R :X1X5XrXiXiXpXuXuXrXrX4X4X<X:XI.R R R :X,X4X9XyXpXpXdXdXpXpXpXiXuXuXiXuXuXuXrXrXrX5X5X5X5X9XrXuXiXpXpXpXyX9X4X>X:X:XR R R R T Y >X,X",
"R R R R R :X>X4XrXrXiXiXiXuXuXrXrXrX4X2X>X~.R ~.:X>X1X4X9XrXiXpXdXdXdXdXaXuXiXuXiXiXuXrX9X9X5X4X4X5X5XrXrXuXiXiXpXiXyX9X4X,X>X:X~.R R R I.:X>X1X",
":X:XR R >X,X2X4XrXrXuXiXuXuXuXuXuXyXrX3X,X:X~.:X,X4X5X9XrXuXiXdXdXkXfXfXaXpXyXyXyXuXrX9X4X1X1X2X5X5XrXrXrXuXuXuXiXuXyXrXrX5X4X2X>X:X~.~.:X,X2X4X",
":X:X:X:X>X2X3X5XrXrXuXuXuXyXuXuXuXrXrX4X>X:X:X>X4X9XrXyXrXyXuXdXfXlXlXfXaXiXuXyXiXuXrX5X1X>X>X1X5XrXrXuXuXyXuXuXuXuXuXyXuXrX5X4X>X:X:X:X,X2X4X5X",
">X:X:X:X,X4X5XrXrXrXuXuXuXuXuXrXtXrXrX4X>X:X:X<X5XuXpXaXiXyXiXdXkXkXkXkXaXiXuXrXiXyXrX5X>X:X:X,X4XrXuXuXuXuXrXuXyXyXuXuXpXuXrX5X,X:X:X:X,X4X5X5X",
",X>X:X:X,X4X5X5XrXuXrXuXrXuXuXrXrX8X4X2X:XI.:X<XtXaXdXdXiXiXiXpXsXfXkXsXaXuXuXuXiXyXrX4X>X~.R >X5XrXuXpXuXuXuXuXuXyXyXuXpXpXuX5X1X:X:X:X,X3X5XrX",
">X>X@X:X,X2X4XrXrXuXuXuXuXuXrX9X4X2X,X:XR R I.3XwXsXkXkXdXiXuXiXaXaXaXaXiXuXyXuXiXyXrX4X>X:XI.>X4XrXiXuXuXuXyXrXyXuXiXuXpXiXtX5X,X:X:X:X,X4X4X5X",
">X>X~.:X,X4X4X8XrXrXuXpXuXiXrX9X2X>X:XT T R >X3XaXfXlXkXdXiXuXrXuXuXiXuXuXuXyXuXiXuXrX5X>X:X:X,X5XrXuXpXuXuXyXuXyXyXyXiXiXuXyX5X,X:XI.:X,X4X5X5X",
">X:X:X:X<X4X5XrXrXuXuXuXpXuXrX5X,X:XR T Y R <X8XsXkXkXkXaXuXrXrXrXyXuXuXyXyXyXuXuXyXyX;X,X>X:X,X5XrXuXiXuXuXrXuXuXyXtXuXuXyXrX4X,X:X:X:X2X4X5XrX",
">X:X:X>X2X4X9XrXrXuXpXpXpXpXrX5X#X~.R R :X,X3X8XwXsXsXsXiXrXrXrXrXyXyXyXuXyXqXuXuXuX0X9X2X,X,X4X9XrXiXiXuXuXuXuXrXuXuXuXyXrXrX4X>X:X:X>X2X4X5XrX",
":X:X:X,X4X8XrXuXuXpXpXpXpXpXrX5X>X~.R :X,X4X8XrXrXtXtX8X8X5X5XrX0XuXuXuXqXuXyXyXiXiXyX9X4X4X3X4XrXyXuXuXuXuXuXrXuXuXuXuXrXrX4X4X>X:X:X,X4X8XrXuX",
":X:X:X,X4XrXyXiXuXuXuXuXpXuXrX5X>X:X:X>X4XrXrXrX8X8X5X5X3X5X5X5XrXyX;X-X*X*X*X7XyXuXrXrX4X3X4X4XrXyXuXuXuXuXyXuXuXuXyXrXrX5X3X,X:X:X:X,X4XrXuXuX",
":X:X:X,X5XrXuXuXyXrXrXrXyXrX9X4X,X>X>X,X5XrXyXrX5X5X4X4X3X4X5X;X9X;XF a h h j F *XyXrX8X5X4X4X4X5XrXrXrXuXuXuXyXuXuXrXrX4X4X,X>XR R :X,X4XrXuXuX",
"R R :X,X4XrX0XrX9X5X5X5X5X4X4X4X1X,X2X4XrXrXrXrX8X5X4X4X4X;X=X$X&X{.s Q Q 4 2 a -XrX9X5X4X2X1X2X4X4X5XrXrXuXuXuXtXrXrX5X3X2X,X:XR R :X,X4XrXrXtX",
"R R ~.>X3X5X5X5X2X,X,X>X,X#X1X1X4X4X5X5X5X9XrX5X9X9XrXrXrX;XF t u g 2.p.d.%.3 t $X5X4X2X,X>X:X:X>X>X2X4XrXrXiXiXrXrX5X4X1X>X:XR R R :X>X4X5X5X5X",
"R R :X>X4X4X4X4X,X>X:X~.~.~.>X1X4XrXrXrX5X5X;X;X-X&X&X;X*X|.=.4 4  .,.p.d.,.=.D &X;X4X2X>X:X:X:XR :X>X2X9XyXyXrXrX5X4X=X>X:XR R R R :X>X3X4X4X4X",
"~.@X:X,X2X2X2X2X>X>X:X:X~.@X:X4X8XuXuXuX5X4X4X=XD t h p h d >.3.p.,.~ w 4 ;.{.4X5X4X4X2X,X:X:XR R :X:X2X4XrXrXrX5X3X4X,X>X:X:X:X:X:X:X,X2X2X4X2X",
"2X,X<X,X,X<X,X,X,X,X,X>X>X>X2X5XiXaXdXeX-X+X+X{.-.^ .. .4 o.p.h.f.#.3 @ ; u {.4X&X+X4X4X4X2X>X>X:X:X>X,X4X5X4X4X2X1X,X,X,X,X,X2X,X2X2X,X,X,X1X,X",
"5X5X4X4X,X>X>X,X4X4X5X;X4X4X9XtXsXkXfXqXD y y ;.h.C.b.x.d.3.f.p...< ; @ @ # & y r S *XrX5X5X4X4X2X,X1X,X2X,X,X>X:X:X:X>X4X4X4X8X5X5X4X4X,X>X,X,X",
"rXuXrX4X,X:X:X,X4X9XrXyXrXrXyXaXkXkXwX.X-. .Q %.C.(.gXZ.k.,.3.#.4 3  .o.o.o.| 6 O % {.0XrXuXrX0X4X4X2X2X>X>X:XR R :X:X2X3XrXrXuXtXrXrX4X,X:X:X>X",
"pXpXrX5X,X:X:X,X4XrXuXuXyXqXpXdXkXdXF =.z.B.b.B.C.A.gXb.o.: > 4 #.p.v.V.V.V.V.k.5   9 K.0XpXuX0XrX4X4X,X>X:XR R R @X>X2X5XrXuXpXpXpXrX5X2X:X>X>X",
"aXpXuX5X4X>X>X<X4X0X;X&X*X*X0X0XeXoX=.%.V.D.D.D.D.Z.m.V.%.4  .#.a.M.C.Z.V.V.Z.x.! + > s  X0XuXyXrX5X3X<X:XR R :X:X>X2X4XrXyXpXpXpXpXuX9X2X,X>X>X",
"iXiXtXrX4X<X,X2X=X=XD t p h p h p 7.k.V.Z.D.D.D.Z.Z.D.C.B.M.B.V.Z.C.M.f.%. .o.o.X.~ | s s F 0X0XrX5X4X<X:X:XR :X1X4X5XrXyXuXiXiXpXpXtXrX4X,X2X,X",
"uXuXrXrX4X4X2X4X&X{.=. . . ...| 2 O.V.D.D.Z.D.Z.Z.Z.D.Z.Z.Z.V.B.B.v.p.#.2 O X + 7 ~ *.~ 3 s |.0X8X4X4X,X:X:X:X>X4X9XrXyXyXyXuXiXuXuXrXrX4X4X2X2X",
"yXyXrXrX9X5X4X+XS -.z.B.N.M.M.x.3.p.V.D.Z.Z.D.A.m.m.A.Z.v.f.4.:.o. .w 1 2 ;       * ! *.X.! s D =X4X2X,X:XI.:X<X5XrXuXuXuXaXtXtXyXyXyXrX5X5X4X4X",
"rXrXrX9XrX9X9X+Xt ..y.gXD.D.D.S.b.h.C.D.A.A.n.C.R.W.S.B.h.<.:.! < ; : , : > 8 8 7 8 8 ! _ 8 2 a +X2X,X:XR R :X,X5XtXiXeX7X7X0XrXrXrXrX5XrXrX8X5X",
"9X9X5X9X9XrX0X&Xh +.b.gXD.D.D.Z.C.C.D.D.D.n.0.p.MX6XT.w.p.p.p.,.X.6 2 ;   7 z.V.V.k.5     O : g OX<X:X:XR T I.<X5XrXuXqXJ.J.7XrXrX5X8X8X8XrXrXyX",
"5X5X5X5X9XrXuX*Xp  .n.m.C.C.Z.Z.D.Z.V.M.b.T.Q.MXNXNXU.0.e.h.h.s.>.X.2 +   7 z.D.D.M.#.5 7 6 : i OX:XI.R R R >X<X7X7X7XXX5.J.7XrX5X5X5X5XrXrXyXyX",
"5X4X4X5XrXtXuX*Xu 4 M.Z.x.h.V.D.D.V.4.X.q I.VXAXAXZXQ.0.b.N.h.a.s.,.: . @ 2  .%.f.v.b.B.V.f.: y Y I.R R I.:X>X$XL.' ' J.XXqXqXtX5X4X5X5XyXyXyXyX",
"5X5X4X5XrXuXuX*Xy 6 v.V.x.h.C.Z.D.N.3.| $ nXAXSXAXVXQ.0.m.S.h.p.h.4.=   > > O < ,.h.R.V.D.M.:.f G U R ~.:X,X<XU.' [ ) L.wXdXaXiX8X3X4X5XrXyXpXpX",
"8X3X3X5XrXuXiX-Xr < p.b.n.m.A.Z.D.Z.n.Y.Z bXCXSXBXQ.E.m.Z.C.h.a.f.<.:   : > X < ,.j.F.G.f.b.B.k.q N U :X<X.XL.' [ 5.XXsXsXkXsXsX8X5X4X5XrXtXiXpX",
"8X8X4X5XrXrXuX*XS t ^ c.W.gXS.C.Z.A.A.E.U.mXZXVXQ.0.u.S.S.N.h.i.f.,.6 + ; *   : $.6.V l G.c.S.b.o.9 G #X-X6X5.[ [ 5.XXsXkXlXkXsXtX5X4X4XrXyXyXtX",
"rX8X5X5X8XrXrXrX-XH 9 C MXBXT.y.Z.D.D.S.E.W.BXgXR.u.A.S.M.f.s.a.f.3.*.7 *     = q.6.C l K I.Y.y.b.k.s B -X7Xj.] [ { ' P.fXlXlXfXtX8X4X5XrXrXrXrX",
"tXrX5X4X4X4X4X4X1X#XB c nXmXH.@.x.N.V.C.Z.u.u.u.A.D.V.M.f.p.s.s.f.p.O.7 + . * ~ :.5.N v xXK G.Y.D.B.7 y -XwXJ.] ] } a.k.XXkXkXwXtXrX5X4X4X3X4X4X",
"tXrXrX4X4X,X>X>X:X:X!.G N y 9 < Q #.f.b.Z.Z.m.(.A.V.4.>.3.f.f.f.f.3.! ; @ 3 @.4.F.V x b xXvXnXU.E.b.< i 0XqXJ.( ( w.).).f.P.qXwXyXtXrX5X2X,X>X>X",
"uXtXrX5X<X>X:XR ~.~.~.OXS & y p p d :.3.x.N.v.B.N.v.:.X.3.f.p.f.f.3. .3 3 ^ 4.H.N l l n K vXcXI.W.y.o.j $X.X5.] ( a.).).t.d.XXqXtXyXrX5X2X:X:XR ",
"iXuXrX5X2X>X@XR ~.!.>X1X%X&X*XqXeXoXa : 2 8  .o.>.1.<.i.s.f.s.f.f.p.3.3.w.1.F.N x l z b K vXcX~.Y.r.n.c.j f ` ] ] ) q.t.(.(.k.L.qXwXrX5X2X>X:XI.",
"iXuXyXrX4X,X>X>X>X,X1X4X9XuXpXdXfXeXF t p p p t 6 *.l.k.f.s.f.s.s.f.f.f.s.1.V l l x x c M nXxXK G.c.E.V.8 o / [ { ( / g.`.`.w.5.7XyXyX8X4X,X>X>X",
"uXuXyXrXrX4X5X4X4X4X5X9XrXyXiXaXdXeXqX0X*X*X*X{.a &.'.'.k.f.s.p.f.a.g.6.C V x l x x x b M vXb n K 3XW.b.3 o W [ [ ( / q._._.a.5.7XiXtXrX9X5X4X5X",
"uXrXuXuXtXrXrXrXrXrXrXrXyXyXuXiXuXpXpXuXpXpXyX*Xt &.].].l.q.h.h.p.p.f.5.F.c x b A A c b M M J n m T E.b.3 # 1.5.} } q.t.`._.w.6.7XtXyXyXyXyXrXyX",
"rXrXyXrXuXuXuXuXuXuXyXyXuXyXrXrX0XyXyX0XrXrXrX-Xy e ].].9.#.N.N.4.:.3.f.j.1.V A 3X4XA x n J T P c g V.C.4 y *XXX6.q.(.`.[._.w.5.7XrXyXyXtXyXyXyX",
"rXrXrXrXuXuXuXuXiXpXiXuXyXrXrX5X;X4X4X4X4X4X-X{.K.8./.^.9.3.N.M.*.! 4.a.e.6.C G 8X-XA x c L :X#XC s z.k.7 p qXwXL.e.`.[.`.(.q.5.7XrXrXrXyXyXpXpX",
"5X5X5XrXrXuXuXiXpXuXuXuXrXrX4X2X1X,X>X,X>XY S 8.kXjX^.+.z.N.b.p.3 2 ,.a.a.d.6.1.;.h x J !.#X<X,X@XH s 5 + y 0XeXj.g._.`.t.q.) 5..X5X5XrXyXtXyXyX",
"5X5X5X5XrXyXyXiXuXuXuXrXrX4X4X2X,X>X~.~.~.U 0 8.zXzXk E b.A.f.#. .O.d.h.f.d.f.w.Q , c A =X4X2X,X:X@XB & r S *X.X1.p.(.(.q./ ' L.6X5X4X5XrXtXyXpX",
"5X4X4X5XrXyXuXuXuXrXrXrX5X4X4X,X,X:X:XR R P 0 8.zXzXk E V.Z...4 k.B.C.N.f.p.a.3.X.8 9 p =X5X2X,X:XI.Y @X=X&XD t < ^ q.e.{ ' XX8X5X4X5X5XrXyXuXuX",
"5XrX5X9XrXrXyXuXrXrXrX5X4X4X2X2X2X,X>X>X:XP 0 8.zXzX7.E k.x.o.%.V.D.D.S.v.f.f.p.>.*.Q =.}.4X+XI.I P Y @X4X|.=.3 3 4 W / ' L.7X0X9X5X5XrXrXrXuXuX",
"rXrXrXrXrXyXrXyXrXrX5X3X3X4X4X3X4X5X4X4X,X!.u 8.zXzX9.- 1 %.z.V.D.D.Z.S.Z.M.h.s.s.p.3.4.1.k h i i i i h p ;.>.3.3.,.^ q .XtXyXrXrXrXrXrXrXuXyXrX",
"yXrXrXyXuXuXtXrX5X5X3X4X4X4X4X5X8XrXrXrX4X@Xu 8.zXzXXX7.2 ..m.m.D.Z.Z.D.D.Z.h.p.p.s.f.s.>.X.! 4 4 4 4 4 3 ..d.h.d.%.s D 8XyXyXyXyXrXrXuXrXuXuXrX",
"uXuXuXuXuXyXyXrX5X4X4X2X4X4X5X8XrXuXuXrXrX+Xt &.].hXzXjX9.a.C.gXD.Z.S.D.D.Z.h.3.:.>.p.f.p.3.3.3.,.3.,.3.4.p.f.p...s |.0XuXuXuXuXuXuXtXuXuXyXyXrX",
"pXiXuXuXyXuXyXrX5X4X4X3X3X5X5XrXrXuXuXuX0X-XD k ^.].zXzXY.w.M.Z.Z.D.D.Z.S.N.h.3.*.~ <.f.f.f.d.f.f.h.f.f.d.p.3.#.s F 0XiXeXdXaXaXpXuXuXuXuXyXrXyX",
"aXiXtXyXuXuXrXrX5X5X4X5X5XrXrXrXyXuXuXyXuXrX;XK.e 9.].hX9.` a.b.Z.D.D.D.v.h.h.3.8 4 3.f.d.f.f.h.h.h.h.s.>.*. .s |.0XuXeXfXkXfXfXaXpXuXyXuXuXrXrX",
"pXpXyXyXyXuXuXrX5X4X5X5XrXrXuXiXyXuXuXuXuXrXrX=XB &.^.'.o.! #.p.v.V.b.b.d.p.s.>.2 2 ,.h.h.d.s.<.,.3.,.,.| 3 a F 0XyXuXeXfXkXkXfXaXuXyXyXyXuXrXrX",
"aXiXyXyXyXyXrX5X5X5X4X5XrXyXuXuXuXtXyXuXuXuXrX5X%XH d e 3 2 3 ~ >.3.@.@.p.p.:.! + : <.h.h.s.>.*.~ 3 4 3 3 a |.0XrXuXiXdXfXkXkXkXaXpXyXyXuXrXrXrX",
"pXuXyXrXrXrXrX5X5X4X4XrXrXrXuXuXuXyXuXuXuXuXuXrX4X#XS t f a , : < q D G.6.3.>.! O * :.p.3.>.~ 8 a i i h a K.0XuXuXuXiXaXfXfXfXfXaXiXyXrXrXrX5XrX",
"iXuXtXrX9X5X5X4X3X3X5X5XrXuXuXuXuXuXrXuXuXuXrXrXrX9X%X+X@XH a : o N mXMXT.0.a.,.=   1 4 Q 4 2 q K.#X=X-X*X7XuXuXiXiXuXpXaXdXaXaXpXuXuXrXrX4X4X4X",
"iXuXyXrX5X5X4X4X4X4X4X5XrXyXuXuXuXuXuXyXuXuXuXuXyXyX9X4X1X!.C t 0 A mXmXL.@.<.:.f & u i u u a S 1X9XrXuX0XuXuXuXuXuXuXuXiXiXiXiXiXuXrXrX5X5X4X3X",
"uXuXtXrX5X5X4X4X4X4X4X5XrXrXrXuXuXuXuXuXrXuXuXuXuXrXrX4X>XI.I Y !.P N N 9 : : q G Y P P P I I.+X8XrXuXuXuXrXrXrXrXrXrXrXrXrXrXuXuXrXuXrXrX4X5X4X",
"yXuXuXyXrXrX5X4X4X4X3X3X5XrXrXrXrXuXuXuXuXuXuXrXrXrX5X2X>XR R R >X!.B % 0 & % B U R R I.:X>X4X5XrXuXuXyXrX5X5X4X4X4X4X5XrXrXrXrXuXuXuXrXrX8X5X4X",
"uXuXpXuXtXrXrX9X3X3X4X4X5X5X5XrXrXuXuXpXpXuXuXrX5X4X,X>X:XR R R ~.~.!.P P P P U R R ~.>X2X4X5XrXiXiXuXrX3X1X>X>X>X>X,X2X4X5X9XrXyXuXpXuXyXrXrXrX",
"rXuXuXuXuXuXrXrX5X4X4X4X3X4X4X9XrXrXuXuXpXuXrX9X4X>X:X~.~.R !.~.~.~.!.:X:X!.~.T R R :X>X3X9XuXuXiXiXrX5X2X>X:XR :X:X>X,X2X4X5X9XrXuXuXuXuXyXrXrX",
"rXrXrXrXrXrXrXrX5X4X4X4X4X4X5X8XrXrXrXrXuXtXrX4X>X:XR R ~.:X>X:X:X~.:X:X:X:X:X:X:X:X>X4X9XyXiXpXiXyXrX5X<X>X:X:X:X:X:X>X,X=X4X4X9XrXrXyXrXrXrXrX",
"4X5X5X5X5X5X5X8XrXrX5X5X5X5X5X5XrXrXrXrXrX5X4X2X:XR R R >X,X1X1X1X1X,X,X,X,X,X,X,X,X2X4XrXiXpXpXyXrX9X4X2X<X>X>X>X,X,X>X,X,X<X2X3X5X5X5X5X5X5X5X",
",X2X2X,X,X,X<X2X4XrXrXrXrXrXrXrXrX4X4X4X2X2X>X:XR R R :X1X5X4X9X4X;X4X5X4X5X5X5X5X5X5XrXyXuXuXyXrX9X5X5X5X4X5X4X5X5X4X2X,X>X:X:X,X,X<X<X<X,X2X<X",
">X:X:X:X:X:X>X2X5XrXtXyXuXuXrXrX8X5X4X2X,X:X:XR R R :X,X5X9XrXuXrXrXrXrXrXrXrXrXrXrXrXrXuXuXyXrX5X5X4X5X5XrXrXyXyXyXrX4X,X:X:XI.:X:X:X:X:X:X,X,X",
"R R ~.R R R :X2X5XrXiXiXiXiXyXrX9X9X4X1X>X:XR R R :X>X2X5XyXuXpXpXaXiXuXuXuXuXuXuXuXuXuXrXrXrXrX4X5X4X8XrXuXuXiXpXuXrX9X1X>X:X~.R R R R R R >X,X",
"R R R R :X:X>X2X9XrXiXiXpXuXuXrXrX9X4X1X:X~.R R :X>X2X4XrXyXiXaXdXdXdXdXpXpXiXuXuXuXuXrXrX5X4X4X4X5X5XrXrXuXiXpXpXiXuX9X5X1X>X:X:XR R R R :X,X,X",
"U U R :X>X,X2X4XrXrXiXiXuXuXuXuXuXrXrX4X>X:XI.:X1X2X5X9XrXyXiXdXfXfXkXfXaXiXuXuXuXuXrXrX4X=X1X2X5X5XrXrXyXyXiXuXuXuXuXrXrX9X4X,X:X:XR R :X,X4X4X",
"U R :X>X2X2X4X5XrXyXyXuXuXuXuXuXpXuXrX4X>X:X:X>X4X9XrXyXrXyXiXdXkXkXkXfXaXpXuXrXuXuXrX4X1X>X>X,X5XrXtXuXyXiXyXyXuXuXuXuXyXrX9X4X,X:X:X:X,X2X4X4X",
"U Y I.mX2X3X4XrXrXuXuXuXuXuXuXuXuXrX9X4X>X:X:X<X9XuXpXpXuXuXiXdXfXlXlXfXaXpXyXyXiXuXrX5X,X~.:X,X5XrXuXpXiXyXyXiXyXyXiXuXpXiXyX5X<X:X:X:X<X4X5X8X",
"U Y :X<X2X2X5XrXyXuXuXuXuXuXuXrXrXrX3X2X:X:X>X2XrXdXdXdXpXiXpXpXfXfXfXfXaXiXuXuXiXuXrX4X>X~.~.>X5XrXpXpXiXiXuXyXiXyXuXiXpXpXuX5X<X:X:X>X<X3X5X8X",
"P Y :X<X2X3X5XrXrXuXpXpXpXiXuXrX4X4X,X:XR ~.:X3XsXfXlXfXdXpXiXiXaXdXdXaXpXiXuXiXpXiXyX5X,X:X:X,X5XrXuXpXiXuXiXuXyXiXpXpXaXpXyX9X<X>XI.:X2X4XrXrX",
"U Y :X<X2X3X8XrXtXuXpXpXaXpXyX5X3X,X>XI.R R >X8XeXkXlXlXdXiXiXiXpXpXpXaXiXpXuXiXpXiXrX9X,X:X:X,X9XyXpXpXpXiXuXuXiXiXpXpXpXpXrX9X<X:X:X>X<X4X5X8X"
};
