/* XPM */
static char *da46468e1a9347a6e7877527600d208cp7s4IWaEjCagup4V[] = {
/* columns rows colors chars-per-pixel */
"72 72 245 2 ",
"   c #010101",
".  c #0E0809",
"X  c #1A0E05",
"o  c #161713",
"O  c #1A1A13",
"+  c #2A1501",
"@  c #231409",
"#  c #341604",
"$  c #362303",
"%  c #232216",
"&  c #262519",
"*  c #343513",
"=  c #0F2F29",
"-  c #35352B",
";  c #451A0B",
":  c #51150D",
">  c #690A08",
",  c #482600",
"<  c #592705",
"1  c #542F13",
"2  c #4A3815",
"3  c #533B15",
"4  c #573916",
"5  c #5D3C13",
"6  c #632A06",
"7  c #772A0A",
"8  c #673408",
"9  c #76360A",
"0  c #7B3A0C",
"q  c #652D13",
"w  c #6B3713",
"e  c #743514",
"r  c #7A3816",
"t  c #7B361A",
"y  c #553428",
"u  c #793824",
"i  c #574219",
"p  c #6C400B",
"a  c #7B5708",
"s  c #664517",
"d  c #7A4417",
"f  c #7E6007",
"g  c #524A2C",
"h  c #6A562C",
"j  c #775C2B",
"k  c #705333",
"l  c #7D6A34",
"z  c #253C51",
"x  c #1B4447",
"c  c #04475A",
"v  c #264355",
"b  c #264857",
"n  c #2A4958",
"m  c #364A57",
"M  c #28535E",
"N  c #37535B",
"B  c #0B5764",
"V  c #2E5761",
"C  c #385E64",
"Z  c #09767A",
"A  c #2E6A71",
"S  c #3B787A",
"D  c #4B484D",
"F  c #544B55",
"G  c #485656",
"H  c #6C514D",
"J  c #54665D",
"K  c #6F6B4C",
"L  c #786846",
"P  c #696A59",
"I  c #74695B",
"U  c #7A775B",
"Y  c #546966",
"T  c #4B7A7A",
"R  c #687A6A",
"E  c #767666",
"W  c #7A7A6C",
"Q  c #757C73",
"!  c #7D7D70",
"~  c #8D050E",
"^  c #AE021C",
"/  c #813C0E",
"(  c #833C13",
")  c #833B1B",
"_  c #8B3D1D",
"`  c #903312",
"'  c #BD0021",
"]  c #B41228",
"[  c #BC1628",
"{  c #893F22",
"}  c #B12A2D",
"|  c #B72531",
" . c #B53435",
".. c #C10820",
"X. c #C62921",
"o. c #8C4314",
"O. c #88471A",
"+. c #914415",
"@. c #92421D",
"#. c #9A4919",
"$. c #8B5213",
"%. c #B94D0E",
"&. c #A64B1D",
"*. c #B94F1A",
"=. c #A8521E",
"-. c #89680D",
";. c #974422",
":. c #8C5226",
">. c #A64925",
",. c #AD4D23",
"<. c #B44F23",
"1. c #B94A26",
"2. c #B65123",
"3. c #BC5325",
"4. c #B8532A",
"5. c #AF5135",
"6. c #BB5635",
"7. c #8F7331",
"8. c #937734",
"9. c #AB692E",
"0. c #D14E09",
"q. c #C8551B",
"w. c #D25B1C",
"e. c #E25E07",
"r. c #E6671C",
"t. c #F77010",
"y. c #CD4E23",
"u. c #C35526",
"i. c #C95926",
"p. c #C45628",
"a. c #CC5A29",
"s. c #D55923",
"d. c #D15D2B",
"f. c #C25934",
"g. c #CE632D",
"h. c #C36C29",
"j. c #D6672A",
"k. c #D4632C",
"l. c #DB652E",
"z. c #CD673D",
"x. c #DD6830",
"c. c #CC7D3E",
"v. c #E76C2B",
"b. c #F06C20",
"n. c #FB7529",
"m. c #E46D32",
"M. c #EB6E33",
"N. c #E46F3D",
"B. c #E87135",
"V. c #EC7234",
"C. c #F47536",
"Z. c #F77737",
"A. c #FD7A35",
"S. c #FC7B3A",
"D. c #91544B",
"F. c #AC5645",
"G. c #8B7846",
"H. c #937C47",
"J. c #976A55",
"K. c #847A57",
"L. c #AA6A51",
"P. c #8D7367",
"I. c #867968",
"U. c #A77867",
"Y. c #C96844",
"T. c #D17052",
"R. c #E97949",
"E. c #F27D4A",
"W. c #E77E55",
"Q. c #CD786E",
"!. c #7B856B",
"~. c #7E8073",
"^. c #B78A16",
"/. c #D0970D",
"(. c #E99A18",
"). c #EDB10C",
"_. c #F7B312",
"`. c #CB932B",
"'. c #D1A432",
"]. c #FEC20F",
"[. c #8E824D",
"{. c #888459",
"}. c #8B8A5B",
"|. c #958957",
" X c #928D5C",
".X c #96935D",
"XX c #9A945E",
"oX c #B5875F",
"OX c #8A8A64",
"+X c #868569",
"@X c #928C67",
"#X c #939363",
"$X c #989667",
"%X c #9C9B64",
"&X c #9C9C6C",
"*X c #838370",
"=X c #878870",
"-X c #8C8C70",
";X c #908F70",
":X c #8E9070",
">X c #949470",
",X c #9A9670",
"<X c #979970",
"1X c #9B9B70",
"2X c #AF8C66",
"3X c #A59B66",
"4X c #A19D70",
"5X c #9FA270",
"6X c #A3A36D",
"7X c #A9A56D",
"8X c #B7AC6E",
"9X c #A4A470",
"0X c #A9A570",
"qX c #A7A870",
"wX c #AAAA70",
"eX c #ADAA70",
"rX c #ADAD70",
"tX c #B3AD70",
"yX c #B7AD70",
"uX c #B5B170",
"iX c #BDB370",
"pX c #EB835D",
"aX c #D7B353",
"sX c #F08F7B",
"dX c #CBAC68",
"fX c #C3B570",
"gX c #C5B870",
"hX c #E6C568",
"jX c #1A7D81",
"kX c #927480",
"lX c #008487",
"zX c #2F8283",
"xX c #3F97AA",
"cX c #428382",
"vX c #48829A",
"bX c #79898C",
"nX c #928E8F",
"mX c #B4908C",
"MX c #AAABB5",
"NX c #C99C9F",
"BX c #D4B8CE",
"VX c #BED4F6",
"CX c #CDC4DC",
"ZX c #D2D4F3",
"AX c #DFE3FF",
/* pixels */
"! ! ! ! Q ! =X;X1X9XrXrXrXwXwX9X9X1X>X;X=X! ! ! ! *X-X>X1XqXrXrXtXtXtXtXrXqXrXqXrXwXwXwX9X9X4X1X1X1X1X1X9XwXwXrXrXrX9X9X>X=X=X! ! ! ! Q ! I.=X=X",
"! ! ! ! I.*X=X<X4X9XwXrXwXwXwX9XqX4X1X;X=X*X! ! *X=X:X1X5XqXrXtXuXuXuXtXrXeXqXeXwXwXwX9X9X1X1X1X1X1X1X9X9XwXeXrXrXrX9X9X>X>X=X*X! ! ! ! ! *X-X:X",
"*X*X! ! =X-X>X<X9X9XrXwXwXwXwXwXeXqX9X>X=X*X! *X:X>X1X5X9XqXtXtXuXfXiXuXtXeXeXqXwXqX9X9X<X>X>X>X1X1X9X9XqXwXqXwXwXwXqXqX9X1X,X>X=X*X~.~.=X:X>X>X",
"*X*X*X*X=X>X<X1X9X9XwXwXwXwXqXwXqXqX9X1X-X*X*X=X>X5XqXqXqXqXeXuXfXgXgXiXtXrXqXqXwXwX9X1X-X=X=X-X1X9XqXwXwX9XwXwXwXwXwX9X9X9X9X>X=X*X*X*X=X;X1X1X",
"=X*X*X*X-X<X1X9X9XwXwXwXqXwX9XwXqXqX9X>X*X*X*X>X4XqXtXeXqXqXeXtXfXfXgXfXtXeXqXqXwXwX9X1X=X*X*X=X1X9XwXwXwXwXqXwX9XwXwXwXrXwX9X1X-X*X*X*X:X>X1X1X",
"-X=X*X*X-X<X1X1X9X9XqXwXwXwXqX9X9X1X1X:X*XI.*X>X0XtXuXuXrXeXqXtXyXiXfXyXtXeXqXqXwXwX9X>X=X~.I.=X1X9XwXrXwXwXwXwXwXqXqXwXrXrXwX1X-X*X*X*X:X,X1X5X",
"=X=XI.*X-X>X<X9X9X9XwXwXwXwX9X9X1X>X-X*XQ ! I.,XeXyXfXfXuXeXqXrXtXtXtXtXeXeXeXqXwXwX9X1X=X*X*X=X1X9XwXwXwXwX9X9XwXqXwXwXrXrXqX1X:X*X*X*X:X;X1X1X",
"-X=X~.*X-X<X<X4X9XwXwXwXrXwX9X1X>X=XI.! Q ! =X,XyXfXgXfXuXeXqXqXeXqXeXeXqXqXeXqXwXwX9X1X=X*X*X-X<X9XwXwXwXwXwXwX9XwXwXwXrXrX9X1X:X*XI.*X:X>X1X1X",
"=X=X*X*X;X<X<X9X9XqXwXrXrXwX9X1X-X*X! Q ! ! -X4XyXfXfXfXtX0X9X9XqXqXqXqXqXqXwXwXwXwX9X1X-X=X=X-X1X9XwXrXwXqXwX9XwXwXwXwXwXwX9X1X-X*X~.=X:X>X1X4X",
"*X*X*X=X>X<X9X9X9XwXwXrXrXwX9X1X-X~.! ! *X=X,X4X0XyXyXyXeX9X9X9X9XqXqXqXwXqXwXwXwXwX9X1X>X-X=X>X9X9XwXwXwXwXwXwX9XwXwXwXqX9X9X>X-X*X*X=X;X1X4XqX",
"*X*X*X-X<X4X9XwXwXwXrXrXrXrXqX1X=XI.! *X:X<X4X9X4X0X0X4X4X1X4X9XqXqXqXeXwXwXwXwXwXwXqX9X1X>X>X>X9X9XwXwXwXwXwXwXwXwXwXwX9X9X1X>X=X*X=X-X1X1XqXqX",
"*X*X*X-X<X9XwXwXwXwXwXrXrXeX9X<X=X*X*X=X<X9X9X9X4X4X4X1X<X<X1X1X9XqXeXqXwXwX9XwXwXwX9X9X1X>X1X1X9XqXwXwXwXwX9XqXwXwX9X9X9X1X>X-X*XI.*X-X1X9XqXqX",
"I.*X*X-X1X9X0XeX9X0X9X9X9X9X9X<X-X*X=X-X1X9X9X9X4X1X<X<X<X<X1X1X1XqX0X9X0X9X6XwXqX9X9X4X1X<X<X1X1X9X9X9XwXwXqXwXwXwX9X9X1X>X>X=X*X! =X-X1X9XwXrX",
"! ~.*X-X<X9X9X9X9X1X1X1X1X1X<X<X>X-X>X<X1X9X9X9X4X1X<X1X1X<X1X4X1X,X XK.}. X|.XX6X9X4X1X<X>X:X>X<X<X1X9X9XwXwXwX9X0X4X1X>X>X=X=X! I.*X=X1X9X9X9X",
"! ! ~.=X<X1X4X1X>X-X=X=X-X=X-X>X<X<X1X<X9X1X4X9X5X9X9X9X9X9X4X&X>XOXh 5 5 5 s j  X4X<X>X-X=X=X*X*X-X>X<X9X0XwXwX9X9X1X<X;X=X*X! Q Q *X=X>X1X1X4X",
"! ! *X=X<X<X<X<X-X*X*X! *X*X=X-X<X9X9X9X5X1X1X1X9X9X9XwXwX6X.X{.W L d / / 0 8 8 {.&X<X>X=X*X*XI.I.*X=X>X5X9XwXwX9X1X<X>X=X*X! ! ! ! *X=X>X1X,X,X",
"I.~.=X=X>X>X>X>X-X=X*X*X! *X=X>X9X0XeX0X1X1X<X1X9XqXqXqXrX%Xj 3 2 d <.u.i.=.9 5 {.1X<X>X-X*X*XW ! ~.=X-X1X4X9X9X1X<X>X-X=X=X*X*X*X*X=X-X;X>X>X;X",
":X:X>X-X-X-X-X-X-X=X=X-X=X=X>X1XeXtXtXtX4X<X&X,X X[. X.X.XG.d 0 0 ` =.u.u.=.O.k  X1X<X<X<X:X-X-X=X*X=X-X>X1X1X<X>X;X-X-X-X-X-X-X:X;X:X-X:X;X;X;X",
"1X1X1X>X-X=X=X-X<X<X1X1X<X<X4X0XyXiXiXyX6X&X<XOXh 2 3 2 i d ,.3.u.2.+.0 / O.K.$X4X9X9X9X1X1X<X>X>X-X>X-X;X;X-X=X*X*X=X-X>X<X1X9X1X1X1X>X-X=X=X=X",
"wXqX9X<X-X*X=X-X<X5XqX9X9X9X0XtXfXfXfX8X XU +XG.$.o.o.o.p +.u.k.a.=.8 $ , 2 K #X{.}.|.XX6XwX6X6X1X1X>X-X=X=X*X! I.~.=X-X<X9XqX9XqXqX9X1X-X*X=X=X",
"rXrX9X1X-X*X=X-X<X9X0XwXqXwXrXuXfXgXgX3Xh * & O.j.V.v.v.u.u.s.u.+.6 , $ $ $ O & % 1 5 j 3XrXwX7X9X1X<X;X=XI.! ! I.*X=X>X4X9XrXrXrXqXqX1X;X=X=X=X",
"rXrXwX1X>X=X=X-X<X9XqXqXrXrXrXuXfXgX3X[.O.o.o.=.b.pXpXn.a.<.2.&./ 9 o.#.#.#.) w @ X < r [.XX.XXX1X1X<X;X*X~.! W P.J.;X,X9X9XrXrXuXrXqX1X;X=X-X=X",
"rXrX0X9X<X;X;X;X>X&X5X5XqXrXrXuXuX3Xg d j.b.m.B.Z.S.S.B.#.< 6 0 #.u.x.V.B.V.V.g.q   r O.d s s j $X1X<X;X*X~.~.P. . .|.4X9XwXwXrXtXqXqX5X,X;X:X:X",
"wXwX0X9X,X<X>X<X>X>X}.{.}.}.}.}..XH.O.=.v.pXS.S.A.S.S.v.=.d d &.a.m.C.Z.V.B.C.l.r ; _ _ e 8 8 r G.@X<X-X*XI.I.L. . .2XqXwXwXwXwXqXqXqX9X1X,X>X;X",
"qXqX9X9X1X1X<X<X<XOXg 1 3 3 3 2 * $.g.B.Z.S.S.S.Z.A.Z.C.B.m.m.V.Z.Z.m.g.&.o.#.+._ { _ _ _ _ _ ) w j OX:XI.K. . .L.4X0XeXeXeXqXqXqXqX9X9X1X1X1X1X",
"9X9X5X9X9X1X9X&XOXH.:.+.$.+.o.o.8 &.n.pXS.Z.S.Z.A.C.Z.S.Z.C.C.B.B.x.4.=.s * $ < e ) t ) _ ;.;._ 0 w L !.! P.[ [ L.4XeXeXqXqXqX0X9X9X9X4X9X9X4X1X",
"1X9X1X1X9X9X6X.Xh $.k.m.v.v.m.l.2.u.V.A.Z.Z.A.A.n.n.A.C.m.a.4.>.#.o.o.O.[.[.s < +     ; { ;.;._ @.( w g W P.| ..X.F.2XyXqXqX9X9X9X1X1X9X1X9X9X9X",
"1X1X1X1X9X9XwX}.1 +.b.pXn.pXS.Z.v.l.C.A.A.A.b.M.R.W.C.M.d.1.;.) 6 , , s 6X%Xs 8 e r e r t ) t t t r w w P D.} ......L.0XqXqXqX4X1X1X1X1X9XqXqXqX",
"1X1X1X1X9X0XqX}.i o.m.S.S.S.S.Z.V.C.S.S.S.n.0.w.2XmXT.w.y.u.3.<._ e 8 s %X%X& w g.V.V.g.e         ; t O.s { [ ..' ' ] 6.2XtXwX9X1X1X1X1X9XqXqXeX",
"1X1X<X1X9XwXrX}.* o.m.S.C.C.Z.Z.S.Z.V.m.v.T.Q.mXMXMXL.0.w.d.d.p.,._ 8 s %XXX& e j.A.S.m.#.6 9 9 e r t t , > ^ X.q.y.X.[ 2XiXtXeX4X,X>X1XqXqXrXrX",
"4X,X<X1X9XwXwX{.% r m.C.l.s.C.S.S.V.3._ u kXCXZXAXCXQ.0.r.M.d.i.a.,.1 & %X%Xi 8 o.=.a.l.v.M.v.v.B.a.w     : ^ w.(.(.y.[ 2XyXiXyX0X,X>X1X9XqXqXqX",
"4X4X<X<X9X9XwX{.% 9 x.C.k.j.C.Z.S.V.3.O.= vXVXAXZXBXQ.w.n.Z.k.i.a.1.< O K |.d 8 # 6 &.d.N.R.W.E.S.v.&.6 q ` ~ q._._.`.p.T.dXfXyX4X1X1X1X9XqXqXqX",
"0X4X1X<X5X9X6X{.O q 3.m.b.n.A.A.Z.A.b.z.J xXZXAXNXT.R.n.S.C.d.p.a.1.: . 3 d @.t X 6 *.f.D.D.! U.Y.e.v.v.M.d.> a )._._.(.q.6.2XfX0X4X,X1X9X9X9X9X",
"0X9X1X<X<X&X<XE - 1 ` f.W.pXR.B.Z.S.A.R.|.nXCXBXQ.0.t.S.Z.M.d.p.a.2.q + , 8 @.{ . < %.6.F B jXT J.Y.R.E.S.v.{ d /.).]._.w.[ oXiXeX4X1X1X1X>X,X,X",
"0X9X9X<X<X-X=X*XE k : k mXmXT.r.n.S.S.S.R.pXsXsXE.b.S.Z.m.a.a.p.a.3.;.e # ; { )   : %.6.F B jXcXT Q Q U.f.r.m.d.$.-.]._.s.[ oXyXeX9X9X1X>X:X=X=X",
"wX0X9X1X;X=X*X~.! E - b bXnXF.%.j.B.C.Z.n.n.t.t.n.Z.C.l.i.u.p.i.a.3.>.e # + e t 6 t 1.F.F c A jXzXlXjXT J.z.S.m.: $ /.(.q.| 2XeXqXqX9X1X;X=X*X! ",
"wXwX9X1X:X=X*XI.! *XW J G D 1 6 / &.a.m.Z.S.n.n.S.C.6.>.u.p.i.i.i.3.o., , #   6 %.>.D.D n b V C jXcXzXcXT U.E.m.: . *.y.X...2XwXeXqXqX1X;X=X*X! ",
"wXwXwX9X>X>X=X=X*X-X>XOX- o O & * s #.3.k.N.m.m.M.x.,._ 3.a.a.i.a.3.o.9 / 0 < r 5.F.F c c v z M T cXT jXjXnXR.r.&.7 ~ ' [ F.2X9XeXqXqX4X1X;X=X=X",
"wXwX0X9X9X<X<X<X<X<X&X&XOX{.}. XXXH.q q q r o.#.,.,.1.y.p.a.p.i.i.u.3.2.3.q.0.>.D.F n c b b v V jXcXcXcXlXQ Y.e.v.a.) : L.3X7XqXqXeXqX9X4X1X1X,X",
"qXqXwXqX0X9X9X9X9X9X9X9XqXwXqXrXrX%X- o % % * 3 w @.h.g.a.a.p.i.u.a.a.a.6.6.6.F.F c c n n v v V T T S jXZ R J.Y.S.M.r & XXrXqXqXqXqXqXqXqXqX9X9X",
"9X9XqX9XwXwXwXwXqXwXwXwX9XwX9X9XwX5X}.!.{.{.OXL 5 -.`.'.j.y.u.u.a.a.s.6.D.D H F m c n n n b z V S T A n M C T 2XpXb.9 &  XeX0X9X9XqXqXqXqXqXqXeX",
"9X9X9X9XwXwXwXwXrXrXwXwX9X9X9X1X&X<X1X$X$X$X5XOX2 f `.'.h.1.d.k.p.u.q.6.H n c c V G G N n b v V A S C G G B Z I.R.v.0 & }.eXqX9X9X9X9X9XqXqXqXeX",
"1X1X1X9X9XwXwXrXrXrXrX9X9X5X1X>X-X-X*X-X-X-X:X+X% a /.'.9.>.m.B.2.;.3.p.6.F.G B !.9X9X!.N n b M V C R OX-XR x k V.V.r % }.wX9X9X4X1X1X9XqXqXeXeX",
"1X1X1X1X9X9XwXwXwXwXqX9X9X1X>X>X-X-X~.~.W !.U K.7.[.`.`.=.4.V.m.;._ p.k.w.5.D.H OXqX9X>XY n b b m G ~.;X&XOX& 7 k.g.e % {.wX9X9X1X1X1X1X9XqXqXeX",
"1X1X<X1X9XwXwXwXwXwX9X9X1X1X>X>X=X=X*X! ! I y 8.dXaX8.#.j.V.v.q.9 0 x.V.k.u.6.5.d l 6X6X1XR b n Y Q *X-X&X%XO.e r w + o {.wXqX9X1X1X1X1X9X9XeXqX",
"5X1X4X5X9X9X9XwXqX9X9X1X1X>X>X>X>X-X=X-X*XI : 8.hXhXl > V.Z.a.#.o.=.B.S.l.a.s.*.0 5 G.&X6X:XY J ! I.E E +X|.5.@.#   . g }.qX9X9X1X1X1X4X9X0XqXeX",
"9X9X9X9X9XwXwX9X9X1X1X1X>X>X>X>X1X1X1X>X>XI ; 8.hXhXj / C.C.#.0 g.V.S.Z.Z.M.d.3.;.e 5 h $X&X:X!.*XE h 1 2 O.2.<.9 2 K #X6XqX9X9X9X9X9X9XqXqXqXqX",
"9X9X9X9XwXwXqX9X1X1X1X,X>X1X1X1X1X9X9X4X1XW : 8.hXhX7.~ k.j.#.=.B.S.S.S.S.Z.k.u.,.;.0 r G.OXOXI.E L d 9 9 +.p.3./ s %XqXqX9XqXqXqX9X9X0XqXqXqX9X",
"wXwXwXwXwXqXqX9X1X<X,X>X<X<X1X4X9XwXwX9X9XK.1 7.hXhX9.> 7 =.j.b.Z.S.S.Z.S.C.k.u.u.u.3.,.d i 4 3 2 r ,.3.2.3.s.3./ 5 .XwXeXeXeX0XqXqXeXeXqXqX9X9X",
"rXeXwXwXqXwX9X9X1X<X<X<X,X1X4X9X9XwXwXwX9X{.; 7.dXhXoX5.w +.m.pXS.Z.Z.S.Z.m.d.p.p.p.a.p.o.9 0 0 9 +.3.d.d.a.3.=.d j XXeXtXtXtXtXtXqXqXqXrXqXqX9X",
"rXeXqXwXwXwX9X9X1X<X1X1X1X9X9X9X9XwXwXwX0X|.1 -.'.hXhXaXh.y.V.S.S.Z.S.C.l.a.s.p.>.>.p.a.4.2.3.2.3.3.a.a.d.u.+.s G.%X6XtXyXfXiXiXtXeXqXqXqXqXqXqX",
"tXrXwX9XqXwX9X9X1X1X<X1X9X9XwXwXwXwXqXwXrX#Xh -.^.'.hXhXc.y.V.S.S.Z.Z.M.a.u.u.=.@.@.3.a.a.a.d.a.a.a.p.3.3.=.d h %X0XrXtXfXfXfXiXtXeXqXqXqXeXqX9X",
"rXeXqXqXqX9X9X9X1X<X<X1X9XqXwXwXqXwXwXwXrX6X%XG.a -.aX'.9.1.V.S.S.C.x.a.a.3._ 0 t ;.4.a.a.a.k.a.d.a.,.;.( d G.%X9XwXeXtXiXfXfXfXtXeXqXqXqXqX9X9X",
"tXeXqX9X9X9X9X1X1X<X1X1X9X9XwXwXwXwXwXqXrXrX9X#Xg -.^.^.:.>.k.b.C.M.a.u.u.,.6 < @.,.p.a.3.2.3.2.2.,.o.r 8 h %XrXwXwXrXtXiXiXiXiXtXeXqXqX9X9X1X1X",
"wXwX0X9X5X1X1X<X<X<X<X9X9XwXwXwXqXwXqXwXqXwX9X9X#XG.-.a p 9 ` %.d.d.a.p.1.{ # < ,.a.d.p.,.;.( 0 0 0 8 w G.%XrXrXrXwXeXrXtXuXtXtXeXqXqX9X1X1X1X1X",
"wXwXqX9X1X1X<X<X,X<X1X1X9X9XwXwXwXwX0XqXqXwXwXwXeX$Xh 1 , y D.J.6.i.a.3._ q X < &.u.3.,.@.e w 3 i w s j %XwX9XwXwXwXwXwXeXeXeXeXeXqXqX9X5X1X1X>X",
"wXqX0X9X9X<X<X<X<X<X<X4X9X9XwX0XwXwXwX9XwXwXwXwXqXqX#XH . D nXmXT.0.s.4.q @ , 6 0 / 0 0 w w L +X}.|.XX$XqXqX9X9X9X9X9X9X9X9XqXwXeXqXqX9X4X1X1X,X",
"wXwXwXqX9X4X4X<X<X,X<X,X1X4X9X9X9XwXwXwXwX0XwX9XqX5X5X+X- D bXnXL.%.3.;.q O w s 5 3 4 5 8 h OX1X9XwXeXqX9X1X<X1X<X<X<X1X9X5X9X9XqXqXeXqX9X4X1X1X",
"wXwXeXwX9X9X9X5X,X<X<X<X<X1X1X9X9XwXwXrXrXwXqX9X&X>X-X=XE J D D 1 < 6 q H E U U I P I U K.OX&X9XwXeXqX4X>X:X-X=X-X=X-X>X<X1X5X9XqXqXeXqXqXqX9X4X",
"9XqXwXwXwXwX9X9X1X<X<X,X<X<X<X5X9X9XwXwXrXwX9X5X>X-X+X~.!.U - o o o . - E I.! ! ! ! *X-X1X5X0X7XwXwXqX9X;X=X~.I.I.*X=X-X;X<X1X5XqXqXeXqXqXqX9X9X",
"9X9X9X0X0X9X9X9X1X<X<X<X<X1X<X4X9X9X9X9XwX9X6X<X-X*XW ! *X*XI P P P P P ~.~.*X~.*X*X=X<X1XqXrXrXeXqX9X<X;X=X*X*XI.*X=X=X;X>X<X<X5X9XqXqX9X9X9X9X",
"<X1X1X1X1X1X1X1X4X9X1X1X4X1X4X1X9X9X9X9X9X1X<X:X*X~.! ! *X-X:X:X:X-X:X-XOX:X-X:X-X-X>X<X9XwXrXwXwX9X9X<X;X:X=X=X-X-X-X=X-X-X;X>X>X1X1X1X1X1X1X1X",
"-X>X>X-X-X-X-X<X1X9X9X9X9X9X9X9X4X1X1X<X<X>X-X*X! ! ! *X>X<X5X1X<X1X<X<X1X1X<X1X1X1X1X9XwXrXrXwX9X4X<X1X1X1X1X1X1X1X<X>X=X=X*X*X-X:X:X:X-X;X>X>X",
"=X*X*X*X*X*X=X>X1X9XqX0XwX9X9X9X4X<X<X<X-X*X*X! ! ! *X-X<X5X9XqX9X9X9X9X9X9X9X9X9X9X9X9XwXwX0X9X1X1X<X1X1X5X9XqXqX9X4X1X:X=X~.I.*X*X*X*XI.=X=X-X",
"! ! ! ! ! *X=X-X1XwXwXrXwXwXqX9X9X1X>X>X=X*XW ! ! *X*X>X1X9XwXrXrXrXeXrXwXwXwXwXwXwXwX9X9X9X9X4X<X1X<X4X9XwXwXrXrXwX9X1X>X=X*XI.~.! ! ! ! ! =X=X",
"! ! ! ! ~.*X=X>X1XqXwXrXrXwXwX9X9X5X,X>X=X~.! ! *X=X>X<X9XwXrXtXuXuXiXtXrXwXwXwXwXwXwX9X9X1X<X1X<X1X1X9X9XwXwXrXrXrXqX9X<X>X=X*X~.! ! ! ! *X=X>X",
"E Q I.*X=X-X>X1X9X9XwXrXwXwXwXwXwX9X5X>X=X*XI.*X-X<X<X9X9XqXrXtXiXiXiXiXtXeXwXwXwXwXwX9X<X>X:X>X1X1X9X9X9XqXwXwXwXwXwX9X9X1X<X;X=X*X! ! =X-X<X<X",
"Q E *X=X-X>X,X1X9X9XwXwXwXwXwXwXrXwX9X1X=XW nX-X<X5X9XwXqXqXeXuXfXgXfXfXtXrXwXqXwXwX9X<X:X=X=X-X1X9X0XwXwXwXwXwXwXqXwXwX9X9X9X<X=X*X*X*X-X;X<X1X",
"W Q *X-X>X>X1X9X9XwXwXwXeX0XqXqXwX9X9X>X=X*X*X-X1XwXrXrXqXwXeXuXiXgXfXiXtXeXqXqXwXwX9X1X-X*X*X-X1X9XqXrXwXwXwXwXwXwXqXwXrXwX9X1X:X*XI.*X;X>X1X4X",
"E ! *X-X>X1X1X9X9XwXwXwXeXeXqX0X9X9X,X:X=X*X=X>X0XuXuXuXrXrXeXrXiXiXiXiXtXrXwXwXrXwX9X<X=XI.~.-X1X9XrXrXrXwXwXqXqXqXwXrXrXtXwX4X-X=X*X=X;X<X4X4X",
"E W *X;X>X1X1X9XwXwXrXrXrXeX0X0X1X>X-X=XQ I.=X,XtXiXfXfXtXrXwXrXtXuXuXtXrXrXwXeXrXwX9X1X-X*X~.-X1X9XrXrXrXwXwXwXwXrXrXrXrXrXwX1X>X=X*X=X>X,X1X9X",
"E W *X-X>X,X1X9X9XwXrXtXrXrX4X4X>X;X=XI.! ! =X1XyXfXgXfXiXrXeXwXrXrXtXrXrXeX0XeXrXrXqX1X-X*X*X-X1XqXrXrXrXwXwXwXwXwXrXrXrXuX0X5X-X*XI.=X;X<X1X9X"
};
