/* XPM */
static char *_92a739401f4494b950826efd685e1abHj5vWvGgzcfcAwWc[] = {
/* columns rows colors chars-per-pixel */
"72 72 256 2 ",
"   c #010203",
".  c #0B0102",
"X  c #04040B",
"o  c #080907",
"O  c #170405",
"+  c #010215",
"@  c #090815",
"#  c #150715",
"$  c #041719",
"%  c #161718",
"&  c #11120D",
"*  c #2B010C",
"=  c #27040A",
"-  c #280718",
";  c #360619",
":  c #26161A",
">  c #371A1B",
",  c #310A05",
"<  c #192716",
"1  c #26260B",
"2  c #120F24",
"3  c #360624",
"4  c #241726",
"5  c #3A1E2D",
"6  c #2E0E2E",
"7  c #062428",
"8  c #1A252C",
"9  c #352A39",
"0  c #273637",
"q  c #373537",
"w  c #2C2633",
"e  c #460513",
"r  c #4F1012",
"t  c #600419",
"y  c #422112",
"u  c #5D0525",
"i  c #541C37",
"p  c #48152D",
"a  c #7A0726",
"s  c #62163B",
"d  c #670E2A",
"f  c #40242E",
"g  c #562939",
"h  c #46353B",
"j  c #54323A",
"k  c #4F262A",
"l  c #74213F",
"z  c #38492B",
"x  c #6E5201",
"c  c #72541F",
"v  c #1A3B40",
"b  c #36354E",
"n  c #2D1E59",
"m  c #581B48",
"M  c #51364C",
"N  c #64294A",
"B  c #6A334D",
"V  c #76344B",
"C  c #602B58",
"Z  c #354447",
"A  c #284157",
"S  c #504D51",
"D  c #664959",
"F  c #79455A",
"G  c #755A5B",
"H  c #68494D",
"J  c #706454",
"K  c #795A66",
"L  c #764E65",
"P  c #75756A",
"I  c #7C7D6D",
"U  c #7E7E64",
"Y  c #7D7D71",
"T  c #797A7B",
"R  c #6C706F",
"E  c #544860",
"W  c #8E1537",
"Q  c #970C32",
"!  c #AE0D36",
"~  c #802137",
"^  c #CA1B3A",
"/  c #94104A",
"(  c #BC144A",
")  c #90315A",
"_  c #B22E50",
"`  c #863369",
"'  c #C82957",
"]  c #8D567C",
"[  c #AC4E75",
"{  c #817E6D",
"}  c #947B6C",
"|  c #966577",
" . c #817E72",
".. c #807C7B",
"X. c #997B79",
"o. c #8C656C",
"O. c #A86D77",
"+. c #A16750",
"@. c #C1577F",
"#. c #C94157",
"$. c #7D9010",
"%. c #7F806D",
"&. c #7D8A6E",
"*. c #7E8172",
"=. c #768671",
"-. c #A0941E",
";. c #A7A500",
":. c #A38B2C",
">. c #E7AA2B",
",. c #F6CA0E",
"<. c #D4C222",
"1. c #98945D",
"2. c #98A65B",
"3. c #A6AA5C",
"4. c #B0AD5E",
"5. c #84836E",
"6. c #89856D",
"7. c #868A6C",
"8. c #8B8C6D",
"9. c #868665",
"0. c #928C6A",
"q. c #8E916E",
"w. c #8A9768",
"e. c #93946E",
"r. c #9A956D",
"t. c #96996D",
"y. c #9B9C6D",
"u. c #989B66",
"i. c #848471",
"p. c #898672",
"a. c #868973",
"s. c #8C8C72",
"d. c #898879",
"f. c #918E72",
"g. c #988978",
"h. c #8F9071",
"j. c #879777",
"k. c #949472",
"l. c #999672",
"z. c #969972",
"x. c #9B9B71",
"c. c #93937A",
"v. c #9B947C",
"b. c #9B9D78",
"n. c #A09F6E",
"m. c #A99B6B",
"M. c #A19E73",
"N. c #A79875",
"B. c #B29774",
"V. c #9CA366",
"C. c #9EA16E",
"Z. c #97A568",
"A. c #9BB36A",
"S. c #9EA172",
"D. c #9AA778",
"F. c #90A773",
"G. c #A3AB66",
"H. c #A4A46E",
"J. c #A9A66E",
"K. c #A6A86E",
"L. c #AAA96E",
"P. c #A9A664",
"I. c #B3AD6E",
"U. c #B5A46A",
"Y. c #A7B46A",
"T. c #B6B26E",
"R. c #BDB36E",
"E. c #B3B56A",
"W. c #A5A671",
"Q. c #A4A471",
"!. c #A9A672",
"~. c #A6AA72",
"^. c #A9A971",
"/. c #AAAA71",
"(. c #A9A87B",
"). c #B2A572",
"_. c #B3AD72",
"`. c #BAAB72",
"'. c #B5A87B",
"]. c #ABB577",
"[. c #B5B171",
"{. c #BCB371",
"}. c #BBB678",
"|. c #B88A59",
" X c #C3B46E",
".X c #C3BA6F",
"XX c #C3B571",
"oX c #C9B772",
"OX c #C6AC74",
"+X c #D39C7E",
"@X c #A7D364",
"#X c #4F2A89",
"$X c #6F6588",
"%X c #A85E81",
"&X c #8B728A",
"*X c #B57987",
"=X c #B27690",
"-X c #AC78A3",
";X c #CC7190",
":X c #C477A1",
">X c #788387",
",X c #898788",
"<X c #9C8888",
"1X c #899588",
"2X c #898494",
"3X c #949094",
"4X c #A79785",
"5X c #B59C87",
"6X c #AC8894",
"7X c #9DA083",
"8X c #AAA985",
"9X c #B8A587",
"0X c #BAA998",
"qX c #9199AD",
"wX c #B391AB",
"eX c #ACAEAF",
"rX c #CB979A",
"tX c #CD8D93",
"yX c #E08082",
"uX c #C1AE86",
"iX c #D1A796",
"pX c #CE92B2",
"aX c #C8AAA5",
"sX c #CBA7B2",
"dX c #D0AFB1",
"fX c #F9B5A6",
"gX c #ABC9B0",
"hX c #C6C1BE",
"jX c #E1E3BE",
"kX c #C1CA9B",
"lX c #B9BBC7",
"zX c #DE82C5",
"xX c #CBB9C8",
"cX c #FEBBC7",
"vX c #EDBDD1",
"bX c #F9BBD3",
"nX c #EBB1CC",
"mX c #FCBAE6",
"MX c #F195E2",
"NX c #B0CAC7",
"BX c #B8D6E0",
"VX c #D1CBCE",
"CX c #F2CACF",
"ZX c #FAEBD4",
"AX c #C9D1E8",
"SX c #FADEE5",
"DX c #E7DDE5",
"FX c #E8E2E7",
"GX c #E6EBF3",
"HX c #FAE9FA",
"JX c #E9FBF9",
"KX c #FDF4FD",
"LX c #FDFBFE",
"PX c #F5F8FC",
"IX c #F4F1EC",
"UX c #DBFBF6",
/* pixels */
"I I Y Y  .I 7.f.y.H._.]./.J././.M.t.t.7.i.i.I I Y 5.8.t.S.~.K.I.[./.I.I.L.J.L.L././.L./.!.Q.M.n.x.x.y.y.Q.(.(._.L.L.K.S.e.7.5.{ %.I I T P { 7.s.",
"I Y Y .. .5.p.k.n.Q./././.J.H.H.Q.H.x.e.i.i.Y *.i.p.e.z.S.Q.L.I.[.[.[.[.[./.L.L./././.~.Q.x.x.x.x.t.y.H.!.!.J.J.L.J.K.C.t.q.s.5.i.Y I i.I i.s.s.",
"%.5.*. .7.s.k.x.H.W.!./.J.J.J.~./.H.!.l.p.i.I 5.q.k.t.Q.Q.~./.[.[.R. X{.[.].^./.~.J.H.C.k.e.k.l.t.y.H.H././.K.L./.J.^.~.Q.b.k.f.p.i.I i.6.s.k.t.",
"i.i.5.5.p.k.x.y.Q.W./.J.L./././.L.H.!.x.s.5.%.7.e.x.H.H./././.[.XX.X XR.I.L.^././.K.~.y.8.7.p.s.x.Q.J.J.K./.J./._./.^./.W.!.Q.t.p.5.{ i.p.k.z.x.",
"7.i.5.5.s.l.y.V.H.K./.J.K.J.^.~.L.m.Q.z.a.5.5.s.C.K.I.L.L.L./.[.R.oX X XI.L././.L./.K.t.7.{ i.a.M.W./.J.J./.J._./.J./.L././.~.y.s.i.5.5.8.k.x.y.",
"6.7.5.5.s.k.y.y.Q./././.J.J./.~.n.y.t.s.i.5.5.k.J.I.R.T.I.L.J./.[.{. X[././.K.K.J.J.Q.e.6.5.Y a.t.W./.L.L././.J.J.J.J.L.J./.H.y.s.i.5.6.8.e.S.H.",
"p.7.{ p.f.k.y.n.Q.~./././.J.W.H.x.e.7.i.Y I i.l.I.{.XXT.T./.J./.L.I.T.I././.K.H.J./.W.l.p.7.5.i.r.Q./.L.L./.K.K./.K./.L./.!.~.y.s.i.7.5.f.e.x.n.",
"s.7.{ p.s.k.l.Q.W.W.J.J./.J.H.y.k.9.5.Y Y I 7.v.U.XXoX XT.L.J./.L.).I.L.J.J./.J.J.!.Q.l.s.i.{ 7.x.!./.L././.~.K.~././.L././.!.y.f.{ i.i.f.k.x.y.",
"7.5.i.7.8.e.t.Q.H.K./././.J.H.S.8.5.Y P I U 0.M.`. X.XXXI.!.~.J.K.G.~.K././.L.L./.~.J.t.s.d.7.k.w.).Y.Y.L.K.!.H.C.L.J._.H.[.Q.7X7.i.5.7.8.t.y.y.",
"i.5.5.p.e.t.Q.W.G.J./.I.I./.~.C.p.5.P Y a.8.r.y.).[.I.I.!.Q.H.H.K.K.K.~.K.K.K.K.^.G.J.n.8.7.8.l.B.(.~.V.'.).m.].].U.!.D.!.1.H.q.a.i.5.7.k.l.C.Q.",
"i.5.7.p.k.n.K.K.H./.L.L.L./.H.t.s.{ P i.c.b.y.C.m.!.J.!.n.x.M.C.W.W.~./.J./.!.!.J.L./.Q.x.s.x.y.A.U.G.(.h i ) O.9XA./.).D.~.u.u.i.i.7.s.k.H.Q.J.",
"i.5.i.s.x.H.J.J.J./.L.L.L./.Q.x.s.7.5.s.z.S.H.K.n.M.y.l.l.x.x.C.Q.K./.L.J.~.!.!.J.J.J.n.b.x.l.r.7XcXB : e 5   & h d !.J.Q.w.N.7.i.5.i.s.t.W.H.J.",
"%.*.7.s.x.Q.~.K.W.!.!.H.L./.S.z.s.7.p.f.x.C.K.~.x.x.x.k.e.t.t.x.C.H.H.J.J.K.~.!./.~.H.y.t.z.k.4XF.z e Q k o l W ; [ tX9Xu.Z.q.d.*.Y 5.8.t.H.J.J.",
"I I 5.7.z.Q.W.W.x.t.l.x.y.t.k.l.e.s.f.e.C.S.K.K.y.y.x.x.y.y.x.y.x.t.y.n.H.H.Q.W.W.Q.Q.x.e.e.N.0X) , #.Q d ! ! ^ t u s l q.j.} i.*.Y 5.p.z.Q.~.J.",
"I I 5.6.k.x.Q.y.e.8.7.p.8.7.8.k.t.x.x.t.y.H.H.x.H.x.Q.Q.H.H.n.l.k.e.8.k.k.x.y.H.y.y.x.k.8.6.4XK t ( ( a _ Q r l d ) t c.a.6X=.s.Y I 5.s.z.y.n.n.",
"I  .i.7.e.x.l.r.8.6.%.i.5.5.7.h.t.M.(.Q.y.y.y.z.Q.!.!.(.L.H.H.y.q.7.6.a.s.k.x.y.t.y.z.q.s.6.=X# W a a ( Q , N d / p F N.8.X.*.I Y I i.p.k.t.t.t.",
"{ 6.7.s.c.l.l.q.a.p.7.{ { I 6.k.Q.J.L.!.n.x.x.y.Q.W.!././.!.Q.y.7.i.Y i.s.t.t.x.u.u.t.g.j.7.rX- _ =X*XO.+.W Q ( u 3 V s.8.%.i.i.5.7.6.7.k.k.k.e.",
"8.8.8.8.p.8.8.8.8.s.s.7.s.7.e.b./.)._.).n.y.t.l.Q././.L./.!.n.t.5.Y Y  .p.k.t.t.D.N.r.v.0.0.eX. #.jXIXCXaX@.! r 5 * o.d.c.c.7.0.8.f.q.8.f.s.q.q.",
"Q.b.x.k.s.7.7.h.e.t.x.x.x.k.y.W.T.R.{.`.!.t.x.x.~.K.L.L./.H.x.e.i.{  .i.p.t.z.t.S.Q.S.Y.(.l.B.&Xw ZXCX6X6X&X=XO - | i.&.v.N.S.V.z.b.x.t.8.6.a.s.",
"!.W.Q.x.s.5.i.a.t.C.Q.~.!.Q.J.I. X XoX[.J.x.x.z.W.K.L.J.H.H.k.k.i.i. .i.8.k.x.y.~.V.V.Q.Z.!.bXtX# O.+.y ` uX7X1 w * d.c.M.n.^.!.!.!.Q.t.8.7.i.p.",
"L.L.H.x.k.5.5.a.y.H./.J./.J.I.T. X X X`.J.n.l.l.n.Q.H.Q.y.x.e.s.i.7.6.6.s.k.y.y.M.H.).T.H.!.U.dX&XS <X:.ZXSX|.&XH 5Xi.s.r.'.H.)._.^.K.y.e.p.a.a.",
"T.L.J.Q.k.8.s.h.x.x.H.K./.L.L.[.{.R. XI.!.M.t.t.t.t.k.k.k.q.f.s.s.f.e.e.z.z.H.H.(.).P.D.{.3.0XrXN rXPXBX@XVXo.3 6XbX<Xt.U.m././._._.K.y.e.s.7.p.",
"L.L.J.C.t.s.q.q.k.x.C.H./././._.[.T.I.I.(.S.y.t.k.k.s.i.i.a.s.f.k.x.y.V.Q.Q.W.H.K.3./.A.H.'.!.tXi { kXaXSXB.4 n j -XmX(.3.Y./.I././.J.Q.x.q.8.s.",
"J.L.H.Q.x.x.t.e.k.z.y.C.!.!./.)./.J.L.L./.!.H.n.k.p.5.Y Y i.7.h.t.C.H.H.W.W.K.J.Q.(.`.(./.P.D.9Xy.> =XHXqXo > ;.x k zXdX!.(.'.P.J.H./.W.x.k.e.t.",
"/./.!.H.y.y.y.y.k.t.x.y.n.Q.Q.H./.~.H.L.L././.Q.k.8.5.I Y Y 5.q.x.!.].!.J.L./././.!.H.J.L.K.H.H.F.m.S O & <.:.H m X , (.'.G.(.U.K.~.W.H.y.y.y.x.",
"J.W.Q.y.C.y.S.C.x.y.Q.t.l.x.y.n.~.W.J.L.I.[._.J.b.e.7.I Y Y i.s.y.!._./.J.L././.!./.J.K.J.~.W.y.g.k.4Xe -.Z 8 @ $.1., tXOXP.(.A.H.Q.Q.M.y.H.n.x.",
"n.n.y.n.S.Q.W.K.Q.Q.Q.t.t.k.k.k.S.Q.L.T.{.{.[.`.!.M.e.s.i.Y i.s.y.H./.Y.L.L./.~./.J.~.H.H.Q.y.t.2.MXM v E n O x ,.,.,.1 H.G.(.H.S.S.x.M.H.H.H.M.",
"x.x.y.y.H.W.J.J.L.J.!.x.q.p.a.h.y.Q.).[.R.oX X X`.J.n.k.p.i.i.s.y.H./._.L.J.!./.H.K.J.H.H.x.k.e.d.9.g u / m + = c >.|.1 0X`.u.H.y.y.x.S.H.J.J.J.",
"x.x.y.t.H.!./.L.L.J.!.t.5.{ I a.e.S./.}.R..X X X`./.H.x.8.p.7.a.t.C.Q.K.L.^./.~.L././.Q.y.z.h.s.{ dXq d Q 4 v   G fX;X1 8XS.]._.y.t.z.x.~.J.L./.",
"x.t.t.y.Q.!./.L.J.J.Q.k.5.I I a.e.S.J.[.T.R.R. X[._.K.C.k.s.a.h.z.x.x.Q.~.L.L./.L././.!.x.k.s.i.} g.b * b A 7 + 6X3.[ : 4.E.L.m.x.x.t.x.Q./.L.L.",
"x.x.r.y.Q.!./.K.!.H.x.k.i. .I a.t.C.~.L.I.T.[.I._./.J.~.x.k.q.s.s.8.q.t.Q./././.J./.!.Q.t.s.&.*.i.zXY # n b n # r %Xs - 9XOX.X].Q.t.r.x.Q.K.K./.",
"Q.y.y.y.Q.W.W.H.Q.y.e.7.i.i.5.a.C.C.W.J.L.I.I.!././.J.K.S.z.q.8.p.6.8.q.C.J./.L.J./.W.y.e.7.%.I R } =.j 7 #XA 7 & s CXgXe nXpX X!.t.r.x.Q.W.H.W.",
"Q.n.y.y.x.Q.W.Q.y.x.k.s.7.9.8.e.n./.)./.L./.W.Q.H.H.~.Q.C.y.k.s.i.i.5.6.k.Q.!.Q.!.H.H.t.p.5.Y Y =.{ a.9X+ 4 $ 7 + rXSXgXf  XOXY.!.M.t.r.y.H.Q.H.",
"J.n.y.l.t.x.z.k.f.8.k.s.6.8.e.x.J._.[._.J.J.H.H.H.H.Q.S.y.t.e.s.5.{ I i.s.x.x.z.Q.x.k.k.p. .{ i.} 8.0.9XL   @ : m c IXAX3 cXiXE.!.Q.n.t.t.x.l.t.",
"H.H.Q.x.k.f.6.7.5.6.i.s.k.z.Q.W.R.XX{.[.I.L.~.C.y.y.t.y.y.x.k.k.%.I Y  .p.7.s.8.s.h.8.a.5.I { p.1XF.M.t.sX# V ( %XO 0XeX5 E.4.'./.J.Q.t.k.s.6.6.",
"H.J.!.x.k.6.5.Y I  .i.s.l.x./.T. XXXXX X[.I.H.H.y.y.z.t.t.x.k.s.i.5.Y  . .i.7.i.*.5.5.%.I Y i.s.l.y.+X(.pX. ) [ ;   xXCXf U.U.pXJ.H.Q.x.k.7.i. .",
"U.L.(.n.e.i.5.i. .5.p.k.z.H.L.R.R. XXXR.T.I.H.C.S.b.z.t.t.t.x.e.8.p.i.5.5.5.5.5.5.5.5.5.I { i.c.n.3.!.(.rX; %X; &X9 o.X.3 bX5X3.L.L.~.x.e.6.i.*.",
"L.L.!.H.t.f.7.p.6.8.e.z.C.H.L.E.R.R.XX{.[./.~.H.x.z.k.t.t.y.x.x.t.e.7.6.8.8.8.8.8.8.p.a.{ { 7.s.y.A.9XtXu VXHXIXNX, %X] > G.A.(.J./.~.H.t.f.7.a.",
"/./.H.H.C.t.z.z.z.t.x.S.Q.K.J.I.[.[.[.[.[./.!.!.t.z.t.r.y.H.W.W.n.y.x.l.x.t.y.x.t.y.x.s.5.{ 5.s.N.N.CX; lXJXPXHXZ p ;X9XM nXpXm.!.J.J.H.n.x.z.z.",
"~./.K./.K.W.Q.Q.H.H.C.K.^././.J.L.L.L.L.J.W.Q.!.t.z.z.x.C.H.W.(.H.J.!.Q.W.H.H.W.J.H.Q.l.6.{ 7.p.r.uXwXb IXJXPXDX% J vXKXNX2 bXP.W.!.J.J.J.Q.Q.~.",
"H.W.H.J.!./.J.J././.].H.L.J.(.W.!.W.H.H.H.Q.Q.C.x.y.y.C.H././.J.J.J.L./.J.L././.L././.y.8.9.i.d.z.*X5 JXPXLXDXeX7 &XLXLXS =XnXpXH.J.K.K.K.H././.",
"Q.Q.H.H.H././././././.L.J.K.W.y.x.t.x.l.t.t.t.y.t.t.y.m.H.J./.H.J./.J././.J././.L././.M.t.8.s.s.c.j &XJXKXKXDX3X1Xq > k *X`._.M.H.H.H./.J./././.",
"M.M.y.n.Q./././.J.L.J.J.H.Q.y.t.8.8.7.s.p.7.q.e.C.H.W.~././.J./.J./././.L./././.L././.Q.x.k.k.s.8.B 3XJXLXLX2XS LXq o.-XcXL.P.Q.y.y.y.H.H.H.J.J.",
"x.x.y.n.H.!./._.J.L.K.(.C.x.e.q.8.7.i.i.i.5.7.k.y.H.(./.~.J.K./.J.J./.L./.J.J.J.J.!.W.Q.x.t.q.8.f.M qXJXKXHXq Z LXb | mXJ.8XS.S.x.r.y.n.W./././.",
"z.y.y.C.Q.W.!.J././.H.!.y.x.e.h.8.7.5... .{ 7.s.y.H.!./.J.H.K.J./.J././.H.J./.!.L.J.H.W.H.t.e.8.N.N 3XUXFXVXX E SXPXj -XP.^./.m.x.x.y.y.Q././.J.",
"y.y.y.C.Q.H.K.K.W.H.H.x.t.t.e.e.e.8.6.i.5.5.6.s.t.Q.(.J././././.K.J.J.J.~.J.J.J./././.K.Q.x.t.f.<XB 2XJXLXLXVX0 $XUXVXO rXA.Z.(.x.t.r.y.H.H.J.H.",
"H.C.C.H.H.!.W.H.H.y.y.t.t.e.e.e.x.x.z.l.k.8.k.k.t.n.Q.H.W././././.J./.!.J.J./.~./././.~.H.x.l.k.i.i &XgX1XGXDXR E NXPXK | H.G.J.Q.W.H.W.W.!./.W.",
"~.G.K.K.J.~.!.H.S.t.t.e.b.z.x.x.y.S.Q.Q.t.e.k.k.t.t.y.y.H.J.J.H.H././.K./.J././.L.J.K.~.x.t.k.f.%.pXE < o *.PXLX% 2XJXxX3 dXQ.W.~.W.W.W./.W.K.H.",
"/././.!.!./.W.H.y.x.l.k.r.y.y.M.H.H.J.H.V.y.t.z.l.l.r.y.Q.~.W.Q.H.K.K./.J./.J.H.~.K.H.Q.y.x.k.s.&.g.i & < . JXGX2Xb gXKX] D J.3.L.L.L.J.J.L.K.V.",
"/././.J././.W.H.y.t.t.l.t.n.y.H.H././.L.H.H.x.k.f.f.8.e.y.Q.W./.K./././././.J.J.H.H.Q.n.x.k.p.7.I Y h X & KXKXKXIX: eXLXqX5 oX/._./.J.J.L././.H.",
"_.L./././.!.W.n.y.x.z.x.M.Q.W.H.~./././.K.W.x.r.s.7.9.8.k.t.n.!.J./.L.L.J./.J./.H.C.t.t.k.7.5.{ *.<XS >XPXKXKXKXPX$ eXGXT B oX}.9X_.~.K././.W.W.",
"_./.J.J.~./.W.H.y.y.x.x.Q.W.J.!./././.J.J.~.Q.y.c.5.%.a.f.t.y.H.H.K./.L.L.J.J.H.C.y.t.k.8.i.i.Y Y ..6X- lXGXKXJXeXb AX$X5 sXOXXX9X'.K.K.K.K.!.Q.",
"Y./.L.K.~.W.W.H.t.x.x.y.H.K.K.K./././.J.J.(.W.y.e.6.i.a.c.k.t.y.H.Q.H.J.J.~.W.Q.C.t.q.7.i.{ Y Y  .=.d.V S NXVXAX  K <Xi s M vX XuX'.L.L.L.H.Q.!.",
"/./.J.H.Q.Q.x.x.t.t.x.y.H.H././.J./.J./././.H.H.r.q.8.s.s.8.k.z.t.Q.W./.W.W.Q.x.z.k.s.5.I I I i.5.8.c.5XF 8 S F l O   %X/ f -XE.'./.K.K.C.H.S.S.",
"L././.Q.H.x.y.r.t.x.b.Q.H.K././.J.J.J.J.L././.H.Q.M.x.k.8.8.7.f.r.y.n.H.H.Q.x.x.k.6.5.i.Y I 5.i.l.w.u.M.0X6Xm ; %XB X * ` - L ).L.K.Q.Q.V.x.b.e.",
"J././.~.y.x.t.t.e.t.x.S.Q.K.^./././.J.J.J./././.!.!.Q.z.8.6.6.s.k.x.x.t.y.y.x.k.p.7.{  .Y I 5.p.l.Q.L./.aXpX: . O - % } O w 2 O.K.K.~.!.N.x.z.k.",
"/.J.K.H.y.x.z.l.l.t.t.b.Q.Q.H.K.Q.J.!./.J.J.J./.K.K.H.t.p.Y I 5.8.k.k.x.z.z.e.8.%.i.*.I { 5.7.k.S.L.).!.yXO 0 0 : 8 . : q $ X 6X/.!.!.H.y.y.t.z.",
"/././.K.W.H.x.t.k.t.k.x.x.H.C.C.W./.!.J././.L.J.K.C.y.e.p.i. .*.7.7.8.f.h.8.7.7.%.I *.*.i.7.t.b.C.^.!.aX$ Z $ % & O.5 0 $   | 5X!./.L./.H.y.x.b.",
"/.L.L.L.J.W.H.n.z.l.k.x.y.y.C.S.~.J./.J.J././.J.z.e.q.6.i.Y Y Y i.i.i.7.7.5.i.{ Y I I i.f.v.Q.W.J.].(.- X + = i tX8 X X * *XN.V.J.J./.L.J.K.H.S.",
"L.L.L.L./.J.H.H.Q.z.t.t.e.y.x.Q.H././.K././.H.y.k.7.5.I *.*.Y Y i.Y i.I Y i. . .Y I 5.8.z.Q.W.J.J.J.(.| L N =XbX&XK D F | d.N.G.J././.J.L./.K.V.",
"~.W.W.W.(.K.H.H.x.x.y.t.y.k.x.x.H.~./.!.(.(.M.t.j.5.I I i.i.i.5.i.p.5.{ 5.5.i.i.5.5.7.k.!./.L.P.).L.m.b.cX{  .*.X.3Xg.<X6.9Xq.y.n.Q.!.J.H.W.H.n.",
"y.z.x.x.x.x.y.y.y.y.C.S.C.Z.C.y.y.Q.S.C.S.M.r.e.i.*.I *.7.8.h.h.8.7.8.8.7.8.8.8.s.8.e.y.!./.L.L.!.G.D.y.f.9.j.s.s.l.9.9.k.6.s.j.l.x.x.x.x.n.y.x.",
"q.8.q.s.7.8.q.k.t.C.S.Q.Q.C.C.C.y.x.t.t.t.8.7.6.5. .Y i.k.t.y.x.y.t.t.t.t.x.y.t.z.t.y.H.~.K.J.J.~.w.u.r.b.Z.u.N.t.S.y.r.c.a.5.a.s.f.f.8.f.f.k.k.",
"7.a.a.5.5.7.p.s.C.~.~.~.K.~.~.Q.Q.y.t.e.8.6.{ { I  . .a.k.C.K./.!.Q.Q.Q.W.!.W.!.!.W.W././.H.H.(.y.S.u.4XQ.t.A.C.J.H.S.b.&.i.{ } 5.5.5.5.5.6.7.s.",
"Y Y *.I Y { 5.k.y.Q./././.L.K./.Q.x.r.k.p.i.Y Y ..5.6.t.y.W.H.P.!._.L.L.L.L./.L.L.L././.K.Q.H.y.z.x.t.C.H.H.J.L./.I.^.C.e.s.5.I I I Y Y Y  .i.s.",
"P I *.i.i.i.8.k.y.Q././.L.K.L.J.Q.y.y.e.s. .Y  .5.6.f.t.W.~.L.R.[.[.T.T.L./.J.L.L.L.~.~.Q.y.x.x.x.x.y.Q.H.K./.L.J.L.K.C.z.h.p.i.*.i.Y I  . .6.e.",
"P P &.=.p.7.8.x.H.W.K.L.L.L.L./.H.H.y.t.7.i.{ i.s.k.y.Q.~.K.L.[.{.XX.XR.T.L./.J.L.J.W.S.t.r.f.k.t.x.Q.W./.J./.L././././.Q.b.z.e.i.i.I Y 7.s.e.t.",
"P I i.a.f.c.t.Q.W.~./.L.K.L././.L.~.Q.z.s.i.i.6.z.S.W.H.K.K.L.}. XoX.XR._./.L././.(.!.x.f.7.p.s.t.Q.!./.J.J./././././././.~.S.t.p.7.5.i.p.k.x.S.",
"P P i.s.c.z.t.W.W././.L.J./.J.!.L.K.S.z.a.5.p.8.y./.I.L.L.K.L.}.XXXX.X{.{./././././.W.z.7.5.i.a.x.Q././.L.J.L./.L.L.J.J.I./.H.y.s.p.i.i.f.e.u.y.",
"P I i.s.k.z.t.W.K.J.J.L.L./.J.H.H.C.z.h.i.I 6.k.J.[.T.T.L.L./.[.XX{.R.{.[./.L.J./.J.H.t.p.i.i.s.C.!._./.L.J././.L./.!.).I.L.J.y.8.6. .p.e.t.y.y.",
"P P 5.8.k.x.y.J.!./.L.L.L.L.J.m.y.t.8.i.*.I 6.l.I.XXXX{.T.J.K./.{.[.T.[./././.J./.L.K.y.s.i.i.7.y.Q./.I.L.J././.Y.L././.I.T.~.x.8.6.i.i.e.t.V.Q.",
"P I 7.8.k.x.y.Q./.Y.I./.[._.J.H.t.8.6.i.Y I 8.M.).XXoX.X{.[./.J./.L.I.T.L./.J.H._.L.K.y.s.5.5.7.y.Q./.I.L././.!.L.L.(.).I.L.K.y.q.p. .p.f.t.x.Q."
};
