/* XPM */
static char *result[] = {
/* columns rows colors chars-per-pixel */
"72 72 175 2 ",
"   c #3A4549",
".  c #3B444B",
"X  c #3D4A4B",
"o  c #3F4D52",
"O  c #3E525B",
"+  c #3F5F66",
"@  c #414646",
"#  c #464D4D",
"$  c #484F4F",
"%  c #48504F",
"&  c #444E51",
"*  c #445253",
"=  c #495353",
"-  c #435856",
";  c #45575A",
":  c #495759",
">  c #445B5D",
",  c #4D5C5C",
"<  c #515656",
"1  c #595F54",
"2  c #525C5B",
"3  c #5A5E59",
"4  c #4C605F",
"5  c #5D6255",
"6  c #6A6E57",
"7  c #62655C",
"8  c #676A5A",
"9  c #686E5B",
"0  c #677159",
"q  c #68705F",
"w  c #73765C",
"e  c #727B5E",
"r  c #797C5C",
"t  c #425D63",
"y  c #456062",
"u  c #4C6262",
"i  c #47666C",
"p  c #4A6469",
"a  c #4D6B6F",
"s  c #526565",
"d  c #5D6B63",
"f  c #556C6C",
"g  c #596D6C",
"h  c #5C716E",
"j  c #546F72",
"k  c #577071",
"l  c #597272",
"z  c #5F7979",
"x  c #646761",
"c  c #656D65",
"v  c #626D68",
"b  c #677263",
"n  c #697564",
"m  c #6E7B67",
"M  c #617468",
"N  c #6C746D",
"B  c #6F7B6D",
"V  c #717367",
"C  c #747D63",
"Z  c #777C6C",
"A  c #7B7C6C",
"S  c #627575",
"D  c #657871",
"F  c #6A7B73",
"G  c #697679",
"H  c #647B7B",
"J  c #6A7C7D",
"K  c #7D7D70",
"L  c #807F70",
"P  c #758066",
"I  c #73826F",
"U  c #79856F",
"Y  c #6F817B",
"T  c #758573",
"R  c #7E8B74",
"E  c #7C8B7E",
"W  c #80825F",
"Q  c #828465",
"!  c #858B67",
"~  c #8C8E65",
"^  c #86866D",
"/  c #8A8B6E",
"(  c #8E9167",
")  c #8D916F",
"_  c #959667",
"`  c #92946E",
"'  c #96996E",
"]  c #9D9E6E",
"[  c #838371",
"{  c #888770",
"}  c #838C71",
"|  c #8C8B70",
" . c #908F70",
".. c #8F9673",
"X. c #959470",
"o. c #989770",
"O. c #969B72",
"+. c #9A9A70",
"@. c #A09F70",
"#. c #9FA06E",
"$. c #A2A26E",
"%. c #ACA56E",
"&. c #AFA96C",
"*. c #A4A470",
"=. c #A8A770",
"-. c #ABAA71",
";. c #BEB470",
":. c #C0B670",
">. c #CABA70",
",. c #637D81",
"<. c #6A7F80",
"1. c #678184",
"2. c #6C8484",
"3. c #6F8888",
"4. c #718484",
"5. c #74878F",
"6. c #758C8D",
"7. c #7B8A8D",
"8. c #77918F",
"9. c #728E90",
"0. c #7B8E95",
"q. c #7D9595",
"w. c #7F9897",
"e. c #75949C",
"r. c #7D999B",
"t. c #889A85",
"y. c #818C92",
"u. c #809797",
"i. c #829997",
"p. c #82969B",
"a. c #829A9A",
"s. c #889A9F",
"d. c #9EA082",
"f. c #8FA59C",
"g. c #859AA2",
"h. c #8A9DA2",
"j. c #87A1A1",
"k. c #8CA3A5",
"l. c #8FA9A6",
"z. c #89A7AB",
"x. c #8FABAC",
"c. c #90A4A7",
"v. c #92A5AA",
"b. c #93ABAE",
"n. c #93B0AF",
"m. c #9BADB3",
"M. c #95B3B3",
"N. c #9DB2B6",
"B. c #9FB6B9",
"V. c #9EBBBC",
"C. c #A0B1B7",
"Z. c #A5B5BD",
"A. c #A8B6BF",
"S. c #A3BCBF",
"D. c #A5BBC0",
"F. c #AABAC2",
"G. c #B0BFC8",
"H. c #A5C3C3",
"J. c #ABC1C6",
"K. c #ADC4C9",
"L. c #ADCBCC",
"P. c #B1C5CB",
"I. c #B1CDCF",
"U. c #B4CED1",
"Y. c #AFD0D0",
"T. c #B2D3D2",
"R. c #B8D4D6",
"E. c #B7D8D8",
"W. c #BDDCDC",
"Q. c #BFE0E0",
"!. c #C0DFDF",
"~. c #C0DFE0",
"^. c #C3E3E3",
"/. c #C7E9E8",
"(. c #C9EBEA",
/* pixels */
"-.-.&.-.X.K | $.%.+.X.o.+.-.-.' M y y y u u y u + + m #.-.=.o.{ L  .*.-.-.%.-.-.X.K | $.-.+.X.X.+.=.-.' M t u t u u u y t + m #.-.=.+.{ L  .*.-.",
"*.*.*.*.X.{ ..@.-.@.o.X.) ] $...J ,.2.2.2.2.2.2.1.1.E ' *.+.X.{ L  .*.-.*.*.*.*.X.{ ..@.=.@.+.X.` ] $...J ,.2.2.2.2.2.2.1.1.E O.$.+.X.{ L  .*.-.",
"| | | | X.X.+.@.*.-.$.! b 0 e E f.m.S.H.H.H.H.D.V.V.l.E r Q { ^ K | +.*.|  .| ..X.X.+.@.*.-.$.Q b 0 e E h.n.D.H.H.H.H.D.H.V.l.E r Q | [ K | +.*.",
"[ U K [ o.-.=.+.o.$.*.R l a l 0.C.P.W.^.^.^.^.^.Q.E.V.9.g N L U L | X.X.L L A U o.-.=.o.+.$.*.R l a l 0.Z.P.W.^.^.^.^.^.W.T.H.3.f N L L L | X.X.",
"X.X...` -.:.%.Q m r } f.M.M.M.N.A.K.E.^.^./././.Q.W.K.b.0.G c Q +.o.| | X.X. .X.-.:.%.Q e P } f.M.M.n.N.D.G.R.Q.^./././.Q.W.L.x.0.G c Q o.o.| { ",
"=.=.$.-.;.>.%.B + > 2.D.Q.^.Q.T.A.A.P.T.W.^.^.Q.W.T.I.J.m.5.f ! =.+.^ K =.=.=.=.;.>.-.B + > Y S.Q./.~.U.F.F.L.T.W.Q.^.^.W.T.L.J.m.5.g ! -.@.{ K ",
"*.=.%.-.&.%.d.i.e.r.b.Y./.(./.W.I.P.Y.Y.T.R.R.R.T.L.K.J.D.b.r.t.o.) / { *.*.=.&.&.&.d.w.r.r.b.Y./.(./.W.P.P.U.Y.T.R.E.R.U.L.L.G.S.b.r.t.O.) / { ",
"X.+.-.-.( B i.H.Y.T.E.Q.~.~.~.~.W.W.E.U.K.F.F.F.H.F.F.F.F.K.K.z.F C ) X.o.O.-.-.( B i.H.Y.T.R.!.Q.^.Q.Q.~.E.E.Y.K.F.F.F.F.D.F.F.F.L.H.z.F C ) o.",
"+.+.*.+.P i e.J.W.^./.^.W.!.Q.^.^.W.L.S.S.A.A.Z.Z.A.A.A.F.U.U.z.j m ' *.+.+.*.+.C i e.J.!.^.^.^.Q.Q.^.^.^.W.L.H.F.Z.Z.Z.Z.Z.Z.F.F.U.I.z.j n ' *.",
"-.*.o.{ n a 0.A.T.!.^.^.^.^.Q././.R.M.l.N.A.F.A.A.A.A.F.F.P.F.g.j I @.&.=.*.X.| N f 0.S.U.!.^.^.Q.Q.^.^./.R.M.k.m.D.F.Z.Z.F.A.F.F.P.F.h.k P #.&.",
"-.*.X.K v f 5.m.P.W.^.Q.!.W.W.!.Q.Y.v.p.v.A.A.A.F.A.A.A.A.F.A.p.l P +.-.-.*.| K v f 6.m.K.E.^.Q.Q.W.W.!.!.Y.b.p.b.Z.F.F.F.F.Z.Z.Z.F.A.s.l P O.=.",
"*.+.| A v s H p.N.R.^.W.R.I.P.P.P.J.C.v.v.v.m.A.F.F.Z.c.k.Z.A.h.l h U R *.+. .K c p H q.B.E.^.Q.R.I.P.P.P.J.N.v.c.v.m.F.F.F.C.v.c.Z.A.h.z h U R ",
"X.X.| K N l J 6.n.T.Q.E.L.J.A.A.S.A.F.A.h.u.v.Z.F.F.N.h.i.N.A.s.l s f k ' X.| K N l H 0.b.T.Q.E.Y.K.A.Z.A.F.F.Z.h.p.c.F.F.F.C.h.s.N.A.s.l s f f ",
"| ^ Z F 7.p.h.c.Z.T.W.E.Y.L.J.J.J.K.I.J.c.0.v.F.F.F.Z.m.b.m.b.0.s 4 a j | ^ A F 7.g.h.c.Z.T.W.E.Y.K.J.J.J.K.L.F.k.7.c.F.F.F.C.m.v.m.b.7.s t a j ",
"[ A v l s.Z.F.A.J.L.T.T.Y.Y.Y.Y.Y.Y.T.L.v.u.v.D.F.F.D.D.Z.v.w.F : - f l [ K v l p.Z.F.A.F.I.T.Y.Y.Y.Y.Y.Y.T.T.L.b.p.v.F.F.F.F.F.A.v.u.G = , f l ",
"X.| b j g.A.P.F.S.B.V.L.T.T.T.Y.T.Y.T.L.S.b.v.m.C.D.F.Z.m.u.J s % = s s X./ b j g.F.G.F.A.V.V.L.T.T.T.Y.Y.T.T.L.V.b.v.m.C.F.F.C.b.u.J s $ = s f ",
"-.#.P k p.A.F.F.C.h.k.H.T.R.Y.Y.T.Y.T.Y.Y.L.M.a.c.A.A.b.u.S : # % = = = %.#.P k p.D.G.F.N.h.j.H.T.T.Y.Y.Y.Y.T.Y.Y.K.n.a.l.A.A.v.u.F , # # = = = ",
"@.+.T H h.A.G.F.C.h.h.M.H.L.T.T.T.Y.Y.Y.T.T.S.k.c.Z.m.a.2.g # # # $ % # *.O.I H h.D.F.F.N.k.f.N.K.L.T.T.Y.T.T.T.E.Y.S.j.c.Z.m.a.2.s # # % # # $ ",
"T T 4.q.v.D.F.F.F.C.m.v.x.V.T.T.T.T.T.T.T.Y.J.Z.m.v.i.4.l f s , # # # % I T 4.q.v.F.F.F.A.Z.m.c.l.V.T.E.Y.T.T.T.T.T.K.S.N.v.a.3.l k s , # # $ $ ",
"i j 3.a.v.Z.D.F.F.F.F.h.w.M.L.L.L.L.L.L.Y.Y.J.Z.v.p.2.l f g l s = = % * i k 3.s.m.Z.A.D.F.F.A.h.w.n.L.L.L.L.L.L.Y.L.K.Z.v.u.2.l f k k s = = % % ",
"; s 4.a.k.k.m.A.F.G.D.v.q.f.b.n.n.b.n.M.J.K.N.i.2.M f f f k l k f , = = o s 3.i.g.c.m.Z.F.P.A.c.w.f.b.n.n.n.b.N.J.K.N.p.4.S d f f l l f f , = # ",
"  2 4.a.p.w.k.Z.F.F.Z.h.q.q.w.w.u.q.q.a.N.Z.s.l - % = f l l k l g s = # @ 2 2.p.p.q.c.Z.F.F.Z.k.q.q.w.w.w.w.q.a.m.A.s.l - # = s l l l l g f = $ ",
"@ 2 4.a.w.w.c.D.F.N.k.q.2.6.q.w.w.6.2.J y.y.J , - : u f l l g l l f = %   2 4.a.w.w.c.A.A.N.c.8.2.8.q.w.q.6.2.J 7.y.G , - : u f l l l l l s = $ ",
"@ 2 2.a.w.p.c.A.Z.k.q.H l 2.u.a.u.0.H f 2 = $ $ 2 f l l k g l l l s = $ # 2 4.a.w.w.c.A.Z.k.q.H k 2.q.a.a.6.H f 2 = $ $ , f l l g l j l l s = $ ",
"@ : G 6.q.w.k.n.b.f.9.z f 2.w.a.a.q.3.S 4 X   # , g z k g l k l l s & . @ : G 6.q.w.k.m.b.k.8.z f 1.w.s.w.q.6.S u X   # 2 l l l k h k l l f & . ",
"# = s S 6.u.s.s.s.s.w.H k 2.w.a.u.u.w.8.H s = % , g l k l l l l l u &   # = s H 6.a.a.s.s.a.w.H k 2.w.a.p.w.w.9.H s = $ , f l l k l k l k s &   ",
"; : u k 2.6.q.w.q.q.6.H l 3.r.a.w.a.a.w.6.H s = : s k k l l k j f d 9 6 ; : u f 2.6.q.w.w.q.8.H g 3.w.a.w.a.a.w.6.H s = : s g l l l l k f d 8 6 ",
"p p f l l H 3.w.q.3.z k l 3.a.a.a.w.a.a.u.8.S = # < 4 f l l l u : w _ ] p p f l l H 3.u.q.2.z k l 3.a.a.a.w.a.w.w.8.S = # = 4 k l l l t : w _ ] ",
"F D h f s f H q.6.S s s f Y q.w.w.a.w.a.a.a.J = @ @ : s f h f ; # w @.-.F D g f a f J 8.6.D s s k 2.q.u.a.a.w.a.a.a.Y = @ @ = s h k g ; # w @.-.",
"O...b * t j H 2.H s : < 4 k 1.3.w.a.w.a.h.a.J = @ # = < 4 4 , o . 8 | X.O...c O t k H 1.H s : : 4 g J 6.w.a.w.a.s.a.2.= @ # = 2 2 t 2 o   8 | X.",
"-.$.r % : f l k s : # @ % , f Y q.a.w.a.r.w.J = @ % % # % % % # % 7 A [ -.$.r % , f l k s , # @ % , f 1.q.a.a.w.a.w.G = @ % % % & $ # # = 7 A [ ",
"-.%._ P b s > > : = # # % 4 k z 2.6.w.a.q.2.g = # % % % #   . < x A ^ ..-.%._ W q 4 > > : % # # % 4 f z 2.6.w.a.8.3.g = # % % % #   X < x A { | ",
"-.-.-.$.Q < . & % = & # % s l k k J q.u.3.l , % # $ $ & # # & x A | X.+.-.=.-.$.Q = . & = $ & $ $ s f l g Y q.w.2.k , = # % = # $ # # 7 L | X.+.",
"-.-.-.-.~ 7 2 3 5 = & # * , s s 4 g J 2.l u = = $ = & & = 8 r A { | X.+.=.-.-.-.~ 7 3 5 3 = # & = , s s 4 g 1.2.l 4 = = = # # & % 6 e A [ | X.+.",
"-.=.-.=.` A Z K V 3 # # $ = = = = = 2 2 : = = % $ $ & . 5 ~ *.X.[ { X.+.*.-.-.-.X.K A K V 3 & # = = = = = : 2 , 2 = $ $ % & & . 1 ~ *.X.[ { X.+.",
"-.=.-.=.o.[ [ [ A 3 # # % $ # # % # @ @ # $ % % $ = X   5 _ -.+.[ { X.o.-.-.-.-.o.[ L [ A 3 # # $ # $ # # # @ @ # # $ $ = & & . 7 _ -.+.[ { X.+.",
"-.-.-.-.X.K | =.$.+.+.+.+.=.-.' M + y u u y u y t t m #.-.=.o.| ^ | =.-.-.&.-.-.X.K | $.-.+.X.o.] =.&.' h y y u u y u y t t m #.-.=.o.{ L ..$.-.",
"*.*.=.$.X.[ ..$.=.+.+.` X.] $...Y ,.2.2.2.2.2.2.1.,.E O.*.+.X.{ K | *.=.@.*.*.*.X.} ..@.*.@.o.X.` ' $.` Y H 1.3.2.2.2.2.1.,.E O.*.+.X.{ A | =.-.",
" .| | | X.o.+.*.*.=.$.Q b 0 e E h.m.S.H.H.H.H.H.V.V.l.E r Q | [ K | +.*.| | | ..X.o.O.@.*.-.$.! b 0 e 7.h.m.D.H.H.H.H.H.H.V.l.E r Q | [ K | +.*.",
"L U K [ X.-.*.X.+.=.*.R l a l 0.Z.P.W.^.^.^.^.^.Q.T.H.9.f N K [ [ { ' o.[ K K U o.&.=.o.' =.$.R l a l q.N.P.W.^.^.^.^.Q.W.T.H.6.f N K L L | X.X.",
"X.X.X.X.-.:.%.Q m P ) f.M.M.M.B.Z.F.R.Q.^././.^.~.W.K.x.0.G c Q X.+.| | ) X...` -.:.%.Q m r } f.M.M.M.m.A.P.R.Q.^./././.^.W.H.b.0.G c Q o.o.| | ",
"=.=.$.-.;.>.=.B + O Y V.Q.^.W.T.F.F.L.T.W.^.^.^.W.R.L.F.m.9.f ! =.+.{ K -.-.$.-.:.>.=.B + + Y S.Q.^.W.U.F.D.L.T.W.^.^.^.W.T.L.J.m.5.g ! =.@.{ K ",
"*.$.-.-.&.&.d.a.r.r.b.I./.(./.W.I.P.I.T.R.R.R.R.U.I.G.F.F.x.r.t.o.' { { *.*.%.-.&.&.d.a.e.r.x.U./.(./.W.I.P.I.T.T.R.R.R.U.P.L.G.S.b.r.t.o.) | { ",
"o.+.=.-.( B i.S.Y.T.E.!.Q.^.Q.!.W.W.E.Y.K.F.F.F.F.F.F.F.F.K.K.z.F C / X.o.+.-.-.` B i.D.Y.R.E.Q.~.^.^.!.W.W.R.I.J.F.F.J.F.F.D.D.D.L.K.z.F C ) X.",
"+.+.*.+.A i e.K.W.^./.^.!.!.Q.^.^.W.L.D.S.A.A.A.Z.Z.F.Z.F.U.U.z.j n O.$.+.+.*.+.C p e.K.E.^./.~.Q.Q.~.^.^.W.L.H.F.C.A.Z.D.Z.Z.F.F.U.U.x.j n ' $.",
"=.*.o.{ n f 0.S.U.!.^.^.Q.^.^.^./.E.N.h.m.F.D.A.Z.F.F.F.F.P.F.g.j P #.&.-.*.X.| n f 0.Z.U.Q.^.^.^.^.^.^./.E.M.k.m.F.F.Z.D.F.Z.F.F.G.F.g.k P $.-.",
"-.*. .K v f 5.b.K.W.^.Q.Q.W.Q.Q.!.Y.v.s.v.Z.D.D.D.F.D.Z.Z.F.Z.s.l P O.=.-.$.X.K v k 6.m.K.E.^.Q.Q.W.W.Q.!.P.v.p.v.F.F.F.F.F.Z.Z.Z.F.A.p.j I ] -.",
"*.+. .K v u H p.C.T.^.Q.R.I.P.P.P.J.C.v.v.v.m.Z.F.F.C.c.c.Z.A.h.z h U } @.O.| L v u H p.B.R.^.Q.R.U.P.P.P.G.C.v.c.v.m.Z.F.F.C.v.c.Z.D.g.z M T } ",
"o.X.{ K A S ,.7.m.U.Q.E.Y.K.D.Z.S.A.G.Z.k.u.v.A.F.F.C.s.a.C.A.h.l u j j o.X.{ L N S H 6.n.R.Q.W.L.K.F.A.S.A.F.Z.k.w.v.A.F.F.C.s.s.N.S.s.l s j f ",
"| { A F <.g.g.c.B.U.W.E.Y.K.J.H.J.K.P.J.k.8.c.A.J.F.Z.m.b.M.b.7.d > a j | { A F 7.g.h.k.B.T.W.T.Y.K.J.H.J.K.I.J.k.8.c.A.P.A.Z.m.v.m.v.y.s 4 a k ",
"[ K v l p.Z.F.F.G.L.Y.Y.Y.Y.U.Y.Y.Y.T.L.b.w.c.A.F.F.A.F.Z.v.a.F = : f l [ A M l p.Z.F.A.J.L.Y.T.T.L.L.T.Y.Y.T.K.b.q.c.A.F.F.A.F.Z.v.u.S = : f l ",
"X./ b j g.F.G.F.F.V.S.L.T.T.T.Y.Y.T.T.L.V.n.b.m.C.A.A.S.m.u.J 4 & = s s X.| b j g.D.P.F.D.B.V.L.T.T.T.T.T.T.T.Y.V.n.b.m.C.A.A.S.m.i.J s % = s s ",
"-.#.P f a.D.F.F.C.s.z.H.T.T.Y.Y.Y.Y.Y.Y.Y.L.M.a.v.A.F.b.p.S : % $ = = = -.#.P k p.D.F.F.C.h.k.H.T.T.Y.Y.Y.T.Y.Y.Y.K.M.i.c.A.Z.v.u.F = # % % = = ",
"$.O.T H h.D.F.F.C.k.s.M.K.L.T.T.Y.Y.T.T.T.T.B.k.c.C.m.a.2.g # # $ $ $ & @.+.T H h.F.G.F.C.h.h.M.K.L.T.Y.Y.T.Y.T.E.T.S.k.v.Z.m.s.2.g * # % $ % # ",
"T T 4.q.v.F.F.F.S.C.m.l.x.V.T.E.T.T.T.T.T.T.J.A.m.v.i.4.l f s , # # $ $ I T 4.0.v.F.F.F.D.Z.m.c.x.V.T.T.T.T.T.T.T.T.K.Z.N.v.a.2.l f s , $ # $ % ",
"p j 3.a.b.Z.F.F.F.G.Z.k.q.n.L.L.L.L.L.L.Y.Y.J.A.b.u.4.l f k g s = $ $ $ p j 4.p.m.C.F.F.F.F.A.h.q.n.L.Y.L.L.L.L.Y.L.J.S.v.u.2.l f k l s = $ % % ",
"; s 4.a.h.c.m.D.F.G.Z.k.w.h.b.M.b.b.n.M.J.P.N.p.4.h g g f l l f f , = $ * s 4.a.k.k.m.A.F.F.A.k.w.h.b.n.b.b.b.M.J.L.N.p.4.S d f k g l k s 4 = % ",
"  2 4.a.p.q.c.Z.F.F.Z.k.q.q.w.w.w.w.q.a.m.Z.s.l - % = s l l l l l s = # . 2 3.a.w.w.k.Z.F.F.Z.k.w.q.w.w.w.w.w.a.m.Z.s.l - # : s l l k l h s = # ",
"@ 2 4.a.w.q.k.D.A.C.c.q.2.6.q.q.w.6.2.J 7.y.J , - = u f l l k l l f = $ @ 2 4.a.w.w.c.A.F.N.c.q.2.6.q.q.w.6.<.<.7.y.J , * : 2 j l k l l l s : % ",
"@ 2 2.a.w.w.v.D.Z.c.q.J g 2.w.a.a.6.H f 2 = $ = , f l l g k l l l s = $ @ 2 4.a.a.u.v.S.A.k.q.J l 2.a.i.a.8.H f 2 = $ $ , g k k l k l l l s : # ",
"@ : G 6.q.w.j.b.b.g.8.z f 2.w.a.a.q.3.z 4 X   # , l l l l g l l l s &   @ : G 6.q.w.k.b.b.j.8.z f 2.w.a.a.q.3.z 4 X @ # , l l l k l k l l s & . ",
"# = s S 6.a.s.f.a.f.q.H l 2.w.a.u.a.w.8.H s = % , g l l l g l l l s &   # = s H 6.w.s.s.s.a.w.H f 2.w.a.a.w.w.6.H s = $ , g l l g l g l l s &   ",
"; : u k 1.8.q.w.w.q.6.H g 3.p.a.w.u.a.w.6.H s = = s k l k l l g f d 9 6 ; : u f 2.8.q.q.w.q.6.H g 3.a.a.w.a.a.w.6.z s = : s k l l l l f f d 9 6 ",
"p p f l l H 3.w.q.2.H k l 3.a.a.a.u.a.w.w.8.S = # = s f l z l t : n _ ] p p f l l H 3.w.w.2.H k l 3.a.a.a.w.a.w.w.8.D = # = 4 f l l l u , q _ ] ",
"F D h f f f ,.q.6.S s u g 3.8.w.w.a.w.a.a.r.Y = @ # = s g g f ; # w @.-.F F h f s f <.q.6.S s u g 2.8.r.w.w.w.a.f.q.H = @ # = s l g f ; # w ] -.",
"X...c O > f S 1.J s : : 4 g Y 6.w.a.a.r.s.p.J =   # % , 4 s , & X 8 / X.X...b * t j z 2.G s : : s g Y 8.w.a.a.a.s.a.2.= @ # % , 2 u , o . 8 | o.",
"-.$.r = , g k k f = # @ % , f 1.q.a.a.w.a.q.J = @ $ % $ $ & * # $ 7 K [ -.$.r % , g j g s , # @ % , f 1.w.i.w.w.a.q.G < @ $ = $ * $ $ # $ 7 A [ ",
"-.-._ W b u > > = = # # $ , k z 2.6.a.a.q.3.g = # $ % $ #     < 7 A { | -.-._ P b u > > : $ # # % , f z 2.9.r.a.q.2.h = @ $ $ $ #   . < x A { | ",
"-.=.-.=.Q =   * $ $ $ $ $ s l l j H w.w.2.f 2 $ $ $ $ & & . # x K | X.+.-.-.-.$.Q = . & & $ & $ % s k l k J u.u.2.g t = # $ $ & & @ & x K | X.+.",
"-.=.-.-.~ 7 3 7 1 = & # = , s p u g J 2.l u - = $ $ & & < 6 r A [ | X.+.-.-.-.-.~ 7 3 7 3 = # & = , s s t g <.Y S u = = $ $ & o < 8 r L [ | X.+.",
"-.-.-.=.X.K V A N 3 # # $ = = = = = 2 2 < = $ = $ $ & . 1 ~ $.' L { X.o.-.-.-.-.' A A K V 3 & # # = = = = = 2 2 = = = $ $ $ # . 1 ~ *.X.U | X.+.",
"-.=.=.=.o.[ [ { Z 3 # # = # # # $ # # @ # $ $ $ $ = & . 5 _ -.+.U ^ O.o.-.*.%.=.o.[ L [ A 3 # # = $ $ # # # # @ # $ & $ $ = &   5 _ -.+.L { X.+."
};
