/* XPM */
static char *cG9ydGFs[] = {
/* columns rows colors chars-per-pixel */
"72 72 253 2 ",
"   c #747569",
".  c #7A7A6D",
"X  c #777970",
"o  c #7D7D70",
"O  c #807F72",
"+  c #1C8F00",
"@  c #2E9110",
"#  c #2D9117",
"$  c #36971A",
"%  c #35951C",
"&  c #349A1B",
"*  c #3A9C1C",
"=  c #27AC00",
"-  c #38AC07",
";  c #2CB500",
":  c #3AB408",
">  c #3AA61B",
",  c #3BB719",
"<  c #399826",
"1  c #3CAB2B",
"2  c #439E1E",
"3  c #47A31E",
"4  c #43AC1E",
"5  c #4CAB1F",
"6  c #4CB710",
"7  c #48B51D",
"8  c #43BB1D",
"9  c #4BBB1E",
"0  c #459A30",
"q  c #48AA24",
"w  c #52AC20",
"e  c #55AC24",
"r  c #4BB922",
"t  c #53B321",
"y  c #5AB522",
"u  c #53BC21",
"i  c #5CBB22",
"p  c #55B42B",
"a  c #51A83A",
"s  c #4DB734",
"d  c #55B838",
"f  c #62BA24",
"g  c #6DBD38",
"h  c #35CB05",
"j  c #3DC71B",
"k  c #3FD71C",
"l  c #3AE600",
"z  c #4BD004",
"x  c #4BC31F",
"c  c #44C81D",
"v  c #4CCD1E",
"b  c #52CA1E",
"n  c #48D51C",
"m  c #4CDB1E",
"M  c #57D81B",
"N  c #68D40C",
"B  c #68DB19",
"V  c #47E802",
"C  c #58EA04",
"Z  c #4BE51D",
"A  c #4AE71D",
"S  c #57E81B",
"D  c #67EA05",
"F  c #70EF08",
"G  c #67E919",
"H  c #79ED1D",
"J  c #79F218",
"K  c #4DC922",
"L  c #54C321",
"P  c #54CB21",
"I  c #5AC926",
"U  c #54D421",
"Y  c #5CD422",
"T  c #57DA24",
"R  c #5ADC22",
"E  c #59CB35",
"W  c #57D431",
"Q  c #63C223",
"!  c #6AC324",
"~  c #64CC23",
"^  c #6CCB25",
"/  c #63D324",
"(  c #63DC23",
")  c #68D826",
"_  c #73D226",
"`  c #73DB26",
"'  c #7BD929",
"]  c #6CD033",
"[  c #79D93C",
"{  c #4EE620",
"}  c #5BE422",
"|  c #58E627",
" . c #5CEB22",
".. c #5BE73A",
"X. c #65E424",
"o. c #6AE425",
"O. c #64EC24",
"+. c #6CEB26",
"@. c #66EB2B",
"#. c #73E326",
"$. c #74ED25",
"%. c #78E528",
"&. c #75EB29",
"*. c #7BED2A",
"=. c #6AF125",
"-. c #78F125",
";. c #7DF22A",
":. c #69E835",
">. c #78E637",
",. c #7FF332",
"<. c #569C4A",
"1. c #59AB46",
"2. c #5CB449",
"3. c #67B557",
"4. c #74BB50",
"5. c #7D876D",
"6. c #7C9B66",
"7. c #7F8071",
"8. c #76AB6B",
"9. c #74B669",
"0. c #5DD544",
"q. c #69C449",
"w. c #76CC48",
"e. c #6AD447",
"r. c #79D847",
"t. c #7DC756",
"y. c #70CF57",
"u. c #6AEB47",
"i. c #77EB47",
"p. c #77E857",
"a. c #78EF56",
"s. c #7AD366",
"d. c #7AEA65",
"f. c #8AF405",
"g. c #8AF10C",
"h. c #85F41A",
"j. c #93F51A",
"k. c #85DC32",
"l. c #85EA2A",
"z. c #90EF2B",
"x. c #87F325",
"c. c #84F22A",
"v. c #8CF32B",
"b. c #95F628",
"n. c #94F52C",
"m. c #87E839",
"M. c #94E63A",
"N. c #87F236",
"B. c #94F332",
"V. c #97F639",
"C. c #82AB5E",
"Z. c #89BA5A",
"A. c #97BC5C",
"S. c #83846F",
"D. c #858B6E",
"F. c #8B8D6F",
"G. c #889869",
"H. c #95986E",
"J. c #9B9B6F",
"K. c #838370",
"L. c #888770",
"P. c #8C8C70",
"I. c #908F70",
"U. c #8F9070",
"Y. c #949470",
"T. c #999671",
"R. c #9B9B70",
"E. c #A19D70",
"W. c #89A465",
"Q. c #98A769",
"!. c #99B863",
"~. c #90AD75",
"^. c #A4A56F",
"/. c #A4AC6C",
"(. c #A9AA6F",
"). c #B2A86F",
"_. c #A4B566",
"`. c #A4B26A",
"'. c #B4B56A",
"]. c #A4A470",
"[. c #A5A570",
"{. c #A5A571",
"}. c #A9A570",
"|. c #A7A870",
" X c #A9A970",
".X c #AAAA70",
"XX c #ADAD70",
"oX c #A3A379",
"OX c #B3AE70",
"+X c #B7AC70",
"@X c #B6B170",
"#X c #BDB370",
"$X c #C1B56F",
"%X c #C3B670",
"&X c #C5B870",
"*X c #87CD4A",
"=X c #87D946",
"-X c #96DB47",
";X c #8BC654",
":X c #97C659",
">X c #89D659",
",X c #97D656",
"<X c #A5CF55",
"1X c #89E947",
"2X c #94E844",
"3X c #8AF247",
"4X c #96F443",
"5X c #9AF543",
"6X c #93F34C",
"7X c #9CF54C",
"8X c #87EA58",
"9X c #9AE95A",
"0X c #87F05A",
"qX c #9AF455",
"wX c #9BF45B",
"eX c #A1F349",
"rX c #A1F756",
"tX c #A1F55C",
"yX c #8CCF6C",
"uX c #99D966",
"iX c #A6C968",
"pX c #89EB66",
"aX c #96E869",
"sX c #8AF269",
"dX c #99F365",
"fX c #8BEB75",
"gX c #96E97A",
"hX c #8FF176",
"jX c #98F277",
"kX c #A5F668",
"lX c #A4EB72",
"zX c #A2F473",
"xX c #A9F578",
"cX c #B1F87B",
"vX c #8DBC83",
"bX c #93CF87",
"nX c #9AEA8A",
"mX c #9BF185",
"MX c #A2E886",
"NX c #A7F388",
"BX c #B4F787",
"VX c #ACEC98",
"CX c #B7F696",
"ZX c #AFDBA0",
"AX c #B6EEA6",
"SX c #C1EDA9",
"DX c #C4F7A8",
"FX c #CDF3B7",
"GX c #CAF6B6",
"HX c #D4EBCB",
"JX c #D7F8C4",
"KX c #E3FAD5",
"LX c #F2FAEB",
/* pixels */
"o o o o o o K.Y.R.[. XXXXX(.XX[.[.R.Y.P.S.K.o o . K.P.Y.R. X XXX@XXXXXXXXX X(. X X XXX[.[.[.[.R.R.R.H.E.]. X XOXXXXX[.R.Y.P.K.o o o o o . o D.P.",
"o o o . o K.L.Y.R.[.XXXX X X X[.[.^.R.Y.S.O o o K.P.U.R.[.[.XXOX@X@X@XOXOXXXXX X XXX X].[.E.J.R.R.R.R.].|.}. XXXXX.X[.[.R.Y.L.K.K.o o o o K.L.Y.",
"K.K.o K.D.P.Y.R.[.[. X X.X.X X X X[.^.T.P.S.O K.U.T.R.R.[. X X@X#X%X#X#XOXXX X/. X X[.].Y.Y.P.Y.R.R.[.[. X|. X X.X.X[.[.[.R.R.P.K.K.. O K.P.Y.Y.",
"K.K.K.K.P.Y.H.R.].|. X X.X[. X X X[.].R.P.K.S.L.H.R.|. X[. XXXOX#X%X%X%XOX X X}.XX X].E.P.F.L.P.R.].|. X X|. X}..X.X.X.X X|.R.T.P.K.K.K.L.Y.R.R.",
"L.K.K.K.P.Y.J.R.[..X[..X.X.X|.|.|.|.E.Y.P.O O I.R. X}.XX XXX XOX#X%X%X%XOX X}. X X/.].H.L.S.O F.R.^. XXX X X|.|..X[..X.X X X[.R.P.K.K.K.P.Y.R.R.",
"L.L.K.K.U.Y.R.oX[.[..X.X[.(.|.[.].E.R.Y.O O L.I.[.OX#X'.XX X XOX+X%X#X+XOX X|.XX X(.].T.L.O O L.R.]. XXX X X|.|.[..X|..XXXXXXXR.Y.K.S.K.I.Y.R.].",
"L.K.K.L.P.Y.R.E.[.^.(.(..X.X|.E.T.Y.P.K.O . O T.).#X#X#X@X X X XOXOX+XOX X X|. X(.(.^.J.F.O O F.R.[. X X X X X X.X.X|..XXXXX|.R.P.S.K.K.F.Y.R.R.",
"L.D.K.L.P.Y.R.E.].^.}..X.X.X|.R.I.P.K.. . O L.T.).%X&X$X@XXXXX[.XX X XOX}.|. X X(.}.^.T.F.S.O F.R.[. X X X X[. X(.[..X XXX X[.R.P.K.K.K.F.T.R.R.",
"L.K.K.K.Y.Y.R.[.[. X.X.XXX.X[.R.P.O O O X O P.E.).%X%X%XOX X[.|.|. X|. X[. X}.(.|.[.[.H.I.L.S.I.R.[.XX X X.X.X}..X[..X|..X|.[.R.P.K.K.S.U.H.R.R.",
"K.K.K.L.Y.R.R.[.[..X.XXXXX.X[.R.P.O O O O P.T.E.).#X+XOX}.[.].].[.[. X^. X X(..X.X.X[.[.I.F.F.Y.E.|. X.XXX}.|.|.|..X|..X|.}.E.T.L.S.7.L.Y.R.[.[.",
"K.K.K.F.H.].[..X.X.X.XXXXXXX[.R.P.O O O I.T.E.}.}.}.}.E.E.E.R.J.^.|.XX X X(.(.(..X X|.E.J.T.T.T.[.|. X.X X X|.|..X.X|.|.^.[.J.Y.L.S.S.P.T.].[.[.",
"K.S.K.P.R.].[..X.X.X.X.XXX.X[.R.I.L.O O T.E.|.|.E.R.E.H.T.R.R.].[.|. X|. X X|.(..X X[.[.T.H.H.J.[.}..X X(. X|.|..X.X[.[.E.R.R.P.K.S.K.P.H.[. X X",
"K.K.K.P.R.^. X X}.[.}.}.[.[.].T.U.P.P.L.R.].|.|.E.R.T.T.T.T.R.R.R.[.}.^. X[.^.^.|.|.^.E.J.H.H.T.oX[.[.[. X X|..X X}.}.E.R.Y.Y.P.K.o K.P.R.].|.|.",
"o o K.F.R.[.[.[.E.E.T.T.R.R.R.Y.U.U.vXI.Q.].].|.E.R.H.J.R.R.R.R.R.R.R.R.[.[.^.^.[.[.E.J.H.H.H.I.Y.R.R.].[.XX.X|.}.).E.vXR.Y.P.L.o o K.P.R.[.[.|.",
"X o o P.Y.J.E.R.Y.P.I.L.o o U.Y.Y.R.R.R.E.E.].R.[.R.].].[.].[.E.T.Y.G.Y.H.J.Q.Q.Q.!.Q.W.G.D.S.S.D.P.Y.Y.[.(. X X}.oXE.T.U.L.o o X o 7.P.Y.R.R.[.",
"X o K.L.Y.T.R.Y.P.L.O o K.K.vXY.R.oX[.].R.R.R.R.].[.}./. X|.].[.~.W.W.W.W.A.A.;X;XZ.Z.Z.Z.W.D.5.o K.L.Y.R.[. X[.].R.T.U.P.K.o o o o K.L.Y.R.T.Y.",
"S.K.L.P.Y.Y.Y.I.P.L.K.7.7.7.P.T.E.|.).(.E.T.H.Q.!.<X:XiX<XiXiXuX,X,XaX,X,XM.B.2X9X9XaX9X-Xk.*X;XZ.C.W.G.H.].].].R.T.U.U.L.K.K.K.S.K.K.F.Y.Y.Y.Y.",
"F.P.F.U.P.P.I.F.P.P.P.P.D.P.P.E.(.OX'.'.!.!.A.:X,X-X-X-XM.9XlX9XB.eXrXqX7X5XB.V.rXkXxXkXrX7X5XM.=X*XZ.Z.Q.Q.Q.T.Y.U.P.P.P.U.P.U.Y.Y.U.U.P.P.U.U.",
"E.R.R.Y.P.K.L.P.T.H.R.R.T.R.R.}.'.iX<X<X-X2X2XkXqXB.B.n.j.9XBXkXV.tXrXV.wXkX4X5XkXkX6XzXBXCXcXb.B.5X2X2X-X:XZ.H.D.D.D.P.H.T.R.E.R.R.J.Y.P.L.L.L.",
" X|.E.R.P.K.L.P.R.R.[. X].Q._.iX<X<X<XB.B.n.2XrX5Xn.n.n.j.6XkXdX9XkXwXv.6XdX4XV.tXrXqXdXlXCXCXBXkXrXV.B.B.m.r.4.6.5.K.U.T.].oX|..X|.R.R.F.K.L.L.",
"(. X[.R.P.S.K.P.R.].|. X/.A.,X-XB.b.V.n.n.c.c.n.v.c.c.c.x.h.*.8XaXaXaXz.h.;.x.x.J 6XdXi.$.wXCXGXCXrXV.N.B.c.-.:.q.4.6.U.R.[.XXXXXX X|.R.P.L.L.P.",
"OXXX XR.Y.P.L.I.R.R./.!.<XuX2X2XkXwXb.h.c.l.-.H $.+.o.( ( M M ..y.e.e.o.G G o.#.G ` i.&.F N.kXBXxX2X*.>.8XjXmX0X>.r.*XZ.!.Q.XXXX@XXX|.R.Y.L.L.F.",
"(.XX|.].T.Y.U.Y.T.R.Q.*X8XwXN.3XxXzXx.h.;.c.&.+.X.S m c j j j h h h h Z n M ( ) ) b n B %.x.h.g.*.>.M W s.bXAXaXH v.m.=X;X!.`.XX(.(.[.^.R.P.F.F.",
"(..X[.^.R.H.I.Y.T.G.;X>.l.c.J N.kXkXb.b.v.l.` ~ 9 9 I ~ v n j j - h , , c b #.*.%.B u 7 t x b G X.X.M ) e.q.9.2.B z.B.B.m.2X:X_.(. X[.[.R.Y.Y.Y.",
"[.[.[.].R.R.J.R.H.Z.=X*.N.6X3X6XqXeXn.l.l._ ^ f y i ^ ' ~ b v x r K 9 t L Y G J G B ! y 5 7 8 x U b U P b 7 * q g k.M.z.x.l.M.:XiX_./.^.J.J.R.R.",
"[.[.^.^.].R.].J.Q.-Xz.j.tXBXBXkXV.l.' Q t q t I ` l.l.k._ ) o.X.Y P ~ ` %.>.D C C S ) ^ ^ f y 4 > 4 > 4 x 9 8 d 2.<.g l.h.H z.V.9X<XA.Q.^.E.R.E.",
"R.].R.R.].].Q.iX-XM.B.7XkXxXBXNXm.N y 7 , , P ` *.c.l.` ^ ~ / / Y / ` l.3XdXjXmXfXu.C z I y y i I K 4 * 4 8 v s a 1 2.t.p.1XB.kXDXCX<X!.Q.E.].}.",
"R.J.R.R.oX`.!.-XB.n.7XkXwX6XmXnXE = $ , n m X.;.;.$.o.) ~ Q i L I / #.x.7XcXGXFXVXpXz h 8 3 e ^ ) } v 5 2 9 v x : ; 2.8.Z.yX6XCXLXFXkX,X!.^.|. X",
"R.R.R.R.[.!.-Xz.B.kXkXwX3XN.p.y.q @ & K m  .o.` ^ b P Y ) %.` ) / / ) ` [ uXZXVXNXmXgXr.z - 2 y ( G T U ! ^ b 7 : h E 3.3.q.gXGXLXKXCX9X:X(. X X",
"J.R.H.J.Q.:Xc.B.7XlXjXi.=.=.z ; # & , U O.O.X.~ b u x P ) ` %.#.) Y b i Q ] >XuXaXmXZXpXN 7 > : M S  .) k.! 9 r E T W d = a MXJXLXKXCX9XM.`. XXX",
"R.T.T.J.Z.*Xx.wXzX0Xu.=.S b 7 @ # > n } +.=. .} ( o./ u 5 5 t P M v j , ~ l.m.] E yXNXhXu.I z z V C S X.' N 7 q.p.e.E c ; d MXJXLXKXjXV.-X/. X X",
"R.E.H.Q.;Xm.N.0XpXu. . .Z c > % 2 u R +.+.+. .@.$.*.Q 5 & $ > U } c > > L H B z ; y.hXsXi.( r.fXsXa.:.( r.] t e.p.e.e.K ; d MXGXKXFXsXM.-X_.|.[.",
"E.E.T.Q.r.i.qX3X . .O.O.M 8 * 2 y _ %.+. . .+.$.%.k.e # % * 7 T  .K > * 7 L L 9 > x | @.=.F zXGXAXnXu.T ;X4.d E W W 0.0.1 s mXCXAXCXjX6X-XQ.[.^.",
"}.[.R.Q.r.>.3X0Xd.:.F c.#.v u f ' l.&.O. . .X.` _ f q % % $ 4 K K , 4 t ~ ` L 8 c n C G J F xXKXGXmXe.Y w.] p I U : 2.s.3.2.s.d.sXdXwXV.2XQ.T.Y.",
"/.}.Q.Q.r.H ;.pXmXa.;.n.c.M Q ^ k.l.&.+.} | ( ! f w 2 % % $ $ > > , r Q ` l./ v n T R +.G D jXFXZXy.W M ' ! w L v - 3.bX9.a K S &.N.b.n.-XG.F.P.",
"}.|./.Q.r.-.v.N.u.sXdXx.F T b y f ~ #.&.%.o.U q 2 * % % % $ % % * > 8 T o.$.O.T M M T O.-.h.3XjXt.s K M _ f w 9 9 j 3.yX8.4 W p.hX0X-.x.2XG.S.7.",
" XXX|.Q.i.-.b.3XsXjXjXwXi.M 9 2 2 ! %.' ) o.Y > # & * * $ % % % $ 3 u v X.X.=.O.} T } +.-.l.#.N 6 : M ` ' _ I u K k y.vX3.: p.fXmXd.=.x.M.G.S.o ",
" X X XQ.>.J j.BXDXNXjXNXaXG 6 @ 2 ^ z._ u ( / 4 % $ 7 7 & % % % $ t f f I ^ &.-.=. .+.*.l._ y 3 > v &.v.v.l.&.E s k 3.8.q.W gXNXhXa.A x.M.G.F.K.",
" X|. X`.>.c.dXGXKXCXsXjXsXG 6 & % f ' f 7 ~ / t 2 & r P I 7 2 2 3 w w 5 w f ) ) Y Y B Q f y 5 > x o.v.n.l.;.+.| K z E 3.yXhXfXsXa.u.A c.2XQ.R.R.",
"|.|.|.`.>.3XcXJXLXCX3X=.F &./ 4 $ 3 y f y t i f 3 % 8 T ) ) y y w 5 3 3 w y y u 7 4 q 2 # 4 8 b X.;.n.v.;.$.O. .U r 1.3.ZXAXd.C C  .@.l.-X/.].[.",
"[.|.oX!.i.,.tXCXDXjXc.J J ;.X.n 8 , 9 7 w 3 w f w & > r K U T M M / ~ ^ _ ^ L x 9 r 9 8 K U R X.;.v.;.;.&.| R E s <.8.bXnXmXu.V V u.0X2X,X/..X.X",
"[.[.[.|.*Xl.j.V.7Xv.J -.-.-.=. .n n n c 7 > 5 Q y w 2 > 8 v m Z T X.#.$.%.) Y n U n K v Z |  .X.#.%.=.@.:.:./ p a 1.yXNXmXd.u...Z i.0X,X:X/.XX(.",
"R.E.E.Q.;X>.v.b.V.n.-.C S O.O.S U R  .m n 8 u ^ _ ! i t i u , n A Z S S S { Z Z Z Z Z Z m c 8 8 7 u B :.r.r.[ f e q.r.i.u...d.d...*.2X:X X}.(.(.",
"T.R.R.Q.!.,XN.6XwXN.&.u... .S C R M M S Z n v ( ( B ~ I ! Q t v m m k k m m } } Z A A Z n j , , 8 7 b W q.4.f 6 q.MXjX;.C A u.a.&.*.-X!.].}.(.(.",
"R.R.R.R.R.!.i.aXNX3X:.d.d.u.| A S U K U S { Z A {  .R ) ` _ Q I P K 8 8 u I / R n n n n n c r K b b i t w * < ; s.FXGX5XF  .{ =.c.k.:XQ.[.[. XXX",
"R.R.R.R.[./.:XuXaX>.:.a.d.fXfXd.| ..s.p.:.@.A A A A S } R G M Y u 4 > * 3 5 t u , , , > ; > q 1.s q 3 3 > 1 2.y.gXBXcXV.x.-.C S *.,XQ.[.[. X[. X",
"|.].[.[.[. X}.!.r.>.@...d.nXVXnX..u.fXpXi.@.O. . .Z Z Z A { } Y L 4 % & $ % $ & % # % % % @ 0 <.<.0 % & > K y.lXcXb.f.b.v.;.=.@.m.A.[.[.[.[. X[.",
"|.|.[.[. X X}.Q.Q.Z.y.0.d.nXAXVXu.V u...| +.$.-.&.X.V V V { @.} m n c 4 * @ + + % # @ 0 <.# <.~.8.0 < 1 r E p.kXxXj.f.;.;.=.=.>.:X`.[.[. X X|.[.",
" X XXX|.|..X[.[.R.R.C.;Xs.sXVXNXu.V V l l =.&.=.-.$.i.d.bXfXp...V Z T I p p 1.a 2 0 <.vXvXa 2.vX9.2.E E ] [ 3XwXkXrX3X$.@.:.m.:X_.(.(.XX X(.[.[.",
" X X X X.X|.|.[.R.T.T.H.Z.r.hXhX:.C  .C V C =.=.D =.gXAXHXFXgXu.V X.%.%.>.=XyX~.a 8.bXSXAXy.] yXyX:.$.l.6X5XV.6XdXBXgX:.[ ;X_.`.(. X(. X|.|.|.{.",
"OXXX[..X X X[.].R.R.T.R.~.;X>Xa.=.C S a.sX3X-.J D  .fXVXAXZX8X8X8X8X1Xm.6XdXxXaXk.uXAXHXHXaXh.9X6Xn.f.wXCXBXN.N.0XjXuX;X:X'.'.#XOXXXXX X X X}.[.",
" X X|. X|. X[.].R.H.H.R.E.|.;Xr.:.G C mXCXjXB.N.$. .p.p.>.D F jXNXzXwX5XrXkXkXrXb.xXGXJXGXkXb.B.n.b.f.xXJXDX3X+.:.r.;XXX$X&X&X$XOX X[. X/.XX[.[.",
"OX X|.[. X[.[.].R.T.R.R.[.|./.!.;Xr.>.pXjX6XqXxXdX4X4X3Xh.f.g.BXDXzX4XV.4XrX5X5XeXkXcXcXcXtXV.V.B.b.g.wXCXmX&.>.r.A.`.OX$X%X%X$XOXXX X[.[.[.].[.",
"OX.X|.[.[.[.R.R.R.R.R.R.].|. XXX`.!.;X=Xm.m.9XcXxXqX5XV.n.j.b.BXCXdXc.n.v.B.b.V.kX7Xf.b.V.4X4XV.B.B.c.1X8X8Xr.*XA.(.OXOX#X#X#X#XOX X|.[.[.].].R.",
".X X|.[.R.R.R.R.Y.H.R.R.[..X X X(./././.!.:X*X1X9X9X6X3Xl.l.*.3X6XN.;.c.c.c.;.N.0X3XJ h.%.m.m.>.=X=X*X,X:X:X`.`./..X XOXOXOXOX). X(.^.].].R.J.R.",
" XXX|.[.].R.Y.R.Y.R.R.R.[.[..X.X(.(.(.|.}.!.:X:X,XyX>X;X=Xw.w.w.k.=X=Xm.m.m.[ 8X>Xy.r.w.t.t.4.Z.;X!.!.!.Q./. X X|..X.X.X.X XOX(. X(.^.].R.H.Y.T.",
"[..X X[.R.R.H.Y.Y.R.T.J.[.[.[. X|.|. X|.|..X.X.X`.|.|.Q.W.6.5.D.G.Q.!.Z.Z.;XZ.8.W.6.6.6.5.5.F.Y.Q.^. X X[.[.].].[.[.].].].[.[. X(.(.^.^.J.H.H.R.",
"(..X|.[.[.E.R.R.R.Y.R.R.E.].[.[.|.|. X.X.X.X[..X[.E.R.U.L.7.o o D.F.Y.G.G.W.G.G.5.o 5.7.S.F.Y.J.}. X X X].R.R.R.T.R.R.R.E.].[.[.}.(.(.^.^.E.R.H.",
".X.X(.(. X[.[.].R.R.Y.H.R.R.R.].|.|. XXX.X.X.X[.R.Y.P.L.7.o o o 7.K.K.K.K.K.o . o X K.K.U.H.E.[.|. X X[.R.P.L.L.P.P.P.Y.T.R.R.[.|.}.(.(.}.^.[.].",
".X[..X(..X X[.].R.H.T.Y.T.R.R.R.].|. X X.X.X[.R.Y.P.K.K.7.7.K.o 7.7.K.7.S.o K.K.o o K.L.H.^.|. X XXX[.R.Y.L.K.O K.o L.P.U.T.R.].^.(.(.(.^.}.[.[.",
"[.oX^.[.|.[.[.].R.R.T.R.T.H.T.R.].].|. X|.].oXT.P.7.o o K.K.P.P.K.K.K.K.S.S.S.7.L.K.L.Y.oX}.XXXX X|.[.R.I.L.K.O K.K.K.L.U.Y.T.H.^.^.].^.^.[.E.].",
"R.T.R.R.R.R.R.J.R.R.R.R.E.oXR.R.].].].R.R.oXT.U.K.7.o 7.K.U.U.U.U.P.L.P.F.F.F.I.P.P.Y.R.[. XXX X X[.E.R.Y.I.L.P.P.P.P.L.P.P.U.Y.T.T.T.H.J.R.R.J.",
"P.Y.Y.P.P.P.U.Y.R.].[.].[.]./.].R.E.R.T.T.U.P.L.7.o o L.U.H.R.R.J.R.R.H.T.R.J.R.R.R.R.[.|. X X|.[.R.R.R.T.R.T.R.R.R.R.Y.P.K.K.D.P.F.I.I.I.P.I.Y.",
"D.K.K.L.S.K.L.Y.R.|.|. X X[.].].oXoXT.Y.U.D.7.7.o 7.L.P.T.].|.|.[.].].].^.}.].].[.[.[.[. X X X[.R.R.T.R.Q.oX|.{. X[.R.R.Y.K.K.o S.K.S.K.K.K.L.I.",
"o o o o o K.K.Y.R.[. XXX X X X[.oXR.R.I.L.O . o o K.P.Y.R.|. X XXX XXX X X X X X XXX|.}. X[.[.J.R.R.R.R.[.[. X(.XX.X[.R.Y.P.K.o o o o o o K.L.P.",
"X o o o o L.L.Y.E.[.XXXXXX X X[.[.R.R.Y.L.O . K.K.L.U.T.].|. X@X@X@X#XOXXXXX X X X(. X|.].J.R.R.R.R.R.[.[. XXXXXXX.X[.[.H.Y.P.S.S.o o o o S.P.P.",
"  . o K.D.P.Y.R.[.[. XXXXX|. X|. X|.R.R.L.O O S.U.T.R.].[.|. X'.#X%X#X#XOX X X|. X X|.E.T.I.I.Y.Y.E.[.[.[.[. X.X.X.X^.[.].R.T.P.K.K.o o S.P.Y.Y.",
"  o K.L.P.Y.Y.R.^.}.(. X X X XXX X[.[.R.F.S.S.L.T.R.|.|.|. XXX+X%X%X%X%XOXXX X XXX X[.R.P.L.F.P.H.]. X X.X.X.X.X.X.X.X.X^.[.^.T.P.K.K.S.P.Y.R.H.",
"  . K.P.Y.T.R.oX[.|. X XXX X X}. X[.E.T.F.S.S.I.R. XXXXX X X X@X#X%X%X#XOX X X X X X[.R.P.L.S.P.R.[..XXX.X.X.X.X|..X.X.XXX.X[.R.I.K.K.K.I.Y.J.E.",
"  . K.P.Y.T.R.[.[. XXX X X X X|.[.[.J.I.K.K.L.T.|.@X#X@XXX X XOX#X#X%X#XOXXX XXXXX X[.H.L.o O L.R.|..XXX.X.X[..X.X.X.X.XOX.X.XE.I.K.K.S.I.T.R.[.",
"  . K.I.Y.T.R.[.|. XXXXX X X}.[.R.Y.P.L.o o L.T.OX#X%X#X@XXXXX XOXOX@XOXOX X X XXX(.[.R.F.K.O P.R.[.XXXXXX.X.X.X.X.X.XXXXXXX|.E.I.K.O L.Y.H.E.].",
"  . K.I.Y.R.R.].[.XXXXXXOXOX}.E.T.F.K.O o o L.T.).%X&X%X#XXX X XXXOXXXOXXX X XXXXX X XR.P.K.K.F.R.[.XX(..X.X.X.X.X.XXXXXXXOX|.^.I.L.K.L.I.T.R.^."
};
