/* XPM */
static char *b54498b7bb6a4a48cd80ac7a50b75e1aakbVmt12KIiUucd3[] = {
/* columns rows colors chars-per-pixel */
"72 72 253 2 ",
"   c #030100",
".  c #0C0103",
"X  c #060608",
"o  c #130101",
"O  c #180608",
"+  c #011205",
"@  c #060C13",
"#  c #170815",
"$  c #101916",
"%  c #26020A",
"&  c #370208",
"*  c #270514",
"=  c #330319",
"-  c #39181A",
";  c #271912",
":  c #11211D",
">  c #2F2A15",
",  c #051E27",
"<  c #10112F",
"1  c #2A1B28",
"2  c #361624",
"3  c #2F112C",
"4  c #1A2525",
"5  c #03292A",
"6  c #2C2D2E",
"7  c #48081B",
"8  c #510A0F",
"9  c #650916",
"0  c #461629",
"q  c #57172A",
"w  c #510F2D",
"e  c #6D1633",
"r  c #46273A",
"t  c #4B3639",
"y  c #522C31",
"u  c #713135",
"i  c #5F2F09",
"p  c #2D493B",
"a  c #30510A",
"s  c #745901",
"d  c #674D33",
"f  c #796832",
"g  c #5A6F0B",
"h  c #051455",
"j  c #343246",
"k  c #182B6E",
"l  c #2E2D76",
"z  c #121E53",
"x  c #6E164A",
"c  c #4A3B44",
"v  c #532B4B",
"b  c #6C344D",
"n  c #602465",
"m  c #37504A",
"M  c #5A4757",
"N  c #585858",
"B  c #4D4A49",
"V  c #6A4956",
"C  c #78495B",
"Z  c #68555A",
"A  c #6C504F",
"S  c #6F635D",
"D  c #4D596D",
"F  c #784665",
"G  c #715468",
"H  c #7C7D6D",
"J  c #767769",
"K  c #7D7D71",
"L  c #787C74",
"P  c #6E6D6E",
"I  c #8D0E33",
"U  c #A7122C",
"Y  c #8E2339",
"T  c #9C101D",
"R  c #C32639",
"E  c #8A6900",
"W  c #825E0A",
"Q  c #95104B",
"!  c #B51144",
"~  c #862F53",
"^  c #AF2B50",
"/  c #96096A",
"(  c #923561",
")  c #B33168",
"_  c #C33B5B",
"`  c #8E4E5A",
"'  c #99576A",
"]  c #8B506F",
"[  c #A95079",
"{  c #817E6D",
"}  c #87776C",
"|  c #817E72",
" . c #897A79",
".. c #947978",
"X. c #916975",
"o. c #A66777",
"O. c #AA726B",
"+. c #936355",
"@. c #C65079",
"#. c #C3707B",
"$. c #7E816D",
"%. c #7A8569",
"&. c #7E8272",
"*. c #788676",
"=. c #748D6A",
"-. c #778D5E",
";. c #AD910A",
":. c #B6A722",
">. c #E59E15",
",. c #F9CC0D",
"<. c #F2DC2A",
"1. c #949558",
"2. c #A5995D",
"3. c #9DA95B",
"4. c #A8A85B",
"5. c #84836E",
"6. c #8A856D",
"7. c #868A6D",
"8. c #8B8C6D",
"9. c #898965",
"0. c #958B6B",
"q. c #8E926D",
"w. c #879567",
"e. c #93946E",
"r. c #9A956C",
"t. c #95996C",
"y. c #9B9C6D",
"u. c #969964",
"i. c #848471",
"p. c #8A8573",
"a. c #868972",
"s. c #8C8C71",
"d. c #85867A",
"f. c #928E71",
"g. c #968778",
"h. c #8E9171",
"j. c #879972",
"k. c #949472",
"l. c #9A9772",
"z. c #969971",
"x. c #9B9B72",
"c. c #97977A",
"v. c #A19D6D",
"b. c #A89A67",
"n. c #A6897D",
"m. c #A19D73",
"M. c #A69877",
"N. c #B29C79",
"B. c #B1936F",
"V. c #9DA26E",
"C. c #9DAA6C",
"Z. c #99A769",
"A. c #8AA474",
"S. c #9EA172",
"D. c #9AA678",
"F. c #8EA168",
"G. c #A4A46E",
"H. c #A9A66E",
"J. c #A6A96E",
"K. c #AAAA6E",
"L. c #A5A965",
"P. c #B2AC6E",
"I. c #B7A86C",
"U. c #AAB36B",
"Y. c #B6B16E",
"T. c #BCB36E",
"R. c #BBB467",
"E. c #A4A472",
"W. c #AAA673",
"Q. c #A5AA72",
"!. c #AAAA71",
"~. c #A5A57B",
"^. c #ABA97A",
"/. c #B2A574",
"(. c #B3AE72",
"). c #B6A978",
"_. c #ABB175",
"`. c #B4B171",
"'. c #BCB372",
"]. c #B9B579",
"[. c #C3B46D",
"{. c #C4B768",
"}. c #C3B571",
"|. c #C4B972",
" X c #C7B77A",
".X c #C0A576",
"XX c #DC9E43",
"oX c #583FA7",
"OX c #3D5287",
"+X c #736388",
"@X c #882486",
"#X c #944686",
"$X c #AC578A",
"%X c #997387",
"&X c #B87588",
"*X c #B1708F",
"=X c #C6768A",
"-X c #D37295",
";X c #CF7AA3",
":X c #7D8589",
">X c #9A9687",
",X c #8E8D8E",
"<X c #A98A87",
"1X c #B58288",
"2X c #A89886",
"3X c #B49A83",
"4X c #B99996",
"5X c #AD8997",
"6X c #91A39C",
"7X c #ACA883",
"8X c #B8A486",
"9X c #B8A896",
"0X c #AF97AC",
"qX c #B7A8A4",
"wX c #B4B6BA",
"eX c #909EAE",
"rX c #C89698",
"tX c #CE8B92",
"yX c #C9AD91",
"uX c #D295AD",
"iX c #EC8CAB",
"pX c #C9A9AA",
"aX c #D4AFAF",
"sX c #EEAABA",
"dX c #B1CBAF",
"fX c #D2C1BB",
"gX c #F1CABD",
"hX c #AEBBC3",
"jX c #D5B4CD",
"kX c #E9BBCA",
"lX c #F9B8C7",
"zX c #FBB9D4",
"xX c #F4ADCD",
"cX c #F8AAEB",
"vX c #E393CE",
"bX c #BFC0C4",
"nX c #CED1D2",
"mX c #F9C4C7",
"MX c #FBC6D7",
"NX c #EED2D3",
"BX c #D8E2D7",
"VX c #EEE8DB",
"CX c #D2D9E3",
"ZX c #ECDAEA",
"AX c #D6F0EF",
"SX c #E9E7E8",
"DX c #F8E6EC",
"FX c #F7ECF8",
"GX c #EBF9FA",
"HX c #F5FEFD",
"JX c #FDFCFE",
"KX c #F8F5F8",
"LX c #EEEFEE",
/* pixels */
"H H K K | { 5.8.y.W._.(.!.K.!.J.m.y.e.7.5.&.H H K 5.7.r.S.E.J.P.`.!.P.P.K.!.!.!.!.!.!.!.W.W.m.G.x.x.t.y.E.^.W.!.(.K.J.S.e.8.5.{ $.H K &.J | 5.s.",
"H K K | | 5.s.k.y.G.!.!.!.W.J.G.E.G.x.k.a.i.K &.i.a.e.x.E.Q.K.P.`.`.`.`.`.!.!.K.!.K.!.G.S.x.x.y.l.x.y.G.W.W.W.!.!.L.G.G.t.8.6.i.i.K H | H i.s.s.",
"5.| &.| 5.s.t.t.G.Q.!.K.K.!.!.E.K.G.W.l.a.i.H 5.q.k.y.x.E.E.!.(.T.T.}.'.`.!.!.!.!.!.G.G.z.k.f.k.y.V.G.G.!.!.H.K.!.!.!.Q.S.x.c.q.p.5.H i.i.f.k.e.",
"5.i.i.i.a.k.x.y.E.W.!.W.J.K.!.!.K.G.W.x.7.5.5.6.t.x.G.H.!.!.!.`.}.[.[.'.`.!.Q.!.J.!.E.t.8.7.a.s.x.E.H.H.H.!.K.!.!.!.!.!.W.W.E.r.a.5.{ i.s.f.l.x.",
"5.a.5.5.8.l.V.y.G.G.!.H.G.H.!.Q.H.G.v.k.a.{ 5.h.y.J.P.K.K.K.K.(.}.}.[.}.P.!.Q.K.K.!.G.t.5.5.i.a.x.E.!.K.K.!.!.!.!.G.!.K.!.!.Q.y.s.i.5.5.8.k.S.x.",
"7.5.5.p.s.k.y.y.E.W.!.!.H.K.!.E.G.y.x.f.5.5.5.k.H.(.'.I.Y.K.K.!.(.'.}.'.(.!.K.G.K.K.E.k.7.K i.i.r.E.!.K.K.!.H.!.!.H.K.K.!.!.G.y.s.i.5.6.8.e.x.G.",
"s.5.5.5.s.k.x.v.E.!.!.!.K.!.E.G.l.q.8.i.K { 6.c.P.'.}.T.Y.K.J.!.!.(.I.`.!.!.Q.H.W.H.E.l.8.{ 5.5.r.E.!.K.K.!.J.J.!.J.!.K.!.!.Q.y.s.i.a.5.f.e.x.y.",
"s.5.5.6.f.k.l.E.E.E.H.K.!.H.G.y.k.9.5.H L H 5.c.I.}.}.[.Y.K.!.Q.W.!.K.H.K.K.J.H.K.W.E.x.8.p.5.a.x.W.!.K.!.!.Q.G.Q.K.!.K.W.!.W.y.f.{ 5.i.f.k.x.y.",
"5.5.5.a.q.e.y.E.J.G.W.W.K.!.G.S.8.5.L L J H 0.m./.'. XR.Y.^.uXC.7XgXM._.4.~..XL.Q.K.J.S.s.d.5.k.y.E.!.!.!.K.J.J.W.H.K.L.K.W.~.y.a.5.5.5.8.y.r.y.",
"5.5.5.p.e.e.E.E.J.K.K.P.P.!.E.V.s.$.J H 5.8.e.y.K.|.P.`.b.C.8X2.7XN.Z.~.I.3.D.2X^./.H.u.e.q.8.t.G.!.!.!.!.K.J.Q.W.W.K.H.J.E.V.t.a.5.5.5.k.y.G.E.",
"a.5.5.7.k.v.E.G.L.K.K.K.K.!.G.y.s.5.H i.c.x.y.G.N.u.H.~.x.>Xt.D.=XtX<XD.E.R.2.].J._.L.Z.x.h.x.x.G.G.!.K.!.K.K.!.H.!.!.J.E.E.y.e.a.5.5.s.k.V.E.J.",
"i.5.a.s.x.G.J.K.Q.!.!.K.P.!.E.z.s.5.| a.k.E.G.J.v.~.M.r.x.*X' Z O % . F %XJ.).L.^.W.y.E.x.c.q.e.G.E.H.G.K.W.G.W.H.K.W.G.E.x.e.8.a.i.5.s.x.G.G.K.",
"$.i.5.8.x.E.!.J.E.E.W.E.K.E.S.l.7.a.6.f.x.V.J.J.m.F.t.N.=.] - = 7 % 9 q o $XS.C.8XN.^.M.l.m.0.V.y.E.E.E.W.!.H.H.H.H.G.E.x.x.s.8.&.H 5.8.y.G.J.K.",
"H H 5.s.x.E.E.E.m.x.r.x.t.y.e.c.k.f.q.r.y.E.Q.E.M.u.M.=Xx [ 8 U ! e 8 I U & o.W.L.G.C.t.e.e.f.c.k.l.x.E.W.!.!.K.W.E.E.m.t.s.a.5.i.&.| s.z.E.E.!.",
"H H 5.7.e.x.E.y.e.8.7.a.8.9.8.k.t.z.x.r.V.G.S.V.M.x.M.tXx e 9 I I U R 9 ^ b & ' u.D.z.z.8.f.d.| a.s.f.l.E.Q.K.K.E.E.y.e.8.6.5.| K H { s.k.V.v.v.",
"H i.i.5.q.x.l.r.8.5.5.&.5.5.7.h.y.m.~.E.y.y.y.z.L.D._.m.F 9 ! w 6 7 ! ! q U Y 8 o.uXuXpXp.6.5.%.H 5.7.e.m.E.J.J.G.y.y.e.8.5.| | K H | a.k.t.t.r.",
"{ 5.a.h.k.c.e.e.a.p.5.$.$.H 5.k.G.H.H.E.G.t.y.y.N.Z.U.lXtX1 & I ^ 9 u _ Y ^ Y 8 P r.z.k.8.6.a.L K 5.5.8.x.E.E.G.l.z.k.a.a.a.i.i.i.5.7.8.f.k.k.e.",
"8.8.8.8.a.a.8.8.s.8.8.8.s.7.e.x.P.P.(.!.E.r.e.t.W.L.Z.4X] X e Q T _ n.sXmXmXO.& X.N.k.l.r.8.8.a.i.5.5.e.k.x.x.r.k.s.8.8.s.f.f.s.s.f.e.8.s.s.8.q.",
"E.m.x.k.s.5.7.h.e.e.x.z.x.k.y.W.T.}.'./.E.y.y.z.~.H.^.^.sXo.% q ~ ' yXyXVXDX4X% $XaXW.Z.Z.m.x.k.f.f.q.q.q.f.8.7.a.5.5.8.k.x.y.v.x.x.x.e.8.7.a.s.",
"W.E.E.l.k.5.5.a.y.V.E.Q.W.E.H.P.[.}.}.'.W.x.z.x.C.W._.v.~.V ; + B n.u u O.fX6 % C B.W.G.H.W.!.y.x.m.f.q.a.a.5.5.K $.7.f.x.E.G.K.E.W.E.y.8.7.p.a.",
"K.K.G.x.f.5.5.a.y.E.!.K.!.H.P.`.[.|.}.T.H.y.y.z.u.m.B.E.D.[ 4 eXO.mXfX+.y n.. c ^.P.8X3XK.3.L.!.v.r.r.8.6.i.&.K K $.5.k.x.G.K.H.(.!.J.y.e.7.a.a.",
"Y.!.K.v.k.8.a.h.y.m.G.G.!.K.P.`.}.T.T.P.H.m.y.k.Z.A.D.1.>XxX;X# u MXdXBXBXVXA A yXb.!.!.Y./.H.J.G.m.c.s.5.| K | i.a.h.z.E.E.K.K.`.!.K.y.e.a.7.s.",
"K.K.G.G.t.h.q.e.k.x.V.G.!.!.K.(.).P.P.K.W.W.m.r.M.%.p.9.L d.%X4X6 yXv.gXVX` y qXuXI._.L.K.).).E.E.m.c.f.a.{ { 5.e.z.x.E.Q.K.K.P.!.!.H.E.l.k.8.s.",
"K.K.E.E.x.x.e.e.k.z.y.V.E.W.W./.!.K.K.H.!.^.E.m.e.g.&.uXxXcXjX*XA q aXNXpXC Y mXQ..XuXaX8XJ.C.C.t.y.k.s.5.{ 5.7.y.V.J.!.K.K.K.!.H.G.!.E.x.k.e.k.",
"!.!.W.G.x.y.t.y.k.t.x.y.v.E.E.G.).~.G.^.P.L.pXN.k.d.7.tXd #Xb @ i z A v.B g a :.O.yXW.J.Q.Q.G.V.t.y.c.s.5.5.7.s.x.E.K.K.K.!.!.U.!.Q.E.E.y.y.y.x.",
"G.E.E.y.V.y.V.S.x.y.v.y.x.x.y.v.u.W._.L.(.`.R.4XM.xX&X& u W s j d 5 m ] +XoXO E i t vXQ.iXJ.(.c.y.e.8.5.{ H p.h.x.Q.K.K.K.!.K.G.G.E.E.v.y.G.v.x.",
"E.v.y.v.m.G.E.E.E.G.E.y.e.k.e.c.y.!.P.).'.R..X.XxX-Xq B.B.,.<.W l F s <.<.;.XXOXM s b L.yXb.1.M.e.7.{ H H { i.d.x.W.!.K.K.E.G.G.V.x.x.E.G.G.G.E.",
"x.x.y.y.E.G.K.K.K.W.W.x.8.a.a.h.x.L.G.R.|.yX|.R.5X= $X' .XO.>.:.z m S p B N c k h W + L.M.A.c.j.a.5.H H K H i.s.y.E.!.G.!.J.E.E.y.x.y.S.G.G.H.H.",
"x.y.y.y.E.E.!.K.K.H.W.k.7.H $.a.h.G.W.R.|.yX[.{.*X0 ( ) ) 1X<.:.< v @Xn n D k e w O ; rXB.c.u.w.a.H K &.i.5.6.k.y.W.!.K.K.!.K.W.x.t.x.x.G.K.K.!.",
"x.z.r.y.G.W.!.K.K.H.E.k.5.H H i.k.S.W.].T.{.[.yX. qXuX^ ~   > W h 2 9 Q @Xz l T / 6 Q 4 cXk.6. .&.K K 5.5.8.k.l.V.W.!.P.P.`.P.W.x.e.e.x.E.Q.K.K.",
"x.y.e.y.E.W.Q.K.E.G.x.f.a.| H a.y.l.~.K.K.I.}.G S DXNXO.9 G b ; X 5 r e : , , x # x ] ; vXw.*.&.K | 5.5.q.l.x.G.G.!.!.P.T.T.T./.S.y.r.m.E.E.K.!.",
"E.y.t.v.E.E.E.J.E.y.e.8.5.i.5.a.y.~.U.Q.U.I.NXo aXVXKXA @ V MX,Xv X 1 5 , $ + :   F DX- qX9. .5.J K i.7.k.E.J.V.J.W.!.P.[.|.}.'.W.y.r.x.E.E.Q.J.",
"E.v.y.y.y.E.E.E.y.l.k.s.5.5.7.e.b.^.W.(.Q.L.N.X.2 pXNXfXqXB q g.J 7 . O @ # # # % <XaXO <Xi.%.L K { 8.r.y.E.W.H.K.K.K.I.'.|.|.T.W.v.r.r.y.E.E.v.",
"E.v.v.l.x.z.x.z.f.q.s.s.8.8.e.x.J.].(.K.E.W.yXkXo.% A jXSXLXC r ,XkX1 w [ [ ) [ 2 O aXqXt i.K 5.i.s.e.y.E.E.!.K.E.Q.K.P.`.'.T.T.W.E.y.y.z.x.x.e.",
"G.G.E.x.e.s.6.5.6.i.i.s.e.x.E.!.(.T.}.|.T.^.x.8X7Xk.` O - 9XDXF C b @ b Q ~ Q x -   X.rX- <X{ 7.k.r.m.G.Q.!._.K.E.Q.K.K.P.P.P.P.K.J.G.x.k.k.a.6.",
"H.H.W.x.k.6.i.&.| { a.s.k.v.K.Y. X{.{.{.4.L.7X4.rXC.j.sX5Xo ] ( O D SXv $XtX-X;Xt :Xj t 4 mX$.8.l.m.E.G.K.Q.!.K.J.W.W.K.H.!.!.!.H.E.E.x.q.5.5.| ",
"H.K.W.m.e.a.5.K { i.a.k.y.G.K.Y.I.|.|.|.T.8XqXM.uXl.f.;XC + b x 1 AXFXAXLXJXKXFXJXJX0X. C &Xd.s.v.G.K.K.K.Q.!.K.!.!.!.K.!.!.W.G.L.W.W.x.q.p.5.&.",
"K.K.W.G.e.8.6.7.6.8.e.z.y.G.K.Y.]. XI.T.].^.7XG.M.z.zX2 pX9XSX6 5XFXJXHXGXJXDXJXFXAXhXm 1 b d.f.m.W._.P.K.K.!.K.P.(.P.(.K.!.Q.E.K.K.Q.S.r.q.7.a.",
"!.!.K.G.G.x.k.k.z.t.x.y.E.K.K.(.I. XR.Y.`.L.3.C.u.w.>X0X1 gX6 :XHXjXGXHXGXJXJXGXKXFXCX6X% ` MX>Xm.E.!.K.K.H.K.K.T.'.|.`.P.H.K.E.!.!.W.G.v.x.z.k.",
"E.!.K.E.K.E.E.E.G.G.G.Q.Q.!.!.!.H.J.U.J.E.P.K.M.Z.B.uXzX&X6 0XGXAXDXHXDXJXLXBXJXFXHXFXdXo = *Xi.y.E.K.K.K.K./.`.T.|.|.T.P.H.H.J.W.H.H.H.H.E.E.E.",
"G.E.E.H.W.!.H.H.W.!.!.J.K.K.W.E.E.E.G.V.G.E.E.y.v.j.e.iXMX# CXSXJXDXHXJXHXbXp JXKXJXdX  uXV F sXx.S.E.Q.G.G.K.P.[.}.}.T.P.H.J.G.G.J.J.K.J.G.!.!.",
"E.E.G.G.G.!.!.!.!.!.!.K.J.Q.E.x.x.y.x.x.y.t.y.y.x.S.y.G.3X1 jXHXHXJXJXJXHXG j GXFXGXfX1 DXL b kXe.t.x.E.G.H.K.P.'.'.'.T.T.K.G.Q.G.G.G.E.!.!.!.!.",
"E.x.v.G.W.!.!.!.H.K.K.!.G.E.y.e.8.8.7.a.7.8.8.e.c.L.D.3.gX. JXHXHXLXJXLX:X= t GXHXFXHXwXX S *Xg.7.8.e.t.S.H.!.P.(.(.P.P./.K.H.E.y.y.y.v.G.H.H.!.",
"l.x.y.y.G.!.!.!.K.!.G.Q.y.x.e.e.8.7.5.i.i.5.a.k.l.V.7XyX$XP HXL wXJXJXZX# uX# GXhX .GX%XO %X2X7.7.p.5.e.x.E.H.K.K.K.K.K.K.K.G.G.x.y.y.v.E.!.!.!.",
"x.x.y.y.E.E.!.H.!.!.H.W.x.l.e.e.s.7.| K K { 5.k.S.V.I.zX# nXS   6 dXJXL F r 6XhXX . D 6 <XM.n.w.a.5.5.s.z.E.K.H.!.J.J.K.J.!.G.G.x.x.r.v.E.!.!.K.",
"y.y.V.V.E.G.K.G.E.E.G.x.y.t.q.k.k.8.6.a.5.5.5.8.e.C.U.G D SX+ t   P JX. rX# JXc   B X 1 9Xq.M.9.{ { { p.y.G.!.W.!.!.G.J.Q.J.W.G.x.y.t.y.v.G.G.H.",
"V.G.G.G.E.!.E.G.E.y.y.t.t.e.e.e.y.x.l.z.k.8.k.c.x.t.c.c M AXnX. S HXc %X0 ,XCXJXN   P 1 D.E.r.l.5.&.i.a.x.G.!.W.H.G.G.E.G.E.G.G.E.E.G.G.E.!.!.E.",
"J.J.G.J.J.E.!.G.x.t.x.t.x.e.x.x.y.S.E.S.r.e.e.e.h.m.C :XG 5XKXGXHXHX2 %X* AXGXJXJXnX:X4 M.u.M.5.5.i.d.s.x.G.!.!.K.!.K.Q.Q.E.Q.W.Q.W.Q.E.!.W.G.G.",
"G.!.!.K.!.W.E.G.V.x.l.k.r.y.v.m.G.W.W.E.Z.x.c.4XuX$X6 HXBXhXnXJXCXeX0 U.v *.CXJXZXhXZ y y.b.t.8.5.5.5.8.y.G.!.H.E.!.K.K.H.!./.!.K.K.K.H.W.K.J.G.",
"!.!.!.W.!.W.E.G.y.y.e.l.y.y.V.v.C._./.G.J.E.u.x.>X&Xj ,XHXHXHXZX6X1 1X).C.X P G Z p M c.c.k.7.d.H { 5.8.t.E.!.!.!.!.K.K.I.(.(.(./.K.!.K.!.!.!.H.",
"(.K.K.W.!.!.E.G.y.x.z.x.E.E.G.E.K.L.I.H.J.G.Z.z.2XMX] + v JXAX5X3 0XyXK.uX# % x o r l.2Xj.f.i.&.K K | 8.x.Q.!.!.Q.!.K.I.`.}.}.T.(.K.H.K.J.!.E.E.",
"_.!.H.K.Q.W.E.G.y.t.x.x.E.E.K.E.K.Z.!.J.Q.W.3XtX=.%X] 7 b j 6 0 iXQ.^.>Xv v =Xb ] 9XrXF.5. .p.J K K 5.s.z.E.!.!.G.K.K.P.'.}.}.[.(.K.L.G.J.!.E.G.",
"K.K.!.G.W.Q.E.G.y.x.y.x.v.J.!.J./.H./.E.Q.!.~.2Xc.=X= ( F # <XtXD.J.J.7X  u ) * ] zXy.g.%.p.} { H { 7.k.x.G.!.K.!.K.P.P.'.}.}.[.(.!.K.!.E.Q.E.E.",
"!.K.K.G.G.E.x.y.t.z.x.x.G.G.!.!.^.D.(.L.U.U.Z.u.f.C w @.7 *XzXn.A.2.^.K.* @.e ] jX3X..-.| L L | 6.7.k.y.G.Q.H.!.Q.K.K.Y.T.}.'.T.(.!.K.G.E.E.x.m.",
"K._.K.E.E.x.y.y.e.x.l.E.G.J.!.!.W.W./.H.H.P.Z._.<X= [ % &Xd.<Xc.>X8Xb.;XO ~ 3 6 <XrX%.p.H *.d.{ 0.k.m.~.K.K.!.!.W.!./.K.(.`.(./.K.!.J.S.V.y.x.t.",
"K.!.!.E.y.y.r.k.e.e.x.E.E.J.K.Q.I.L.G.^.^..XrXlX` 3 X.# o.d.%.=.1.>XxXo 5 + 4 . b X.d.} } %.5.f.y.S.W.!.K.L.H.!.W.!.!.K.K./.!.K.H.K.Q.E.y.t.t.t.",
"!.!.J.G.y.y.l.z.x.e.t.x.~.G.G.Q.H./.W.K./.zX%Xt # : . #  .>X|  .0.>XlX* $ # 4 p 4 @ M %Xd.i.%.z.S.W.!.Q.H.E.E.G.E.E.E.E.E.E.!.L.!.W.W.E.y.t.t.c.",
"!.!.K.G.E.G.x.y.x.e.k.x.S.V.V.G.!.C.C.U.~.Z 1 4 4 4 . o 5X} K %.a.=.i.0 . S O . @ @ = tXX.j.A.B.G.W.W.W.E.v.x.l.k.y.y.y.S.E.G.G.H.W.K.!.G.V.x.x.",
"K.K.K.K.!.E.G.y.x.z.k.y.y.y.V.S.J.Q.Q.U.~.y O o # 0 uXX...| %.%.{ g.p.=X1Xi.&X&X*X=XrXi.A.e.u.^.J.!.W.W.x.8.7.p.7.7.s.e.z.x.G.y.H.K.!.K.K.G.E.y.",
"K.K.K.!.!.K.G.G.x.x.y.e.t.e.x.E.C.).b.L.^.rXrXM.;XuXpXK *.} { $.%.&.&.| d.d...J xXX.*.s.r.W.Z.!.L.K.Q.x.k.6.i.K K 5.6.s.k.l.y.V.H.!.!.K.K.K.J.G.",
"E.E.E.Q.Q.W.G.G.S.x.y.t.t.y.y.x.G.W.!.!.G.7X7Xr.c.} <X .&.$.5.a.g.p.} &.*.H 6.*.*.&.a.9./.I.H.J.K.J.E.z.s.5.i.i.K { a.a.a.k.k.y.v.E.W.W.G.W.G.v.",
"z.x.x.x.x.y.x.y.t.x.y.y.x.V.y.y.V.y.W.V.V.t.z.q.i.H *.J s.f.f.5.8.f.6.f.%.j.q.8.q.9.k.E.E.U.G.(.!.G.S.t.e.7.7.s.s.8.8.7.s.a.8.k.l.x.x.x.x.y.y.y.",
"q.h.8.8.8.8.k.k.y.V.E.E.E.G.V.S.Z.y.v.q.z.0.0.p.H i.} } e.q.e./.m.t.j.z.M.r.v.u.y.t.t.^.G.G.!.J.E.V.y.y.x.y.y.x.x.y.t.k.7.a.5.7.f.s.s.k.f.8.k.k.",
"7.a.a.5.5.5.a.s.V.E.Q.Q.J.Q.E.E.G.v.0.c.s.%.a.L &.J a.7.x.V.Z.H.Z.J.W.W.E.W.V.K.G.W.W.W.G.!.W.E.y.t.t.x.x.E.E.G.!.G.v.x.f.5.5.i.5.5.5.5.5.5.p.s.",
"L H $.H K H 5.k.y.E.!.!._.K.K.!.E.x.e.k.p.i.H K | i.6.r.S.E.L.K.!.(.K.K.K.K.!.K.K.K.!.Q.G.E.G.y.l.x.t.V.G.!.K.K.!.!.K.V.k.a.i.{ H H H K | | p.s.",
"L L &.$.i.i.7.k.y.E.W.!.H.K.J.K.E.y.t.e.s.| K K i.p.q.e.~.J.K.P.`.`.Y.Y.K.!.J.K.H.K.!.Q.E.E.x.l.x.y.V.V.G.G.!.K.K.K.K.G.t.h.a.5.$.i.K K K | 8.q.",
"J L 5.5.p.s.q.x.G.E.Q.!.K.K.K.!.G.G.v.e.8.i.5.5.s.k.y.G.E.Q.K.T.}.|.T.T.P.K.K.K.!.!.Q.S.r.e.f.k.z.y.E.W.!.H.!.!.!.!.!.W.E.x.c.8.a.{ H { 5.s.e.y.",
"J J $.a.f.k.e.E.E.E.!.K.H.K.K.!.H.!.E.x.a.i.i.6.z.S.E.H.J.K.!.`.[.|.|.'.(./.K.!.!.W.W.x.q.7.p.s.y.S.W.W.H.H.K.Q.!.!.!.!.!.W.S.y.a.i.i.i.s.k.x.x.",
"J J a.s.k.l.t.E.!.!.!.!.H.K.W.W.K.J.E.k.a.5.6.8.y.K.Y.K.K.H.P.`.}.[.}.T.`.!.K.!.!.!.E.z.7.i.5.a.x.W.!.!.K.H.!.!.K.K.K.K.K.K.G.y.8.p.5.p.8.e.y.y.",
"J H 5.8.c.c.y.G.J.K.K.L.K.!.H.H.G.V.z.s.i.$.6.f.H.`.`.I.K.K.^.`.}.}.}.'.`.!.!.!.H.W.G.y.a.i.i.a.V.W.!.K.H.K.!.!.K.!.!.!.Y.K.G.m.q.5.| i.e.t.u.V.",
"J J p.8.k.x.y.G.J.!.K.K.K.!.G.v.y.e.8.a.&.H 6.c./.}.|.T.Y.K.J.K.`.`.`.Y.(.!.K.H.!.K.K.t.s.i.i.8.y.E.!.P.K.K.!.E.K.K.!.!.P.Y.!.x.8.5.| p.e.y.G.E.",
"J J 5.7.k.x.y.G.!.K.P.!.(.(.W.E.y.8.5.i.K H 8.m.I.'.|.|.'.`.!.!.!.K.P.P.!.K.Q.K.!.K.K.y.s.5.5.7.t.G./.K.P.!.!.!.H.!.!./.P.P.J.x.e.a.i.p.8.t.x.m."
};
