/* XPM */
static char *fa4c48327b8e4556e688ec2aae0abe35fYmA9zw75S00mM1n[] = {
/* columns rows colors chars-per-pixel */
"72 72 246 2 ",
"   c #000000",
".  c #060700",
"X  c #001300",
"o  c #370000",
"O  c #281502",
"+  c #361703",
"@  c #372100",
"#  c #322515",
"$  c #00353B",
"%  c #2E2E23",
"&  c #35352B",
"*  c #3B3B31",
"=  c #491B07",
"-  c #551F0B",
";  c #6D0000",
":  c #472600",
">  c #572604",
",  c #5B2C01",
"<  c #53300C",
"1  c #652B08",
"2  c #752D0A",
"3  c #6A3306",
"4  c #753709",
"5  c #7C3A0C",
"6  c #672D12",
"7  c #6C3415",
"8  c #743515",
"9  c #7A3817",
"0  c #4E3126",
"q  c #563827",
"w  c #513A32",
"e  c #6F3B27",
"r  c #7A5007",
"t  c #7E6007",
"y  c #48442A",
"u  c #58472B",
"i  c #474833",
"p  c #574C32",
"a  c #565335",
"s  c #5B5433",
"d  c #674628",
"f  c #7A4927",
"g  c #785629",
"h  c #634C31",
"j  c #675633",
"k  c #775733",
"l  c #7D6A34",
"z  c #3A3F46",
"x  c #034559",
"c  c #1F4557",
"v  c #274657",
"b  c #384D54",
"n  c #005665",
"m  c #2B5863",
"M  c #315A63",
"N  c #186F74",
"B  c #297A7C",
"V  c #3D787A",
"C  c #565547",
"Z  c #4E4C51",
"A  c #714F4C",
"S  c #665A46",
"D  c #4E685E",
"F  c #56655C",
"G  c #696747",
"H  c #736B46",
"J  c #797147",
"K  c #726D5B",
"L  c #786C59",
"P  c #465F60",
"I  c #4E7070",
"U  c #6A6D60",
"Y  c #757464",
"T  c #777665",
"R  c #7C7B66",
"E  c #747569",
"W  c #7B7A6C",
"Q  c #757B74",
"!  c #7D7D70",
"~  c #810A00",
"^  c #AA001B",
"/  c #843B0C",
"(  c #833B1B",
")  c #873B18",
"_  c #903311",
"`  c #B50022",
"'  c #BC0121",
"]  c #BF1A25",
"[  c #823F24",
"{  c #B8322D",
"}  c #C5371F",
"|  c #C10521",
" . c #C21320",
".. c #C11F20",
"X. c #C22322",
"o. c #8A4017",
"O. c #8C4314",
"+. c #924516",
"@. c #93421D",
"#. c #9A491A",
"$. c #8C5313",
"%. c #B54903",
"&. c #A64A1D",
"*. c #B94E17",
"=. c #A8511E",
"-. c #856317",
";. c #9A4521",
":. c #8B542D",
">. c #845833",
",. c #A64924",
"<. c #AC4D24",
"1. c #A94E2F",
"2. c #B34E22",
"3. c #BA4B27",
"4. c #B65123",
"5. c #BB5324",
"6. c #B7542A",
"7. c #B94638",
"8. c #BB5537",
"9. c #8D6F2E",
"0. c #937734",
"q. c #AC6A2E",
"w. c #D55002",
"e. c #C94A1E",
"r. c #C9571C",
"t. c #D25B1C",
"y. c #E25D03",
"u. c #D8781B",
"i. c #E5641A",
"p. c #F77010",
"a. c #C5492E",
"s. c #C35526",
"d. c #CC5925",
"f. c #C45629",
"g. c #C65828",
"h. c #CB5A29",
"j. c #D25623",
"k. c #D15D2B",
"l. c #C25A37",
"z. c #CC632D",
"x. c #C36C29",
"c. c #D4632D",
"v. c #D9672C",
"b. c #CC6739",
"n. c #DD6930",
"m. c #CC7D3F",
"M. c #E76C2C",
"N. c #F06C20",
"B. c #FB7529",
"V. c #E46D32",
"C. c #E86E35",
"Z. c #E87134",
"A. c #EC7234",
"S. c #F37536",
"D. c #F87736",
"F. c #FD7A35",
"G. c #F57739",
"H. c #FC7B3A",
"J. c #88534C",
"K. c #96564B",
"L. c #B64E41",
"P. c #A85849",
"I. c #9C695A",
"U. c #8A7655",
"Y. c #B1664D",
"T. c #A8785B",
"R. c #8B7769",
"E. c #857E6D",
"W. c #A97864",
"Q. c #C96743",
"!. c #D27152",
"~. c #E87948",
"^. c #F17B47",
"/. c #E77E55",
"(. c #CD786E",
"). c #7F8073",
"_. c #B88A17",
"`. c #BF962D",
"'. c #E79917",
"]. c #ECA215",
"[. c #F2AC13",
"{. c #F5B211",
"}. c #CB932B",
"|. c #D1A432",
" X c #FEC20D",
".X c #8B845A",
"XX c #938A59",
"oX c #AB995F",
"OX c #898666",
"+X c #83836C",
"@X c #8A8A6B",
"#X c #918E65",
"$X c #938A6B",
"%X c #959365",
"&X c #93936B",
"*X c #9A9969",
"=X c #838370",
"-X c #888770",
";X c #8C8C70",
":X c #908F70",
">X c #8F9070",
",X c #949470",
"<X c #9A9670",
"1X c #979970",
"2X c #9B9B70",
"3X c #AE9966",
"4X c #AD916D",
"5X c #A59869",
"6X c #A19E70",
"7X c #9FA16D",
"8X c #9FA070",
"9X c #A3A26C",
"0X c #ABA46A",
"qX c #B5AA69",
"wX c #A4A470",
"eX c #A9A570",
"rX c #A7A870",
"tX c #A9A970",
"yX c #AAAA70",
"uX c #ADAA70",
"iX c #ADAD70",
"pX c #B3AE70",
"aX c #B7AC70",
"sX c #B6B070",
"dX c #BDB370",
"fX c #EB835D",
"gX c #D7B353",
"hX c #E39B65",
"jX c #CDAE69",
"kX c #C3B570",
"lX c #C5B870",
"zX c #E6C568",
"xX c #007B80",
"cX c #927480",
"vX c #008688",
"bX c #368383",
"nX c #3F97AA",
"mX c #688791",
"MX c #928F8F",
"NX c #B4908C",
"BX c #AAABB5",
"VX c #C99C9F",
"CX c #D4B8CE",
"ZX c #CDC4DC",
"AX c #D2D4F3",
"SX c #DFE3FF",
/* pixels */
"! ! ! ! ! ! =X,X2XwXtXiXiXiXtXwXwX2X,X,X=X! ! ! ! =X;X,X8XwXiXiXsXiXiXiXiXiXtXtXtXiXtXtXtXwXwX2X2X2X2X2XwXiXiXiXiXiXrX2X,X-X=X! ! ! ! ! Q ! -X;X",
"! ! ! ! ! =X;X,X2XwXtXiXiXtXtXrXwX6X2X,X=X=X! ! =X-X>X1XwXwXiXpXsXsXsXpXpXtXyXtXiXiXtXwXwX2X2X2X2X2X2XwXwXtXtXiXiXtXwXwX2X,X-X=X=X! ! ! ! =X-X,X",
"=X=X! ! -X;X,X2XwXtXtXiXtXtXtXtXtXrXwX,X;X=X=X=X;X1X2X8XwXrXuXsXdXdXkXdXaXiXtXtXtXtXrX2X,X,X,X,X2XwXwXwXwXtXtXtXiXtXtXtXwX2X2X;X-X=X=X! =X;X,X,X",
"=X=X=X=X-X,X,X2XwXwXtXtXtXtXtXtXtXrXwX2X-X=X=X-X1X8XrXrXrXrXuXsXdXlXkXdXsXuXtXtXtXtXwX2X,X=X=X;X,XwXwXtXtXtXtXtXtXtXtXtXtXwX8X2X-X=X! =X;X,X<X2X",
"-X=X=X=X;X,X2XwXwXtXtXtXtXtXtXtXwXwXwX2X-X=X=X:X2XtXuXiXtXtXuXpXkXkXlXdXpXtXtXtXyXtXwX2X-X=X=X-X2XwXtXiXtXtXtXtXtXtXtXtXiXtXwX2X;X=X=X=X;X,X2X2X",
"-X-X=X=X,X,X2X2XwXtXtXtXtXtXtXwXwX2X2X;X=XE.=X$XeXpXdXsXiXtXtXpXaXdXdXdXpXrXtXtXyXtXwX2X-X! =X-X2XwXtXiXiXtXtXtXtXtXtXtXiXyXwXwX,X=X=X=X,X,X2XwX",
";X=X=X=X;X,X2XwXwXwXtXtXiXtXwXwX2X,X-X=XQ ! =X<XuXdXkXdXsXiXtXtXpXpXaXpXiXtXtXrXtXtXwX2X-X=X=X-X2XwXtXtXtXtXtXtXtXtXtXiXiXiXwX2X;X=X=X=X;X,X2X2X",
"-X-X=X=X;X,X2X2XwXtXtXtXiXtXwX2X,X-X=X! ! ! -X<XaXkXkXkXsXuXtXrXtXeXuXuXtXtXtXtXtXrXwX2X-X=X=X;X2XwXtXtXtXtXtXtXtXtXtXtXiXtXtX2X;X=X=X=X;X,X2X2X",
"-X=X=X=X;X2X2XwXwXtXtXiXiXtXwX2X;X=X! Q W ).;X6XaXkXkXkXaXtXwXwXwXrXtXtXtXtXtXyXyXtXwX2X;X=X-X;X2XwXtXiXuXrXrXrXwXtXtXiXtXtXwX2X;X=X=X=X>X1X2X2X",
"-X=X=X-X,X,XwXwXtXtXtXiXiXiXrX2X;XW ! ! =X-X<X6XeXaXaXaXeXwXwXwXwXrXrXtXrXtXtXtXyXtXwX8X,X-X;X,XwXrXtXtXtXuXrXtXtXtXtXtXtXwXwX,X-X=X=X-X,X2XwXwX",
"=X=X=X;X,XwXwXtXtXiXiXiXiXiX9X2X;X).! =X,X2X2XwXeX6XeX6XwX2X2XwXwXrXyXyXiXtXtXtXtXtXrXwX2X,X,X2XwXwXuXiXtXtXtXtXtXiXtXwXwXwX2X,X-X=X=X;X,X8XwXtX",
"=X=X=X-X2XwXtXiXtXtXtXiXiXtXwX2X-X=X=X-X,XwXwXwX6X6X2X2X<X2X2X2XwXrXtXtXtXtXtXtXtXrXwXwX2X2X,X2XwXwXtXtXuXtXtXtXtXtXtXwXwX2X2X;X=X=X=X;X2XwXtXtX",
"=X=X=X;X2XwXwXtXrXwXwXwXtXwX8X2X;X-X-X>X2XwXwXwX6X2X2X,X<X2X2X2XwXwXrXrXwXwXwXrXtXtXwX2X2X2X,X2X2XwXwXwXtXtXtXtXtXrXwXwX2X,X,X=X=XE.=X;X2XwXtXrX",
"! ! =X;X2XwXwXwXwX2X2X2X2X2X2X,X>X;X,X,XwXwXwXwX6X2X2X2X2X2X2X<X&X#X#X#X#X*X9XwXwXwXwX2X,X,X,X,X2X2X2XwXrXtXtXtXtXwXwX2X,X,X;X=X! ! =X-X2XwXwXwX",
"Q ! ).@X,X2XwX2X,X;X-X-X-X-X-X,X,X1X2X2X2X8X2X8XwXwXwXwXwXwX9X%XH d h p u H &X2X2X2X2X,X;X-X-X=X-X-X;X2XwXwXtXuXrXwX2X,X;X-X=X! Q W =X-X,X2X2XwX",
"W ! =X-X,X2X2X,X;X=X=X).=X=X-X>X2XwXwXwX2X2X2X2XwXwXwXrXtXwXwX#Xd 3 4 / / :.U.%X#X&X&X,X-X=X=X! ! =X=X,XwXwXtXwXwX2X2X,X;X=X! ! ! ! =X-X,X2X2X,X",
"=X=X=X;X,X,X,X,X;X=X=X=X! =X-X,XwXeXuXrX2X2X2X2XwXwXtXtXiXtXwXOXq 5 <.h.s.4.g a u H :X&X@XOX).! =X=X=X,X2XwXwXwX2X,X,X;X-X-X=X=X=X=X=X-X,X,X,X,X",
",X;X,X;X;X;X;X;X;X;X;X;X-X;X,X2XuXpXaXpX6X2X1X2XwXtXiXiXtXtXwX@XG f 4.s.s.4.( 5 / f U.#XOX).R R +X=X=X;X,X2X2X2X,X;X;X;X;X;X;X;X;X,X,X;X,X;X>X>X",
"2X2X2X,X;X-X-X;X,X1X2X2X1X1X2XeXaXdXdXaXwX<X1X2XwXtXtXtXtX9X2X&X=XU.f 9 5 +.2.5.5.<.>.s s p u l @X>X;X,X,X;X;X=X=X=X=X;X,X2X2XwX2X8X2X,X-X-X-X-X",
"wXtXwX<X;X=X=X;X,XwXrXwXwXwXrXpXkXkXkXaXeX2X1X2XwXtXtXwXwX2X@X@X! U u : @ 3 <.f.c.h.( r O.O.+.:..X@XOXOX-X-X=X! =X! =X,X,XwXwXtXwXwXwX2X;X=X-X-X",
"iXiXwX2X,X=X=X;X1XwXtXtXtXtXiXsXkXkXkXdXeX2X2X2X6XwXwXwX2X&XC * * * # : @ : 3 +.s.k.5.s.M.M.M.v.>.i y j +X+X! ! ! =X-X,X2XwXiXiXiXiXwX2X,X=X-X-X",
"iXiXtX2X,X-X-X;X1XwXtXtXtXiXiXsXdXdXdXaXeX6X2X1X2X2X2X,X#XT % + 7 ( +.#.+.O.4 / =.2.2.h.B.fXfXN.=.O.O.:.L W ! ! =X-X,X2XwXtXiXiXiXiXtXwX,X;X-X;X",
"iXiXtXwX,X,X,X,X,X2X2XwXtXiXiXpXsXpXpXuXrXwX2X1X,X;X@XR.G 0   6 z.A.Z.Z.Z.V.s.&.5 , , #.Z.H.H.S.V.V.Z.v.:.C T +X>X,X9X9XrXyXtXiXiXiXwXwX,X,X;X;X",
"tXtXwXwX2X,X,X,X,X1X2XwXwXeXtXiXiXtXuXtXtXrXwX2X,X-XW L d 1 o ) n.S.Z.S.G.D.M.h.#.O.5 =.Z.H.D.D.F.H.fXN.=.f L +X@X%X%X%X%X*XtXyXtXtXwXwX2X,X,X,X",
"tXrXwXwX2X2X2X2X,X2X2X2X6XwXeXeXrXrXrXtXiXiXtX6X,X+XS e [ ) ) @.#.+.$.&.h.V.D.S.A.A.V.Z.G.D.S.D.D.H.H.D.A.z.:.i a s j s u l 9XtXrXrXwX8X2X2X2X2X",
"wXwXwXwXwX2XwX2X2X2X2X2X2X<X2X2XwXwXrXiXqXsXpX0X&XU.d 8 e ;.[ 9 @ X O 3 #.f.n.A.A.A.G.G.H.D.F.F.D.H.D.H.fXZ.,.3 O.O.+.+.$.:.XX*X7XwXwXwXwXwX2X8X",
"2XwX2X2XwXwXwXwXwX9XwX2X,X,X;X<X2XwXtXaXdXdXdX0XJ f ) @.;.o.=       : 3 4 5 O.#.,.4.h.V.G.F.B.B.F.H.S.H.B.B.s.4.v.Z.V.i.Z.v.:.J %X8X8X8X8XwXwXwX",
"2X2X2X2XwXwXtXtXtX0X4X5X;X-X-X,X2XrXtXsXkXkXkX3Xg 3 9 9 9 9 9 9 ( 9 , > , , : 1 ( ,.2.d.M.^./.^.A.N.D.F.H.S.v.n.G.H.H.fXfXV.+.u #X<X2X2XwXwXwXtX",
"2X2X2X2XwXwXiXtXtX3XL.L.$X=X-X;X1X8XiXsXkXkXlXqXk , O     7 h.A.A.c.8   : 3 7 @.3.3.s.d.s.Q.NXNXd.y.N.H.H.H.S.S.D.H.F.F.B.C._ j #X<X2X2XwXtXiXtX",
"2X2X,X2XwXtXtXiXtX3XL.7.I.R.R.R.,XwXtXaXdXdXdXqXj > 7 8 1 &.C.H.G.v.8   @ 3 @.<.f.k.k.j.w.!.BXBXNX(.!.C.V.C.G.H.H.S.S.S.'.C.o.s #X<X1X2XwXtXtXiX",
"2X<X<X2XwXtXiXtXtX9X5XT.L.X.{ P.<XwXrXuXaXaXaX9Xa < z.A.A.M.v.h.=.O.3 @   6 ,.f.f.k.C.M.w.W.ZXAXAXCXR.o.;.6.A.H.H.A.k.v.D.V.( p %X<X1X2XwXtXtXtX",
"6X6X2X2XwXwXtXrXwX2X,X$XP. . .{ T.5XrXuXrXiX9X.Xk #.M.H.^.A.h.<.3 O , >   > 6.h.j.k.S.S.y.(.CXAXSXZXnX$ 9 r.A.H.H.S.v.k.S.v.8 a %X2X1X2XwXwXrXrX",
"wX2X2X2X2XwXwXwX2X,X,X;X@XI.{ ..} Y.0XtXtX7XH d c.M.i.b.K.J.8.*., . , >   - 2.h.g.k.D.F.B.~.!.VXAXAXnXF b.A.B.H.H.D.B.i.M.g.6 y *X6X<X<X8X9X9XwX",
"eXwX2X2X2X2X,X2X,X:X;X;X-XW.{  . .a.3XiX9X.Xd #.M.^.Q.K.x Z 8.e.>   : > + 7 3.h.g.k.C.D.H.p.w.(.CXZXMXW.^.F.F.G.S.^.fXfXl._ d J <XwX2X2X2X2X<X1X",
"tXeX2X2X,X:X-X=X=X=X=X-XY.{ .. . .l.jXqXJ f c.M.i.l.R.I n A l.*.>     = 7 ;.5.h.g.g.h.n.G.F.p.^.VXhXfX/.H.F.F.D.i.!.VX4XA q XX9X0XwX2X2X,X>X-X-X",
"rXrXwX2X,X-X=X! W =XE.T.z.f.X.| ' Q.jXqXi 9 A.^.b.I.I xXn Z 1.3.( = . + 8 #.s.h.h.g.s.h.n.A.G.F.p.p.B.G.G.A.Z.v.%.P.MXmXZ H 9XiXtXrXrX2X>X-X).).",
"uXtXwX6X,X=X=X! ! R.K.f.].].t.' ' Q.jXaXa 1 M.^.W.I bXbXm v Z J.6.%.3 + : ) 5.j.h.s.h.5.,.g.B.fXB.B.F.F.M.s.#.5 , 0 i D .X7XrXrXuXyXrX2X,X-X=X! ",
"uXtXwXwX<X,X=X@X$XT.f.v.'.'.t.' | L.oXoXg &.i.~.cXvXbXV m x x Z P.6.+.4 4 ) 5.h.h.g.h.5.( &.v.A.M.M.V.v.5.#.g s p a y l 7XrXrXrXyXtXrXwX,X,X-X=X",
"uXuXrXwX6X2X<X$XY.z.'.].u.s.X.| | { h k b.M.y.Q.E.vXbXB M c x v Z J.6.r.*.5.g.h.g.h.d.s.a.3.1.=.#.O.8 7 6 d .X9X3X0X0X0XiXrXrXrXtXtXtXwXwX2X2X2X",
"rXrXrXrXwX9XwX5X7.r.{.{.f.` |  . .^ o 9 C.G.Q.I.Q xXbXV M v v x x Z P.l.h.h.g.h.g.g.h.z.v.x.;.7 d p a i y G 9XaXdXkXdXdXsXiXrXrXtXtXtXwXwXwXwXwX",
"wXrXrXrXrXrXuX3X7.z.[.[.e.^ '  . .^ o 8 M.fX$XI M M bXV M v v v x v b J.8.t.h.h.s.s.a.v.'.}.-.d .X%X%X%X%X*XtXpXdXlXkXdXpXuX0XwXwXwXrXwXtXtXrXtX",
"6XwXwXwXrXuXuX3X8.t.[.{.u.e...{ 7.1.# 4 M.^.E.N M D I V m b F F b v b A 8.d.5.s.c.k.5.x.|.`.t i @X2X8X8XwXrXtXpXdXdXdXdXpXtXrXwXwXwXwXwXtXuXyXiX",
"2X2X2XwXwXtXtX3X8.g.[. X{.'.e.{ W.T * 5 C.G.k b OX@XD M v F &X<XP Z P.8.h.5.,.6.V.V.,.=.|.|.t y ).@X,X,X7XrXtXpXpXpXpXpXiXtXrXwX6X2X2XwXwXtXtXiX",
"2X2X2X2XwXrXtX3X7.a.'.[. X[.t.8.$XE.w 7 c.c.e j 2X8XT b v D *X%XU J.a.d.h.2.( ;.C.A.5.q.`.`.0.U.R ).-X>X8X9XtXiXrXuXiXuXiXrXrX8X2X2X2X2XwXwXtXuX",
"2X2X2X2XwXrXtX3Xa.X.j.u.{.[.h.P.$X+X* + 7 e L -X2XwX8X@XP v s >.1.8.h.s.h.2.3 4 g.V.A.v.$.0.lXgX0.C R ;X2XwXtXyXtXtXrXtXtXtXwXwX2X2X2X2XwXrXtXtX",
"2X2X2X6XwXwXtX3XY.{ ' e.'.'.r.{ U.R C & & C +X:X2XwXwX8XF b q / r.k.h.h.k.h.#.O.#.h.D.M.~ 9.zXzX9.0 T ;X2XwXtXtXtXrXwXrXrXrXwXwX6X2X2X2XwXrXtXtX",
"wXwXwXwXeXrXtXrX5XT.{ X.t.r._ > d G OX&X@XOX:X,X2X8X0X*Xh q 8 ;.2.d.s.h.C.S.A.c./ +.S.A.~ l zXzX0.w T @X2XwXtXyXtXrXwXrXrXwXwXwXwXwXwXtXwXrXrXrX",
"rXwXwXrXrXrXrXwX2X5XY.{ ^ ^ _ r 5 f XX<X&X$XOXOXOXXX%XXX:./ @.<.s.h.h.n.S.H.H.A.&.#.v.c.~ 0.zXzX0.w T ;X2XwXtXyXtXtXtXrXrXrXrXrXrXwXwXrXrXrXrXwX",
"tXtXtXtXyXrXrXwX2X2X5XI.e _ <.s.5.<.>.j j j j h s j >.:.6.4.s.f.s.k.Z.G.G.H.F.G.A.v.#.4 ; P.zXzX0.w T -X2XwXtXyXyXtXtXiXtXuXuXuXyXrXtXtXtXtXrXwX",
"iXuXuXtXyXtXrXwX2X,X&X>XG f =.g.k.s.+.4 5 5 5 5 5 / ;.1.g.h.s.f.s.c.S.H.D.H.G.H.fXA.#.4 9.`.zXzX9.w T ;X2XwXtXtXrXtXtXtXpXpXpXpXiXuXtXtXyXtXrXwX",
"aXuXtXtXtXtXwXwX2X2X,X2X*X.Xf +.s.k.f.3.6.4.4.4.4.3.5.f.h.g.1.,.4.c.S.H.H.G.D.H.B.B.e.b.jXzXgX|.-.q T ;X2XwXtXyXyXrXtXsXaXdXdXaXpXyXyXrXyXtXrXwX",
"tXiXtXrXrXrXwXwX2X2X2X2X9X7XH f &.5.s.f.h.k.k.h.h.k.h.h.k.5.) ) 5.k.V.S.H.F.H.D.F.M.c.Q.zXzX|._.g S W ;X2XwXtXtXrXrXiXaXkXlXlXkXpXyXrXrXtXtXwXwX",
"aXyXrXrXrXrXwXwX2X2X2X2XwXrX9XXXg r ;.1.g.k.h.h.h.h.g.h.g.3.5 5 s.k.h.n.D.F.H.G.M.5.{ q.gX|.0.f L ).-X,X2XwXtXyXrXtXuXpXdXlXkXkXpXuXrXrXrXwXwXwX",
"iXtXrXwXwXwX8X2X2X1X2X2XwXrXyX9Xl d 8 @.=.5.5.*.5.g.h.h.k.4.2 1 <.s.s.g.v.V.A.V.r.&.( $.`._.-.C ).@X,X2XwXrXyXyXtXtXuXpXdXdXkXaXpXyXrXwXwXwX6X2X",
"iXuXwXwX8X2X2X2X,X1X2X2X9XrXtXyX9XXXd 4 5 5 5 O.;.1.g.k.k.4.1 + ( ,.s.s.%.%.2.,.) 3 1 r r -.L +X&X1X2X9XwXtXiXtXtXuXiXpXsXpXpXpXiXyXwXwX2X2X2X2X",
"iXtXtXwX2X2X2X,X,X2X2X8XwXrXrXyX0X9XU.d j j j j 9 @.<.4.s.&.= O ( 2.s.l.I.J.e 4 , < d w u S W ;X*X8XrXrXtXtXtXtXtXtXtXtXuXuXuXtXuXrXrXwXwX2X,X2X",
"tXtXtXwXwX2X2X,X,X2X2X2XwXwXwXtXtXtX5X%X*X9X*XXXf 3 5 / / 7 . - 2.d.w.!.NXMXZ o > d K E T R -X,XwXwXtXtXrXwXwXwXwXwXwXwXwXwXwXrXtXtXtXwX2X2X2X,X",
"tXtXtXtXwX2X2X2X2X,X,X2X2XwXwXwXwXtXrXtXyX0XrX7XJ h h p p p * q ,.*.%.P.MXMXD * q A T R -X-X,X2XwXtXiXtXwX2X2X2X2X2X2X2XwXwXwXrXtXtXtXtXwXwX2X2X",
"uXtXtXtXwXwXwXwX2X,X2X2X1X2X6XwXwXtXtXiXiXiXtX9X%XOXE.R T E E K e > 1 q Z Z U Y T E +X=X,X,X2XwXtXtXtXwX<X>X-X-X-X-X;X,X1X2X8XwXtXtXuXtXwXwXwXwX",
"tXtXiXtXtXtXwXwX2X2X,X,X,X2X2X2XwXrXtXuXiXtX9X8X,X@X=XE.! E.).E Z % & * % C E W ! ! =X-X<XwXeXrXiXtXwX2X,X-X=X! ! =X=X;X,X1X2X8XwXtXyXyXtXtXwXwX",
"wXwXwXwXtXwXwXwX2X2X2X2X2X2X2X2XwXwXwXwXtXtXwX2X;X=X! ! ).+X-X=X).E T T Y ! ! =X=X=X-X,X2XrXtXiXiXrXwX2X,X=X=X=X=X=X-X-X;X,X,X2XrXrXwXwXwXtXwXwX",
"2X2X2X2X2X2X2X2XwX2X2X2X2X2X2X2X8XwXwXwXwX2X,X,X=X! ! ! -X;X>X>X@X@X;X;X@X@X>X@X;X;X,X2XwXiXiXiXtXwX2X2X,X;X-X-X-X;X;X-X;X;X:X,X,X<X2X2X<X2X2X2X",
",X;X;X,X;X;X,X,X2XwXwXwXwXwXwXwXwX2X2X2X,X,X-X=X! ! ! =X>X2X8X7X7X1X1X1X2X2X2X2X2X2X2XwXtXiXiXtXwX2X2X2X2X2X2X2X2X2X,X,X;X=X=X=X-X:X:X:X;X:X,X,X",
"=X=X=X=X=X=X+X;X2XwXtXtXtXwXwXwX2X2X,X,X;X=X=X! ! ! =X;X1X8XwXrXwX7XwXwXwXwXwX9XwXwXwXtXtXtXwXwX2X2X2X2X2XwXwXwXtXwXwX2X;X=X=X=X=X=X=X=X=X=X;X-X",
"! ! E.! Q E.=X>X2XwXiXyXtXyXtXwXwX2X2X;X-X).! ! ! =X-X,X2XwXrXiXiXiXuXyXrXyXtXtXtXyXyXrXwXwXwX2X2X2X2X2XwXrXtXuXiXyXwX2X,X-X=X! ! ! ! ! ! ! -X-X",
"! ! ! ! =X=X-X,X8XwXiXiXiXtXtXtXwX2X2X,X=XE.! ! =X-X,X1XwXrXyXsXsXsXdXsXyXyXuXtXyXuXtXwXwX2X2X2X2X2X2XwXyXrXuXiXiXuXrXwX2X,X-X-X=X! ! ! ! =X-X,X",
"E W ! =X-X;X,X2XwXwXtXtXyXtXtXtXtXwXwX,X-X=X=X-X>X1X2X8XwXrXiXsXdXkXkXdXsXuXyXrXtXtXrXwX1X,X,X,X2X2XwXwXtXtXyXrXtXyXrXrXwX2X2X;X=X=X! ! =X-X,X2X",
"E Q =X-X>X,X1X2XwXtXtXuXtXtXtXiXiXtXwX2X-X=X=X-X1X8XwXrXrXrXiXpXdXlXkXdXpXiXrXyXtXtXwX2X>X-X=X;X2X2XrXyXtXtXrXyXtXtXtXyXwXwX2X2X-X-X=X=X-X>X2X2X",
"E W +X-X,X,X2XwXwXrXeXtXuXtXrXrXtXwX2X<X-X=X=X;X2XrXiXiXrXyXyXpXdXlXkXdXpXuXrXrXyXtXwX2X-X=X=X-X2XwXyXiXtXrXyXrXyXrXtXyXiXrXrX2X;X=X=X=X,X,X2X6X",
"E W =XMX,X1X2XwXrXtXiXuXuXuXeXeXwXwX2X,X=X=X=X<XwXsXdXsXiXiXyXpXdXdXdXdXpXuXtXyXuXyXwX2X-X=X-X;X2XrXyXiXuXyXrXyXrXyXyXuXpXpXrX6X,X=X=X=X;X2X2XrX",
"E T =X;X,X<X2XwXrXtXiXiXiXuXrXwX2X,X;X=XE.).=X<XpXdXkXdXsXyXyXuXpXpXsXsXpXyXyXyXiXyXrX2X-X=X=X-X2XwXyXiXyXyXuXyXyXyXyXiXiXiXrX2X:X-X=X=X;X2X2XwX",
"E W =X,X,X1X6XwXrXtXiXyXaXiXrXwX<X;X-X+X! ! -X2XpXkXlXkXdXpXyXyXiXiXpXiXuXuXuXuXiXiXwX2X-X-X=X-X2XwXiXiXiXuXyXyXyXyXiXyXpXiXyXwX:X=X=X-X,X<X2XwX"
};
