/* XPM */
static char *_fec5477c11a4756ee7bd3e1cab8f3f9PRmeZWPoj0bDx6l9[] = {
/* columns rows colors chars-per-pixel */
"72 72 243 2 ",
"   c #000000",
".  c #0E0306",
"X  c #1A1109",
"o  c #250E03",
"O  c #2A1501",
"+  c #341604",
"@  c #382B08",
"#  c #00353B",
"$  c #252521",
"%  c #393929",
"&  c #3C3C31",
"*  c #451A0B",
"=  c #521106",
"-  c #690A08",
";  c #482600",
":  c #592705",
">  c #632A06",
",  c #772A0A",
"<  c #683206",
"1  c #76360A",
"2  c #7B3A0C",
"3  c #662C12",
"4  c #6D3315",
"5  c #743514",
"6  c #7B3817",
"7  c #7B3619",
"8  c #4D3627",
"9  c #583928",
"0  c #533D32",
"q  c #793824",
"w  c #3F4035",
"e  c #6C400B",
"r  c #7C5706",
"t  c #7E6007",
"y  c #4B472C",
"u  c #5A482B",
"i  c #474734",
"p  c #594A33",
"a  c #595433",
"s  c #664728",
"d  c #784B26",
"f  c #7A5628",
"g  c #6F4F31",
"h  c #675634",
"j  c #7D6A34",
"k  c #253C51",
"l  c #03475A",
"z  c #264657",
"x  c #2A4958",
"c  c #344A58",
"v  c #29515E",
"b  c #3D5052",
"n  c #005465",
"m  c #2E5761",
"M  c #385D64",
"N  c #14757A",
"B  c #3B787A",
"V  c #4D4B4D",
"C  c #565647",
"Z  c #544B55",
"A  c #475454",
"S  c #6C524B",
"D  c #54665E",
"F  c #6A6846",
"G  c #766A46",
"H  c #797248",
"J  c #71685A",
"K  c #7B755B",
"L  c #425C62",
"P  c #53706E",
"I  c #6B7268",
"U  c #757466",
"Y  c #7D7C66",
"T  c #7B7B6C",
"R  c #747B74",
"E  c #7D7D70",
"W  c #8D050E",
"Q  c #AE021C",
"!  c #813C0E",
"~  c #833C13",
"^  c #833B1C",
"/  c #8B3D1D",
"(  c #903312",
")  c #BD0121",
"_  c #AF1723",
"`  c #883E21",
"'  c #BA292B",
"]  c #B32F35",
"[  c #B73935",
"{  c #C10820",
"}  c #C62921",
"|  c #8C4314",
" . c #884318",
".. c #914415",
"X. c #92421E",
"o. c #994919",
"O. c #8B5213",
"+. c #B74C0E",
"@. c #A74B1D",
"#. c #A8521E",
"$. c #BC5119",
"%. c #906E0C",
"&. c #844A26",
"*. c #984422",
"=. c #8E552D",
"-. c #845733",
";. c #A64A25",
":. c #AD4D24",
">. c #B44F23",
",. c #B94A27",
"<. c #AA542E",
"1. c #B65123",
"2. c #BC5325",
"3. c #B8542A",
"4. c #B6453C",
"5. c #BB5635",
"6. c #8D6F2D",
"7. c #937734",
"8. c #AB692E",
"9. c #D14E09",
"0. c #C7551A",
"q. c #D25B1C",
"w. c #E25E07",
"e. c #DA7A1B",
"r. c #F16C15",
"t. c #CD4E23",
"y. c #C35526",
"u. c #C95826",
"i. c #C45628",
"p. c #CC5A29",
"a. c #D55924",
"s. c #D15D2B",
"d. c #C15934",
"f. c #CE632D",
"g. c #C36C29",
"h. c #D4632C",
"j. c #D9662C",
"k. c #CD673D",
"l. c #DD6830",
"z. c #CC7D3E",
"x. c #E76C2B",
"c. c #F06C20",
"v. c #FB7529",
"b. c #E46D32",
"n. c #EB6E33",
"m. c #E87135",
"M. c #EC7234",
"N. c #F47536",
"B. c #F77737",
"V. c #FD7A35",
"C. c #FC7B3A",
"Z. c #8F534A",
"A. c #A95948",
"S. c #B65743",
"D. c #857545",
"F. c #9B6858",
"G. c #84785A",
"H. c #AC6F55",
"J. c #8B7767",
"K. c #8D7D6D",
"L. c #A77867",
"P. c #C96844",
"I. c #D17052",
"U. c #E97949",
"Y. c #F27D4A",
"T. c #E77E55",
"R. c #CD786E",
"E. c #7E8074",
"W. c #B78A16",
"Q. c #D0970D",
"!. c #E99A19",
"~. c #EDB10C",
"^. c #F7B312",
"/. c #CB932B",
"(. c #D1A432",
"). c #FEC210",
"_. c #8A855A",
"`. c #968A59",
"'. c #98925F",
"]. c #AB805C",
"[. c #848366",
"{. c #8C8C65",
"}. c #84846B",
"|. c #8B8B6B",
" X c #948C68",
".X c #8F946D",
"XX c #949465",
"oX c #9C9B66",
"OX c #94936C",
"+X c #99966A",
"@X c #9B9B6C",
"#X c #838370",
"$X c #888770",
"%X c #8C8C70",
"&X c #908F70",
"*X c #8F9070",
"=X c #949470",
"-X c #9A9670",
";X c #979970",
":X c #9B9B70",
">X c #A48C66",
",X c #A59868",
"<X c #AB8677",
"1X c #A19D70",
"2X c #9FA170",
"3X c #A3A36C",
"4X c #AAA56A",
"5X c #B3A668",
"6X c #A4A470",
"7X c #A9A570",
"8X c #A7A870",
"9X c #A9A970",
"0X c #AAAA70",
"qX c #ADAA70",
"wX c #ADAD70",
"eX c #B1A770",
"rX c #B2AD70",
"tX c #B4AE70",
"yX c #BAAF70",
"uX c #B5B170",
"iX c #BDB370",
"pX c #EB835D",
"aX c #D7B353",
"sX c #E39B65",
"dX c #CEB369",
"fX c #C3B670",
"gX c #C5B870",
"hX c #E6C568",
"jX c #1A7D81",
"kX c #008487",
"lX c #2F8283",
"zX c #3F97AA",
"xX c #428382",
"cX c #48829A",
"vX c #79898C",
"bX c #928E8F",
"nX c #B4908C",
"mX c #AAABB5",
"MX c #C99C9F",
"NX c #D4B8CE",
"BX c #CDC4DC",
"VX c #D2D4F3",
"CX c #DFE3FF",
/* pixels */
"E E E E E E #X*X:X8X9XwXwX9X9X9X6X:X=X%X#X#XE E E #X%X=X:X8XqXwXtXwXwXtXwX9X9X9X0X0X0X9X8X6X6X:X:X:X:X:X6X9X9XwXwXwX8X:X=X$X#XE E E E E E E $X%X",
"E E E E E #X%X=X:X8X9XqXwX9X8X8X6X2X:X=X#X#XT E.#X%X*X;X6X8XwXrXuXuXuXtXwXwX9XwXwX0X9X8X6X:X:X:X:X:X:X6X8X9XwXwXwX9X8X6X-X=X$X#X#XE E E E #X$X*X",
"#X#XE E $X%X=X:X6X8X9XqX9X9X9X9X9X8X6X-X%X#X#X#X*X=X:X2X6X8XqXtXiXfXiXiXtXwX9X9X9X9X8X:X=X=X=X=X:X:X6X8X9X9X9X9X9XwX9X8X6X:X;X=X#X#XE.E #X%X=X=X",
"#X#X#X#X$X=X=X2X6X8X9X9X9X9X9X9X9X8X6X:X$X#XE.$X;X2X8X8X8X9XwXuXiXgXfXiXtXqX9X9X9X9X6X:X%X$X#X%X:X6X8X9X9X9X9X9X9X9X9X9X8X8X6X=X$X#X}.#X$X=X:X:X",
"$X$X#X#X%X;X:X:X8X9X9X9X9X9X9X9X8X8X1X;X$XE.#X%X:X9XwXwX9X9XwXtXfXfXgXiXtXqX9X9X0X9X6X:X$X}.#X%X:X6X9XwX9X9X9X9X9X9X9X9X9X9X8X:X%X#X#X#X%X=X:X:X",
"$X$X#X#X*X=X:X2X6X9X9X9X9X9X9X8X8X:X:X%X#XK.#X&X7XrXiXuXwX9X9XrXyXiXiXiXtX9X9X9X0X9X6X:X$XE.E $X:X6X9XwX9X9X9X9X9X9X9XwXwXwX9X:X=X#X#X#X=X;X:X2X",
"$X$XE.#X%X=X:X2X6X8X9X9XqX9X6X1X:X=X%X}.E E K.-XeXyXgXiXuXqX9X9XeXtXtXtXqX9X9X8X9X9X6X:X$XE.#X$X:X6X9XqX9X9X9X9X9X9X9X9XwXqX8X:X%X#X#X#X%X=X:X:X",
"$X$X}.#X%X=X:X2X6X8X9XwX9X9X8X:X=X$X#XT R R $X-XeXgXgXfXuXwX9X9XqX9XqXqX9X9X9X9X9X8X6X:X%X}.#X%X;X6X9X9X9X9X9X9X8X9X9X9XqX9X8X:X%X#X#X#X%X=X:X:X",
"$X$X#X#X%X=X:X1X6X8X9XwXwX9X9X:X|.#XE R E E %X1XeXyXfXfXeX9X8X6X8X8X8X9X9X9X9X0X9X9X8X:X%X#X$X%X:X8X9XqX9X9X8X7X9X9X9X9X9X9X6X-X%X#XE.#X*X;X:X1X",
"#X#X#X$X=X:X6X6X8X9X9XwXwX9X8X:X|.E.E E #X%X=X1XeXyXyXyXqX6X6X6X8X6X8X8X9X9X9X9X0X9X8X:X=X$X%X=X:X8X9XwX9X9X9X9X9X9X9X9X9X6X6X=X$X#X}.$X=X:X2X6X",
"#X#X#X$X=X6X8X9X9XqXqXwXwXwX8X:X$XE.E #X%X=X1X6X7X7X7X1X1X:X:X6X8X8X9X9X9X9X9X9X9X9X8X6X:X=X=X:X6X9XqX9X9X9X9X9X9X9X9X8X8X6X:X=X$X#X#X%X;X:X8X9X",
"#X#X#X%X:X6X9X9X9X9X9XqXwX9X6X-X%X}.E.$X:X6X8X8X1X1X:X:X-X:X:X1X6X9X9X9X9X8X9X9X9X8X8X1X:X:X=X:X6X9X9XqX9X9X9X9X9X9X9X8X1X:X=X&X#X#X#X*X:X6X9X9X",
"#X}.#X%X:X6X8X9X8X8X6X8X8X6X:X:X%X$X$X*X:X6X8X8X1X:X;X=X=X:X:X:X2X6X8X8X6X8X8X8X9X9X8X1X:X=X=X:X:X6X6X8X9X9X9X9X8X8X8X6X:X=X=X$X#XK.E.%X:X6X9X9X",
"E E.#X%X:X8X6X6X:X:X:X:X:X:X:X=X*X*X*X;X:X6X6X6X1X:X:X:X:X:X:X:X:X:X:X:X1X1X6X6X6X6X:X:X=X=X=X=X=X:X:X1X9X9X9X9X9X8X6X:X;X=X$X#XE E E.|.:X6X8X8X",
"R E E.|.=X:X:X:X=X%X$X$X%X$X%X*X=X=X:X:X:X6X6X:X2X2X6X2X8X6X3X@X=XOX%X=X:X:X:X6X:X:X:X=X*X%X#X#X$X$X=X:X6X9X9X9X6X6X:X;X*X$X#XE R T #X$X=X:X:X:X",
"T E #X$X=X:X:X:X%X#X#XE #X#X#X=X:X6X6X6X:X:X:X:X6X8X8X8XqX3X+XXX[.Y Y [.|.;X:X:X:X:X:X=X$X#X#XE.E.#X#X=X:X8X9X8X6X:X=X=X%X#XE E E E #X$X=X:X:X=X",
"#X#X#X$X=X=X=X=X$X$X#XE.E.}.$X=X6X9XqX9X1X:X:X:X6X8X9XqX9X,XH s s p y S }.=X=X@X:X:X;X=X|.$XE.E.T #X#X*X:X6X6X6X:X:X=X*X$X$X#X#X#X#X#X%X=X=X=X=X",
"=X%X=X%X%X*X%X%X%X%X%X%X$X$X%X:XwXtXtXqX1X-X=X:X6X9X9XwX9XoXs < 2 ! ! &.G.|.{.XX;X:X:X;X=X*X|.$X#X$X$X%X=X:X:X=X=X%X%X%X%X%X%X%X$X=X=X%X%X%X=X%X",
":X:X:X=X%X$X$X%X=X-X:X:X:X:X2X8XyXyXfXyX6X:X:X:X6X9XwX9X9XXXu 2 :.y.2.:.d p u G @X3X3X6X2X:X@X;X=X*X=X%X*X*X%X$X#X#X#X$X=X=X:X2X:X:X:X=X%X$X%X%X",
"6X8X6X-X%X#X#X%X:X:X8X8X2X6X8XrXfXfXfXyX7X:X=X:X6X8X9X9X3XOXG &.:.y.u.>. .1 2 d _.@XXXoXXX@X8X2X:X:X=X%X%X#X#X#XE #X#X=X:X6X8X9X8X8X6X:X%X#X#X$X",
"wX9X8X:X*X#X$X%X:X6X8X9X9X9XwXtXfXgXfXyX7X:X:X:X:X8X6X@X:X=XOXG.-.2 2 | >.y.1.:.f h a a u j 3X3X:X:X;X%X$X#XE E E #X}.=X:X8X9XwXwXwX8X:X*X$X$X$X",
"uXwX8X:X=X$X$X%X-X6X8X8X9X9XtXuXiXiXiXyX7X1X:X=X:X+X X{.[.}.|.Y p ; @ < @.u.s.u.| 2 | ..O.=.'.oXXXXXOX*X#XE.T E.#X$X=X-X6X9XwXwXwXwX8X:X=X$X%X$X",
"9XwX9X6X=X*X*X=X=X:X1X9X8XwXwXtXtXtXrXqX8X6X6X;XOX|.S u y 0 i & @ ; + ; < ..y.s.y.u.l.m.c.j.-.y y F  X*X#X#XE #X*X;X:X6X9X9X9XwXwXwX8X2X=X=X%X%X",
"9X9X8X6X:X;X=X=X=X:X:X,X,X,X9XwX9XwXqX9X9X8XoX{.[.K d : X o 3 ~ X.o.o...1 ! @.1.>.q.v.pXpXm.:. .| =.G.|.#X#X#X$X:X2X8X9X9X9X9X9X9X9X8X6X:X=X=X=X",
"9X8X8X1X:X:X:X:X=X:X:X>X5.S.1X9X8X6X9X9XwX4XH s h g ^ 5   3 f.M.m.m.m.l.i.@.2 : : o.M.C.C.V.M.b.x.h.&.C T }.}.|.:X6X4XwXwX8X9X8X8X8X6X6X:X:X:X:X",
"8X6X6X2X6X:X6X:X:X:X2X>XS.4.].,X3X8X9XqX4X'.d < < 2 X./ * 6 j.N.M.m.B.B.b.p.o.| 2 #.b.B.B.C.C.C.pXM.#.d J U U #X{.XXoX3X8X8X8X3X6X6X6X1X2X6X1X:X",
":X6X:X:X1X6X6X8X8X6X6X:X=XL.S.S.>X6XqX4XD.d ^ ` / / *.*./ / X.X.O.;.p.b.B.B.M.b.b.M.N.B.B.B.V.C.v.v.v.h.-.0 i p a a u H 3X8X3X6X6X:X:X6X6X6X6X8X",
":X:X:X:X6X6X9X9X9X8X6X:X=XF.} ' >X3X4X'.d 5 / *.*./ 7 7 d 6 : @ i f ;.2.l.M.M.M.B.B.B.V.B.B.V.V.V.V.pXm.o.<  .X.....| =.`.3X3X6X:X:X:X:X:X8X8X9X",
":X:X:X:X6X8X9XwX9X9X3X-XA.} ) 4.,X1XH d ^ X.*.*.*.^ *     o : g [.`.-.2 | o.;.<.p.b.N.V.v.v.V.C.B.C.C.M.t.,.h.b.n.n.b.f.=.H oX9X:X:X:X:X6X9X9X9X",
":X:X;X:X6X8X9XwX9X9X,XL.] ) { 4.`.{.d 5 7 7 7 7 7 7 6 5 6 5 : a .X;Xh : ; < ^ @.>.p.n.U.T.Y.M.r.B.V.V.N.j.l.B.C.V.!.pXb...u ,XwX1X-X=X:X6X9XwXwX",
"1X:X-X:X6X8X9X9X9X,XS.' { ) { ' &.g &.^ +         3 f.M.M.f.5 i }.|.h < 4 X.:.y.y.0.q.P.nX<Xa.w.v.C.C.C.N.N.B.C.C.C.C.b.O.h 4X5X1X:X=X:X6X9X9XqX",
"1X:X-X:X6X8X9X9X6X>X4.} t.t.} Q , ; 7 7 7 6 1 1 3 @.b.C.V.h.5 i Y Y p < X.:.i.p.a.q.9.R.mXmXnXR.I.b.b.M.B.C.C.N.n.N.V.x.| h 5XyX7X:X;X:X6X8X8X8X",
"1X:X:X:X:X6X6X1X:X=X[ t.!.!.p.Q =     3 f.M.x.x.x.x.x.u.#. .< p E.T w : ;.i.i.s.n.c.9.R.BXVXVXNXJ.q ` ,.M.C.C.N.s.j.V.b.6 a 5XyX7X1X-X:X:X6X6X6X",
"7X6X:X:X:X:X-X-X=XF.5.e.^.^.0.W W 5 > o.x.C.Y.T.U.U.s.@.> + > d K J & 3 4.p.u.s.N.v.9.R.BXVXCXVXcX# ` y.M.C.C.N.j.a.N.l.5 a 4XuXqX1X:X:X:X:X=X@X",
"9X7X6X:X=X%X$XJ.A.d.!.^.).~.r - g.M.x.x.w.P.K.R J Z.d.>.: O 7 &.g 0 X : >.s.u.s.N.V.v.U.R.MXCXVXzXD P.n.B.V.C.V.v.r.b.i.3 y XXyX9X8X6X:X=X%X$X$X",
"9X9X6X:X=X$XK.J.] q.~.).~.Q.O.( x.Y.U.U.k.F.P jXl Z 5.+.: . ` / < ; + 4 >.p.u.s.n.N.C.r.9.I.NXBXbXL.U.V.V.N.N.Y.pXT.d.( u F oX5X9X8X6X:X%X$X#XE.",
"9X9X8X:X=X#X#XJ.] q.^.~.%.O.h.r.w.k.L.R R P xXjXn S d.+.=   ^ ` * + 5 *.y.p.u.i.p.l.B.V.r.pXpXsXpXU.C.C.C.B.w.I.nXnXS 9 _.oX8X8X9XqX8X:X=X#X}.E.",
"qX9X8X6X:X%X$XK.[ i.!.Q.@ = n.pXk.F.P kXkXlXlXB n S 4.4.7 : 7 5 + + 7 o.2.p.i.u.y.p.b.n.V.V.r.r.v.B.N.M.n.j.+.A.bXvXA H 4X4X8X8XqX9X8X1X=X=X$X#X",
"9X9X9X6X1X:X1X>XS.} a.0.  = x.Y.L.xXlXlXlXB M x z c Z S <.+.>   + ; : 2 2.p.p.i.p.y.@.y.v.pXv.v.!.C.n.u.@.2 > 8 i D '.5XrX9X8X8X9X9X9X6X6X:X-X:X",
"9X9X9X9X7X6X1X1XS.} _ W , o.x.T.E.kXlXxXxXB m k x l l Z S.,.5 : 2 2 1 / 2.p.p.p.u.y./ @.j.v.b.b.n.s.,.;.g a a y y H yXiXrXwX8X3X8X8X9X8X8X6X6X8X",
"6X8X8X6X9X9X9X4X5X`.s 7 p.M.w.P.R kXxXxXxXB m k z z l x Z Z.:.0.0.$.$.2.i.u.u.u.i.i.y.,.<.:.o. .6 4 : s _.oXoX,X5X5XfXiXuX9X9X3X8X8X8X8X8X9X9X9X",
"6X1X6X8X9X9XqXwXwX3Xa 5 n.B.P.F.P jXB jXxXB m z z x x l l V S.d.5.5.p.p.p.u.i.u.i.s.h.g.*.4 u i i y & F oX3XwXtXyXiXiXyXrXwX8X8X6X6X1X8X9X9X9XqX",
":X:X:X6X8X9X9XqXwXoXa 2 x.Y.L.P M m m M xXB m z z x x v l c S Z Z Z.5.u.u.u.i.i.i.j././.O.a K }.Y E.E.{.2X6X9XtX5XuX5XrXwX9X8X3X:X:X:X6X6X9X9XqX",
":X:X:X:X6X9X9X9XwXoXi 2 x.U.R N M Z A M P B m k z x D D D D v l c S 5.u.y.i.s.s.y.g.(.(.t p |.%X}.[.$X.X2X6X9XqXwXwXwXwX9X9X6X6X:X:X:X:X6X8X9X9X",
":X:X:X:X6X8X9X9XqXoXi 7 n.M.S b U T E I M v x x x A .X2X6X|.L A Z.i.u.2.;.1.n.b.[ %.(.(.r y |.%X}.E.}.%X:X6X8XqX9X9X8X9X9X9X8X6X:X:X:X:X6X6X9X9X",
"1X:X:X:X6X8X9X9X3XXXy 4 h.q.( i }.$X#X}.D c z x b I 2X8X9X{.J Z.5.q.s.i./ *.b.n.2.<.W./.W.D._.}.}.E E.%X:X6X9X9X9X6X8X8X9X9X6X6X:X:X:X6X6X9X9X9X",
"6X6X6X6X6X9X8X6X6X{.% + 3 7 6 -.+X@X-X-X%XI c c Y ;X3X3XH -.<.5.y.a.n.l.6 < i.b.m.j.O.7.dXdXD.F Y E.#X%X:X6X9X9X9X8X8X6X8X6X6X6X1X6X1X6X6X9X8X8X",
"8X8X6X7X9X9X8X6X:X|.F % X + / 8.`.OXXX+X:X%XI P =X:X+XG.s ! 0.s.p.b.B.M.#.| @.u.B.M.W j hXhX7.8 U #X#X%X:X8X9X9X9X9X8X8X8X8X8X8X8X8X8X8X9X9X6X8X",
"9X9X9X9X9X9X9X6X:X=X|.K y 1 1.3.-.a u H 3X@X=X=X=X*XF s 5 / y.s.M.B.B.B.M.f.2 ..N.N.( j hXhX7.0 U K.E.%X:X6X9X9X9X9X9X9XqXwXqXqX9X9X9X9X9X9X6X6X",
"9XqX9X9X9X9X8X6X:X:X=X Xh ~ 2.y...2 2 &.`.+XOX|.}.G.d ! *.;.2.s.N.C.C.C.pXM.#.o.j.a.- 6.dXhX7.0 U T }.%X:X6X9X9X9X9X9XqXeXtXtXtXwXqX9X9X9X9X8X6X",
"rXwX9X9X9X9X8X6X:X:X=X|.s 2 2.s.2.1.2.:.f a h h p d #.y.y.y.i.h.N.B.C.B.v.v.M.j.@., - 8.hXhX6.i I T E.|.:X6X9X9X9X8X9XtXyXiXiXiXtX9X9X8XwX9X8X8X",
"qXwX9X9X8X8X6X6X:X:X:XXXH &.#.2.p.s.s.2.| 2 2 2 1 / y.p.i.i.i.s.b.B.V.C.B.V.C.n.o.< Z.(.hXdX6.0 I E.#X*X:X9X9X9X8X9XwXrXfXgXgXiXtXqX8X8X9X9X8X6X",
"tX9X8X8X8X8X6X2X:X;X:X:X@X`.d | y.s.s.p.2.1.1.2.1.2.u.i.;.;.y.p.p.l.N.B.V.C.C.M.0.8.hXhXaX(.%.0 U K.#X=X:X9X9XqX9X9XqXtXiXgXgXiXtXqX8X6X8X8X6X6X",
"wXwX8X6X6X6X6X:X:X;X:X:X3X2XH d @.y.2.i.p.s.p.p.p.p.p.2.*./ >.2.i.p.M.B.C.V.C.n.t.z.hXhX(.W.O.F T |.=X:X6X8X9X9X9X9XqXtXyXiXiXiXtXqX8X8X8X6X:X:X",
"qXqX8X6X:X:X:X:X=X:X@X2X3X8X3X`.d ~ X.:.u.s.u.p.p.p.p.2.*.^ 2 ..2.s.p.l.B.V.pXM.[ 8.(.aX6.f J }.|.=X:X8X8X9X9XqX9XwXwXtXtXtXtXtXqX9X8X8X:X:X:X:X",
"qX9X8X6X:X:X:X=X=X=X;X2X3X8X0X3XH s 5 X.1.1.1.$.y.y.p.i.:./ ; < :.i.y.p.n.v.c.j.( O./.Q.f C Y %X:X6X9X9X8X9X9X9X9X9X9X9XqXqXqXqX9X9X8X8X:X:X:X=X",
"9X9X8X8X:X:X:X=X:X=X=X:X8X6X8X9X3X_.d 1 2 2 2 | / :.u.p.p.:.: + / :.y.u.s.p.+...1 e r 6.J Y %X=X1X8X9X9X8X8X6X6X8X6X8X8X6X8X8X8X9X9X9X6X:X:X-X=X",
"9X9X9X9X6X6X:X:X;X:X:X:X:X6X6X6X8X3XH s h h h h ^ / :.y.y.@.: X 3 / 2.p.t.5.A.Z.9 * 8 h K.|.=X:X8X9XqX8X6X:X:X:X-X:X:X:X:X6X6X6X9X9X9X9X6X1X:X:X",
"9XqXwX9X8X8X6X:X:X=X;X=X:X:X:X6X8X3X,XoXoXoXoX_.s 1 2 ~ ! , : ; o 4 y.a.w.P.nXvXV $ J }.%X;X2X3X9X9X8X6X=X&X$X$X#X$X%X=X;X:X:X6X8X9XqX9X8X8X6X6X",
"8X9X9X9X9X9X8X6X:X:X=X:X=X-X:X:X6X8X9X9XwXwX9XoXG s u p p p g p & 0 ;.$.+.H.bXvXA V T $X;X2X8X8XwX9X8X:X=X$X#XE.#X#X#X%X=X=X:X6X8X9X9X9X9X9X6X6X",
"1X6X6X8X8X8X6X1X:X:X:X-X:X:X:X:X6X6X8X8X8X8X2X@XJ.U U U U Y J.Y Y J 9 : : 8 V V I Y $X=X:X8X9XwX9X8X6X:X%X$X#X#X#X#X$X$X%X=X=X:X:X8X8X8X8X8X6X1X",
":X:X:X:X2X:X:X:X2X:X:X:X:X:X:X:X6X8X1X6X1X:X:X=X#XE E E #X%X%X.X$X|.C % % 8 % C }.%X=X:X8XwXwXqX9X8X:X:X=X%X$X$X$X%X%X$X%X%X%X=X:X:X:X:X:X:X:X:X",
"%X=X&X%X$X%X=X=X:X6X6X6X6X6X6X6X:X:X:X:X=X=X$X#XE E E #X=X:X:X:X:X;X|.{.{.{.{.XX-X:X:X6X9X9X9X9X6X@X:X:X:X:X=X:X:X:X=X=X%X$X#X$X$X%X&X&X%X%X=X=X",
"$X#X#X#X#X#X$X%X:X8X8X9X9X8X6X6X2X:X=X=X%X#X#XE E E #X$X=X6X8X8X6X6X6X6X3X6X6X6X6X6X8X9X9X9X9X6X:X:X:X:X:X6X8X8X8X8X6X:X%X}.E.#X#X#X#X#X#X#X$X%X",
"E E E E E E.}.=X:X6X0XwX9X9X9X6X6X:X;X=X$XE.E.E E.}.$X=X:X8X9XwXwXwXqX9XqX9X9X9X9X9X9X9X8X8X6X1X:X:X:X:X6X8X9XwXwX9X9X:X=X#X#XE E.T E E E E $X%X",
"E E E.E.E.}.$X=X6X6XwXwXwXwX9X6X6X:X;X=X$XE.T Y #X$X=X;X2X8X9XuXuXuXiXtXwXwXqX9XwX9X9X9X2X:X:X=X:X:X:X1X8X9X9XwXwXwX9X6X:X=X$X#X#XE E E E #X$X*X",
"U E E #X$X%X=X;X6X6XqX9X9X0X8XwX9X6X6X;X$XE.K.#X*X;X:X2X6X8XwXuXiXiXiXiXtXwX9X9X9X9X8X1X;X=X*X=X:X:X6X8X9X9X9X9X9X9X9X8X6X:X=X*X#X#XE E #X$X=X;X",
"U R K.#X%X=X:X:X6X6X9XwX9X9X0X9XwX7X6X-X%X#XE $X;X2X6X8X8X8XwXtXfXgXgXiXtXwX9X9X9X8X8X:X*X$X$X*X;X6X8X9X9X9X9X9X9X9X9X9X8X6X6X-X%X#X#X#X%X=X:X:X",
"U R K.&X=X;X:X6X6X9X9X9X0X9X9X9X0X6X6X-X#X#X#X=X:X8XwXwX8X9XwXtXiXgXfXiXtXwX9X8XwX9X6X:X$X#X#X$X:X8X0XwX9X9X9X9X9X9X9XwXwX9X9X:X&X#X#X#X=X=X:X:X",
"U R #X&X=X;X;X6X6XwXwX9X0XqX7X6X6X6X;X=X#XE.#X-X9XtXiXuXwXwX9XtXiXiXiXiXtXwX9X9XwX9X6X:X$XE #X$X:X9X0XwXwX9X9X0X9X9X9XwXwXtX9X:X&X$X#X#X%X:X:X6X",
"U E #X%X=X:X1X6XqX9XwXwXwXwX7X6X:X;X%X$XE.E $X-XeXfXgXiXuXwXwXwXtXuXuXtXwXqX9XwXwX9X9X:X%X#X#X%X:X8X0XwXwX9XwX9X9XwXwXwXtXwX9X1X&X#X#X$X=X:X1X6X",
"U T #X%X=X;X:X6X6X9XwXrXwXwX7X1X-X%X#XE E E $X:XeXfXgXgXuXtX9X9XwXwXtXwXwXqXqXqXwXwX8X:X%X#X#X$X:X6XwXwXwX0XwX9X9X9XwXwXwXwX9X:X&X$X#X#X%X-X:X6X"
};
